<?xml version="1.0" encoding="utf-8"?>
<!-- Generator: Adobe Illustrator 16.0.4, SVG Export Plug-In . SVG Version: 6.00 Build 0)  -->
<!DOCTYPE svg PUBLIC "-//W3C//DTD SVG 1.1//EN" "http://www.w3.org/Graphics/SVG/1.1/DTD/svg11.dtd">
<svg version="1.1" id="Ebene_1" xmlns="http://www.w3.org/2000/svg" xmlns:xlink="http://www.w3.org/1999/xlink" x="0px" y="0px"
	 width="186px" height="53px" viewBox="0 0 186 53" enable-background="new 0 0 186 53" xml:space="preserve">
<g>
	<defs>
		<rect id="SVGID_1_" x="17.282" y="7.597" width="24.141" height="28.399"/>
	</defs>
	<clipPath id="SVGID_2_">
		<use xlink:href="#SVGID_1_"  overflow="visible"/>
	</clipPath>
	<path clip-path="url(#SVGID_2_)" fill="#A6A8AB" d="M35.218,14.457c-2.441-0.173-4.512,1.307-5.667,1.307
		c-1.173,0-2.98-1.269-4.896-1.234c-2.516,0.036-4.835,1.402-6.133,3.561C15.909,22.435,17.855,28.874,20.4,32.4
		c1.246,1.722,2.731,3.664,4.681,3.594c1.878-0.071,2.588-1.164,4.858-1.164c2.269,0,2.907,1.164,4.894,1.13
		c2.021-0.037,3.302-1.76,4.538-3.492c1.43-2,2.017-3.937,2.053-4.038c-0.045-0.018-3.94-1.447-3.979-5.747
		c-0.035-3.593,3.062-5.321,3.204-5.404C38.89,14.799,36.174,14.525,35.218,14.457"/>
</g>
<g>
	<defs>
		<rect id="SVGID_3_" x="17.282" y="7.595" width="31.468" height="30.167"/>
	</defs>
	<clipPath id="SVGID_4_">
		<use xlink:href="#SVGID_3_"  overflow="visible"/>
	</clipPath>
	<path clip-path="url(#SVGID_4_)" fill="#A6A8AB" d="M33.712,12.13c1.036-1.201,1.734-2.872,1.542-4.534
		c-1.492,0.057-3.296,0.952-4.367,2.151c-0.958,1.062-1.801,2.764-1.571,4.393C30.979,14.263,32.676,13.331,33.712,12.13"/>
</g>
<g>
	<g>
		<path fill="#EB5B27" d="M55.973,21.539l-0.754,2.483h-1.651l2.808-8.762h2.041l2.847,8.762h-1.716l-0.793-2.483H55.973z
			 M58.482,20.329l-0.689-2.158c-0.169-0.533-0.312-1.131-0.442-1.638h-0.026c-0.13,0.507-0.26,1.118-0.416,1.638l-0.676,2.158
			H58.482z"/>
		<path fill="#EB5B27" d="M62.356,19.796c0-0.832-0.026-1.508-0.052-2.106h1.404l0.078,0.975h0.026
			c0.468-0.715,1.209-1.118,2.171-1.118c1.456,0,2.665,1.248,2.665,3.224c0,2.288-1.443,3.393-2.886,3.393
			c-0.793,0-1.456-0.338-1.781-0.845h-0.026v3.276h-1.599V19.796z M63.955,21.369c0,0.156,0.013,0.299,0.052,0.442
			c0.156,0.65,0.728,1.118,1.404,1.118c1.014,0,1.612-0.845,1.612-2.093c0-1.118-0.546-2.028-1.573-2.028
			c-0.663,0-1.274,0.481-1.43,1.183c-0.039,0.13-0.065,0.273-0.065,0.403V21.369z"/>
		<path fill="#EB5B27" d="M69.96,19.796c0-0.832-0.026-1.508-0.052-2.106h1.404l0.078,0.975h0.026
			c0.468-0.715,1.209-1.118,2.171-1.118c1.456,0,2.665,1.248,2.665,3.224c0,2.288-1.443,3.393-2.886,3.393
			c-0.793,0-1.456-0.338-1.781-0.845H71.56v3.276H69.96V19.796z M71.56,21.369c0,0.156,0.013,0.299,0.052,0.442
			c0.156,0.65,0.728,1.118,1.404,1.118c1.014,0,1.612-0.845,1.612-2.093c0-1.118-0.546-2.028-1.573-2.028
			c-0.663,0-1.274,0.481-1.43,1.183c-0.039,0.13-0.065,0.273-0.065,0.403V21.369z"/>
		<path fill="#EB5B27" d="M77.565,14.791h1.612v9.23h-1.612V14.791z"/>
		<path fill="#EB5B27" d="M82.038,21.304c0.039,1.144,0.936,1.638,1.95,1.638c0.74,0,1.273-0.104,1.755-0.286l0.233,1.105
			c-0.546,0.221-1.3,0.39-2.21,0.39c-2.054,0-3.263-1.261-3.263-3.198c0-1.755,1.066-3.406,3.094-3.406
			c2.055,0,2.73,1.69,2.73,3.081c0,0.299-0.026,0.533-0.052,0.676H82.038z M84.82,20.187c0.013-0.585-0.247-1.547-1.313-1.547
			c-0.988,0-1.404,0.897-1.469,1.547H84.82z"/>
		<path fill="#EB5B27" d="M90.37,15.376c0.702-0.117,1.6-0.182,2.548-0.182c1.639,0,2.77,0.338,3.575,1.014
			c0.846,0.689,1.365,1.729,1.365,3.224c0,1.56-0.533,2.73-1.365,3.484c-0.871,0.793-2.262,1.196-3.965,1.196
			c-0.936,0-1.638-0.052-2.158-0.117V15.376z M91.97,22.799c0.221,0.039,0.559,0.039,0.884,0.039
			c2.08,0.013,3.315-1.131,3.315-3.354c0.013-1.937-1.105-3.042-3.107-3.042c-0.507,0-0.871,0.039-1.092,0.091V22.799z"/>
		<path fill="#EB5B27" d="M100.315,21.304c0.039,1.144,0.936,1.638,1.95,1.638c0.74,0,1.273-0.104,1.755-0.286l0.233,1.105
			c-0.546,0.221-1.3,0.39-2.21,0.39c-2.054,0-3.263-1.261-3.263-3.198c0-1.755,1.066-3.406,3.094-3.406
			c2.055,0,2.73,1.69,2.73,3.081c0,0.299-0.026,0.533-0.052,0.676H100.315z M103.098,20.187c0.013-0.585-0.247-1.547-1.313-1.547
			c-0.988,0-1.404,0.897-1.469,1.547H103.098z"/>
		<path fill="#EB5B27" d="M105.814,22.552c0.363,0.221,1.053,0.455,1.625,0.455c0.702,0,1.014-0.286,1.014-0.702
			c0-0.429-0.26-0.65-1.04-0.923c-1.235-0.429-1.755-1.105-1.742-1.846c0-1.118,0.923-1.989,2.393-1.989
			c0.702,0,1.312,0.182,1.677,0.377l-0.312,1.131c-0.273-0.156-0.78-0.364-1.34-0.364c-0.571,0-0.884,0.273-0.884,0.663
			c0,0.403,0.299,0.598,1.105,0.884c1.144,0.416,1.677,1.001,1.689,1.937c0,1.144-0.896,1.976-2.574,1.976
			c-0.767,0-1.455-0.182-1.924-0.442L105.814,22.552z"/>
		<path fill="#EB5B27" d="M113.017,15.922c0,0.481-0.352,0.858-0.91,0.858c-0.533,0-0.885-0.377-0.885-0.858
			c0-0.494,0.364-0.871,0.897-0.871C112.665,15.051,113.003,15.428,113.017,15.922z M111.313,24.021V17.69h1.611v6.331H111.313z"/>
		<path fill="#EB5B27" d="M120.427,17.69c-0.026,0.429-0.053,0.949-0.053,1.82v3.588c0,1.326-0.272,2.275-0.936,2.873
			c-0.663,0.585-1.573,0.767-2.444,0.767c-0.806,0-1.664-0.169-2.21-0.507l0.351-1.209c0.403,0.234,1.079,0.481,1.847,0.481
			c1.04,0,1.82-0.546,1.82-1.911v-0.546h-0.026c-0.364,0.559-1.014,0.936-1.846,0.936c-1.573,0-2.691-1.3-2.691-3.094
			c0-2.08,1.352-3.341,2.873-3.341c0.962,0,1.534,0.468,1.833,0.988h0.026l0.064-0.845H120.427z M118.775,20.226
			c0-0.143-0.013-0.299-0.052-0.429c-0.169-0.585-0.624-1.027-1.3-1.027c-0.897,0-1.561,0.78-1.561,2.067
			c0,1.079,0.546,1.95,1.547,1.95c0.599,0,1.118-0.39,1.3-0.962c0.039-0.169,0.065-0.39,0.065-0.572V20.226z"/>
		<path fill="#EB5B27" d="M122.038,19.575c0-0.728-0.014-1.339-0.053-1.885h1.404l0.078,0.949h0.039
			c0.272-0.494,0.962-1.092,2.015-1.092c1.105,0,2.249,0.715,2.249,2.717v3.757h-1.599v-3.575c0-0.91-0.338-1.599-1.209-1.599
			c-0.637,0-1.079,0.455-1.248,0.936c-0.052,0.143-0.065,0.338-0.065,0.52v3.718h-1.611V19.575z"/>
		<path fill="#EB5B27" d="M133.984,21.539l-0.754,2.483h-1.65l2.808-8.762h2.041l2.848,8.762h-1.717l-0.793-2.483H133.984z
			 M136.494,20.329l-0.689-2.158c-0.169-0.533-0.312-1.131-0.441-1.638h-0.026c-0.13,0.507-0.26,1.118-0.416,1.638l-0.676,2.158
			H136.494z"/>
		<path fill="#EB5B27" d="M141.044,17.69l0.663,2.873c0.143,0.676,0.286,1.365,0.402,2.054h0.026
			c0.13-0.689,0.338-1.391,0.521-2.041l0.818-2.886h1.3l0.794,2.808c0.194,0.741,0.363,1.43,0.507,2.119h0.025
			c0.104-0.689,0.247-1.378,0.416-2.119l0.702-2.808h1.573l-1.989,6.331h-1.481l-0.755-2.574c-0.194-0.663-0.338-1.261-0.48-2.028
			h-0.026c-0.13,0.78-0.299,1.404-0.48,2.028l-0.807,2.574h-1.495l-1.872-6.331H141.044z"/>
		<path fill="#EB5B27" d="M153.303,24.021l-0.104-0.702h-0.039c-0.391,0.494-1.053,0.845-1.872,0.845
			c-1.274,0-1.989-0.923-1.989-1.885c0-1.599,1.417-2.405,3.757-2.392v-0.104c0-0.416-0.169-1.105-1.287-1.105
			c-0.624,0-1.273,0.195-1.703,0.468l-0.312-1.04c0.468-0.286,1.287-0.559,2.288-0.559c2.028,0,2.613,1.287,2.613,2.665V22.5
			c0,0.572,0.025,1.131,0.091,1.521H153.303z M153.095,20.927c-1.131-0.026-2.21,0.221-2.21,1.183c0,0.624,0.403,0.91,0.91,0.91
			c0.637,0,1.105-0.416,1.248-0.871c0.039-0.117,0.052-0.247,0.052-0.351V20.927z"/>
		<path fill="#EB5B27" d="M156.345,19.731c0-0.858-0.014-1.469-0.053-2.041h1.392l0.052,1.209h0.052
			c0.312-0.897,1.054-1.352,1.729-1.352c0.156,0,0.247,0.013,0.377,0.039v1.508c-0.13-0.026-0.273-0.052-0.468-0.052
			c-0.768,0-1.287,0.494-1.431,1.209c-0.025,0.143-0.052,0.312-0.052,0.494v3.276h-1.599V19.731z"/>
		<path fill="#EB5B27" d="M166.692,14.791v7.449c0,0.65,0.026,1.352,0.052,1.781h-1.43l-0.065-1.001h-0.025
			c-0.377,0.702-1.145,1.144-2.067,1.144c-1.508,0-2.704-1.287-2.704-3.237c-0.013-2.119,1.313-3.38,2.834-3.38
			c0.871,0,1.495,0.364,1.781,0.832h0.026v-3.588H166.692z M165.094,20.329c0-0.13-0.014-0.286-0.039-0.416
			c-0.144-0.624-0.65-1.131-1.379-1.131c-1.026,0-1.599,0.91-1.599,2.093c0,1.157,0.572,2.002,1.586,2.002
			c0.65,0,1.222-0.442,1.378-1.131c0.039-0.143,0.053-0.299,0.053-0.468V20.329z"/>
	</g>
</g>
<g>
	<g>
		<path fill="#A6A8AA" d="M53.828,31.004c0.292-0.061,0.826-0.105,1.344-0.105c0.683,0,1.104,0.082,1.449,0.322
			c0.315,0.188,0.525,0.518,0.525,0.946c0,0.466-0.292,0.894-0.841,1.097v0.014c0.533,0.136,1.021,0.557,1.021,1.254
			c0,0.451-0.195,0.804-0.488,1.044c-0.36,0.315-0.954,0.474-1.877,0.474c-0.51,0-0.901-0.038-1.133-0.068V31.004z M54.744,33h0.473
			c0.638,0,0.999-0.301,0.999-0.729c0-0.473-0.36-0.689-0.946-0.689c-0.271,0-0.428,0.014-0.526,0.037V33z M54.744,35.328
			c0.12,0.014,0.278,0.021,0.488,0.021c0.593,0,1.119-0.225,1.119-0.848c0-0.586-0.511-0.826-1.149-0.826h-0.458V35.328z"/>
		<path fill="#A6A8AA" d="M58.801,34.427c0.022,0.661,0.541,0.946,1.126,0.946c0.428,0,0.735-0.061,1.013-0.166l0.135,0.639
			c-0.315,0.127-0.75,0.225-1.276,0.225c-1.186,0-1.884-0.729-1.884-1.846c0-1.014,0.616-1.968,1.787-1.968
			c1.187,0,1.577,0.976,1.577,1.779c0,0.173-0.015,0.308-0.03,0.391H58.801z M60.408,33.781c0.007-0.338-0.143-0.894-0.758-0.894
			c-0.571,0-0.811,0.519-0.849,0.894H60.408z"/>
		<path fill="#A6A8AA" d="M61.973,35.147c0.21,0.128,0.608,0.263,0.938,0.263c0.406,0,0.586-0.166,0.586-0.406
			c0-0.247-0.15-0.375-0.601-0.532c-0.713-0.247-1.014-0.638-1.006-1.065c0-0.646,0.533-1.149,1.381-1.149
			c0.406,0,0.758,0.104,0.969,0.218l-0.18,0.653c-0.158-0.091-0.451-0.21-0.773-0.21c-0.33,0-0.51,0.157-0.51,0.383
			c0,0.232,0.172,0.346,0.638,0.51c0.66,0.24,0.968,0.578,0.976,1.119c0,0.66-0.518,1.141-1.486,1.141
			c-0.443,0-0.841-0.105-1.111-0.255L61.973,35.147z"/>
		<path fill="#A6A8AA" d="M66.204,31.296v1.044h0.878v0.69h-0.878v1.614c0,0.443,0.12,0.676,0.473,0.676
			c0.158,0,0.278-0.023,0.36-0.045l0.015,0.705c-0.135,0.053-0.375,0.09-0.668,0.09c-0.338,0-0.623-0.112-0.796-0.3
			c-0.195-0.21-0.285-0.54-0.285-1.021v-1.72h-0.526v-0.69h0.526v-0.826L66.204,31.296z"/>
		<path fill="#A6A8AA" d="M73.639,33.932c-0.03-0.654-0.067-1.441-0.06-2.125h-0.022c-0.165,0.615-0.375,1.299-0.601,1.938
			l-0.736,2.191h-0.713l-0.675-2.162c-0.195-0.646-0.375-1.336-0.511-1.967h-0.015c-0.022,0.66-0.052,1.464-0.09,2.154l-0.113,2.035
			H69.24l0.338-5.061h1.216l0.661,2.035c0.18,0.592,0.338,1.193,0.465,1.756h0.022c0.135-0.548,0.308-1.171,0.503-1.764l0.698-2.027
			h1.201l0.293,5.061h-0.901L73.639,33.932z"/>
		<path fill="#A6A8AA" d="M77.619,35.996l-0.06-0.406h-0.023c-0.225,0.285-0.608,0.488-1.081,0.488
			c-0.735,0-1.148-0.533-1.148-1.088c0-0.924,0.818-1.39,2.169-1.382v-0.06c0-0.24-0.098-0.639-0.743-0.639
			c-0.36,0-0.735,0.113-0.983,0.27l-0.18-0.6c0.271-0.166,0.743-0.323,1.321-0.323c1.171,0,1.509,0.743,1.509,1.539v1.321
			c0,0.33,0.015,0.653,0.052,0.879H77.619z M77.499,34.209c-0.653-0.016-1.276,0.127-1.276,0.684c0,0.359,0.232,0.525,0.525,0.525
			c0.368,0,0.638-0.24,0.721-0.504c0.022-0.066,0.03-0.143,0.03-0.202V34.209z"/>
		<path fill="#A6A8AA" d="M82.061,35.883c-0.195,0.09-0.578,0.188-1.036,0.188c-1.142,0-1.885-0.729-1.885-1.861
			c0-1.096,0.751-1.952,2.034-1.952c0.338,0,0.684,0.075,0.894,0.173l-0.165,0.69c-0.15-0.067-0.368-0.143-0.698-0.143
			c-0.706,0-1.126,0.519-1.118,1.187c0,0.75,0.487,1.178,1.118,1.178c0.323,0,0.548-0.066,0.729-0.143L82.061,35.883z"/>
		<path fill="#A6A8AA" d="M88.819,33.413c0,1.696-1.028,2.665-2.425,2.665c-1.427,0-2.327-1.088-2.327-2.574
			c0-1.555,0.976-2.65,2.402-2.65C87.948,30.854,88.819,31.972,88.819,33.413z M85.043,33.488c0,1.028,0.519,1.847,1.404,1.847
			c0.893,0,1.396-0.825,1.396-1.884c0-0.954-0.474-1.855-1.396-1.855C85.531,31.596,85.043,32.445,85.043,33.488z"/>
		<path fill="#A6A8AA" d="M89.587,34.99c0.3,0.172,0.751,0.322,1.224,0.322c0.593,0,0.923-0.277,0.923-0.691
			c0-0.383-0.255-0.607-0.9-0.84C90,33.48,89.467,33.037,89.467,32.31c0-0.825,0.69-1.456,1.786-1.456
			c0.549,0,0.954,0.119,1.217,0.255l-0.226,0.743c-0.18-0.098-0.533-0.24-1.006-0.24c-0.586,0-0.841,0.315-0.841,0.607
			c0,0.391,0.293,0.571,0.969,0.834c0.878,0.33,1.306,0.773,1.306,1.502c0,0.811-0.615,1.516-1.922,1.516
			c-0.533,0-1.088-0.15-1.366-0.314L89.587,34.99z"/>
		<path fill="#A6A8AA" d="M97.765,35.996l-0.548-1.006c-0.218-0.391-0.36-0.661-0.503-0.954h-0.022
			c-0.12,0.293-0.256,0.563-0.458,0.954l-0.503,1.006h-1.059l1.501-2.561l-1.441-2.5h1.059l0.548,1.043
			c0.166,0.316,0.285,0.564,0.421,0.85h0.015c0.136-0.316,0.24-0.541,0.398-0.85l0.54-1.043h1.059l-1.479,2.471l1.539,2.59H97.765z"
			/>
		<path fill="#A6A8AA" d="M101.04,34.99c0.3,0.172,0.751,0.322,1.224,0.322c0.593,0,0.923-0.277,0.923-0.691
			c0-0.383-0.255-0.607-0.9-0.84c-0.833-0.301-1.366-0.744-1.366-1.472c0-0.825,0.69-1.456,1.786-1.456
			c0.549,0,0.954,0.119,1.217,0.255l-0.226,0.743c-0.18-0.098-0.533-0.24-1.006-0.24c-0.586,0-0.841,0.315-0.841,0.607
			c0,0.391,0.293,0.571,0.969,0.834c0.878,0.33,1.306,0.773,1.306,1.502c0,0.811-0.615,1.516-1.922,1.516
			c-0.533,0-1.088-0.15-1.366-0.314L101.04,34.99z"/>
		<path fill="#A6A8AA" d="M105.945,31.296v1.044h0.879v0.69h-0.879v1.614c0,0.443,0.12,0.676,0.474,0.676
			c0.157,0,0.277-0.023,0.36-0.045l0.015,0.705c-0.135,0.053-0.375,0.09-0.668,0.09c-0.338,0-0.623-0.112-0.796-0.3
			c-0.195-0.21-0.285-0.54-0.285-1.021v-1.72h-0.525v-0.69h0.525v-0.826L105.945,31.296z"/>
		<path fill="#A6A8AA" d="M110.792,34.899c0,0.436,0.015,0.796,0.03,1.097h-0.811l-0.045-0.557h-0.016
			c-0.157,0.264-0.518,0.639-1.171,0.639c-0.668,0-1.276-0.398-1.276-1.592V32.34h0.924v1.989c0,0.608,0.194,0.999,0.683,0.999
			c0.368,0,0.608-0.264,0.706-0.496c0.029-0.082,0.053-0.18,0.053-0.285V32.34h0.923V34.899z"/>
		<path fill="#A6A8AA" d="M115.157,30.666v4.301c0,0.375,0.015,0.781,0.03,1.029h-0.826l-0.037-0.578h-0.016
			c-0.218,0.404-0.66,0.66-1.193,0.66c-0.871,0-1.562-0.743-1.562-1.869c-0.008-1.224,0.759-1.952,1.637-1.952
			c0.503,0,0.863,0.21,1.028,0.48h0.016v-2.071H115.157z M114.234,33.863c0-0.074-0.008-0.165-0.023-0.24
			c-0.082-0.359-0.375-0.652-0.795-0.652c-0.594,0-0.924,0.525-0.924,1.208c0,0.669,0.33,1.156,0.916,1.156
			c0.375,0,0.705-0.255,0.796-0.653c0.022-0.082,0.03-0.172,0.03-0.27V33.863z"/>
		<path fill="#A6A8AA" d="M116.797,34.427c0.022,0.661,0.541,0.946,1.126,0.946c0.429,0,0.736-0.061,1.014-0.166l0.136,0.639
			c-0.315,0.127-0.751,0.225-1.276,0.225c-1.187,0-1.885-0.729-1.885-1.846c0-1.014,0.615-1.968,1.787-1.968
			c1.186,0,1.576,0.976,1.576,1.779c0,0.173-0.015,0.308-0.03,0.391H116.797z M118.403,33.781c0.008-0.338-0.143-0.894-0.758-0.894
			c-0.57,0-0.811,0.519-0.849,0.894H118.403z"/>
		<path fill="#A6A8AA" d="M120.014,33.428c0-0.42-0.007-0.773-0.029-1.088h0.811l0.045,0.548h0.022
			c0.157-0.286,0.556-0.631,1.164-0.631c0.638,0,1.299,0.413,1.299,1.569v2.17h-0.924v-2.064c0-0.525-0.195-0.924-0.698-0.924
			c-0.368,0-0.623,0.263-0.721,0.541c-0.03,0.082-0.037,0.195-0.037,0.3v2.147h-0.932V33.428z"/>
		<path fill="#A6A8AA" d="M125.325,31.296v1.044h0.879v0.69h-0.879v1.614c0,0.443,0.12,0.676,0.474,0.676
			c0.157,0,0.277-0.023,0.36-0.045l0.015,0.705c-0.135,0.053-0.375,0.09-0.668,0.09c-0.338,0-0.623-0.112-0.796-0.3
			c-0.195-0.21-0.285-0.54-0.285-1.021v-1.72h-0.525v-0.69h0.525v-0.826L125.325,31.296z"/>
		<path fill="#A6A8AA" d="M128.489,31.004c0.33-0.061,0.788-0.105,1.411-0.105c0.676,0,1.171,0.143,1.494,0.412
			c0.3,0.248,0.495,0.646,0.495,1.119c0,0.48-0.149,0.879-0.436,1.148c-0.367,0.368-0.945,0.541-1.599,0.541
			c-0.173,0-0.33-0.008-0.45-0.03v1.907h-0.916V31.004z M129.405,33.36c0.112,0.03,0.263,0.038,0.45,0.038
			c0.69,0,1.111-0.338,1.111-0.932c0-0.562-0.391-0.863-1.029-0.863c-0.255,0-0.435,0.023-0.532,0.045V33.36z"/>
		<path fill="#A6A8AA" d="M132.554,33.518c0-0.494-0.007-0.848-0.029-1.178h0.803l0.03,0.697h0.03c0.18-0.518,0.607-0.78,0.998-0.78
			c0.09,0,0.143,0.008,0.218,0.022v0.871c-0.075-0.016-0.157-0.03-0.271-0.03c-0.442,0-0.743,0.286-0.825,0.698
			c-0.016,0.082-0.03,0.18-0.03,0.285v1.893h-0.924V33.518z"/>
		<path fill="#A6A8AA" d="M138.633,34.134c0,1.344-0.946,1.944-1.877,1.944c-1.036,0-1.832-0.713-1.832-1.885
			c0-1.201,0.788-1.937,1.892-1.937C137.904,32.257,138.633,33.023,138.633,34.134z M135.877,34.172
			c0,0.705,0.346,1.238,0.909,1.238c0.525,0,0.893-0.518,0.893-1.254c0-0.57-0.255-1.224-0.886-1.224
			C136.14,32.933,135.877,33.562,135.877,34.172z"/>
		<path fill="#A6A8AA" d="M142.757,30.666v4.301c0,0.375,0.015,0.781,0.03,1.029h-0.826l-0.037-0.578h-0.016
			c-0.218,0.404-0.66,0.66-1.193,0.66c-0.871,0-1.562-0.743-1.562-1.869c-0.008-1.224,0.759-1.952,1.637-1.952
			c0.503,0,0.863,0.21,1.028,0.48h0.016v-2.071H142.757z M141.834,33.863c0-0.074-0.008-0.165-0.023-0.24
			c-0.082-0.359-0.375-0.652-0.795-0.652c-0.594,0-0.924,0.525-0.924,1.208c0,0.669,0.33,1.156,0.916,1.156
			c0.375,0,0.705-0.255,0.796-0.653c0.022-0.082,0.03-0.172,0.03-0.27V33.863z"/>
		<path fill="#A6A8AA" d="M147.017,34.899c0,0.436,0.015,0.796,0.03,1.097h-0.811l-0.045-0.557h-0.016
			c-0.157,0.264-0.518,0.639-1.171,0.639c-0.668,0-1.276-0.398-1.276-1.592V32.34h0.924v1.989c0,0.608,0.194,0.999,0.683,0.999
			c0.368,0,0.608-0.264,0.706-0.496c0.029-0.082,0.053-0.18,0.053-0.285V32.34h0.923V34.899z"/>
		<path fill="#A6A8AA" d="M150.699,35.883c-0.195,0.09-0.578,0.188-1.036,0.188c-1.142,0-1.885-0.729-1.885-1.861
			c0-1.096,0.751-1.952,2.034-1.952c0.338,0,0.684,0.075,0.894,0.173l-0.165,0.69c-0.15-0.067-0.368-0.143-0.698-0.143
			c-0.706,0-1.126,0.519-1.118,1.187c0,0.75,0.487,1.178,1.118,1.178c0.323,0,0.548-0.066,0.729-0.143L150.699,35.883z"/>
		<path fill="#A6A8AA" d="M152.55,31.296v1.044h0.879v0.69h-0.879v1.614c0,0.443,0.12,0.676,0.474,0.676
			c0.157,0,0.277-0.023,0.36-0.045l0.015,0.705c-0.135,0.053-0.375,0.09-0.668,0.09c-0.338,0-0.623-0.112-0.796-0.3
			c-0.195-0.21-0.285-0.54-0.285-1.021v-1.72h-0.525v-0.69h0.525v-0.826L152.55,31.296z"/>
		<path fill="#A6A8AA" d="M53.618,45.996v-0.563l0.578-0.533c1.148-1.065,1.689-1.651,1.697-2.298c0-0.435-0.233-0.817-0.871-0.817
			c-0.428,0-0.796,0.218-1.043,0.405l-0.27-0.653c0.353-0.285,0.886-0.503,1.501-0.503c1.081,0,1.606,0.684,1.606,1.479
			c0,0.856-0.616,1.547-1.464,2.336l-0.428,0.367v0.016h2.005v0.766H53.618z"/>
		<path fill="#A6A8AA" d="M61.083,43.525c0,1.569-0.616,2.553-1.779,2.553c-1.126,0-1.727-1.021-1.734-2.508
			c0-1.516,0.646-2.537,1.787-2.537C60.536,41.033,61.083,42.084,61.083,43.525z M58.501,43.57
			c-0.007,1.187,0.323,1.803,0.833,1.803c0.541,0,0.826-0.661,0.826-1.832c0-1.134-0.27-1.803-0.826-1.803
			C58.839,41.738,58.494,42.348,58.501,43.57z"/>
		<path fill="#A6A8AA" d="M65.104,43.525c0,1.569-0.615,2.553-1.779,2.553c-1.126,0-1.727-1.021-1.734-2.508
			c0-1.516,0.646-2.537,1.787-2.537C64.556,41.033,65.104,42.084,65.104,43.525z M62.521,43.57
			c-0.007,1.187,0.323,1.803,0.833,1.803c0.541,0,0.826-0.661,0.826-1.832c0-1.134-0.27-1.803-0.826-1.803
			C62.859,41.738,62.514,42.348,62.521,43.57z"/>
		<path fill="#A6A8AA" d="M65.865,45.042c0.188,0.112,0.646,0.3,1.111,0.3c0.706,0,0.991-0.396,0.983-0.78
			c0-0.577-0.541-0.825-1.104-0.825h-0.428v-0.676h0.413c0.428,0,0.969-0.195,0.969-0.684c0-0.33-0.248-0.607-0.781-0.607
			c-0.398,0-0.796,0.172-0.999,0.307l-0.21-0.668c0.278-0.195,0.818-0.375,1.404-0.375c1.006,0,1.524,0.556,1.524,1.193
			c0,0.511-0.3,0.932-0.9,1.142v0.015c0.593,0.105,1.073,0.556,1.073,1.217c0,0.826-0.69,1.479-1.899,1.479
			c-0.593,0-1.104-0.166-1.366-0.338L65.865,45.042z"/>
		<path fill="#A6A8AA" d="M72.009,45.996l-1.239-5.061h0.983l0.48,2.297c0.127,0.616,0.248,1.262,0.33,1.765h0.015
			c0.083-0.532,0.225-1.134,0.368-1.771l0.548-2.29h0.968l0.503,2.328c0.128,0.6,0.233,1.163,0.308,1.711h0.015
			c0.09-0.556,0.21-1.134,0.346-1.749l0.525-2.29h0.938l-1.359,5.061h-0.991l-0.525-2.381c-0.127-0.578-0.218-1.059-0.278-1.605
			h-0.015c-0.09,0.54-0.188,1.027-0.338,1.605l-0.586,2.381H72.009z"/>
		<path fill="#A6A8AA" d="M78.489,41.318c0,0.277-0.203,0.496-0.525,0.496c-0.308,0-0.511-0.219-0.511-0.496
			c0-0.285,0.21-0.503,0.518-0.503C78.286,40.815,78.481,41.033,78.489,41.318z M77.505,45.996V42.34h0.931v3.656H77.505z"/>
		<path fill="#A6A8AA" d="M79.425,43.428c0-0.42-0.007-0.773-0.029-1.088h0.811l0.045,0.548h0.022
			c0.158-0.286,0.556-0.631,1.164-0.631c0.638,0,1.299,0.413,1.299,1.569v2.17h-0.924v-2.064c0-0.525-0.195-0.924-0.698-0.924
			c-0.368,0-0.623,0.263-0.721,0.541c-0.03,0.082-0.037,0.195-0.037,0.3v2.147h-0.932V43.428z"/>
		<path fill="#A6A8AA" d="M83.715,43.428c0-0.42-0.007-0.773-0.029-1.088h0.811l0.045,0.548h0.022
			c0.157-0.286,0.556-0.631,1.164-0.631c0.638,0,1.299,0.413,1.299,1.569v2.17h-0.924v-2.064c0-0.525-0.195-0.924-0.698-0.924
			c-0.368,0-0.623,0.263-0.721,0.541c-0.03,0.082-0.037,0.195-0.037,0.3v2.147h-0.932V43.428z"/>
		<path fill="#A6A8AA" d="M88.658,44.427c0.022,0.661,0.541,0.946,1.126,0.946c0.429,0,0.736-0.061,1.014-0.166l0.136,0.639
			c-0.315,0.127-0.751,0.225-1.276,0.225c-1.187,0-1.885-0.729-1.885-1.846c0-1.014,0.615-1.968,1.787-1.968
			c1.186,0,1.576,0.976,1.576,1.779c0,0.173-0.015,0.308-0.03,0.391H88.658z M90.265,43.781c0.008-0.338-0.143-0.894-0.758-0.894
			c-0.57,0-0.811,0.519-0.849,0.894H90.265z"/>
		<path fill="#A6A8AA" d="M91.875,43.518c0-0.494-0.007-0.848-0.029-1.178h0.803l0.03,0.697h0.03c0.18-0.518,0.607-0.78,0.998-0.78
			c0.09,0,0.143,0.008,0.218,0.022v0.871c-0.075-0.016-0.157-0.03-0.271-0.03c-0.442,0-0.743,0.286-0.825,0.698
			c-0.016,0.082-0.03,0.18-0.03,0.285v1.893h-0.924V43.518z"/>
	</g>
</g>
</svg>
