<?xml version="1.0" encoding="utf-8"?>
<!-- Generator: Adobe Illustrator 16.0.4, SVG Export Plug-In . SVG Version: 6.00 Build 0)  -->
<!DOCTYPE svg PUBLIC "-//W3C//DTD SVG 1.1//EN" "http://www.w3.org/Graphics/SVG/1.1/DTD/svg11.dtd">
<svg version="1.1" id="Ebene_1" xmlns="http://www.w3.org/2000/svg" xmlns:xlink="http://www.w3.org/1999/xlink" x="0px" y="0px"
	 width="279.8px" height="286.6px" viewBox="0 0 279.8 286.6" enable-background="new 0 0 279.8 286.6" xml:space="preserve">
<rect x="0.5" y="0.5" fill-rule="evenodd" clip-rule="evenodd" fill="#CBCBCB" width="16.4" height="16.8"/>
<rect x="16.9" y="0.5" fill-rule="evenodd" clip-rule="evenodd" fill="#CBCBCB" width="16.4" height="16.8"/>
<rect x="33.3" y="0.5" fill-rule="evenodd" clip-rule="evenodd" fill="#CBCBCB" width="16.4" height="16.8"/>
<rect x="49.7" y="0.5" fill-rule="evenodd" clip-rule="evenodd" fill="#CBCBCB" width="16.4" height="16.8"/>
<rect x="66.1" y="0.5" fill-rule="evenodd" clip-rule="evenodd" fill="#CBCBCB" width="16.4" height="16.8"/>
<rect x="82.5" y="0.5" fill-rule="evenodd" clip-rule="evenodd" fill="#CBCBCB" width="16.4" height="16.8"/>
<rect x="98.9" y="0.5" fill-rule="evenodd" clip-rule="evenodd" fill="#CBCBCB" width="16.4" height="16.8"/>
<rect x="115.3" y="0.5" fill-rule="evenodd" clip-rule="evenodd" fill="#CBCBCB" width="16.4" height="16.8"/>
<rect x="131.7" y="0.5" fill-rule="evenodd" clip-rule="evenodd" fill="#CBCBCB" width="16.4" height="16.8"/>
<rect x="148.1" y="0.5" fill-rule="evenodd" clip-rule="evenodd" fill="#CBCBCB" width="16.4" height="16.8"/>
<rect x="164.5" y="0.5" fill-rule="evenodd" clip-rule="evenodd" fill="#CBCBCB" width="16.4" height="16.8"/>
<rect x="180.9" y="0.5" fill-rule="evenodd" clip-rule="evenodd" fill="#CBCBCB" width="16.399" height="16.8"/>
<rect x="197.3" y="0.5" fill-rule="evenodd" clip-rule="evenodd" fill="#CBCBCB" width="16.4" height="16.8"/>
<rect x="213.7" y="0.5" fill-rule="evenodd" clip-rule="evenodd" fill="#CBCBCB" width="16.4" height="16.8"/>
<rect x="230.101" y="0.5" fill-rule="evenodd" clip-rule="evenodd" fill="#CBCBCB" width="16.399" height="16.8"/>
<rect x="246.5" y="0.5" fill-rule="evenodd" clip-rule="evenodd" fill="#CBCBCB" width="16.4" height="16.8"/>
<rect x="262.9" y="0.5" fill-rule="evenodd" clip-rule="evenodd" fill="#CBCBCB" width="16.399" height="16.8"/>
<rect x="0.5" y="17.3" fill-rule="evenodd" clip-rule="evenodd" fill="#E7E7E7" width="16.4" height="16.8"/>
<rect x="16.9" y="17.3" fill-rule="evenodd" clip-rule="evenodd" fill="#7030A0" width="16.4" height="16.8"/>
<rect x="82.5" y="17.3" fill-rule="evenodd" clip-rule="evenodd" fill="#FF0000" width="16.4" height="16.8"/>
<rect x="98.9" y="17.3" fill-rule="evenodd" clip-rule="evenodd" fill="#FF0000" width="16.4" height="16.8"/>
<rect x="115.3" y="17.3" fill-rule="evenodd" clip-rule="evenodd" fill="#00B050" width="16.4" height="16.8"/>
<rect x="131.7" y="17.3" fill-rule="evenodd" clip-rule="evenodd" fill="#00B050" width="16.4" height="16.8"/>
<rect x="148.1" y="17.3" fill-rule="evenodd" clip-rule="evenodd" fill="#00B050" width="16.4" height="16.8"/>
<rect x="164.5" y="17.3" fill-rule="evenodd" clip-rule="evenodd" fill="#00B050" width="16.4" height="16.8"/>
<rect x="180.9" y="17.3" fill-rule="evenodd" clip-rule="evenodd" fill="#FFC000" width="16.399" height="16.8"/>
<rect x="197.3" y="17.3" fill-rule="evenodd" clip-rule="evenodd" fill="#FFC000" width="16.4" height="16.8"/>
<rect x="213.7" y="17.3" fill-rule="evenodd" clip-rule="evenodd" fill="#FFC000" width="16.4" height="16.8"/>
<rect x="230.101" y="17.3" fill-rule="evenodd" clip-rule="evenodd" fill="#FFC000" width="16.399" height="16.8"/>
<rect x="246.5" y="17.3" fill-rule="evenodd" clip-rule="evenodd" fill="#8EB4E3" width="16.4" height="16.8"/>
<rect x="262.9" y="17.3" fill-rule="evenodd" clip-rule="evenodd" fill="#8EB4E3" width="16.399" height="16.8"/>
<rect x="0.5" y="34.1" fill-rule="evenodd" clip-rule="evenodd" fill="#CBCBCB" width="16.4" height="16.8"/>
<rect x="16.9" y="34.1" fill-rule="evenodd" clip-rule="evenodd" fill="#7030A0" width="16.4" height="16.8"/>
<rect x="33.3" y="34.1" fill-rule="evenodd" clip-rule="evenodd" fill="#7030A0" width="16.4" height="16.8"/>
<rect x="115.3" y="34.1" fill-rule="evenodd" clip-rule="evenodd" fill="#00B050" width="16.4" height="16.8"/>
<rect x="131.7" y="34.1" fill-rule="evenodd" clip-rule="evenodd" fill="#00B050" width="16.4" height="16.8"/>
<rect x="148.1" y="34.1" fill-rule="evenodd" clip-rule="evenodd" fill="#00B050" width="16.4" height="16.8"/>
<rect x="164.5" y="34.1" fill-rule="evenodd" clip-rule="evenodd" fill="#00B050" width="16.4" height="16.8"/>
<rect x="180.9" y="34.1" fill-rule="evenodd" clip-rule="evenodd" fill="#FFC000" width="16.399" height="16.8"/>
<rect x="197.3" y="34.1" fill-rule="evenodd" clip-rule="evenodd" fill="#FFC000" width="16.4" height="16.8"/>
<rect x="213.7" y="34.1" fill-rule="evenodd" clip-rule="evenodd" fill="#FFC000" width="16.4" height="16.8"/>
<rect x="230.101" y="34.1" fill-rule="evenodd" clip-rule="evenodd" fill="#FFC000" width="16.399" height="16.8"/>
<rect x="246.5" y="34.1" fill-rule="evenodd" clip-rule="evenodd" fill="#8EB4E3" width="16.4" height="16.8"/>
<rect x="262.9" y="34.1" fill-rule="evenodd" clip-rule="evenodd" fill="#8EB4E3" width="16.399" height="16.8"/>
<rect x="0.5" y="50.9" fill-rule="evenodd" clip-rule="evenodd" fill="#E7E7E7" width="16.4" height="16.8"/>
<rect x="16.9" y="50.9" fill-rule="evenodd" clip-rule="evenodd" fill="#7030A0" width="16.4" height="16.8"/>
<rect x="33.3" y="50.9" fill-rule="evenodd" clip-rule="evenodd" fill="#7030A0" width="16.4" height="16.8"/>
<rect x="49.7" y="50.9" fill-rule="evenodd" clip-rule="evenodd" fill="#FF0000" width="16.4" height="16.8"/>
<rect x="115.3" y="50.9" fill-rule="evenodd" clip-rule="evenodd" fill="#00B050" width="16.4" height="16.8"/>
<rect x="131.7" y="50.9" fill-rule="evenodd" clip-rule="evenodd" fill="#00B050" width="16.4" height="16.8"/>
<rect x="148.1" y="50.9" fill-rule="evenodd" clip-rule="evenodd" fill="#00B050" width="16.4" height="16.8"/>
<rect x="164.5" y="50.9" fill-rule="evenodd" clip-rule="evenodd" fill="#00B050" width="16.4" height="16.8"/>
<rect x="180.9" y="50.9" fill-rule="evenodd" clip-rule="evenodd" fill="#FFC000" width="16.399" height="16.8"/>
<rect x="197.3" y="50.9" fill-rule="evenodd" clip-rule="evenodd" fill="#FFC000" width="16.4" height="16.8"/>
<rect x="213.7" y="50.9" fill-rule="evenodd" clip-rule="evenodd" fill="#FFC000" width="16.4" height="16.8"/>
<rect x="230.101" y="50.9" fill-rule="evenodd" clip-rule="evenodd" fill="#FFC000" width="16.399" height="16.8"/>
<rect x="246.5" y="50.9" fill-rule="evenodd" clip-rule="evenodd" fill="#8EB4E3" width="16.4" height="16.8"/>
<rect x="262.9" y="50.9" fill-rule="evenodd" clip-rule="evenodd" fill="#8EB4E3" width="16.399" height="16.8"/>
<rect x="0.5" y="67.7" fill-rule="evenodd" clip-rule="evenodd" fill="#CBCBCB" width="16.4" height="16.8"/>
<rect x="16.9" y="67.7" fill-rule="evenodd" clip-rule="evenodd" fill="#7030A0" width="16.4" height="16.8"/>
<rect x="33.3" y="67.7" fill-rule="evenodd" clip-rule="evenodd" fill="#7030A0" width="16.4" height="16.8"/>
<rect x="49.7" y="67.7" fill-rule="evenodd" clip-rule="evenodd" fill="#FF0000" width="16.4" height="16.8"/>
<rect x="66.1" y="67.7" fill-rule="evenodd" clip-rule="evenodd" fill="#FF0000" width="16.4" height="16.8"/>
<rect x="148.1" y="67.7" fill-rule="evenodd" clip-rule="evenodd" fill="#00B050" width="16.4" height="16.8"/>
<rect x="164.5" y="67.7" fill-rule="evenodd" clip-rule="evenodd" fill="#00B050" width="16.4" height="16.8"/>
<rect x="180.9" y="67.7" fill-rule="evenodd" clip-rule="evenodd" fill="#FFC000" width="16.399" height="16.8"/>
<rect x="197.3" y="67.7" fill-rule="evenodd" clip-rule="evenodd" fill="#FFC000" width="16.4" height="16.8"/>
<rect x="213.7" y="67.7" fill-rule="evenodd" clip-rule="evenodd" fill="#FFC000" width="16.4" height="16.8"/>
<rect x="230.101" y="67.7" fill-rule="evenodd" clip-rule="evenodd" fill="#FFC000" width="16.399" height="16.8"/>
<rect x="246.5" y="67.7" fill-rule="evenodd" clip-rule="evenodd" fill="#8EB4E3" width="16.4" height="16.8"/>
<rect x="262.9" y="67.7" fill-rule="evenodd" clip-rule="evenodd" fill="#8EB4E3" width="16.399" height="16.8"/>
<rect x="0.5" y="84.5" fill-rule="evenodd" clip-rule="evenodd" fill="#E7E7E7" width="16.4" height="16.8"/>
<rect x="16.9" y="84.5" fill-rule="evenodd" clip-rule="evenodd" fill="#7030A0" width="16.4" height="16.8"/>
<rect x="33.3" y="84.5" fill-rule="evenodd" clip-rule="evenodd" fill="#7030A0" width="16.4" height="16.8"/>
<rect x="49.7" y="84.5" fill-rule="evenodd" clip-rule="evenodd" fill="#FF0000" width="16.4" height="16.8"/>
<rect x="66.1" y="84.5" fill-rule="evenodd" clip-rule="evenodd" fill="#FF0000" width="16.4" height="16.8"/>
<rect x="82.5" y="84.5" fill-rule="evenodd" clip-rule="evenodd" fill="#FF0000" width="16.4" height="16.8"/>
<rect x="148.1" y="84.5" fill-rule="evenodd" clip-rule="evenodd" fill="#00B050" width="16.4" height="16.8"/>
<rect x="164.5" y="84.5" fill-rule="evenodd" clip-rule="evenodd" fill="#00B050" width="16.4" height="16.8"/>
<rect x="180.9" y="84.5" fill-rule="evenodd" clip-rule="evenodd" fill="#FFC000" width="16.399" height="16.8"/>
<rect x="197.3" y="84.5" fill-rule="evenodd" clip-rule="evenodd" fill="#FFC000" width="16.4" height="16.8"/>
<rect x="213.7" y="84.5" fill-rule="evenodd" clip-rule="evenodd" fill="#FFC000" width="16.4" height="16.8"/>
<rect x="230.101" y="84.5" fill-rule="evenodd" clip-rule="evenodd" fill="#FFC000" width="16.399" height="16.8"/>
<rect x="246.5" y="84.5" fill-rule="evenodd" clip-rule="evenodd" fill="#8EB4E3" width="16.4" height="16.8"/>
<rect x="262.9" y="84.5" fill-rule="evenodd" clip-rule="evenodd" fill="#8EB4E3" width="16.399" height="16.8"/>
<rect x="0.5" y="101.3" fill-rule="evenodd" clip-rule="evenodd" fill="#CBCBCB" width="16.4" height="16.8"/>
<rect x="16.9" y="101.3" fill-rule="evenodd" clip-rule="evenodd" fill="#7030A0" width="16.4" height="16.8"/>
<rect x="33.3" y="101.3" fill-rule="evenodd" clip-rule="evenodd" fill="#7030A0" width="16.4" height="16.8"/>
<rect x="49.7" y="101.3" fill-rule="evenodd" clip-rule="evenodd" fill="#FF0000" width="16.4" height="16.8"/>
<rect x="66.1" y="101.3" fill-rule="evenodd" clip-rule="evenodd" fill="#FF0000" width="16.4" height="16.8"/>
<rect x="82.5" y="101.3" fill-rule="evenodd" clip-rule="evenodd" fill="#FF0000" width="16.4" height="16.8"/>
<rect x="98.9" y="101.3" fill-rule="evenodd" clip-rule="evenodd" fill="#FF0000" width="16.4" height="16.8"/>
<rect x="180.9" y="101.3" fill-rule="evenodd" clip-rule="evenodd" fill="#FFC000" width="16.399" height="16.8"/>
<rect x="197.3" y="101.3" fill-rule="evenodd" clip-rule="evenodd" fill="#FFC000" width="16.4" height="16.8"/>
<rect x="213.7" y="101.3" fill-rule="evenodd" clip-rule="evenodd" fill="#FFC000" width="16.4" height="16.8"/>
<rect x="230.101" y="101.3" fill-rule="evenodd" clip-rule="evenodd" fill="#FFC000" width="16.399" height="16.8"/>
<rect x="246.5" y="101.3" fill-rule="evenodd" clip-rule="evenodd" fill="#8EB4E3" width="16.4" height="16.8"/>
<rect x="262.9" y="101.3" fill-rule="evenodd" clip-rule="evenodd" fill="#8EB4E3" width="16.399" height="16.8"/>
<rect x="0.5" y="118.1" fill-rule="evenodd" clip-rule="evenodd" fill="#E7E7E7" width="16.4" height="16.801"/>
<rect x="16.9" y="118.1" fill-rule="evenodd" clip-rule="evenodd" fill="#7030A0" width="16.4" height="16.801"/>
<rect x="33.3" y="118.1" fill-rule="evenodd" clip-rule="evenodd" fill="#7030A0" width="16.4" height="16.801"/>
<rect x="49.7" y="118.1" fill-rule="evenodd" clip-rule="evenodd" fill="#FF0000" width="16.4" height="16.801"/>
<rect x="66.1" y="118.1" fill-rule="evenodd" clip-rule="evenodd" fill="#FF0000" width="16.4" height="16.801"/>
<rect x="82.5" y="118.1" fill-rule="evenodd" clip-rule="evenodd" fill="#FF0000" width="16.4" height="16.801"/>
<rect x="98.9" y="118.1" fill-rule="evenodd" clip-rule="evenodd" fill="#FF0000" width="16.4" height="16.801"/>
<rect x="115.3" y="118.1" fill-rule="evenodd" clip-rule="evenodd" fill="#00B050" width="16.4" height="16.801"/>
<rect x="180.9" y="118.1" fill-rule="evenodd" clip-rule="evenodd" fill="#FFC000" width="16.399" height="16.801"/>
<rect x="197.3" y="118.1" fill-rule="evenodd" clip-rule="evenodd" fill="#FFC000" width="16.4" height="16.801"/>
<rect x="213.7" y="118.1" fill-rule="evenodd" clip-rule="evenodd" fill="#FFC000" width="16.4" height="16.801"/>
<rect x="230.101" y="118.1" fill-rule="evenodd" clip-rule="evenodd" fill="#FFC000" width="16.399" height="16.801"/>
<rect x="246.5" y="118.1" fill-rule="evenodd" clip-rule="evenodd" fill="#8EB4E3" width="16.4" height="16.801"/>
<rect x="262.9" y="118.1" fill-rule="evenodd" clip-rule="evenodd" fill="#8EB4E3" width="16.399" height="16.801"/>
<rect x="0.5" y="134.9" fill-rule="evenodd" clip-rule="evenodd" fill="#CBCBCB" width="16.4" height="16.8"/>
<rect x="16.9" y="134.9" fill-rule="evenodd" clip-rule="evenodd" fill="#7030A0" width="16.4" height="16.8"/>
<rect x="33.3" y="134.9" fill-rule="evenodd" clip-rule="evenodd" fill="#7030A0" width="16.4" height="16.8"/>
<rect x="49.7" y="134.9" fill-rule="evenodd" clip-rule="evenodd" fill="#FF0000" width="16.4" height="16.8"/>
<rect x="66.1" y="134.9" fill-rule="evenodd" clip-rule="evenodd" fill="#FF0000" width="16.4" height="16.8"/>
<rect x="82.5" y="134.9" fill-rule="evenodd" clip-rule="evenodd" fill="#FF0000" width="16.4" height="16.8"/>
<rect x="98.9" y="134.9" fill-rule="evenodd" clip-rule="evenodd" fill="#FF0000" width="16.4" height="16.8"/>
<rect x="115.3" y="134.9" fill-rule="evenodd" clip-rule="evenodd" fill="#00B050" width="16.4" height="16.8"/>
<rect x="131.7" y="134.9" fill-rule="evenodd" clip-rule="evenodd" fill="#00B050" width="16.4" height="16.8"/>
<rect x="213.7" y="134.9" fill-rule="evenodd" clip-rule="evenodd" fill="#FFC000" width="16.4" height="16.8"/>
<rect x="230.101" y="134.9" fill-rule="evenodd" clip-rule="evenodd" fill="#FFC000" width="16.399" height="16.8"/>
<rect x="246.5" y="134.9" fill-rule="evenodd" clip-rule="evenodd" fill="#8EB4E3" width="16.4" height="16.8"/>
<rect x="262.9" y="134.9" fill-rule="evenodd" clip-rule="evenodd" fill="#8EB4E3" width="16.399" height="16.8"/>
<rect x="0.5" y="151.7" fill-rule="evenodd" clip-rule="evenodd" fill="#E7E7E7" width="16.4" height="16.8"/>
<rect x="16.9" y="151.7" fill-rule="evenodd" clip-rule="evenodd" fill="#7030A0" width="16.4" height="16.8"/>
<rect x="33.3" y="151.7" fill-rule="evenodd" clip-rule="evenodd" fill="#7030A0" width="16.4" height="16.8"/>
<rect x="49.7" y="151.7" fill-rule="evenodd" clip-rule="evenodd" fill="#FF0000" width="16.4" height="16.8"/>
<rect x="66.1" y="151.7" fill-rule="evenodd" clip-rule="evenodd" fill="#FF0000" width="16.4" height="16.8"/>
<rect x="82.5" y="151.7" fill-rule="evenodd" clip-rule="evenodd" fill="#FF0000" width="16.4" height="16.8"/>
<rect x="98.9" y="151.7" fill-rule="evenodd" clip-rule="evenodd" fill="#FF0000" width="16.4" height="16.8"/>
<rect x="115.3" y="151.7" fill-rule="evenodd" clip-rule="evenodd" fill="#00B050" width="16.4" height="16.8"/>
<rect x="131.7" y="151.7" fill-rule="evenodd" clip-rule="evenodd" fill="#00B050" width="16.4" height="16.8"/>
<rect x="148.1" y="151.7" fill-rule="evenodd" clip-rule="evenodd" fill="#00B050" width="16.4" height="16.8"/>
<rect x="213.7" y="151.7" fill-rule="evenodd" clip-rule="evenodd" fill="#FFC000" width="16.4" height="16.8"/>
<rect x="230.101" y="151.7" fill-rule="evenodd" clip-rule="evenodd" fill="#FFC000" width="16.399" height="16.8"/>
<rect x="246.5" y="151.7" fill-rule="evenodd" clip-rule="evenodd" fill="#8EB4E3" width="16.4" height="16.8"/>
<rect x="262.9" y="151.7" fill-rule="evenodd" clip-rule="evenodd" fill="#8EB4E3" width="16.399" height="16.8"/>
<rect x="0.5" y="168.5" fill-rule="evenodd" clip-rule="evenodd" fill="#CBCBCB" width="16.4" height="16.8"/>
<rect x="16.9" y="168.5" fill-rule="evenodd" clip-rule="evenodd" fill="#7030A0" width="16.4" height="16.8"/>
<rect x="33.3" y="168.5" fill-rule="evenodd" clip-rule="evenodd" fill="#7030A0" width="16.4" height="16.8"/>
<rect x="49.7" y="168.5" fill-rule="evenodd" clip-rule="evenodd" fill="#FF0000" width="16.4" height="16.8"/>
<rect x="66.1" y="168.5" fill-rule="evenodd" clip-rule="evenodd" fill="#FF0000" width="16.4" height="16.8"/>
<rect x="82.5" y="168.5" fill-rule="evenodd" clip-rule="evenodd" fill="#FF0000" width="16.4" height="16.8"/>
<rect x="98.9" y="168.5" fill-rule="evenodd" clip-rule="evenodd" fill="#FF0000" width="16.4" height="16.8"/>
<rect x="115.3" y="168.5" fill-rule="evenodd" clip-rule="evenodd" fill="#00B050" width="16.4" height="16.8"/>
<rect x="131.7" y="168.5" fill-rule="evenodd" clip-rule="evenodd" fill="#00B050" width="16.4" height="16.8"/>
<rect x="148.1" y="168.5" fill-rule="evenodd" clip-rule="evenodd" fill="#00B050" width="16.4" height="16.8"/>
<rect x="164.5" y="168.5" fill-rule="evenodd" clip-rule="evenodd" fill="#00B050" width="16.4" height="16.8"/>
<rect x="246.5" y="168.5" fill-rule="evenodd" clip-rule="evenodd" fill="#8EB4E3" width="16.4" height="16.8"/>
<rect x="262.9" y="168.5" fill-rule="evenodd" clip-rule="evenodd" fill="#8EB4E3" width="16.399" height="16.8"/>
<rect x="0.5" y="185.3" fill-rule="evenodd" clip-rule="evenodd" fill="#E7E7E7" width="16.4" height="16.8"/>
<rect x="16.9" y="185.3" fill-rule="evenodd" clip-rule="evenodd" fill="#7030A0" width="16.4" height="16.8"/>
<rect x="33.3" y="185.3" fill-rule="evenodd" clip-rule="evenodd" fill="#7030A0" width="16.4" height="16.8"/>
<rect x="49.7" y="185.3" fill-rule="evenodd" clip-rule="evenodd" fill="#FF0000" width="16.4" height="16.8"/>
<rect x="66.1" y="185.3" fill-rule="evenodd" clip-rule="evenodd" fill="#FF0000" width="16.4" height="16.8"/>
<rect x="82.5" y="185.3" fill-rule="evenodd" clip-rule="evenodd" fill="#FF0000" width="16.4" height="16.8"/>
<rect x="98.9" y="185.3" fill-rule="evenodd" clip-rule="evenodd" fill="#FF0000" width="16.4" height="16.8"/>
<rect x="115.3" y="185.3" fill-rule="evenodd" clip-rule="evenodd" fill="#00B050" width="16.4" height="16.8"/>
<rect x="131.7" y="185.3" fill-rule="evenodd" clip-rule="evenodd" fill="#00B050" width="16.4" height="16.8"/>
<rect x="148.1" y="185.3" fill-rule="evenodd" clip-rule="evenodd" fill="#00B050" width="16.4" height="16.8"/>
<rect x="164.5" y="185.3" fill-rule="evenodd" clip-rule="evenodd" fill="#00B050" width="16.4" height="16.8"/>
<rect x="180.9" y="185.3" fill-rule="evenodd" clip-rule="evenodd" fill="#FFC000" width="16.399" height="16.8"/>
<rect x="246.5" y="185.3" fill-rule="evenodd" clip-rule="evenodd" fill="#8EB4E3" width="16.4" height="16.8"/>
<rect x="262.9" y="185.3" fill-rule="evenodd" clip-rule="evenodd" fill="#8EB4E3" width="16.399" height="16.8"/>
<rect x="0.5" y="202.1" fill-rule="evenodd" clip-rule="evenodd" fill="#CBCBCB" width="16.4" height="16.801"/>
<rect x="16.9" y="202.1" fill-rule="evenodd" clip-rule="evenodd" fill="#7030A0" width="16.4" height="16.801"/>
<rect x="33.3" y="202.1" fill-rule="evenodd" clip-rule="evenodd" fill="#7030A0" width="16.4" height="16.801"/>
<rect x="49.7" y="202.1" fill-rule="evenodd" clip-rule="evenodd" fill="#FF0000" width="16.4" height="16.801"/>
<rect x="66.1" y="202.1" fill-rule="evenodd" clip-rule="evenodd" fill="#FF0000" width="16.4" height="16.801"/>
<rect x="82.5" y="202.1" fill-rule="evenodd" clip-rule="evenodd" fill="#FF0000" width="16.4" height="16.801"/>
<rect x="98.9" y="202.1" fill-rule="evenodd" clip-rule="evenodd" fill="#FF0000" width="16.4" height="16.801"/>
<rect x="115.3" y="202.1" fill-rule="evenodd" clip-rule="evenodd" fill="#00B050" width="16.4" height="16.801"/>
<rect x="131.7" y="202.1" fill-rule="evenodd" clip-rule="evenodd" fill="#00B050" width="16.4" height="16.801"/>
<rect x="148.1" y="202.1" fill-rule="evenodd" clip-rule="evenodd" fill="#00B050" width="16.4" height="16.801"/>
<rect x="164.5" y="202.1" fill-rule="evenodd" clip-rule="evenodd" fill="#00B050" width="16.4" height="16.801"/>
<rect x="180.9" y="202.1" fill-rule="evenodd" clip-rule="evenodd" fill="#FFC000" width="16.399" height="16.801"/>
<rect x="197.3" y="202.1" fill-rule="evenodd" clip-rule="evenodd" fill="#FFC000" width="16.4" height="16.801"/>
<rect x="0.5" y="218.9" fill-rule="evenodd" clip-rule="evenodd" fill="#E7E7E7" width="16.4" height="16.8"/>
<rect x="16.9" y="218.9" fill-rule="evenodd" clip-rule="evenodd" fill="#7030A0" width="16.4" height="16.8"/>
<rect x="33.3" y="218.9" fill-rule="evenodd" clip-rule="evenodd" fill="#7030A0" width="16.4" height="16.8"/>
<rect x="49.7" y="218.9" fill-rule="evenodd" clip-rule="evenodd" fill="#FF0000" width="16.4" height="16.8"/>
<rect x="66.1" y="218.9" fill-rule="evenodd" clip-rule="evenodd" fill="#FF0000" width="16.4" height="16.8"/>
<rect x="82.5" y="218.9" fill-rule="evenodd" clip-rule="evenodd" fill="#FF0000" width="16.4" height="16.8"/>
<rect x="98.9" y="218.9" fill-rule="evenodd" clip-rule="evenodd" fill="#FF0000" width="16.4" height="16.8"/>
<rect x="115.3" y="218.9" fill-rule="evenodd" clip-rule="evenodd" fill="#00B050" width="16.4" height="16.8"/>
<rect x="131.7" y="218.9" fill-rule="evenodd" clip-rule="evenodd" fill="#00B050" width="16.4" height="16.8"/>
<rect x="148.1" y="218.9" fill-rule="evenodd" clip-rule="evenodd" fill="#00B050" width="16.4" height="16.8"/>
<rect x="164.5" y="218.9" fill-rule="evenodd" clip-rule="evenodd" fill="#00B050" width="16.4" height="16.8"/>
<rect x="180.9" y="218.9" fill-rule="evenodd" clip-rule="evenodd" fill="#FFC000" width="16.399" height="16.8"/>
<rect x="197.3" y="218.9" fill-rule="evenodd" clip-rule="evenodd" fill="#FFC000" width="16.4" height="16.8"/>
<rect x="213.7" y="218.9" fill-rule="evenodd" clip-rule="evenodd" fill="#FFC000" width="16.4" height="16.8"/>
<rect x="0.5" y="235.7" fill-rule="evenodd" clip-rule="evenodd" fill="#CBCBCB" width="16.4" height="16.8"/>
<rect x="16.9" y="235.7" fill-rule="evenodd" clip-rule="evenodd" fill="#7030A0" width="16.4" height="16.8"/>
<rect x="33.3" y="235.7" fill-rule="evenodd" clip-rule="evenodd" fill="#7030A0" width="16.4" height="16.8"/>
<rect x="49.7" y="235.7" fill-rule="evenodd" clip-rule="evenodd" fill="#FF0000" width="16.4" height="16.8"/>
<rect x="66.1" y="235.7" fill-rule="evenodd" clip-rule="evenodd" fill="#FF0000" width="16.4" height="16.8"/>
<rect x="82.5" y="235.7" fill-rule="evenodd" clip-rule="evenodd" fill="#FF0000" width="16.4" height="16.8"/>
<rect x="98.9" y="235.7" fill-rule="evenodd" clip-rule="evenodd" fill="#FF0000" width="16.4" height="16.8"/>
<rect x="115.3" y="235.7" fill-rule="evenodd" clip-rule="evenodd" fill="#00B050" width="16.4" height="16.8"/>
<rect x="131.7" y="235.7" fill-rule="evenodd" clip-rule="evenodd" fill="#00B050" width="16.4" height="16.8"/>
<rect x="148.1" y="235.7" fill-rule="evenodd" clip-rule="evenodd" fill="#00B050" width="16.4" height="16.8"/>
<rect x="164.5" y="235.7" fill-rule="evenodd" clip-rule="evenodd" fill="#00B050" width="16.4" height="16.8"/>
<rect x="180.9" y="235.7" fill-rule="evenodd" clip-rule="evenodd" fill="#FFC000" width="16.399" height="16.8"/>
<rect x="197.3" y="235.7" fill-rule="evenodd" clip-rule="evenodd" fill="#FFC000" width="16.4" height="16.8"/>
<rect x="213.7" y="235.7" fill-rule="evenodd" clip-rule="evenodd" fill="#FFC000" width="16.4" height="16.8"/>
<rect x="230.101" y="235.7" fill-rule="evenodd" clip-rule="evenodd" fill="#FFC000" width="16.399" height="16.8"/>
<rect x="0.5" y="252.5" fill-rule="evenodd" clip-rule="evenodd" fill="#E7E7E7" width="16.4" height="16.8"/>
<rect x="16.9" y="252.5" fill-rule="evenodd" clip-rule="evenodd" fill="#7030A0" width="16.4" height="16.8"/>
<rect x="33.3" y="252.5" fill-rule="evenodd" clip-rule="evenodd" fill="#7030A0" width="16.4" height="16.8"/>
<rect x="49.7" y="252.5" fill-rule="evenodd" clip-rule="evenodd" fill="#FF0000" width="16.4" height="16.8"/>
<rect x="66.1" y="252.5" fill-rule="evenodd" clip-rule="evenodd" fill="#FF0000" width="16.4" height="16.8"/>
<rect x="82.5" y="252.5" fill-rule="evenodd" clip-rule="evenodd" fill="#FF0000" width="16.4" height="16.8"/>
<rect x="98.9" y="252.5" fill-rule="evenodd" clip-rule="evenodd" fill="#FF0000" width="16.4" height="16.8"/>
<rect x="115.3" y="252.5" fill-rule="evenodd" clip-rule="evenodd" fill="#00B050" width="16.4" height="16.8"/>
<rect x="131.7" y="252.5" fill-rule="evenodd" clip-rule="evenodd" fill="#00B050" width="16.4" height="16.8"/>
<rect x="148.1" y="252.5" fill-rule="evenodd" clip-rule="evenodd" fill="#00B050" width="16.4" height="16.8"/>
<rect x="164.5" y="252.5" fill-rule="evenodd" clip-rule="evenodd" fill="#00B050" width="16.4" height="16.8"/>
<rect x="180.9" y="252.5" fill-rule="evenodd" clip-rule="evenodd" fill="#FFC000" width="16.399" height="16.8"/>
<rect x="197.3" y="252.5" fill-rule="evenodd" clip-rule="evenodd" fill="#FFC000" width="16.4" height="16.8"/>
<rect x="213.7" y="252.5" fill-rule="evenodd" clip-rule="evenodd" fill="#FFC000" width="16.4" height="16.8"/>
<rect x="230.101" y="252.5" fill-rule="evenodd" clip-rule="evenodd" fill="#FFC000" width="16.399" height="16.8"/>
<rect x="246.5" y="252.5" fill-rule="evenodd" clip-rule="evenodd" fill="#8EB4E3" width="16.4" height="16.8"/>
<rect x="0.5" y="269.3" fill-rule="evenodd" clip-rule="evenodd" fill="#CBCBCB" width="16.4" height="16.8"/>
<rect x="16.9" y="269.3" fill-rule="evenodd" clip-rule="evenodd" fill="#7030A0" width="16.4" height="16.8"/>
<rect x="33.3" y="269.3" fill-rule="evenodd" clip-rule="evenodd" fill="#7030A0" width="16.4" height="16.8"/>
<rect x="49.7" y="269.3" fill-rule="evenodd" clip-rule="evenodd" fill="#FF0000" width="16.4" height="16.8"/>
<rect x="66.1" y="269.3" fill-rule="evenodd" clip-rule="evenodd" fill="#FF0000" width="16.4" height="16.8"/>
<rect x="82.5" y="269.3" fill-rule="evenodd" clip-rule="evenodd" fill="#FF0000" width="16.4" height="16.8"/>
<rect x="98.9" y="269.3" fill-rule="evenodd" clip-rule="evenodd" fill="#FF0000" width="16.4" height="16.8"/>
<rect x="115.3" y="269.3" fill-rule="evenodd" clip-rule="evenodd" fill="#00B050" width="16.4" height="16.8"/>
<rect x="131.7" y="269.3" fill-rule="evenodd" clip-rule="evenodd" fill="#00B050" width="16.4" height="16.8"/>
<rect x="148.1" y="269.3" fill-rule="evenodd" clip-rule="evenodd" fill="#00B050" width="16.4" height="16.8"/>
<rect x="164.5" y="269.3" fill-rule="evenodd" clip-rule="evenodd" fill="#00B050" width="16.4" height="16.8"/>
<rect x="180.9" y="269.3" fill-rule="evenodd" clip-rule="evenodd" fill="#FFC000" width="16.399" height="16.8"/>
<rect x="197.3" y="269.3" fill-rule="evenodd" clip-rule="evenodd" fill="#FFC000" width="16.4" height="16.8"/>
<rect x="213.7" y="269.3" fill-rule="evenodd" clip-rule="evenodd" fill="#FFC000" width="16.4" height="16.8"/>
<rect x="230.101" y="269.3" fill-rule="evenodd" clip-rule="evenodd" fill="#FFC000" width="16.399" height="16.8"/>
<rect x="246.5" y="269.3" fill-rule="evenodd" clip-rule="evenodd" fill="#8EB4E3" width="16.4" height="16.8"/>
<rect x="262.9" y="269.3" fill-rule="evenodd" clip-rule="evenodd" fill="#8EB4E3" width="16.399" height="16.8"/>
<line fill="none" stroke="#000000" stroke-linejoin="round" stroke-miterlimit="10" x1="16.9" y1="17.3" x2="33.3" y2="34.1"/>
<line fill="none" stroke="#000000" stroke-linejoin="round" stroke-miterlimit="10" x1="33.3" y1="34.1" x2="49.7" y2="50.9"/>
<line fill="none" stroke="#000000" stroke-linejoin="round" stroke-miterlimit="10" x1="49.7" y1="50.9" x2="66.1" y2="67.7"/>
<line fill="none" stroke="#000000" stroke-linejoin="round" stroke-miterlimit="10" x1="66.1" y1="67.7" x2="82.5" y2="84.5"/>
<line fill="none" stroke="#000000" stroke-linejoin="round" stroke-miterlimit="10" x1="82.5" y1="84.5" x2="98.9" y2="101.3"/>
<line fill="none" stroke="#000000" stroke-linejoin="round" stroke-miterlimit="10" x1="98.9" y1="101.3" x2="115.3" y2="118.1"/>
<line fill="none" stroke="#000000" stroke-linejoin="round" stroke-miterlimit="10" x1="115.3" y1="118.1" x2="131.7" y2="134.9"/>
<line fill="none" stroke="#000000" stroke-linejoin="round" stroke-miterlimit="10" x1="131.7" y1="134.9" x2="148.1" y2="151.7"/>
<line fill="none" stroke="#000000" stroke-linejoin="round" stroke-miterlimit="10" x1="148.1" y1="151.7" x2="164.5" y2="168.5"/>
<line fill="none" stroke="#000000" stroke-linejoin="round" stroke-miterlimit="10" x1="164.5" y1="168.5" x2="180.9" y2="185.3"/>
<line fill="none" stroke="#000000" stroke-linejoin="round" stroke-miterlimit="10" x1="180.9" y1="185.3" x2="197.3" y2="202.1"/>
<line fill="none" stroke="#000000" stroke-linejoin="round" stroke-miterlimit="10" x1="197.3" y1="202.1" x2="213.7" y2="218.9"/>
<line fill="none" stroke="#000000" stroke-linejoin="round" stroke-miterlimit="10" x1="213.7" y1="218.9" x2="230.101" y2="235.7"/>
<line fill="none" stroke="#000000" stroke-linejoin="round" stroke-miterlimit="10" x1="230.101" y1="235.7" x2="246.5" y2="252.5"/>
<line fill="none" stroke="#000000" stroke-linejoin="round" stroke-miterlimit="10" x1="246.5" y1="252.5" x2="262.9" y2="269.3"/>
<line fill="none" stroke="#000000" stroke-linejoin="round" stroke-miterlimit="10" x1="262.9" y1="269.3" x2="279.3" y2="286.1"/>
<line fill="none" stroke="#000000" stroke-linejoin="round" stroke-miterlimit="10" x1="16.9" y1="0" x2="16.9" y2="286.6"/>
<line fill="none" stroke="#000000" stroke-linejoin="round" stroke-miterlimit="10" x1="33.3" y1="0" x2="33.3" y2="286.6"/>
<line fill="none" stroke="#000000" stroke-linejoin="round" stroke-miterlimit="10" x1="49.7" y1="0" x2="49.7" y2="286.6"/>
<line fill="none" stroke="#000000" stroke-linejoin="round" stroke-miterlimit="10" x1="66.1" y1="0" x2="66.1" y2="286.6"/>
<line fill="none" stroke="#000000" stroke-linejoin="round" stroke-miterlimit="10" x1="82.5" y1="0" x2="82.5" y2="286.6"/>
<line fill="none" stroke="#000000" stroke-linejoin="round" stroke-miterlimit="10" x1="98.9" y1="0" x2="98.9" y2="286.6"/>
<line fill="none" stroke="#000000" stroke-linejoin="round" stroke-miterlimit="10" x1="115.3" y1="0" x2="115.3" y2="286.6"/>
<line fill="none" stroke="#000000" stroke-linejoin="round" stroke-miterlimit="10" x1="131.7" y1="0" x2="131.7" y2="286.6"/>
<line fill="none" stroke="#000000" stroke-linejoin="round" stroke-miterlimit="10" x1="148.1" y1="0" x2="148.1" y2="286.6"/>
<line fill="none" stroke="#000000" stroke-linejoin="round" stroke-miterlimit="10" x1="164.5" y1="0" x2="164.5" y2="286.6"/>
<line fill="none" stroke="#000000" stroke-linejoin="round" stroke-miterlimit="10" x1="180.9" y1="0" x2="180.9" y2="286.6"/>
<line fill="none" stroke="#000000" stroke-linejoin="round" stroke-miterlimit="10" x1="197.3" y1="0" x2="197.3" y2="286.6"/>
<line fill="none" stroke="#000000" stroke-linejoin="round" stroke-miterlimit="10" x1="213.7" y1="0" x2="213.7" y2="286.6"/>
<line fill="none" stroke="#000000" stroke-linejoin="round" stroke-miterlimit="10" x1="230.101" y1="0" x2="230.101" y2="286.6"/>
<line fill="none" stroke="#000000" stroke-linejoin="round" stroke-miterlimit="10" x1="246.5" y1="0" x2="246.5" y2="286.6"/>
<line fill="none" stroke="#000000" stroke-linejoin="round" stroke-miterlimit="10" x1="262.9" y1="0" x2="262.9" y2="286.6"/>
<line fill="none" stroke="#000000" stroke-linejoin="round" stroke-miterlimit="10" x1="0" y1="17.3" x2="279.8" y2="17.3"/>
<line fill="none" stroke="#000000" stroke-linejoin="round" stroke-miterlimit="10" x1="0" y1="34.1" x2="279.8" y2="34.1"/>
<line fill="none" stroke="#000000" stroke-linejoin="round" stroke-miterlimit="10" x1="0" y1="50.9" x2="279.8" y2="50.9"/>
<line fill="none" stroke="#000000" stroke-linejoin="round" stroke-miterlimit="10" x1="0" y1="67.7" x2="279.8" y2="67.7"/>
<line fill="none" stroke="#000000" stroke-linejoin="round" stroke-miterlimit="10" x1="0" y1="84.5" x2="279.8" y2="84.5"/>
<line fill="none" stroke="#000000" stroke-linejoin="round" stroke-miterlimit="10" x1="0" y1="101.3" x2="279.8" y2="101.3"/>
<line fill="none" stroke="#000000" stroke-linejoin="round" stroke-miterlimit="10" x1="0" y1="118.1" x2="279.8" y2="118.1"/>
<line fill="none" stroke="#000000" stroke-linejoin="round" stroke-miterlimit="10" x1="0" y1="134.9" x2="279.8" y2="134.9"/>
<line fill="none" stroke="#000000" stroke-linejoin="round" stroke-miterlimit="10" x1="0" y1="151.7" x2="279.8" y2="151.7"/>
<line fill="none" stroke="#000000" stroke-linejoin="round" stroke-miterlimit="10" x1="0" y1="168.5" x2="279.8" y2="168.5"/>
<line fill="none" stroke="#000000" stroke-linejoin="round" stroke-miterlimit="10" x1="0" y1="185.3" x2="279.8" y2="185.3"/>
<line fill="none" stroke="#000000" stroke-linejoin="round" stroke-miterlimit="10" x1="0" y1="202.1" x2="279.8" y2="202.1"/>
<line fill="none" stroke="#000000" stroke-linejoin="round" stroke-miterlimit="10" x1="0" y1="218.9" x2="279.8" y2="218.9"/>
<line fill="none" stroke="#000000" stroke-linejoin="round" stroke-miterlimit="10" x1="0" y1="235.7" x2="279.8" y2="235.7"/>
<line fill="none" stroke="#000000" stroke-linejoin="round" stroke-miterlimit="10" x1="0" y1="252.5" x2="279.8" y2="252.5"/>
<line fill="none" stroke="#000000" stroke-linejoin="round" stroke-miterlimit="10" x1="0" y1="269.3" x2="279.8" y2="269.3"/>
<line fill="none" stroke="#FFFFFF" stroke-linejoin="round" stroke-miterlimit="10" x1="0.5" y1="0" x2="0.5" y2="286.6"/>
<line fill="none" stroke="#000000" stroke-linejoin="round" stroke-miterlimit="10" x1="279.3" y1="0" x2="279.3" y2="286.6"/>
<line fill="none" stroke="#FFFFFF" stroke-linejoin="round" stroke-miterlimit="10" x1="0" y1="0.5" x2="279.8" y2="0.5"/>
<line fill="none" stroke="#000000" stroke-linejoin="round" stroke-miterlimit="10" x1="0" y1="286.1" x2="279.8" y2="286.1"/>
<g>
	<defs>
		<rect id="SVGID_1_" x="48.74" y="18.86" width="16.44" height="13.68"/>
	</defs>
	<clipPath id="SVGID_2_">
		<use xlink:href="#SVGID_1_"  overflow="visible"/>
	</clipPath>
	<g clip-path="url(#SVGID_2_)">
		<path d="M57.838,23.823h-0.016l-0.909,0.49l-0.137-0.539l1.142-0.611h0.603v5.227h-0.683V23.823z"/>
	</g>
</g>
<g>
	<defs>
		<rect id="SVGID_3_" x="48.74" y="18.86" width="16.44" height="13.68"/>
	</defs>
	<clipPath id="SVGID_4_">
		<use xlink:href="#SVGID_3_"  overflow="visible"/>
	</clipPath>
	<g clip-path="url(#SVGID_4_)">
	</g>
</g>
<g>
	<defs>
		<rect id="SVGID_5_" x="81.5" y="18.86" width="16.44" height="13.68"/>
	</defs>
	<clipPath id="SVGID_6_">
		<use xlink:href="#SVGID_5_"  overflow="visible"/>
	</clipPath>
	<g clip-path="url(#SVGID_6_)">
		<path d="M90.648,23.823h-0.016l-0.909,0.49l-0.137-0.539l1.142-0.611h0.603v5.227h-0.683V23.823z"/>
	</g>
</g>
<g>
	<defs>
		<rect id="SVGID_7_" x="81.5" y="18.86" width="16.44" height="13.68"/>
	</defs>
	<clipPath id="SVGID_8_">
		<use xlink:href="#SVGID_7_"  overflow="visible"/>
	</clipPath>
	<g clip-path="url(#SVGID_8_)">
	</g>
</g>
<g>
	<defs>
		<rect id="SVGID_9_" x="48.74" y="35.66" width="16.44" height="13.68"/>
	</defs>
	<clipPath id="SVGID_10_">
		<use xlink:href="#SVGID_9_"  overflow="visible"/>
	</clipPath>
	<g clip-path="url(#SVGID_10_)">
		<path d="M57.842,40.634h-0.016l-0.911,0.491l-0.137-0.54l1.144-0.612h0.604v5.237h-0.685V40.634z"/>
	</g>
</g>
<g>
	<defs>
		<rect id="SVGID_11_" x="48.74" y="35.66" width="16.44" height="13.68"/>
	</defs>
	<clipPath id="SVGID_12_">
		<use xlink:href="#SVGID_11_"  overflow="visible"/>
	</clipPath>
	<g clip-path="url(#SVGID_12_)">
	</g>
</g>
<g>
	<defs>
		<rect id="SVGID_13_" x="97.94" y="35.66" width="16.44" height="13.68"/>
	</defs>
	<clipPath id="SVGID_14_">
		<use xlink:href="#SVGID_13_"  overflow="visible"/>
	</clipPath>
	<g clip-path="url(#SVGID_14_)">
		<path d="M107.062,40.634h-0.016l-0.911,0.491l-0.137-0.54l1.144-0.612h0.604v5.237h-0.685V40.634z"/>
	</g>
</g>
<g>
	<defs>
		<rect id="SVGID_15_" x="97.94" y="35.66" width="16.44" height="13.68"/>
	</defs>
	<clipPath id="SVGID_16_">
		<use xlink:href="#SVGID_15_"  overflow="visible"/>
	</clipPath>
	<g clip-path="url(#SVGID_16_)">
	</g>
</g>
<g>
	<defs>
		<rect id="SVGID_17_" x="163.46" y="35.66" width="16.44" height="13.68"/>
	</defs>
	<clipPath id="SVGID_18_">
		<use xlink:href="#SVGID_17_"  overflow="visible"/>
	</clipPath>
	<g clip-path="url(#SVGID_18_)">
		<path d="M172.661,40.634h-0.016l-0.911,0.491l-0.137-0.54l1.144-0.612h0.604v5.237h-0.685V40.634z"/>
	</g>
</g>
<g>
	<defs>
		<rect id="SVGID_19_" x="163.46" y="35.66" width="16.44" height="13.68"/>
	</defs>
	<clipPath id="SVGID_20_">
		<use xlink:href="#SVGID_19_"  overflow="visible"/>
	</clipPath>
	<g clip-path="url(#SVGID_20_)">
	</g>
</g>
<g>
	<defs>
		<rect id="SVGID_21_" x="114.26" y="52.46" width="16.44" height="13.68"/>
	</defs>
	<clipPath id="SVGID_22_">
		<use xlink:href="#SVGID_21_"  overflow="visible"/>
	</clipPath>
	<g clip-path="url(#SVGID_22_)">
		<path d="M123.458,57.442h-0.016l-0.909,0.49l-0.137-0.539l1.142-0.611h0.603v5.227h-0.683V57.442z"/>
	</g>
</g>
<g>
	<defs>
		<rect id="SVGID_23_" x="114.26" y="52.46" width="16.44" height="13.68"/>
	</defs>
	<clipPath id="SVGID_24_">
		<use xlink:href="#SVGID_23_"  overflow="visible"/>
	</clipPath>
	<g clip-path="url(#SVGID_24_)">
	</g>
</g>
<g>
	<defs>
		<rect id="SVGID_25_" x="130.7" y="52.46" width="16.44" height="13.68"/>
	</defs>
	<clipPath id="SVGID_26_">
		<use xlink:href="#SVGID_25_"  overflow="visible"/>
	</clipPath>
	<g clip-path="url(#SVGID_26_)">
		<path d="M139.848,57.442h-0.016l-0.909,0.49l-0.137-0.539l1.142-0.611h0.603v5.227h-0.683V57.442z"/>
	</g>
</g>
<g>
	<defs>
		<rect id="SVGID_27_" x="130.7" y="52.46" width="16.44" height="13.68"/>
	</defs>
	<clipPath id="SVGID_28_">
		<use xlink:href="#SVGID_27_"  overflow="visible"/>
	</clipPath>
	<g clip-path="url(#SVGID_28_)">
	</g>
</g>
<g>
	<defs>
		<rect id="SVGID_29_" x="81.5" y="69.26" width="16.44" height="13.681"/>
	</defs>
	<clipPath id="SVGID_30_">
		<use xlink:href="#SVGID_29_"  overflow="visible"/>
	</clipPath>
	<g clip-path="url(#SVGID_30_)">
		<path d="M90.648,74.242h-0.016l-0.909,0.49l-0.137-0.539l1.142-0.61h0.603v5.227h-0.683V74.242z"/>
	</g>
</g>
<g>
	<defs>
		<rect id="SVGID_31_" x="81.5" y="69.26" width="16.44" height="13.681"/>
	</defs>
	<clipPath id="SVGID_32_">
		<use xlink:href="#SVGID_31_"  overflow="visible"/>
	</clipPath>
	<g clip-path="url(#SVGID_32_)">
	</g>
</g>
<g>
	<defs>
		<rect id="SVGID_33_" x="97.94" y="69.26" width="16.44" height="13.681"/>
	</defs>
	<clipPath id="SVGID_34_">
		<use xlink:href="#SVGID_33_"  overflow="visible"/>
	</clipPath>
	<g clip-path="url(#SVGID_34_)">
		<path d="M107.058,74.242h-0.016l-0.909,0.49l-0.137-0.539l1.142-0.61h0.603v5.227h-0.683V74.242z"/>
	</g>
</g>
<g>
	<defs>
		<rect id="SVGID_35_" x="97.94" y="69.26" width="16.44" height="13.681"/>
	</defs>
	<clipPath id="SVGID_36_">
		<use xlink:href="#SVGID_35_"  overflow="visible"/>
	</clipPath>
	<g clip-path="url(#SVGID_36_)">
	</g>
</g>
<g>
	<defs>
		<rect id="SVGID_37_" x="147.14" y="69.26" width="16.44" height="13.681"/>
	</defs>
	<clipPath id="SVGID_38_">
		<use xlink:href="#SVGID_37_"  overflow="visible"/>
	</clipPath>
	<g clip-path="url(#SVGID_38_)">
		<path d="M156.258,74.242h-0.016l-0.909,0.49l-0.137-0.539l1.143-0.61h0.603v5.227h-0.684V74.242z"/>
	</g>
</g>
<g>
	<defs>
		<rect id="SVGID_39_" x="147.14" y="69.26" width="16.44" height="13.681"/>
	</defs>
	<clipPath id="SVGID_40_">
		<use xlink:href="#SVGID_39_"  overflow="visible"/>
	</clipPath>
	<g clip-path="url(#SVGID_40_)">
	</g>
</g>
<g>
	<defs>
		<rect id="SVGID_41_" x="196.34" y="69.26" width="16.44" height="13.681"/>
	</defs>
	<clipPath id="SVGID_42_">
		<use xlink:href="#SVGID_41_"  overflow="visible"/>
	</clipPath>
	<g clip-path="url(#SVGID_42_)">
		<path d="M205.458,74.242h-0.016l-0.909,0.49l-0.137-0.539l1.143-0.61h0.603v5.227h-0.684V74.242z"/>
	</g>
</g>
<g>
	<defs>
		<rect id="SVGID_43_" x="196.34" y="69.26" width="16.44" height="13.681"/>
	</defs>
	<clipPath id="SVGID_44_">
		<use xlink:href="#SVGID_43_"  overflow="visible"/>
	</clipPath>
	<g clip-path="url(#SVGID_44_)">
	</g>
</g>
<g>
	<defs>
		<rect id="SVGID_45_" x="114.26" y="86.06" width="16.44" height="13.681"/>
	</defs>
	<clipPath id="SVGID_46_">
		<use xlink:href="#SVGID_45_"  overflow="visible"/>
	</clipPath>
	<g clip-path="url(#SVGID_46_)">
		<path d="M123.458,91.043h-0.016l-0.909,0.49l-0.137-0.539l1.142-0.61h0.603v5.227h-0.683V91.043z"/>
	</g>
</g>
<g>
	<defs>
		<rect id="SVGID_47_" x="114.26" y="86.06" width="16.44" height="13.681"/>
	</defs>
	<clipPath id="SVGID_48_">
		<use xlink:href="#SVGID_47_"  overflow="visible"/>
	</clipPath>
	<g clip-path="url(#SVGID_48_)">
	</g>
</g>
<g>
	<defs>
		<rect id="SVGID_49_" x="163.46" y="86.06" width="16.44" height="13.681"/>
	</defs>
	<clipPath id="SVGID_50_">
		<use xlink:href="#SVGID_49_"  overflow="visible"/>
	</clipPath>
	<g clip-path="url(#SVGID_50_)">
		<path d="M172.657,91.043h-0.016l-0.909,0.49l-0.137-0.539l1.143-0.61h0.603v5.227h-0.684V91.043z"/>
	</g>
</g>
<g>
	<defs>
		<rect id="SVGID_51_" x="163.46" y="86.06" width="16.44" height="13.681"/>
	</defs>
	<clipPath id="SVGID_52_">
		<use xlink:href="#SVGID_51_"  overflow="visible"/>
	</clipPath>
	<g clip-path="url(#SVGID_52_)">
	</g>
</g>
<g>
	<defs>
		<rect id="SVGID_53_" x="114.26" y="102.86" width="16.44" height="13.68"/>
	</defs>
	<clipPath id="SVGID_54_">
		<use xlink:href="#SVGID_53_"  overflow="visible"/>
	</clipPath>
	<g clip-path="url(#SVGID_54_)">
		<path d="M123.458,107.843h-0.016l-0.909,0.49l-0.137-0.539l1.142-0.61h0.603v5.227h-0.683V107.843z"/>
	</g>
</g>
<g>
	<defs>
		<rect id="SVGID_55_" x="114.26" y="102.86" width="16.44" height="13.68"/>
	</defs>
	<clipPath id="SVGID_56_">
		<use xlink:href="#SVGID_55_"  overflow="visible"/>
	</clipPath>
	<g clip-path="url(#SVGID_56_)">
	</g>
</g>
<g>
	<defs>
		<rect id="SVGID_57_" x="245.54" y="102.86" width="16.44" height="13.68"/>
	</defs>
	<clipPath id="SVGID_58_">
		<use xlink:href="#SVGID_57_"  overflow="visible"/>
	</clipPath>
	<g clip-path="url(#SVGID_58_)">
		<path d="M254.688,107.843h-0.016l-0.909,0.49l-0.137-0.539l1.143-0.61h0.603v5.227h-0.684V107.843z"/>
	</g>
</g>
<g>
	<defs>
		<rect id="SVGID_59_" x="245.54" y="102.86" width="16.44" height="13.68"/>
	</defs>
	<clipPath id="SVGID_60_">
		<use xlink:href="#SVGID_59_"  overflow="visible"/>
	</clipPath>
	<g clip-path="url(#SVGID_60_)">
	</g>
</g>
<g>
	<defs>
		<rect id="SVGID_61_" x="147.14" y="119.66" width="16.44" height="13.68"/>
	</defs>
	<clipPath id="SVGID_62_">
		<use xlink:href="#SVGID_61_"  overflow="visible"/>
	</clipPath>
	<g clip-path="url(#SVGID_62_)">
		<path d="M156.258,124.643h-0.016l-0.909,0.49l-0.137-0.539l1.143-0.61h0.603v5.227h-0.684V124.643z"/>
	</g>
</g>
<g>
	<defs>
		<rect id="SVGID_63_" x="147.14" y="119.66" width="16.44" height="13.68"/>
	</defs>
	<clipPath id="SVGID_64_">
		<use xlink:href="#SVGID_63_"  overflow="visible"/>
	</clipPath>
	<g clip-path="url(#SVGID_64_)">
	</g>
</g>
<g>
	<defs>
		<rect id="SVGID_65_" x="179.9" y="119.66" width="16.439" height="13.68"/>
	</defs>
	<clipPath id="SVGID_66_">
		<use xlink:href="#SVGID_65_"  overflow="visible"/>
	</clipPath>
	<g clip-path="url(#SVGID_66_)">
		<path d="M189.067,124.643h-0.016l-0.909,0.49l-0.137-0.539l1.143-0.61h0.603v5.227h-0.684V124.643z"/>
	</g>
</g>
<g>
	<defs>
		<rect id="SVGID_67_" x="179.9" y="119.66" width="16.439" height="13.68"/>
	</defs>
	<clipPath id="SVGID_68_">
		<use xlink:href="#SVGID_67_"  overflow="visible"/>
	</clipPath>
	<g clip-path="url(#SVGID_68_)">
	</g>
</g>
<g>
	<defs>
		<rect id="SVGID_69_" x="196.34" y="119.66" width="16.44" height="13.68"/>
	</defs>
	<clipPath id="SVGID_70_">
		<use xlink:href="#SVGID_69_"  overflow="visible"/>
	</clipPath>
	<g clip-path="url(#SVGID_70_)">
		<path d="M205.458,124.643h-0.016l-0.909,0.49l-0.137-0.539l1.143-0.61h0.603v5.227h-0.684V124.643z"/>
	</g>
</g>
<g>
	<defs>
		<rect id="SVGID_71_" x="196.34" y="119.66" width="16.44" height="13.68"/>
	</defs>
	<clipPath id="SVGID_72_">
		<use xlink:href="#SVGID_71_"  overflow="visible"/>
	</clipPath>
	<g clip-path="url(#SVGID_72_)">
	</g>
</g>
<g>
	<defs>
		<rect id="SVGID_73_" x="229.101" y="136.46" width="16.439" height="13.68"/>
	</defs>
	<clipPath id="SVGID_74_">
		<use xlink:href="#SVGID_73_"  overflow="visible"/>
	</clipPath>
	<g clip-path="url(#SVGID_74_)">
		<path d="M238.271,141.464h-0.017l-0.91,0.491l-0.137-0.539l1.145-0.613h0.604v5.237h-0.685V141.464z"/>
	</g>
</g>
<g>
	<defs>
		<rect id="SVGID_75_" x="229.101" y="136.46" width="16.439" height="13.68"/>
	</defs>
	<clipPath id="SVGID_76_">
		<use xlink:href="#SVGID_75_"  overflow="visible"/>
	</clipPath>
	<g clip-path="url(#SVGID_76_)">
	</g>
</g>
<g>
	<defs>
		<rect id="SVGID_77_" x="196.34" y="153.26" width="16.44" height="13.681"/>
	</defs>
	<clipPath id="SVGID_78_">
		<use xlink:href="#SVGID_77_"  overflow="visible"/>
	</clipPath>
	<g clip-path="url(#SVGID_78_)">
		<path d="M205.458,158.272h-0.016l-0.909,0.49l-0.137-0.539l1.143-0.61h0.603v5.227h-0.684V158.272z"/>
	</g>
</g>
<g>
	<defs>
		<rect id="SVGID_79_" x="196.34" y="153.26" width="16.44" height="13.681"/>
	</defs>
	<clipPath id="SVGID_80_">
		<use xlink:href="#SVGID_79_"  overflow="visible"/>
	</clipPath>
	<g clip-path="url(#SVGID_80_)">
	</g>
</g>
<g>
	<defs>
		<rect id="SVGID_81_" x="229.101" y="170.06" width="16.439" height="13.681"/>
	</defs>
	<clipPath id="SVGID_82_">
		<use xlink:href="#SVGID_81_"  overflow="visible"/>
	</clipPath>
	<g clip-path="url(#SVGID_82_)">
		<path d="M238.268,175.072h-0.016l-0.909,0.49l-0.137-0.539l1.143-0.61h0.603v5.227h-0.684V175.072z"/>
	</g>
</g>
<g>
	<defs>
		<rect id="SVGID_83_" x="229.101" y="170.06" width="16.439" height="13.681"/>
	</defs>
	<clipPath id="SVGID_84_">
		<use xlink:href="#SVGID_83_"  overflow="visible"/>
	</clipPath>
	<g clip-path="url(#SVGID_84_)">
	</g>
</g>
<g>
	<defs>
		<rect id="SVGID_85_" x="245.54" y="170.06" width="16.44" height="13.681"/>
	</defs>
	<clipPath id="SVGID_86_">
		<use xlink:href="#SVGID_85_"  overflow="visible"/>
	</clipPath>
	<g clip-path="url(#SVGID_86_)">
		<path d="M254.688,175.072h-0.016l-0.909,0.49l-0.137-0.539l1.143-0.61h0.603v5.227h-0.684V175.072z"/>
	</g>
</g>
<g>
	<defs>
		<rect id="SVGID_87_" x="245.54" y="170.06" width="16.44" height="13.681"/>
	</defs>
	<clipPath id="SVGID_88_">
		<use xlink:href="#SVGID_87_"  overflow="visible"/>
	</clipPath>
	<g clip-path="url(#SVGID_88_)">
	</g>
</g>
<g>
	<defs>
		<rect id="SVGID_89_" x="196.34" y="186.86" width="16.44" height="13.68"/>
	</defs>
	<clipPath id="SVGID_90_">
		<use xlink:href="#SVGID_89_"  overflow="visible"/>
	</clipPath>
	<g clip-path="url(#SVGID_90_)">
		<path d="M205.458,191.873h-0.016l-0.909,0.49l-0.137-0.539l1.143-0.61h0.603v5.227h-0.684V191.873z"/>
	</g>
</g>
<g>
	<defs>
		<rect id="SVGID_91_" x="196.34" y="186.86" width="16.44" height="13.68"/>
	</defs>
	<clipPath id="SVGID_92_">
		<use xlink:href="#SVGID_91_"  overflow="visible"/>
	</clipPath>
	<g clip-path="url(#SVGID_92_)">
	</g>
</g>
<g>
	<defs>
		<rect id="SVGID_93_" x="229.101" y="186.86" width="16.439" height="13.68"/>
	</defs>
	<clipPath id="SVGID_94_">
		<use xlink:href="#SVGID_93_"  overflow="visible"/>
	</clipPath>
	<g clip-path="url(#SVGID_94_)">
		<path d="M238.268,191.873h-0.016l-0.909,0.49l-0.137-0.539l1.143-0.61h0.603v5.227h-0.684V191.873z"/>
	</g>
</g>
<g>
	<defs>
		<rect id="SVGID_95_" x="229.101" y="186.86" width="16.439" height="13.68"/>
	</defs>
	<clipPath id="SVGID_96_">
		<use xlink:href="#SVGID_95_"  overflow="visible"/>
	</clipPath>
	<g clip-path="url(#SVGID_96_)">
	</g>
</g>
<g>
	<defs>
		<rect id="SVGID_97_" x="261.86" y="186.86" width="16.439" height="13.68"/>
	</defs>
	<clipPath id="SVGID_98_">
		<use xlink:href="#SVGID_97_"  overflow="visible"/>
	</clipPath>
	<g clip-path="url(#SVGID_98_)">
		<path d="M271.078,191.873h-0.016l-0.909,0.49l-0.137-0.539l1.143-0.61h0.603v5.227h-0.684V191.873z"/>
	</g>
</g>
<g>
	<defs>
		<rect id="SVGID_99_" x="261.86" y="186.86" width="16.439" height="13.68"/>
	</defs>
	<clipPath id="SVGID_100_">
		<use xlink:href="#SVGID_99_"  overflow="visible"/>
	</clipPath>
	<g clip-path="url(#SVGID_100_)">
	</g>
</g>
<g>
	<defs>
		<rect id="SVGID_101_" x="261.86" y="237.26" width="16.439" height="13.681"/>
	</defs>
	<clipPath id="SVGID_102_">
		<use xlink:href="#SVGID_101_"  overflow="visible"/>
	</clipPath>
	<g clip-path="url(#SVGID_102_)">
		<path d="M271.078,242.269h-0.016l-0.909,0.49l-0.137-0.539l1.143-0.61h0.603v5.227h-0.684V242.269z"/>
	</g>
</g>
<g>
	<defs>
		<rect id="SVGID_103_" x="261.86" y="237.26" width="16.439" height="13.681"/>
	</defs>
	<clipPath id="SVGID_104_">
		<use xlink:href="#SVGID_103_"  overflow="visible"/>
	</clipPath>
	<g clip-path="url(#SVGID_104_)">
	</g>
</g>
</svg>
