<?xml version="1.0" encoding="utf-8"?>
<!-- Generator: Adobe Illustrator 16.0.4, SVG Export Plug-In . SVG Version: 6.00 Build 0)  -->
<!DOCTYPE svg PUBLIC "-//W3C//DTD SVG 1.1//EN" "http://www.w3.org/Graphics/SVG/1.1/DTD/svg11.dtd">
<svg version="1.1" xmlns="http://www.w3.org/2000/svg" xmlns:xlink="http://www.w3.org/1999/xlink" x="0px" y="0px" width="360px"
	 height="400px" viewBox="0 0 360 400" enable-background="new 0 0 360 400" xml:space="preserve">
<g id="Ebene_1">
	<path fill="#FFBFBF" stroke="#FF8080" stroke-width="0.9448" stroke-linejoin="bevel" stroke-miterlimit="10" d="M359.05,200.146
		c0-33.47-12.055-64.12-32.049-87.863v175.727C346.995,264.266,359.05,233.615,359.05,200.146z"/>
	<polygon fill-rule="evenodd" clip-rule="evenodd" fill="#E1F3FF" points="114.409,30.073 327.001,1.727 327.001,398.564 
		114.409,370.219 	"/>
	<path fill="#FFE1E1" d="M245.97,72.46c-1.522-1.158-3.07-2.203-4.644-3.131c-24.35-15.771-53.378-24.933-84.549-24.933
		c-86.018,0-155.749,69.731-155.749,155.75c0,86.018,69.731,155.749,155.749,155.749c31.158,0,60.174-9.154,84.518-24.912
		c1.589-0.937,3.153-1.993,4.691-3.162c25.192-19.168,43.156-69.097,43.156-127.674C289.143,141.556,271.172,91.619,245.97,72.46z"
		/>
	<path fill="none" stroke="#FFE1E1" stroke-miterlimit="10" d="M245.97,72.46c-1.522-1.158-3.07-2.203-4.644-3.131
		c-24.35-15.771-53.378-24.933-84.549-24.933c-86.018,0-155.749,69.731-155.749,155.75c0,86.018,69.731,155.749,155.749,155.749
		c31.158,0,60.174-9.154,84.518-24.912c1.589-0.937,3.153-1.993,4.691-3.162c25.192-19.168,43.156-69.097,43.156-127.674
		C289.143,141.556,271.172,91.619,245.97,72.46z"/>
	
		<polygon fill="none" stroke="#000000" stroke-width="0.472" stroke-miterlimit="10" stroke-dasharray="0.9448,4.7242" stroke-dashoffset="4" points="
		114.409,30.073 327.001,1.727 327.001,398.564 114.409,370.219 	"/>
	
		<path fill="none" stroke="#000000" stroke-width="0.472" stroke-miterlimit="10" stroke-dasharray="0.9448,4.7242" stroke-dashoffset="4" d="
		M289.143,200.146c0-58.59-17.971-108.527-43.173-127.686c-1.528-1.07-3.075-2.115-4.644-3.131
		c-5.782-3.411-11.89-5.241-18.204-5.241c-36.462,0-66.02,60.915-66.02,136.058s29.558,136.058,66.02,136.058
		c6.303,0,12.399-1.822,18.173-5.222c1.584-1.026,3.147-2.082,4.691-3.162C271.179,308.652,289.143,258.724,289.143,200.146z"/>
	<path fill-rule="evenodd" clip-rule="evenodd" fill="#FFE1E1" d="M123.354,282.348c0,4.94-4.005,8.944-8.945,8.944
		c-4.939,0-8.944-4.004-8.944-8.944c0-4.939,4.005-8.944,8.944-8.944C119.349,273.403,123.354,277.408,123.354,282.348"/>
	
		<circle fill="none" stroke="#FFE1E1" stroke-width="0.4724" stroke-linejoin="bevel" stroke-miterlimit="10" cx="114.409" cy="282.348" r="8.945"/>
	<path fill-rule="evenodd" clip-rule="evenodd" fill="#FFE1E1" d="M123.354,115.109c0,4.94-4.005,8.945-8.945,8.945
		c-4.939,0-8.944-4.005-8.944-8.945c0-4.939,4.005-8.944,8.944-8.944C119.349,106.165,123.354,110.17,123.354,115.109"/>
	
		<circle fill="none" stroke="#FFE1E1" stroke-width="0.4724" stroke-linejoin="bevel" stroke-miterlimit="10" cx="114.409" cy="115.109" r="8.945"/>
	<circle fill="#FFE1E1" cx="157.102" cy="200.145" r="9.574"/>
	<path fill-rule="evenodd" clip-rule="evenodd" fill="#FFBFBF" d="M159.762,200.146c0,1.565-1.269,2.834-2.834,2.834
		c-1.566,0-2.835-1.27-2.835-2.834c0-1.566,1.269-2.835,2.835-2.835C158.493,197.311,159.762,198.58,159.762,200.146"/>
	
		<circle fill="none" stroke="#000000" stroke-width="0.4724" stroke-linejoin="bevel" stroke-miterlimit="10" cx="156.927" cy="200.146" r="2.835"/>
	<path fill-rule="evenodd" clip-rule="evenodd" fill="#FFBFBF" d="M224.957,200.146c0,1.565-1.27,2.834-2.835,2.834
		s-2.834-1.27-2.834-2.834c0-1.566,1.269-2.835,2.834-2.835S224.957,198.58,224.957,200.146"/>
	
		<circle fill="none" stroke="#000000" stroke-width="0.4724" stroke-linejoin="bevel" stroke-miterlimit="10" cx="222.123" cy="200.146" r="2.834"/>
	<g>
		
			<circle fill="none" stroke="#FF8080" stroke-width="0.9448" stroke-linejoin="bevel" stroke-dasharray="5.6424,5.6424" cx="222.557" cy="200.146" r="136.493"/>
	</g>
	
		<path fill-rule="evenodd" clip-rule="evenodd" fill="none" stroke="#00B000" stroke-linejoin="bevel" stroke-miterlimit="10" stroke-dasharray="4.7242,4.7242" d="
		M241.962,330.543c42.489-27.813,70.564-75.823,70.564-130.397S284.451,97.561,241.962,69.748"/>
	<polyline fill="none" stroke="#000000" stroke-width="0.9448" stroke-miterlimit="10" points="114.409,49.914 114.409,30.073 
		327.001,1.727 327.001,398.564 114.409,370.219 114.409,350.377 	"/>
	<path fill="none" stroke="#00B000" stroke-width="0.9448" stroke-miterlimit="10" d="M241.962,69.757
		c-25.329-16.548-54.93-25.361-85.185-25.361c-86.018,0-155.75,69.732-155.75,155.75c0,86.017,69.731,155.749,155.75,155.749
		c30.255,0,59.856-8.812,85.185-25.36"/>
</g>
<g id="Ebene_9">
	<path fill="none" stroke="#000000" stroke-miterlimit="10" d="M241.295,330.982c1.589-0.937,3.153-1.993,4.691-3.162
		c25.192-19.168,43.156-69.097,43.156-127.674c0-58.59-17.971-108.527-43.173-127.686c-1.522-1.158-3.07-2.203-4.644-3.131"/>
	<path fill="none" stroke="#000000" stroke-width="0.4724" stroke-linejoin="bevel" stroke-miterlimit="10" d="M60.553,293.749
		c3.782,10.831,9.592,20.866,19.779,31.054"/>
	<path fill="none" stroke="#000000" stroke-width="0.4724" stroke-linejoin="bevel" stroke-miterlimit="10" d="M71.954,296.772
		c3.969,9.574,8.329,17.264,14.915,25.259"/>
	<path fill="none" stroke="#000000" stroke-width="0.4724" stroke-linejoin="bevel" stroke-miterlimit="10" d="M53.762,293.749
		c2.382,9.323,4.986,16.36,12.46,28.282"/>
	<path fill="none" stroke="#000000" stroke-width="0.4724" stroke-linejoin="bevel" stroke-miterlimit="10" d="M49.215,299.355
		c10.487,1.855,18.911,2.834,28.346,2.834"/>
	<path fill="none" stroke="#000000" stroke-width="0.4724" stroke-linejoin="bevel" stroke-miterlimit="10" d="M54.947,310.693
		c10.137,1.222,19.003,1.183,26.096,0.252"/>
	<path fill="none" stroke="#000000" stroke-width="0.4724" stroke-linejoin="bevel" stroke-miterlimit="10" d="M63.388,319.197
		c11.739-0.024,15.375-0.037,24.495-2.646"/>
</g>
<g id="Ebene_6" display="none">
	<circle display="inline" fill-rule="evenodd" clip-rule="evenodd" fill="#FFE1E1" cx="156.777" cy="200.146" r="155.749"/>
	<path display="inline" fill="none" stroke="#00B000" stroke-miterlimit="10" d="M241.962,69.757
		c-25.329-16.548-54.93-25.361-85.185-25.361c-86.018,0-155.75,69.732-155.75,155.75c0,86.017,69.731,155.749,155.75,155.749
		c30.255,0,59.856-8.812,85.185-25.36"/>
</g>
<g id="Ebene_8" display="none">
</g>
<g id="Ebene_7" display="none">
</g>
<g id="Ebene_2" display="none">
</g>
<g id="Ebene_3" display="none">
	<path display="inline" fill="none" stroke="#FFE1E1" stroke-miterlimit="10" d="M157.102,200.146
		c0-75.143,29.558-136.058,66.02-136.058c6.314,0,12.422,1.83,18.204,5.241c-24.35-15.771-53.378-24.933-84.549-24.933
		c-86.018,0-155.749,69.731-155.749,155.75c0,86.018,69.731,155.749,155.749,155.749c31.158,0,60.174-9.154,84.518-24.912
		c-5.773,3.399-11.87,5.222-18.173,5.222C186.66,336.204,157.102,275.289,157.102,200.146z"/>
	<path display="inline" fill="#FFBFBF" d="M241.295,330.982c1.589-0.937,3.153-1.993,4.691-3.162
		C244.442,328.9,242.879,329.956,241.295,330.982z"/>
	<path display="inline" fill="#FFBFBF" d="M241.326,69.329c1.568,1.016,3.115,2.061,4.644,3.131
		C244.447,71.302,242.899,70.257,241.326,69.329z"/>
	<path display="inline" fill="#FFBFBF" d="M289.143,200.146c0-58.59-17.971-108.527-43.173-127.686
		c-1.528-1.07-3.075-2.115-4.644-3.131c-5.782-3.411-11.89-5.241-18.204-5.241c-36.462,0-66.02,60.915-66.02,136.058
		s29.558,136.058,66.02,136.058c6.303,0,12.399-1.822,18.173-5.222c1.584-1.026,3.147-2.082,4.691-3.162
		C271.179,308.652,289.143,258.724,289.143,200.146z"/>
</g>
<g id="Ebene_4" display="none">
	<path display="inline" fill="#FFBFBF" d="M245.97,72.46c-1.522-1.158-3.07-2.203-4.644-3.131
		c-24.35-15.771-53.378-24.933-84.549-24.933c-86.018,0-155.749,69.731-155.749,155.75c0,86.018,69.731,155.749,155.749,155.749
		c31.158,0,60.174-9.154,84.518-24.912c1.589-0.937,3.153-1.993,4.691-3.162c25.192-19.168,43.156-69.097,43.156-127.674
		C289.143,141.556,271.172,91.619,245.97,72.46z"/>
</g>
<g id="Ebene_5" display="none">
	<path display="inline" fill="#FFBFBF" d="M245.97,72.46c-1.522-1.158-3.07-2.203-4.644-3.131
		c-24.35-15.771-53.378-24.933-84.549-24.933c-86.018,0-155.749,69.731-155.749,155.75c0,86.018,69.731,155.749,155.749,155.749
		c31.158,0,60.174-9.154,84.518-24.912c1.589-0.937,3.153-1.993,4.691-3.162c25.192-19.168,43.156-69.097,43.156-127.674
		C289.143,141.556,271.172,91.619,245.97,72.46z"/>
</g>
</svg>
