<?xml version="1.0" encoding="UTF-8" standalone="no"?>
<svg
   xmlns:dc="http://purl.org/dc/elements/1.1/"
   xmlns:cc="http://creativecommons.org/ns#"
   xmlns:rdf="http://www.w3.org/1999/02/22-rdf-syntax-ns#"
   xmlns:svg="http://www.w3.org/2000/svg"
   xmlns="http://www.w3.org/2000/svg"
   viewBox="0 0 94.7136 43.098427"
   height="43.098427"
   width="94.7136"
   xml:space="preserve"
   id="svg2"
   version="1.1"><metadata
     id="metadata8"><rdf:RDF><cc:Work
         rdf:about=""><dc:format>image/svg+xml</dc:format><dc:type
           rdf:resource="http://purl.org/dc/dcmitype/StillImage" /></cc:Work></rdf:RDF></metadata><defs
     id="defs6"><clipPath
       id="clipPath44"
       clipPathUnits="userSpaceOnUse"><path
         id="path42"
         d="M 0,10 V 334 H 720 V 10 Z" /></clipPath></defs><g
     transform="matrix(1.3333333,0,0,-1.3333333,0,44.432799)"
     id="g10"><g
       transform="scale(0.1)"
       id="g12"><path
         id="path14"
         style="fill:none;stroke:#bfbfbf;stroke-width:10;stroke-linecap:round;stroke-linejoin:miter;stroke-miterlimit:10;stroke-dasharray:none;stroke-opacity:1"
         d="m 29.1016,304.148 v 0" /><path
         id="path16"
         style="fill:none;stroke:#bfbfbf;stroke-width:10;stroke-linecap:round;stroke-linejoin:miter;stroke-miterlimit:10;stroke-dasharray:0, 19.55;stroke-dashoffset:0;stroke-opacity:1"
         d="M 47.1914,296.797 346.09,175.316" /><path
         id="path18"
         style="fill:none;stroke:#bfbfbf;stroke-width:10;stroke-linecap:round;stroke-linejoin:miter;stroke-miterlimit:10;stroke-dasharray:none;stroke-opacity:1"
         d="m 355.16,171.609 v 0" /><path
         id="path20"
         style="fill:none;stroke:#bfbfbf;stroke-width:10;stroke-linecap:round;stroke-linejoin:miter;stroke-miterlimit:10;stroke-dasharray:none;stroke-opacity:1"
         d="m 29.1016,171.609 v 0" /><path
         id="path22"
         style="fill:none;stroke:#bfbfbf;stroke-width:10;stroke-linecap:round;stroke-linejoin:miter;stroke-miterlimit:10;stroke-dasharray:0, 19.55;stroke-dashoffset:0;stroke-opacity:1"
         d="M 47.1914,164.27 346.09,42.7773" /><path
         id="path24"
         style="fill:none;stroke:#bfbfbf;stroke-width:10;stroke-linecap:round;stroke-linejoin:miter;stroke-miterlimit:10;stroke-dasharray:none;stroke-opacity:1"
         d="m 355.16,39.1094 v 0" /><path
         id="path26"
         style="fill:none;stroke:#bfbfbf;stroke-width:10;stroke-linecap:round;stroke-linejoin:miter;stroke-miterlimit:10;stroke-dasharray:none;stroke-opacity:1"
         d="m 681.25,304.148 v 0" /><path
         id="path28"
         style="fill:none;stroke:#bfbfbf;stroke-width:10;stroke-linecap:round;stroke-linejoin:miter;stroke-miterlimit:10;stroke-dasharray:0, 19.55;stroke-dashoffset:0;stroke-opacity:1"
         d="M 663.121,296.797 364.219,175.316" /><path
         id="path30"
         style="fill:none;stroke:#bfbfbf;stroke-width:10;stroke-linecap:round;stroke-linejoin:miter;stroke-miterlimit:10;stroke-dasharray:none;stroke-opacity:1"
         d="m 355.16,171.609 v 0" /><path
         id="path32"
         style="fill:none;stroke:#bfbfbf;stroke-width:10;stroke-linecap:round;stroke-linejoin:miter;stroke-miterlimit:10;stroke-dasharray:none;stroke-opacity:1"
         d="m 681.25,171.609 v 0" /><path
         id="path34"
         style="fill:none;stroke:#bfbfbf;stroke-width:10;stroke-linecap:round;stroke-linejoin:miter;stroke-miterlimit:10;stroke-dasharray:0, 19.55;stroke-dashoffset:0;stroke-opacity:1"
         d="M 663.121,178.988 364.219,300.477" /><path
         id="path36"
         style="fill:none;stroke:#bfbfbf;stroke-width:10;stroke-linecap:round;stroke-linejoin:miter;stroke-miterlimit:10;stroke-dasharray:none;stroke-opacity:1"
         d="m 355.16,304.148 v 0" /><g
         id="g38"><g
           clip-path="url(#clipPath44)"
           id="g40"><path
             id="path46"
             style="fill:#e30613;fill-opacity:1;fill-rule:nonzero;stroke:none"
             d="m 58.1602,304.148 c 0,-16.058 -13,-29.101 -29.0586,-29.101 C 13.0117,275.047 0,288.09 0,304.148 c 0,16.051 13.0117,29.098 29.1016,29.098 16.0586,0 29.0586,-13.047 29.0586,-29.098" /><path
             id="path48"
             style="fill:#e30613;fill-opacity:1;fill-rule:nonzero;stroke:none"
             d="m 58.1602,171.609 c 0,-16.062 -13,-29.062 -29.0586,-29.062 -16.0899,0 -29.1016,13 -29.1016,29.062 0,16.047 13.0117,29.098 29.1016,29.098 16.0586,0 29.0586,-13.051 29.0586,-29.098" /><path
             id="path50"
             style="fill:#e30613;fill-opacity:1;fill-rule:nonzero;stroke:none"
             d="m 58.1602,39.1094 c 0,-16.0899 -13,-29.1016 -29.0586,-29.1016 C 13.0117,10.0078 0,23.0195 0,39.1094 0,55.1563 13.0117,68.168 29.1016,68.168 c 16.0586,0 29.0586,-13.0117 29.0586,-29.0586" /><path
             id="path52"
             style="fill:#f9b233;fill-opacity:1;fill-rule:nonzero;stroke:none"
             d="m 384.262,304.148 c 0,-16.058 -13.012,-29.101 -29.102,-29.101 -16.058,0 -29.109,13.043 -29.109,29.101 0,16.051 13.051,29.098 29.109,29.098 16.09,0 29.102,-13.047 29.102,-29.098" /><path
             id="path54"
             style="fill:#f9b233;fill-opacity:1;fill-rule:nonzero;stroke:none"
             d="m 384.262,171.609 c 0,-16.062 -13.012,-29.062 -29.102,-29.062 -16.058,0 -29.109,13 -29.109,29.062 0,16.047 13.051,29.098 29.109,29.098 16.09,0 29.102,-13.051 29.102,-29.098" /><path
             id="path56"
             style="fill:#f9b233;fill-opacity:1;fill-rule:nonzero;stroke:none"
             d="m 384.262,39.1094 c 0,-16.0899 -13.012,-29.1016 -29.102,-29.1016 -16.058,0 -29.109,13.0117 -29.109,29.1016 0,16.0469 13.051,29.0586 29.109,29.0586 16.09,0 29.102,-13.0117 29.102,-29.0586" /><path
             id="path58"
             style="fill:#f9b233;fill-opacity:1;fill-rule:nonzero;stroke:none"
             d="m 384.262,304.148 c 0,-16.058 -13.012,-29.101 -29.102,-29.101 -16.058,0 -29.109,13.043 -29.109,29.101 0,16.051 13.051,29.098 29.109,29.098 16.09,0 29.102,-13.047 29.102,-29.098" /><path
             id="path60"
             style="fill:#1d71b8;fill-opacity:1;fill-rule:nonzero;stroke:none"
             d="m 710.352,304.148 c 0,-16.058 -13.051,-29.101 -29.102,-29.101 -16.09,0 -29.102,13.043 -29.102,29.101 0,16.051 13.012,29.098 29.102,29.098 16.051,0 29.102,-13.047 29.102,-29.098" /><path
             id="path62"
             style="fill:#1d71b8;fill-opacity:1;fill-rule:nonzero;stroke:none"
             d="m 710.352,171.609 c 0,-16.062 -13.051,-29.062 -29.102,-29.062 -16.09,0 -29.102,13 -29.102,29.062 0,16.047 13.012,29.098 29.102,29.098 16.051,0 29.102,-13.051 29.102,-29.098" /><path
             id="path64"
             style="fill:#1d71b8;fill-opacity:1;fill-rule:nonzero;stroke:none"
             d="m 710.352,39.1094 c 0,-16.0899 -13.051,-29.1016 -29.102,-29.1016 -16.09,0 -29.102,13.0117 -29.102,29.1016 0,16.0469 13.012,29.0586 29.102,29.0586 16.051,0 29.102,-13.0117 29.102,-29.0586" /><path
             id="path66"
             style="fill:#1d71b8;fill-opacity:1;fill-rule:nonzero;stroke:none"
             d="m 710.352,304.148 c 0,-16.058 -13.051,-29.101 -29.102,-29.101 -16.09,0 -29.102,13.043 -29.102,29.101 0,16.051 13.012,29.098 29.102,29.098 16.051,0 29.102,-13.047 29.102,-29.098" /></g></g></g></g></svg>