<?xml version="1.0" encoding="utf-8"?>
<!-- Generator: Adobe Illustrator 16.0.4, SVG Export Plug-In . SVG Version: 6.00 Build 0)  -->
<!DOCTYPE svg PUBLIC "-//W3C//DTD SVG 1.1//EN" "http://www.w3.org/Graphics/SVG/1.1/DTD/svg11.dtd">
<svg version="1.1" id="Ebene_1" xmlns="http://www.w3.org/2000/svg" xmlns:xlink="http://www.w3.org/1999/xlink" x="0px" y="0px"
	 width="94.01px" height="94.26px" viewBox="0 0 94.01 94.26" enable-background="new 0 0 94.01 94.26" xml:space="preserve">
<rect x="19.88" y="2.129" fill="#E6E6E6" width="36" height="18"/>
<rect x="37.88" y="38.13" fill="#E6E6E6" width="18" height="18"/>
<g>
	<g>
		
			<line fill="none" stroke="#000000" stroke-width="0.5" stroke-linecap="round" stroke-miterlimit="10" x1="19.88" y1="2.13" x2="19.88" y2="2.13"/>
		
			<line fill="none" stroke="#000000" stroke-width="0.5" stroke-linecap="round" stroke-miterlimit="10" stroke-dasharray="0,1.8" x1="19.88" y1="3.93" x2="19.88" y2="10.229"/>
		
			<line fill="none" stroke="#000000" stroke-width="0.5" stroke-linecap="round" stroke-miterlimit="10" x1="19.88" y1="11.13" x2="19.88" y2="11.13"/>
	</g>
</g>
<g>
	<g>
		
			<line fill="none" stroke="#000000" stroke-width="0.5" stroke-linecap="round" stroke-miterlimit="10" x1="55.88" y1="11.13" x2="55.88" y2="11.13"/>
		
			<line fill="none" stroke="#000000" stroke-width="0.5" stroke-linecap="round" stroke-miterlimit="10" stroke-dasharray="0,1.8" x1="55.88" y1="12.93" x2="55.88" y2="19.229"/>
		
			<line fill="none" stroke="#000000" stroke-width="0.5" stroke-linecap="round" stroke-miterlimit="10" x1="55.88" y1="20.13" x2="55.88" y2="20.13"/>
	</g>
</g>
<g>
	<g>
		
			<line fill="none" stroke="#000000" stroke-width="0.5" stroke-linecap="round" stroke-miterlimit="10" x1="37.88" y1="38.13" x2="37.88" y2="38.13"/>
		
			<line fill="none" stroke="#000000" stroke-width="0.5" stroke-linecap="round" stroke-miterlimit="10" stroke-dasharray="0,1.8" x1="37.88" y1="39.93" x2="37.88" y2="46.229"/>
		
			<line fill="none" stroke="#000000" stroke-width="0.5" stroke-linecap="round" stroke-miterlimit="10" x1="37.88" y1="47.13" x2="37.88" y2="47.13"/>
	</g>
</g>
<g>
	<g>
		
			<line fill="none" stroke="#000000" stroke-width="0.5" stroke-linecap="round" stroke-miterlimit="10" x1="55.88" y1="47.13" x2="55.88" y2="47.13"/>
		
			<line fill="none" stroke="#000000" stroke-width="0.5" stroke-linecap="round" stroke-miterlimit="10" stroke-dasharray="0,1.8" x1="55.88" y1="48.93" x2="55.88" y2="55.229"/>
		
			<line fill="none" stroke="#000000" stroke-width="0.5" stroke-linecap="round" stroke-miterlimit="10" x1="55.88" y1="56.13" x2="55.88" y2="56.13"/>
	</g>
</g>
<g>
	<g>
		<g>
			<line fill="none" stroke="#E30613" stroke-width="2" stroke-miterlimit="10" x1="19.88" y1="2.13" x2="73.88" y2="2.13"/>
			<g>
				<circle fill="#E30613" cx="19.88" cy="2.13" r="1.88"/>
			</g>
			<g>
				<g>
					<circle fill="#FFFFFF" cx="73.88" cy="2.13" r="1.88"/>
					<path fill="#E30613" d="M73.88,4.26c-1.174,0-2.13-0.956-2.13-2.13S72.706,0,73.88,0s2.13,0.956,2.13,2.13
						S75.054,4.26,73.88,4.26S75.054,4.26,73.88,4.26z M73.88,0.5c-0.898,0-1.63,0.731-1.63,1.63s0.731,1.63,1.63,1.63
						s1.63-0.731,1.63-1.63S74.778,0.5,73.88,0.5S74.778,0.5,73.88,0.5z"/>
				</g>
			</g>
		</g>
	</g>
	<g>
		<g>
			<line fill="none" stroke="#F9B233" stroke-width="2" stroke-miterlimit="10" x1="19.88" y1="11.13" x2="55.88" y2="11.13"/>
			<g>
				<circle fill="#F9B233" cx="19.88" cy="11.13" r="1.88"/>
			</g>
			<g>
				<g>
					<circle fill="#FFFFFF" cx="55.88" cy="11.13" r="1.88"/>
					<path fill="#F9B233" d="M55.88,13.26c-1.174,0-2.13-0.956-2.13-2.13S54.706,9,55.88,9s2.13,0.956,2.13,2.13
						S57.054,13.26,55.88,13.26S57.054,13.26,55.88,13.26z M55.88,9.5c-0.898,0-1.63,0.731-1.63,1.63s0.731,1.63,1.63,1.63
						s1.63-0.731,1.63-1.63S56.778,9.5,55.88,9.5S56.778,9.5,55.88,9.5z"/>
				</g>
			</g>
		</g>
	</g>
	<g>
		<g>
			<line fill="none" stroke="#1D71B8" stroke-width="2" stroke-miterlimit="10" x1="1.88" y1="20.13" x2="55.88" y2="20.13"/>
			<g>
				<circle fill="#1D71B8" cx="1.88" cy="20.13" r="1.88"/>
			</g>
			<g>
				<g>
					<circle fill="#FFFFFF" cx="55.88" cy="20.13" r="1.88"/>
					<path fill="#1D71B8" d="M55.88,22.26c-1.174,0-2.13-0.956-2.13-2.13S54.706,18,55.88,18s2.13,0.956,2.13,2.13
						S57.054,22.26,55.88,22.26S57.054,22.26,55.88,22.26z M55.88,18.5c-0.898,0-1.63,0.731-1.63,1.63s0.731,1.63,1.63,1.63
						s1.63-0.731,1.63-1.63S56.778,18.5,55.88,18.5S56.778,18.5,55.88,18.5z"/>
				</g>
			</g>
		</g>
	</g>
</g>
<g>
	<g>
		<g>
			<line fill="none" stroke="#E30613" stroke-width="2" stroke-miterlimit="10" x1="37.88" y1="38.13" x2="91.88" y2="38.13"/>
			<g>
				<circle fill="#E30613" cx="37.88" cy="38.13" r="1.88"/>
			</g>
			<g>
				<g>
					<circle fill="#FFFFFF" cx="91.88" cy="38.13" r="1.88"/>
					<path fill="#E30613" d="M91.88,40.26c-1.174,0-2.13-0.956-2.13-2.13S90.706,36,91.88,36s2.13,0.956,2.13,2.13
						S93.054,40.26,91.88,40.26S93.054,40.26,91.88,40.26z M91.88,36.5c-0.898,0-1.63,0.731-1.63,1.63s0.731,1.63,1.63,1.63
						s1.63-0.731,1.63-1.63S92.778,36.5,91.88,36.5S92.778,36.5,91.88,36.5z"/>
				</g>
			</g>
		</g>
	</g>
	<g>
		<g>
			<line fill="none" stroke="#F9B233" stroke-width="2" stroke-miterlimit="10" x1="37.88" y1="47.13" x2="55.88" y2="47.13"/>
			<g>
				<circle fill="#F9B233" cx="37.88" cy="47.131" r="1.88"/>
			</g>
			<g>
				<g>
					<circle fill="#FFFFFF" cx="55.88" cy="47.131" r="1.88"/>
					<path fill="#F9B233" d="M55.88,49.261c-1.174,0-2.13-0.957-2.13-2.131s0.956-2.129,2.13-2.129s2.13,0.955,2.13,2.129
						S57.054,49.261,55.88,49.261S57.054,49.261,55.88,49.261z M55.88,45.501c-0.898,0-1.63,0.73-1.63,1.629s0.731,1.631,1.63,1.631
						s1.63-0.732,1.63-1.631S56.778,45.501,55.88,45.501S56.778,45.501,55.88,45.501z"/>
				</g>
			</g>
		</g>
	</g>
	<g>
		<g>
			<line fill="none" stroke="#1D71B8" stroke-width="2" stroke-miterlimit="10" x1="19.88" y1="56.13" x2="55.88" y2="56.13"/>
			<g>
				<circle fill="#1D71B8" cx="19.88" cy="56.13" r="1.88"/>
			</g>
			<g>
				<g>
					<circle fill="#FFFFFF" cx="55.88" cy="56.13" r="1.88"/>
					<path fill="#1D71B8" d="M55.88,58.26c-1.174,0-2.13-0.956-2.13-2.13S54.706,54,55.88,54s2.13,0.956,2.13,2.13
						S57.054,58.26,55.88,58.26S57.054,58.26,55.88,58.26z M55.88,54.5c-0.898,0-1.63,0.731-1.63,1.63s0.731,1.63,1.63,1.63
						s1.63-0.731,1.63-1.63S56.778,54.5,55.88,54.5S56.778,54.5,55.88,54.5z"/>
				</g>
			</g>
		</g>
	</g>
</g>
<g>
	<g>
		<line fill="none" stroke="#E30613" stroke-width="2" stroke-miterlimit="10" x1="37.88" y1="74.13" x2="73.88" y2="74.13"/>
		<g>
			<circle fill="#E30613" cx="37.88" cy="74.13" r="1.88"/>
		</g>
		<g>
			<g>
				<circle fill="#FFFFFF" cx="73.88" cy="74.13" r="1.88"/>
				<path fill="#E30613" d="M73.88,76.26c-1.174,0-2.13-0.956-2.13-2.13S72.706,72,73.88,72s2.13,0.956,2.13,2.13
					S75.054,76.26,73.88,76.26S75.054,76.26,73.88,76.26z M73.88,72.5c-0.898,0-1.63,0.731-1.63,1.63s0.731,1.63,1.63,1.63
					s1.63-0.731,1.63-1.63S74.778,72.5,73.88,72.5S74.778,72.5,73.88,72.5z"/>
			</g>
		</g>
	</g>
</g>
<g>
	<g>
		<line fill="none" stroke="#1D71B8" stroke-width="2" stroke-miterlimit="10" x1="28.88" y1="92.13" x2="82.88" y2="92.13"/>
		<g>
			<circle fill="#1D71B8" cx="28.88" cy="92.13" r="1.88"/>
		</g>
		<g>
			<g>
				<circle fill="#FFFFFF" cx="82.88" cy="92.13" r="1.88"/>
				<path fill="#1D71B8" d="M82.88,94.26c-1.174,0-2.13-0.956-2.13-2.13S81.706,90,82.88,90s2.13,0.956,2.13,2.13
					S84.054,94.26,82.88,94.26S84.054,94.26,82.88,94.26z M82.88,90.5c-0.898,0-1.63,0.731-1.63,1.63s0.731,1.63,1.63,1.63
					s1.63-0.731,1.63-1.63S83.778,90.5,82.88,90.5S83.778,90.5,82.88,90.5z"/>
			</g>
		</g>
	</g>
</g>
<g>
</g>
<g>
</g>
<g>
</g>
<g>
</g>
<g>
</g>
<g>
</g>
<g>
</g>
<g>
</g>
</svg>
