<?xml version="1.0" encoding="utf-8"?>
<!-- Generator: Adobe Illustrator 16.0.4, SVG Export Plug-In . SVG Version: 6.00 Build 0)  -->
<!DOCTYPE svg PUBLIC "-//W3C//DTD SVG 1.1//EN" "http://www.w3.org/Graphics/SVG/1.1/DTD/svg11.dtd">
<svg version="1.1" id="Ebene_1" xmlns="http://www.w3.org/2000/svg" xmlns:xlink="http://www.w3.org/1999/xlink" x="0px" y="0px"
	 width="150px" height="150px" viewBox="0 0 150 150" enable-background="new 0 0 150 150" xml:space="preserve">
<g>
	<path fill-rule="evenodd" clip-rule="evenodd" fill="#571EA3" d="M1.673,17.516c0.526-3.658,0.603-8.08-1.574-11.276
		c0,6.113,0,12.225,0,18.338C0.819,22.276,1.287,19.893,1.673,17.516"/>
	<path fill-rule="evenodd" clip-rule="evenodd" fill="#571EA3" d="M27.782,135.155c-0.162-10.63-13.598-15.478-21.471-9.19
		c-7.66,6.116-5.589,19.692,4.565,21.646C18.709,149.116,27.992,143.862,27.782,135.155"/>
</g>
<g>
	<path fill-rule="evenodd" clip-rule="evenodd" fill="#3E5BD0" d="M149.862,9.496c-1.539,4.16-1.728,8.689-1.61,13.084
		c0.124,4.648,0.651,9.29,1.621,13.836c0-4.518,0-9.035,0-13.553c0-2.247,0-4.494,0-6.742
		C149.873,13.964,150.074,11.551,149.862,9.496"/>
	<path fill-rule="evenodd" clip-rule="evenodd" fill="#3E5BD0" d="M91.033,61.151c-0.649-5.481-3.349-9.813-6.952-13.892
		c-1.687-1.909-3.896-3.581-6.121-4.806c-2.377-1.31-4.752-1.86-7.446-1.542c-2.794,0.329-4.015,3.263-4.71,5.555
		c-0.647,2.133-0.494,5.021-0.068,7.201c0.988,5.047,2.821,9.821,6.506,13.521c3.037,3.048,8.062,4.659,12.241,3.362
		c2.071-0.643,3.909-1.735,5.146-3.571C90.644,65.472,91.374,62.965,91.033,61.151"/>
	<path fill-rule="evenodd" clip-rule="evenodd" fill="#3E5BD0" d="M0.461,32.222c1.78-4.443,3.766-8.945,4.949-13.594
		C6.55,14.144,7.525,8.89,4.679,4.785C3.504,3.09,1.962,1.612,0.099,0.689c0,1.376,0,2.751,0,4.126c0,0.672-0.03,1.179,0.228,1.777
		c0.228,0.528,0.518,1.024,0.725,1.564c0.81,2.115,0.944,4.363,0.898,6.603c-0.046,2.258-0.527,4.575-1.041,6.767
		c-0.269,1.146-0.81,2.352-0.81,3.53c0,1.458,0,2.917,0,4.376c0,1.216,0,2.432,0,3.647C0.221,32.794,0.344,32.509,0.461,32.222"/>
	<path fill-rule="evenodd" clip-rule="evenodd" fill="#3E5BD0" d="M142.302,149.407c-3.354-2.283-7.622-2.154-11.499-1.764
		c-3.957,0.398-7.911,1.236-11.763,2.217c7.933,0,15.868,0,23.8,0C142.666,149.704,142.486,149.554,142.302,149.407"/>
	<path fill-rule="evenodd" clip-rule="evenodd" fill="#3E5BD0" d="M35.731,132.009c-0.396-4.794-2.485-9.539-6.403-12.486
		c-4.115-3.1-9.37-4.276-14.462-3.933c-4.986,0.338-9.996,2.099-13.431,5.87c-0.438,0.482-0.824,1.015-1.227,1.525
		c-0.355,0.449-0.11,1.638-0.11,2.193c0,1.236,0,2.473,0,3.711c0,2.908,0,5.818,0,8.729c0,1.397,0,2.793,0,4.188
		c0,1.25-0.239,2.807,0,4.041c0.192,0.99,1.479,2.01,2.249,2.674c0.91,0.783,1.562,1.338,2.767,1.338c5.499,0,10.997,0,16.496,0
		c1.28,0,2.559,0,3.839,0c0.829,0,1.949-0.896,2.625-1.369c1.578-1.104,3.182-2.457,4.275-4.061
		C34.899,140.689,36.062,136.542,35.731,132.009 M18.82,147.05c-4.345,1.422-9.06,1.074-12.817-1.635
		c-3.795-2.736-5.111-8.039-4.067-12.435c2.429-10.226,15.943-13.076,22.889-5.512c2.733,2.977,3.606,7.437,2.449,11.269
		C26.041,142.815,22.693,145.591,18.82,147.05"/>
</g>
<g>
	<path fill-rule="evenodd" clip-rule="evenodd" fill="#4F97BB" d="M4.112,149.829c-1.535-1.041-2.888-2.227-4.013-3.709
		c0,0.658,0,1.318,0,1.979c0,0.439-0.213,1.762,0.209,1.762C1.338,149.86,3.32,150.159,4.112,149.829"/>
	<path fill-rule="evenodd" clip-rule="evenodd" fill="#4F97BB" d="M149.79,4.066c-3.433,3.201-3.744,8.376-3.875,12.799
		c-0.137,4.622,0.08,9.312,0.687,13.893c0.676,5.104,1.586,10.181,3.271,15.058c0-2.75,0-5.498,0-8.248
		c0-2.538-0.705-5.245-1.121-7.762c-0.764-4.624-0.764-9.729-0.245-14.375c0.195-1.751,0.472-3.554,1.088-5.215
		C149.884,9.44,150.138,4.107,149.79,4.066"/>
	<path fill-rule="evenodd" clip-rule="evenodd" fill="#4F97BB" d="M1.341,37.568c1.921-4.586,4.363-8.985,6.7-13.369
		c2.229-4.184,4.673-8.473,5.217-13.254c0.259-2.27-0.37-4.602-1.475-6.57c-0.589-1.05-1.441-2.069-2.324-2.884
		c-0.398-0.368-0.871-0.815-1.337-1.09C7.557,0.068,7.03,0.138,6.362,0.138c-1.419,0-2.837,0-4.257,0c-0.343,0-1.835-0.187-2.006,0
		C-0.354,0.629,0.9,1.146,1.184,1.329c1.644,1.056,3.271,2.649,4.075,4.46c2.044,4.61,1.218,9.339-0.191,14.02
		c-0.705,2.342-1.579,4.628-2.444,6.914c-0.409,1.083-0.855,2.15-1.269,3.231c-0.435,1.133-1.255,2.459-1.255,3.671
		c0,2.164,0,4.327,0,6.491C0.501,39.259,0.9,38.406,1.341,37.568"/>
	<path fill-rule="evenodd" clip-rule="evenodd" fill="#4F97BB" d="M104.62,64.518c-0.594-4.903-2.764-9.64-5.343-13.802
		c-2.766-4.465-5.981-8.709-9.632-12.492c-3.59-3.721-7.509-7.246-12.041-9.792c-4.078-2.291-8.936-4.282-13.708-4.111
		c-2.747,0.099-5.284,0.455-7.633,1.979c-2.222,1.441-3.336,3.813-3.899,6.318c-1.107,4.936-0.237,10.626,0.658,15.54
		c0.94,5.149,1.912,10.299,3.418,15.32c1.576,5.258,3.465,10.563,7.155,14.726c3.699,4.175,8.936,6.021,14.408,6.351
		c5.141,0.311,10.631-0.18,15.395-2.291c3.502-1.553,6.59-3.486,8.825-6.676C104.536,72.292,104.863,68.403,104.62,64.518
		 M81.653,71.008c-2.838-0.218-5.189-0.837-7.615-2.369c-2.066-1.306-3.683-3.366-4.916-5.441c-2.495-4.198-4.19-9.795-3.577-14.708
		c0.303-2.432,0.775-5.171,2.956-6.709c2.312-1.63,5.153-1.004,7.627-0.221c2.35,0.744,4.428,2.581,6.291,4.111
		c2.023,1.661,3.738,3.859,5.165,6.04c1.212,1.853,2.156,3.801,2.804,5.917c0.664,2.181,0.688,4.197,0.45,6.44
		c-0.202,1.903-1.712,3.894-3.21,4.975C85.823,70.342,83.831,70.771,81.653,71.008"/>
	<path fill-rule="evenodd" clip-rule="evenodd" fill="#4F97BB" d="M42.843,128.52c-0.515-4.86-1.645-9.608-4.89-13.416
		c-3.238-3.799-8.229-5.446-13.029-6.103c-4.968-0.678-10.179-0.344-15.039,0.859c-2.438,0.604-5.068,1.508-7.15,2.947
		c-0.544,0.376-1.102,0.734-1.616,1.152c-0.704,0.57-1.021,0.684-1.021,1.562c0,1.561,0,3.121,0,4.682c0,0.975,0,1.947,0,2.921
		c3.242-4.109,7.489-6.542,12.684-7.332c4.888-0.742,10.297-0.066,14.605,2.446c9.19,5.354,10.701,17.771,4.962,26.192
		c-1.604,2.354-4.117,4.102-6.586,5.43c2.823,0,5.646,0,8.469,0c1.081,0,2.28-1.621,3.001-2.363c0.86-0.889,1.561-1.918,2.244-2.945
		c2.781-4.174,3.574-9.726,3.413-14.635C42.875,129.451,42.858,128.985,42.843,128.52"/>
	<path fill-rule="evenodd" clip-rule="evenodd" fill="#4F97BB" d="M147.519,148.843c-1.038-5.09-6.606-6.248-11.074-5.51
		c-4.839,0.799-9.577,1.787-14.312,3.09c-3.885,1.07-7.759,2.197-11.591,3.438c2.767,0,5.534,0,8.303,0
		c1.128,0,2.483-0.551,3.589-0.795c1.081-0.238,2.168-0.453,3.257-0.656c4.411-0.818,9.55-1.744,13.931-0.332
		c0.562,0.182,1.118,0.41,1.642,0.682c0.524,0.273,1.058,0.906,1.578,1.102c0.562,0.211,1.486,0,2.103,0c0.941,0,1.884,0,2.825,0
		C147.716,149.515,147.626,149.175,147.519,148.843"/>
</g>
<g>
	<path fill-rule="evenodd" clip-rule="evenodd" fill="#72B584" d="M148.535,135.478c-2.141-0.328-4.76,0.49-6.804,1.084
		c-2.465,0.718-4.895,1.526-7.327,2.347c-4.348,1.465-8.652,3.054-12.994,4.53c-6.226,2.117-12.494,4.148-18.666,6.422
		c1.437,0,2.872,0,4.308,0c1.189,0,2.715,0.25,3.859-0.121c2.395-0.775,4.811-1.498,7.231-2.189
		c4.735-1.35,9.498-2.723,14.346-3.604c4.183-0.76,10.342-1.945,13.538,1.738c0.708,0.816,1.206,1.955,1.453,2.998
		c0.144,0.594,0.074,1.178,0.723,1.178c0.462,0,1.671,0.256,1.671-0.248c0-2.994,0-5.99,0-8.985c0-1.015,0-2.032,0-3.048
		c0-0.533,0-1.064,0-1.599C149.873,135.472,148.984,135.629,148.535,135.478"/>
	<path fill-rule="evenodd" clip-rule="evenodd" fill="#72B584" d="M50.352,120.45c-0.271-4.977-0.011-10.423-2.11-15.061
		c-1.18-2.607-3.455-3.557-6.076-4.113c-2.562-0.545-5.348-0.578-7.963-0.451c-10.17,0.495-20.637,0.827-30.277,4.477
		c-0.896,0.34-1.714,0.8-2.554,1.257c-0.288,0.158-0.947,0.362-1.162,0.633c-0.25,0.314-0.11,1.019-0.11,1.441
		c0,2.053,0,4.104,0,6.155c7.893-6.409,19.818-7.574,29.42-4.827c4.677,1.338,8.635,4.335,10.814,8.726
		c2.303,4.639,2.717,9.799,2.483,14.893c-0.13,2.865-0.82,6.233-2.177,8.781c-1.597,2.998-3.395,5.281-5.974,7.5
		c1.322,0,2.644,0,3.965,0c1.101,0,3.225,0.363,4.114-0.148c0.881-0.506,1.955-2.125,2.461-3c0.692-1.197,1.424-2.354,1.948-3.637
		c1.939-4.757,2.771-9.971,3.009-15.084C50.278,125.491,50.491,122.952,50.352,120.45"/>
	<path fill-rule="evenodd" clip-rule="evenodd" fill="#72B584" d="M0.585,46.075c2.106-4.472,4.574-8.783,7.347-12.874
		c2.698-3.98,5.982-7.263,9.493-10.508c1.708-1.578,3.809-2.968,5.803-4.151c1.751-1.038,4.843-2.683,4.773-5.036
		c-0.066-2.195-1.756-4.409-2.959-6.127c-1.449-2.069-3.219-3.801-4.991-5.583c-0.627-0.629-1.578-1.658-2.471-1.658
		c-0.966,0-1.93,0-2.896,0c-2.302,0-4.605,0-6.907,0c3.84,2.772,6.353,7.283,5.32,12.115c-1.006,4.71-3.497,8.764-5.622,13.024
		c-1.685,3.374-3.521,6.669-5.139,10.078c-0.445,0.935-0.831,1.9-1.312,2.815c-0.37,0.704-0.925,1.516-0.925,2.318
		c0,2.183,0,4.366,0,6.549C0.259,46.715,0.423,46.396,0.585,46.075"/>
	<path fill-rule="evenodd" clip-rule="evenodd" fill="#72B584" d="M104.224,88.185c4.602-2.755,8.229-5.995,10.135-11.155
		c1.727-4.671,1.142-10.027-0.305-14.678c-1.574-5.058-4.323-9.796-7.312-14.142c-3.025-4.397-6.32-8.608-9.791-12.661
		c-6.733-7.867-14.627-15.846-24.713-19.16c-9.787-3.215-19.948-3.47-30.042-1.98c-1.209,0.179-2.603,0.438-3.711,0.948
		c-1.13,0.519-2.287,0.734-3,1.885c-0.682,1.101-0.241,2.471,0.071,3.598c0.313,1.134,0.606,2.258,1.049,3.36
		c1.839,4.578,3.263,9.303,4.927,13.946c1.768,4.934,2.888,10.226,4.035,15.333c1.176,5.238,2.04,10.522,3.06,15.789
		c0.991,5.111,1.638,10.272,2.695,15.374c0.255,1.233,0.369,2.475,0.863,3.636c0.511,1.2,0.886,2.625,1.624,3.693
		c1.538,2.223,4.398,3.404,7.067,3.479c1.316,0.036,2.576,0.048,3.884,0.186c1.295,0.134,2.624-0.179,3.919-0.205
		c2.562-0.053,5.093-0.281,7.651-0.467c5.346-0.387,10.646-1.436,15.879-2.543C96.365,91.54,100.439,90.112,104.224,88.185
		 M58.327,69.039c-1.849-5.091-3.151-10.241-4.31-15.524c-0.576-2.624-1.018-5.285-1.345-7.949c-0.317-2.573-0.75-5.13-0.727-7.733
		c0.047-5.028,0.928-10.529,6.248-12.557c4.666-1.779,10.191-0.94,14.719,0.899c9.47,3.846,17.343,11.574,23.195,19.813
		c2.961,4.168,5.67,8.521,7.304,13.396c1.575,4.709,2.138,10.337-0.374,14.849c-5.166,9.275-18.191,11.531-27.855,10.056
		c-3.761-0.575-7.872-2.179-10.559-4.958C61.744,76.354,59.762,72.91,58.327,69.039"/>
	<path fill-rule="evenodd" clip-rule="evenodd" fill="#72B584" d="M149.827,0.184c-2.59,0.291-4.629,0.853-5.854,3.292
		c-0.938,1.866-0.834,4.519-0.921,6.553c-0.215,5.064,0.041,10.161,0.361,15.216c0.608,9.625,2.118,19.172,5.98,28.06
		c0.148,0.341,0.311,0.673,0.479,1.004c0-2.757,0-5.516,0-8.273c0-1.032-0.653-2.167-0.916-3.174
		c-0.318-1.225-0.681-2.429-0.929-3.67c-0.992-4.967-1.72-9.931-2.005-14.993c-0.224-3.985-0.298-8.067,0.241-12.03
		c0.285-2.093,0.726-4.543,1.959-6.305c0.374-0.536,1.649-1.53,1.649-2.122C149.873,2.741,150.171,1.031,149.827,0.184"/>
</g>
<g>
	<path fill-rule="evenodd" clip-rule="evenodd" fill="#A3BD56" d="M148.56,123.124c-4.471,2.343-8.383,5.535-12.613,8.254
		c-4.292,2.76-8.694,5.182-13.282,7.415c-9.078,4.421-18.751,7.544-28.219,10.991c-0.07,0.023-0.14,0.051-0.21,0.076
		c2.812,0,5.623,0,8.435,0c0.548,0,1.216-0.438,1.736-0.611c0.594-0.201,1.193-0.391,1.791-0.586c1.221-0.4,2.419-0.902,3.654-1.258
		c2.561-0.736,5.079-1.744,7.605-2.6c2.37-0.805,4.732-1.643,7.098-2.463c4.056-1.404,8.082-2.915,12.168-4.228
		c2.105-0.675,4.211-1.313,6.341-1.904c2.307-0.642,4.462-0.786,6.81-0.508c0-4.408,0-8.814,0-13.223
		C149.434,122.692,148.997,122.909,148.56,123.124"/>
	<path fill-rule="evenodd" clip-rule="evenodd" fill="#A3BD56" d="M96.383,99.739c5.093-1.166,10.436-2.284,15.19-4.52
		c4.52-2.125,9.213-5.083,11.502-9.738c2.338-4.76,3.356-9.605,3.005-14.915c-0.342-5.147-2.298-9.76-4.742-14.232
		c-2.393-4.377-5.734-8.43-8.883-12.276c-3.368-4.115-6.727-8.238-10.119-12.336c-3.235-3.91-6.485-7.832-10.033-11.465
		c-3.632-3.72-7.54-6.75-12.206-9.063C75.392,8.86,69.918,8,64.788,7.185c-4.961-0.787-9.967-1.291-14.945-1.965
		C44.741,4.529,39.549,3.567,34.77,1.59c-1.074-0.444-2.289-1.181-3.407-1.452c-1.273-0.309-3.103,0-4.403,0
		c-2.713,0-5.426,0-8.139,0c-0.24,0-0.479,0-0.719,0c1.931,1.623,4.104,3.341,5.556,5.434c1.32,1.905,3.005,3.693,3.808,5.912
		c0.373,1.03,0.822,2.289,0.292,3.358c-0.487,0.984-1.672,1.781-2.522,2.401c-2.012,1.468-4.202,2.68-6.201,4.186
		c-7.851,5.911-13.02,14.146-17.519,22.722c-0.342,0.652-0.63,1.331-0.962,1.987c-0.44,0.869-0.455,1.395-0.455,2.372
		c0,2.073,0,4.146,0,6.219c2.153-4.274,4.253-8.539,7.084-12.422c2.846-3.904,6.472-7.725,11.206-9.195
		c10.831-3.365,16.684,10.981,18.974,18.981c1.388,4.85,2.385,9.957,2.611,15.004c0.235,5.249,0.084,10.592-2.021,15.486
		c-4.132,9.604-16.312,11.521-25.386,13.465c-3.302,0.706-6.642,1.332-9.884,2.29c-0.835,0.247-1.653,0.546-2.476,0.829
		c-0.323,0.112-0.108,2.177-0.108,2.583c0,1.838,0,3.674,0,5.512c8.727-5.174,19.813-5.72,29.707-6.311
		c2.58-0.153,5.156-0.122,7.736-0.126c2.429-0.003,5.439,0.168,7.645,1.288c2.657,1.35,3.252,3.921,4.106,6.483
		c0.391,1.172,0.423,2.56,0.587,3.781c0.152,1.138,0.304,2.343,0.325,3.492c0.195,10.188,0.594,21.171-4.681,30.291
		c-0.799,1.383-1.842,2.537-2.926,3.699c1.352,0,2.704,0,4.056,0c1.272,0,3.057,0.314,4.262,0c0.835-0.219,1.728-2.156,2.085-2.977
		c0.557-1.277,1.055-2.527,1.511-3.844c1.737-5.016,2.292-10.459,3.355-15.642c1.072-5.226,2.521-10.48,5.738-14.816
		c3.174-4.28,8.344-6.536,13.252-8.174C83.194,102.295,89.872,101.189,96.383,99.739 M87.969,93.323
		c-5.163,0.949-10.417,1.648-15.658,1.979c-1.217,0.076-2.466,0.034-3.673,0.132c-1.341,0.108-2.753,0.319-4.094,0.178
		c-1.311-0.137-2.583-0.131-3.902-0.168c-1.354-0.038-2.611-0.587-3.866-1.042c-2.852-1.035-3.597-3.785-4.675-6.319
		c-0.489-1.15-0.576-2.457-0.83-3.683c-0.263-1.268-0.508-2.527-0.733-3.805c-0.913-5.196-1.713-10.414-2.663-15.61
		c-1.88-10.291-4.267-20.423-7.497-30.374c-0.83-2.557-1.745-5.101-2.723-7.604c-0.368-0.943-0.735-1.903-1.067-2.856
		c-0.383-1.097-0.64-2.318-1.059-3.378c-0.462-1.165-0.609-2.619,0.074-3.719c0.672-1.086,2.026-1.303,3.084-1.79
		c1.096-0.504,2.537-0.71,3.735-0.887c1.191-0.176,2.369-0.468,3.581-0.567c10.067-0.828,20.717-0.255,29.985,4.14
		c9.617,4.56,17.138,12.697,23.7,20.892c6.364,7.947,13.515,16.931,15.3,27.241c0.867,5.016,0.364,10.457-2.491,14.802
		c-2.833,4.311-7.219,7.086-11.929,8.992C96.541,91.507,92.227,92.517,87.969,93.323"/>
	<path fill-rule="evenodd" clip-rule="evenodd" fill="#A3BD56" d="M143.025,10.671c0.101-2.35,0.139-4.77,0.877-7.022
		c0.88-2.679,3.522-3.131,5.971-3.476c-0.875-0.222-2.141-0.036-3.099-0.036c-1.194,0-2.391,0-3.586,0c-2.268,0-4.536,0-6.803,0
		c-4.656,0-9.312,0-13.97,0c4.26,0.685,9.89,1.076,13.182,4.199c3.517,3.337,3.651,9.543,4.029,14.065
		c0.42,5.013,0.776,10.045,1.064,15.068c0.262,4.54,0.701,9.339,1.814,13.758c1.462,5.793,3.511,11.44,7.367,16.117
		c0-2.781,0-5.561,0-8.341c0-1.104-0.68-2.061-1.088-3.08c-0.444-1.107-0.881-2.211-1.267-3.34
		c-1.564-4.581-2.501-9.287-3.173-14.073C143.245,26.669,142.789,18.586,143.025,10.671"/>
</g>
<path fill-rule="evenodd" clip-rule="evenodd" fill="#D3B23F" d="M39.979,67.215c-0.167-5.029-1.184-10.213-2.591-15.033
	c-1.409-4.828-3.315-9.43-6.161-13.591c-2.743-4.011-7.667-7.088-12.625-5.548c-4.776,1.484-8.436,5.169-11.321,9.125
	c-2.334,3.202-4.238,6.661-6.036,10.183c-0.397,0.778-1.017,1.75-1.148,2.595c-0.182,1.181,0,2.574,0,3.764c0,2.237,0,4.474,0,6.711
	c1.752-4.293,3.442-8.697,6.072-12.557c2.476-3.631,5.812-8.085,10.448-8.917c5.436-0.976,9.297,3.018,11.562,7.532
	c2.255,4.492,3.306,9.721,3.245,14.73C31.365,71.268,30.05,76.44,26.7,80.347c-3.45,4.022-8.478,6.113-13.485,7.438
	c-2.115,0.558-4.316,0.907-6.5,1.033c-2.172,0.126-4.543,0.228-6.617-0.555c0,3.647,0,7.294,0,10.941
	c9.599-3.301,20-3.783,29.273-8.103c4.241-1.976,7.492-5.422,9.13-9.797C40.169,76.853,40.18,71.898,39.979,67.215"/>
<path fill-rule="evenodd" clip-rule="evenodd" fill="#D3B23F" d="M147.198,109.199c-1.128-0.05-2.433,0.628-3.487,1.01
	c-1.333,0.482-2.435,1.094-3.53,1.993c-2.02,1.657-3.376,3.661-4.894,5.757c-2.914,4.025-5.514,8.102-9.163,11.539
	c-6.9,6.498-15.879,10.616-24.649,13.935c-6.548,2.477-13.224,4.525-19.955,6.428c2.809,0,5.616,0,8.427,0c1.341,0,2.684,0,4.025,0
	c1.083,0,2.562-0.803,3.587-1.176c4.708-1.711,9.407-3.449,14.101-5.205c9.334-3.485,18.544-7.913,26.674-13.707
	c1.84-1.312,3.687-2.619,5.576-3.857c0.819-0.537,1.64-1.07,2.481-1.574c0.967-0.577,2.142-1.002,3.049-1.65
	c0.51-0.365,0.434-0.456,0.434-1.111c0-0.584,0-1.167,0-1.748c0-1.173,0-2.345,0-3.517c0-2.501,0-5.003,0-7.504
	C148.997,108.966,148.094,109.222,147.198,109.199"/>
<path fill-rule="evenodd" clip-rule="evenodd" fill="#D3B23F" d="M149.574,62.967c-2.707-3.763-4.992-7.854-6.205-12.363
	c-1.178-4.368-2.031-8.884-2.35-13.405c-0.346-4.904-0.773-9.808-1.089-14.712c-0.322-4.969-0.617-9.991-2.182-14.739
	c-1.615-4.901-7.068-6.249-11.619-6.98c-1.138-0.183-2.27-0.399-3.407-0.582c-1.379-0.222-2.929-0.049-4.324-0.049
	c-2.799,0-5.597,0-8.397,0c-6.214,0-12.43,0-18.645,0c0.078,0.156,0.721,1.305,0.641,1.375c-0.692,0.607-0.961,1.096-1.877,0.902
	c-0.66-0.142-1.089-0.222-1.762-0.136c-0.697,0.088-1.299-0.122-1.992-0.149c-2.584-0.103-5.181-0.091-7.776-0.246
	C73.243,1.562,67.9,1.358,62.55,1.014c-2.358-0.152-4.718-0.397-7.063-0.69C52.883,0,50.243,0.138,47.621,0.138
	c-5.419,0-10.839,0-16.258,0c9.364,4.596,19.707,4.985,29.823,6.534c5.169,0.792,10.468,1.387,15.421,3.161
	c4.896,1.751,9.336,4.329,13.124,7.917c7.391,7.003,13.636,15.205,20.093,23.054c3.327,4.044,6.55,8.152,9.538,12.453
	c2.823,4.06,5.439,8.874,6.251,13.811c0.822,5.003,0.746,10.003-0.919,14.844c-1.694,4.929-5.17,8.833-9.589,11.506
	c-4.554,2.755-9.821,4.118-14.926,5.428c-5.048,1.296-10.186,2.24-15.262,3.416c-2.725,0.632-5.449,1.293-8.107,2.165
	c-2.524,0.827-5.282,1.734-7.484,3.248c-2.2,1.513-4.224,2.891-5.84,5.069c-1.594,2.147-2.872,4.626-3.663,7.184
	c-1.555,5.033-2.434,10.188-3.459,15.344c-1.032,5.197-2.202,10.132-5.166,14.591c4.23,0,8.459,0,12.69,0
	c-0.044-0.643-0.336-1.234-0.41-1.865c-0.08-0.689-0.014-1.41-0.075-2.107c-0.114-1.301-0.003-2.748,0.127-4.049
	c0.26-2.583,0.606-5.129,1.098-7.68c0.994-5.159,2.889-10.219,6.149-14.382c6.468-8.262,18.17-10.696,27.955-12.372
	c5.157-0.884,10.357-1.486,15.533-2.24c4.771-0.694,9.787-1.166,14.21-3.194c4.902-2.245,6.814-7.187,8.329-12.019
	c0.778-2.482,1.377-5.018,2.117-7.51c0.688-2.316,1.403-4.982,3.01-6.854c2.199-2.563,5.242-1.508,7.94-0.521
	c0-1.882,0-3.764,0-5.645c0-1.293,0-2.585,0-3.878C149.873,64.889,150.133,63.399,149.574,62.967"/>
<path fill-rule="evenodd" clip-rule="evenodd" fill="#D3B23F" d="M111.898,32.222c-3.314-3.834-6.396-7.807-9.312-11.95
	c-1.409-2.002-2.784-4.087-3.973-6.224c-1.094-1.967-2.574-3.856-3.424-5.95c-0.385-0.946-0.971-1.779-1.405-2.689
	c-0.331-0.696-0.847-2.281-1.6-2.596c0.447-0.923,2.359-0.22,3.189-0.247c1.182-0.038,2.381,0.077,3.564,0.129
	c2.031,0.089,4.073,0.185,6.1,0.343c4.811,0.373,9.64,0.632,14.406,1.439c4.673,0.791,9.835,2.06,12.726,6.149
	c2.841,4.021,3.237,9.66,3.411,14.422c0.178,4.835,0.067,9.686-0.804,14.454c-0.408,2.242-0.943,4.84-2.866,6.29
	c-1.797,1.358-4.369-0.025-6.033-0.927C120.388,41.884,116.117,36.692,111.898,32.222"/>
<g>
	<path fill-rule="evenodd" clip-rule="evenodd" fill="#E68134" d="M65.412,1.261c2.702,0.104,5.401,0.23,8.1,0.351
		c2.596,0.116,5.304,0.114,7.882,0.387c1.262,0.134,2.734,0.273,3.993,0.2c0.597-0.035,1.106-0.042,1.7,0.04
		c0.618,0.085,1.459-0.204,2-0.069c0.432,0.108,1.402,0.386,1.819,0.286c0.815-0.196,0.815-0.196,0.815-0.703
		c0-0.548,0.265-0.38,0-0.863c-0.31-0.564-0.271-0.753-0.936-0.753c-0.809,0-1.617,0-2.428,0c-11.158,0-22.316,0-33.475,0
		c-0.298,0-0.597,0-0.896,0C57.79,0.612,61.598,0.913,65.412,1.261"/>
	<path fill-rule="evenodd" clip-rule="evenodd" fill="#E68134" d="M31.375,64.304c-0.376-8.184-5.263-24.133-16.474-19.831
		c-4.15,1.592-7.346,5.946-9.507,9.641c-1.215,2.078-2.392,4.221-3.303,6.452c-0.431,1.054-0.958,2.07-1.345,3.143
		c-0.2,0.556-0.401,1.106-0.625,1.654c-0.189,0.464-0.024,1.229-0.024,1.73c0,5.787,0,11.574,0,17.36c0,1.261,0,2.521,0,3.782
		c0,0.41,2.93,0.584,3.311,0.605c2.503,0.137,5.116-0.014,7.574-0.555c5.323-1.17,10.192-2.956,14.374-6.543
		c3.79-3.252,5.643-8.613,5.971-13.461C31.417,66.953,31.436,65.635,31.375,64.304 M9.092,73.662
		c-2.889-3.068-0.721-9.484,1.9-12.142c1.002-1.017,1.81-1.713,3.178-2.161c1.062-0.346,2.747-0.126,3.467,0.881
		c1.585,2.216,2.107,4.431,1.583,7.138c-0.484,2.5-1.885,4.5-3.891,6.024c-0.941,0.715-1.985,0.95-3.113,1.224
		C11.334,74.84,9.662,74.391,9.092,73.662"/>
	<path fill-rule="evenodd" clip-rule="evenodd" fill="#E68134" d="M92.897,3.62c0.34,1.086,1.099,2.249,1.689,3.227
		c0.584,0.966,0.996,2.041,1.575,3.019c1.192,2.007,2.447,4.01,3.58,6.045c2.413,4.331,5.63,8.338,8.691,12.22
		c3.108,3.943,6.571,7.711,10.268,11.109c1.826,1.677,3.701,3.26,5.722,4.7c1.62,1.154,3.93,2.58,6.015,2.364
		c2.399-0.249,3.301-2.732,3.877-4.725c0.659-2.283,0.918-4.663,1.119-7.025c0.425-4.962,0.585-10.389-0.394-15.294
		c-0.481-2.414-0.775-4.782-1.922-7.012c-1.116-2.171-2.702-3.907-4.863-5.08c-4.283-2.329-9.357-2.846-14.125-3.382
		c-3.71-0.417-7.442-0.655-11.168-0.867c-1.747-0.1-3.496-0.195-5.242-0.272c-0.833-0.037-1.973,0.104-2.769-0.12
		c-0.451-0.127-0.868,0.01-1.326-0.122c-0.436-0.125-1.228-0.028-1.439,0.408C92.519,2.951,92.69,3.335,92.897,3.62 M118.525,14.252
		c2.461,0.068,4.498,0.702,6.12,2.682c1.483,1.808,2.029,4.51,1.354,6.74c-0.841,2.78-3.399,2.762-5.547,1.512
		c-2.007-1.168-3.754-3.416-4.576-5.562c-0.334-0.869-0.795-2.645-0.177-3.491C116.508,15.028,117.144,14.531,118.525,14.252"/>
	<path fill-rule="evenodd" clip-rule="evenodd" fill="#E68134" d="M149.818,75.054c-2.339-0.961-5.009-1.818-7.199-0.107
		c-1.941,1.518-2.766,4.43-3.458,6.691c-0.741,2.43-1.32,4.908-2.05,7.34c-0.775,2.583-1.689,4.971-2.823,7.411
		c-2.226,4.788-7.563,6.739-12.427,7.573c-4.841,0.83-9.704,1.434-14.562,2.152c-10.352,1.533-20.629,3.014-29.955,8.031
		c-9.569,5.148-12.93,16.888-13.731,26.965c-0.206,2.588-0.509,5.391,0.127,7.93c0.149,0.59,0.019,0.82,0.68,0.82
		c0.847,0,1.694,0,2.542,0c1.235,0,2.471,0,3.706,0c3.106,0,6.21,0,9.315,0c2.414,0,4.732-0.865,7.038-1.557
		c9.245-2.773,18.801-5.875,27.27-10.588c4.158-2.313,8.211-4.807,11.693-8.086c3.648-3.436,6.259-7.467,9.172-11.49
		c1.518-2.095,2.86-4.162,4.882-5.821c1.072-0.881,2.128-1.55,3.437-2.023c1.146-0.414,2.422-1.024,3.642-1.091
		c0.627-0.034,1.205-0.119,1.827-0.229c1.115-0.197,0.93-0.236,0.93-1.374c0-1.469,0-2.937,0-4.405c0-2.488,0-4.976,0-7.464
		c0-3.423,0-6.846,0-10.269c0-1.744,0-3.488,0-5.232c0-0.873,0-1.744,0-2.617C149.873,76.944,150.07,75.618,149.818,75.054
		 M111.305,131.146c-6.949,6.046-16.424,10.092-25.62,11.008c-4.498,0.447-10.145-0.502-10.289-6.14
		c-0.139-5.431,2.986-10.027,7.039-13.347c3.734-3.062,8.712-4.624,13.396-5.442c4.7-0.822,10.367-1.219,14.87,0.684
		c2.546,1.074,5.357,3.464,4.592,6.615C114.622,127.286,113.141,129.058,111.305,131.146"/>
</g>
<g>
	<path fill-rule="evenodd" clip-rule="evenodd" fill="#DC2C23" d="M126.253,21.526c0.193-4.655-5.194-9.022-9.564-6.619
		c-1.178,0.647-1.343,2.253-1.111,3.397c0.252,1.25,0.647,2.461,1.48,3.477c1.473,1.792,3.059,3.902,5.556,4.271
		C125.058,26.413,126.581,23.72,126.253,21.526"/>
	<path fill-rule="evenodd" clip-rule="evenodd" fill="#DC2C23" d="M115.104,122.301c-0.448-1.403-0.981-2.427-2.28-3.224
		c-1.094-0.671-2.104-1.239-3.357-1.591c-2.45-0.686-4.967-0.883-7.505-0.863c-4.886,0.036-9.922,1.06-14.392,3.038
		c-4.808,2.128-8.728,5.525-10.974,10.321c-1.925,4.107-1.948,10.978,3.686,11.974c4.502,0.793,9.099-0.174,13.426-1.473
		c4.341-1.305,8.802-3.073,12.606-5.56c2.498-1.633,4.836-3.382,6.74-5.702C114.508,127.452,115.977,124.597,115.104,122.301"/>
	<path fill-rule="evenodd" clip-rule="evenodd" fill="#DC2C23" d="M19.375,64.304c-0.111-2.294-1.893-5.448-4.566-5.152
		c-2.464,0.273-4.338,2.69-5.395,4.727C7.65,67.281,6.148,74.45,11.888,74.638c2.27,0.075,4.504-1.752,5.759-3.485
		C19.024,69.251,19.677,66.622,19.375,64.304"/>
</g>
<path fill="none" stroke="#000000" stroke-width="0.5" stroke-linecap="round" stroke-miterlimit="3.25" d="M78.999,141.521
	c4.249,1.555,9.144,0.508,13.372-0.672c4.544-1.267,8.97-3.017,13.061-5.382c2.06-1.19,4.201-2.614,5.873-4.321
	c1.492-1.521,3.231-3.397,3.73-5.547c0.641-2.757-0.052-5.198-2.551-6.729c-2.163-1.325-4.517-1.868-7.043-2.129
	c-4.988-0.516-10.128,0.325-14.896,1.769c-4.5,1.363-9.436,4.158-12.057,8.176C75.765,130.858,72.906,138.754,78.999,141.521"/>
<path fill="none" stroke="#000000" stroke-width="0.5" stroke-linecap="round" stroke-miterlimit="3.25" d="M16.397,72.577
	c0.849-1.034,1.63-1.919,2.201-3.147c0.543-1.171,0.724-2.433,0.829-3.707c0.1-1.213-0.118-2.553-0.606-3.674
	c-0.56-1.286-1.442-2.024-2.612-2.716c-1.092-0.645-2.735,0.203-3.651,0.765c-1.064,0.651-1.805,1.695-2.487,2.713
	c-1.126,1.68-2.047,3.797-2.206,5.837c-0.165,2.121-0.056,4.571,2.142,5.56C12.33,75.253,14.585,74.085,16.397,72.577"/>
<path fill="none" stroke="#000000" stroke-width="0.5" stroke-linecap="round" stroke-miterlimit="3.25" d="M119.115,24.208
	c-0.788-0.913-1.689-1.703-2.309-2.753c-0.725-1.232-1.064-2.333-1.345-3.718c-0.574-2.833,2.896-3.806,4.99-3.358
	c2.469,0.527,4.173,2.117,5.256,4.348c0.45,0.928,0.63,2.266,0.583,3.288c-0.068,1.458-0.516,2.296-1.409,3.392
	C123.371,27.256,120.442,25.261,119.115,24.208"/>
<path fill="none" stroke="#000000" stroke-width="0.5" stroke-linecap="round" stroke-miterlimit="3.25" d="M0.099,88.264
	c2.347,0.884,5.176,0.729,7.631,0.496c2.463-0.233,4.98-0.728,7.342-1.468c5.105-1.602,9.493-4.127,12.758-8.418
	c3.074-4.04,3.769-9.725,3.543-14.633c-0.233-5.087-1.592-10.185-4.205-14.572c-2.624-4.405-7.276-7.269-12.358-5.16
	c-4.193,1.74-7.314,6.016-9.531,9.805c-2.082,3.559-3.626,7.302-5.179,11.107"/>
<path fill="none" stroke="#000000" stroke-width="0.5" stroke-linecap="round" stroke-miterlimit="3.25" d="M81.52,149.86
	c9.567-2.705,19.166-5.643,28.186-9.887c8.578-4.037,16.583-9.162,22.146-17.016c2.373-3.352,4.444-6.93,7.289-9.912
	c1.4-1.468,3.215-2.347,5.088-3.023c1.875-0.679,3.689-0.866,5.645-1.212"/>
<path fill="none" stroke="#000000" stroke-width="0.5" stroke-linecap="round" stroke-miterlimit="3.25" d="M149.873,75.067
	c-2.259-0.826-4.946-1.924-7.097-0.244c-2.027,1.584-2.867,4.4-3.601,6.77c-0.746,2.41-1.339,4.867-2.037,7.291
	c-0.378,1.309-0.811,2.604-1.205,3.908c-0.37,1.221-1.159,2.32-1.615,3.519c-1.823,4.772-7.666,6.83-12.24,7.613
	c-4.841,0.83-9.704,1.439-14.564,2.159c-10.34,1.531-20.687,2.961-30.008,7.977c-9.609,5.171-13.073,16.754-13.882,26.92
	c-0.117,1.463-0.16,2.922-0.256,4.389c-0.101,1.545,0.416,2.988,0.52,4.492"/>
<path fill="none" stroke="#000000" stroke-width="0.5" stroke-linecap="round" stroke-miterlimit="3.25" d="M91.356,0.138
	c0.365,1.025,0.631,1.736,0.834,2.27c-0.965,0-3-0.066-4.222-0.109c-1.55-0.054-7.829-0.323-9.379-0.416
	C73.243,1.562,67.9,1.358,62.55,1.014c-2.863-0.185-5.716-0.522-8.563-0.876"/>
<path fill="none" stroke="#000000" stroke-width="0.5" stroke-linecap="round" stroke-linejoin="round" stroke-miterlimit="3.25" d="
	M132.831,44.921c-3.043,3.915-8.994-1.279-11.533-3.383c-4.007-3.324-7.541-7.166-10.939-11.097
	c-3.158-3.655-6.059-7.57-8.734-11.588c-1.394-2.096-2.664-4.258-3.984-6.397c-1.194-1.938-2.105-4.04-3.275-5.98
	c-0.382-0.631-0.644-1.249-0.965-1.91c-0.249-0.51-0.836-1.572-1.214-2.156c1.387,0.132,5.57,0.232,6.754,0.285
	c2.031,0.089,4.073,0.185,6.1,0.343c4.811,0.373,9.64,0.632,14.406,1.439c4.673,0.791,9.835,2.06,12.726,6.149
	c2.841,4.021,3.237,9.66,3.411,14.422c0.126,3.439,0.13,6.9-0.214,10.33c-0.169,1.677-0.446,3.306-0.742,4.963
	C134.356,41.858,133.86,43.725,132.831,44.921"/>
<path fill="none" stroke="#000000" stroke-width="0.5" stroke-linecap="round" stroke-miterlimit="3.25" d="M0.099,54.729
	c2.153-4.274,4.253-8.539,7.084-12.422c2.846-3.904,6.472-7.725,11.206-9.195c10.831-3.365,16.684,10.981,18.974,18.981
	c1.388,4.85,2.385,9.957,2.611,15.004c0.235,5.249,0.084,10.592-2.021,15.486c-4.132,9.604-16.312,11.521-25.386,13.465
	c-4.206,0.899-8.396,1.756-12.468,3.157"/>
<path fill="none" stroke="#000000" stroke-width="0.5" stroke-linecap="round" stroke-miterlimit="3.25" d="M149.873,63.345
	c-2.95-3.576-5.088-7.983-6.413-12.408c-1.301-4.349-1.795-8.795-2.401-13.273c-0.647-4.778-0.774-9.694-1.085-14.501
	c-0.32-4.956-0.409-10.29-2.091-15.006c-1.121-3.143-3.289-5.156-6.5-6.133c-2.934-0.892-5.943-1.401-8.967-1.887"/>
<path fill="none" stroke="#000000" stroke-width="0.5" stroke-linecap="round" stroke-miterlimit="3.25" d="M31.362,0.138
	c9.364,4.596,19.707,4.985,29.823,6.534c5.169,0.792,10.468,1.387,15.421,3.161c4.896,1.751,9.336,4.329,13.124,7.917
	c7.391,7.003,13.636,15.205,20.093,23.054c3.327,4.044,6.55,8.152,9.538,12.453c2.823,4.06,5.439,8.874,6.251,13.811
	c0.822,5.003,0.746,10.003-0.919,14.844c-1.694,4.929-5.17,8.833-9.589,11.506c-4.554,2.755-9.821,4.118-14.926,5.428
	c-5.048,1.296-10.186,2.24-15.262,3.416c-2.725,0.632-5.449,1.293-8.107,2.165c-2.524,0.827-5.282,1.734-7.484,3.248
	c-2.2,1.513-4.224,2.891-5.84,5.069c-1.594,2.147-2.872,4.626-3.663,7.184c-1.555,5.033-2.434,10.188-3.459,15.344
	c-1.032,5.197-2.202,10.132-5.166,14.591"/>
<path fill="none" stroke="#000000" stroke-width="0.5" stroke-linecap="round" stroke-miterlimit="3.25" d="M149.873,122.48
	c-4.684,2.249-8.76,5.441-13.06,8.314c-4.129,2.761-8.42,5.284-12.913,7.411c-9.122,4.318-18.599,7.707-28.099,11.072
	c-0.524,0.188-1.044,0.393-1.566,0.582"/>
<path fill="none" stroke="#000000" stroke-width="0.5" stroke-linecap="round" stroke-miterlimit="3.25" d="M0.099,107.262
	c8.727-5.174,19.813-5.72,29.707-6.311c2.58-0.153,5.156-0.122,7.736-0.126c2.429-0.003,5.439,0.168,7.645,1.288
	c2.657,1.35,3.252,3.921,4.106,6.483c0.391,1.172,0.423,2.56,0.587,3.781c0.152,1.138,0.304,2.343,0.325,3.492
	c0.195,10.188,0.594,21.171-4.681,30.291c-0.799,1.383-1.842,2.537-2.926,3.699"/>
<path fill="none" stroke="#000000" stroke-width="0.5" stroke-linecap="round" stroke-miterlimit="3.25" d="M102.744,149.86
	c9.369-3.451,18.994-6.219,28.317-9.8c2.994-1.15,6.091-2.103,9.15-3.061c1.506-0.473,3.047-0.866,4.591-1.191
	c1.744-0.367,3.328-0.312,5.07-0.105"/>
<path fill="none" stroke="#000000" stroke-width="0.5" stroke-linecap="round" stroke-miterlimit="3.25" d="M18.102,0.138
	c1.931,1.623,4.104,3.341,5.556,5.434c1.32,1.905,3.005,3.693,3.808,5.912c0.373,1.03,0.822,2.289,0.292,3.358
	c-0.487,0.984-1.672,1.781-2.522,2.401c-2.012,1.468-4.202,2.68-6.201,4.186c-7.851,5.911-13.02,14.146-17.519,22.722
	c-0.498,0.948-0.939,1.929-1.417,2.886"/>
<path fill="none" stroke="#000000" stroke-width="0.5" stroke-linecap="round" stroke-miterlimit="3.25" d="M149.873,54.309
	c-4.308-8.521-5.713-18.434-6.373-27.857c-0.356-5.115-0.621-10.265-0.486-15.394c0.058-2.151,0.114-4.376,0.604-6.479
	c0.283-1.208,0.823-2.314,1.805-3.104c0.906-0.732,2.113-0.868,3.2-1.142c0.401-0.101,0.84-0.102,1.25-0.159"/>
<path fill="none" stroke="#000000" stroke-width="0.5" stroke-linecap="round" stroke-miterlimit="3.25" d="M48.239,66.978
	c-1.907-10.437-3.992-20.936-7.419-30.997c-1.557-4.569-3.361-9.062-4.881-13.636c-0.764-2.3-1.604-5.299,1.225-6.545
	c2.23-0.982,4.877-1.522,7.297-1.782c9.897-1.062,20.551-0.809,29.854,3.168c9.961,4.258,17.479,12.173,24.312,20.346
	c3.388,4.054,6.55,8.287,9.444,12.705c2.791,4.26,5.505,9.141,6.564,14.171c1.106,5.253,0.99,10.201-1.405,15.075
	c-2.198,4.472-6.5,7.784-11.042,9.69c-9.78,4.109-20.408,5.362-30.902,6.188c-2.561,0.201-5.335,0.48-7.878,0.086
	c-1.213-0.188-2.563,0.273-3.756-0.106c-1.132-0.359-2.882-0.537-3.804-1.332c-1.042-0.896-2.038-1.651-2.574-2.971
	c-0.45-1.108-1.254-2.465-1.449-3.631c-0.421-2.523-0.921-5.043-1.429-7.549C49.534,75.604,48.978,71.263,48.239,66.978"/>
<path fill="none" stroke="#000000" stroke-width="0.5" stroke-linecap="round" stroke-miterlimit="3.25" d="M34.665,149.86
	c4.115-3.541,6.652-7.738,7.726-13.092c0.972-4.851,0.729-10.303-0.809-15.01c-1.53-4.682-4.496-8.484-8.985-10.633
	c-4.529-2.168-9.847-2.59-14.796-2.391c-6.451,0.261-12.638,1.94-17.702,6.053"/>
<path fill="none" stroke="#000000" stroke-width="0.5" stroke-linecap="round" stroke-miterlimit="3.25" d="M147.768,149.86
	c-0.338-2.254-1.483-4.535-3.562-5.625c-2.032-1.064-4.402-1.084-6.646-0.967c-4.866,0.252-9.74,1.637-14.433,2.883
	c-4.224,1.123-8.43,2.363-12.586,3.709"/>
<path fill="none" stroke="#000000" stroke-width="0.5" stroke-linecap="round" stroke-miterlimit="3.25" d="M0.099,40.116
	c2.152-4.584,4.312-9.174,6.723-13.631c2.254-4.167,4.628-8.353,5.992-12.911C14.385,8.32,12.079,3.243,7.777,0.138"/>
<path fill="none" stroke="#000000" stroke-width="0.5" stroke-linecap="round" stroke-miterlimit="3.25" d="M149.873,4.006
	c-3.504,2.749-3.824,8.346-3.945,12.437c-0.137,4.632,0.015,9.339,0.624,13.934c0.691,5.232,1.592,10.437,3.321,15.439"/>
<path fill="none" stroke="#000000" stroke-width="0.5" stroke-linecap="round" stroke-miterlimit="3.25" d="M100.537,77.673
	c7.601-8.385,3.335-19.677-1.957-28.054c-5.412-8.566-12.996-17.097-22.105-21.813c-4.548-2.355-9.25-3.604-14.386-3.419
	c-2.27,0.081-4.952,0.949-6.623,2.527c-1.917,1.811-3.009,4.164-3.315,6.792c-0.6,5.158,0.218,10.364,1.057,15.45
	c0.858,5.205,1.993,10.426,3.58,15.46c1.652,5.242,3.669,10.406,7.549,14.419c3.89,4.023,9.523,5.383,14.937,5.597
	C86.72,84.927,95.094,83.058,100.537,77.673"/>
<path fill="none" stroke="#000000" stroke-width="0.5" stroke-linecap="round" stroke-miterlimit="3.25" d="M119.04,149.86
	c3.965-1.01,8.035-1.861,12.111-2.252c3.861-0.369,8.603-0.518,11.688,2.252"/>
<path fill="none" stroke="#000000" stroke-width="0.5" stroke-linecap="round" stroke-miterlimit="3.25" d="M0.099,33.08
	c1.933-4.521,3.742-9.167,5.15-13.879c1.293-4.327,2.275-9.681-0.195-13.803c-1.183-1.974-2.876-3.68-4.955-4.709"/>
<path fill="none" stroke="#000000" stroke-width="0.5" stroke-linecap="round" stroke-miterlimit="3.25" d="M149.873,36.416
	c-0.97-4.547-1.497-9.188-1.621-13.836c-0.117-4.39,0.052-8.962,1.621-13.11"/>
<path fill="none" stroke="#000000" stroke-width="0.5" stroke-linecap="round" stroke-miterlimit="3.25" d="M0.099,146.12
	c1.132,1.492,2.501,2.707,4.06,3.74"/>
<path fill="none" stroke="#000000" stroke-width="0.5" stroke-linecap="round" stroke-miterlimit="3.25" d="M25.763,149.86
	c4.406-2.371,7.621-5.865,9.224-10.644c1.567-4.669,0.915-10.168-1.308-14.503c-4.688-9.138-17.632-11.354-26.411-7.329
	c-2.963,1.358-5.156,3.188-7.169,5.739"/>
<path fill="none" stroke="#000000" stroke-width="0.5" stroke-linecap="round" stroke-miterlimit="3.25" d="M89.696,66.87
	c2.565-4.731,0.993-10.077-1.662-14.419c-2.83-4.634-6.74-8.333-11.59-10.775c-2.106-1.06-5.044-1.326-7.167-0.279
	c-2.367,1.168-3.514,3.92-3.677,6.454c-0.334,5.159,0.698,10.091,3.13,14.688c2.045,3.866,5.344,6.816,9.566,8.041
	C82.38,71.764,87.259,70.459,89.696,66.87"/>
<path fill="none" stroke="#000000" stroke-width="0.5" stroke-linecap="round" stroke-miterlimit="3.25" d="M0.099,6.239
	c3.464,5.085,1.691,12.938,0,18.338"/>
<path fill="none" stroke="#000000" stroke-width="0.5" stroke-linecap="round" stroke-miterlimit="3.25" d="M25.799,141.839
	c2.436-4.217,2.76-9.243-0.174-13.368c-2.95-4.146-8.167-5.818-13.074-5.172c-4.827,0.635-8.7,4.004-10.295,8.537
	c-1.496,4.252-0.533,9.493,2.725,12.677C10.939,150.331,21.17,148.181,25.799,141.839"/>
<g>
</g>
<g>
</g>
<g>
</g>
<g>
</g>
<g>
</g>
<g>
</g>
<g>
</g>
<g>
</g>
<g>
</g>
<g>
</g>
<g>
</g>
<g>
</g>
<g>
</g>
<g>
</g>
<g>
</g>
</svg>
