<?xml version="1.0" encoding="UTF-8" standalone="no"?>
<svg
   xmlns:dc="http://purl.org/dc/elements/1.1/"
   xmlns:cc="http://creativecommons.org/ns#"
   xmlns:rdf="http://www.w3.org/1999/02/22-rdf-syntax-ns#"
   xmlns:svg="http://www.w3.org/2000/svg"
   xmlns="http://www.w3.org/2000/svg"
   viewBox="0 0 97.333336 96"
   height="96"
   width="97.333336"
   xml:space="preserve"
   id="svg2"
   version="1.1"><metadata
     id="metadata8"><rdf:RDF><cc:Work
         rdf:about=""><dc:format>image/svg+xml</dc:format><dc:type
           rdf:resource="http://purl.org/dc/dcmitype/StillImage" /></cc:Work></rdf:RDF></metadata><defs
     id="defs6" /><g
     transform="matrix(1.3333333,0,0,-1.3333333,0,96)"
     id="g10"><g
       transform="scale(0.1)"
       id="g12"><path
         id="path14"
         style="fill:#f2f2f2;fill-opacity:1;fill-rule:nonzero;stroke:none"
         d="m 23.9492,33.9414 h 680.391 v 680.387 H 23.9492 Z" /><path
         id="path16"
         style="fill:none;stroke:#000000;stroke-width:3.9849999;stroke-linecap:butt;stroke-linejoin:miter;stroke-miterlimit:10;stroke-dasharray:none;stroke-opacity:1"
         d="m 23.9492,33.9492 h 680.391 v 680.391 H 23.9492 Z" /><path
         id="path18"
         style="fill:none;stroke:#000000;stroke-width:3.9849999;stroke-linecap:butt;stroke-linejoin:miter;stroke-miterlimit:10;stroke-dasharray:none;stroke-opacity:1"
         d="M 364.141,204.059 534.219,374.141" /><path
         id="path20"
         style="fill:none;stroke:#000000;stroke-width:3.9849999;stroke-linecap:butt;stroke-linejoin:miter;stroke-miterlimit:10;stroke-dasharray:none;stroke-opacity:1"
         d="M 23.9492,714.34 H 704.34" /><path
         id="path22"
         style="fill:none;stroke:#000000;stroke-width:3.9849999;stroke-linecap:butt;stroke-linejoin:miter;stroke-miterlimit:10;stroke-dasharray:none;stroke-opacity:1"
         d="M 534.219,374.141 704.34,714.34" /><path
         id="path24"
         style="fill:none;stroke:#ff0000;stroke-width:7.97009993;stroke-linecap:butt;stroke-linejoin:miter;stroke-miterlimit:10;stroke-dasharray:none;stroke-opacity:1"
         d="M 364.141,544.219 23.9492,714.34" /><path
         id="path26"
         style="fill:none;stroke:#000000;stroke-width:3.9849999;stroke-linecap:butt;stroke-linejoin:miter;stroke-miterlimit:10;stroke-dasharray:none;stroke-opacity:1"
         d="M 364.141,544.219 534.219,374.141" /><path
         id="path28"
         style="fill:none;stroke:#000000;stroke-width:3.9849999;stroke-linecap:butt;stroke-linejoin:miter;stroke-miterlimit:10;stroke-dasharray:none;stroke-opacity:1"
         d="M 364.141,544.219 194.059,374.141" /><path
         id="path30"
         style="fill:none;stroke:#000000;stroke-width:3.9849999;stroke-linecap:butt;stroke-linejoin:miter;stroke-miterlimit:10;stroke-dasharray:none;stroke-opacity:1"
         d="M 194.059,374.141 H 23.9492" /><path
         id="path32"
         style="fill:none;stroke:#000000;stroke-width:3.9849999;stroke-linecap:butt;stroke-linejoin:miter;stroke-miterlimit:10;stroke-dasharray:none;stroke-opacity:1"
         d="M 194.059,374.141 23.9492,33.9375" /><path
         id="path34"
         style="fill:none;stroke:#000000;stroke-width:3.9849999;stroke-linecap:butt;stroke-linejoin:miter;stroke-miterlimit:10;stroke-dasharray:none;stroke-opacity:1"
         d="M 194.059,374.141 23.9492,714.34" /><path
         id="path36"
         style="fill:none;stroke:#000000;stroke-width:3.9849999;stroke-linecap:butt;stroke-linejoin:miter;stroke-miterlimit:10;stroke-dasharray:none;stroke-opacity:1"
         d="M 364.141,204.059 23.9492,33.9375" /><path
         id="path38"
         style="fill:none;stroke:#000000;stroke-width:3.9849999;stroke-linecap:butt;stroke-linejoin:miter;stroke-miterlimit:10;stroke-dasharray:none;stroke-opacity:1"
         d="M 364.141,204.059 V 33.9375" /><path
         id="path40"
         style="fill:none;stroke:#000000;stroke-width:3.9849999;stroke-linecap:butt;stroke-linejoin:miter;stroke-miterlimit:10;stroke-dasharray:none;stroke-opacity:1"
         d="M 704.34,33.9375 364.141,204.059" /><path
         id="path42"
         style="fill:none;stroke:#000000;stroke-width:3.9849999;stroke-linecap:butt;stroke-linejoin:miter;stroke-miterlimit:10;stroke-dasharray:none;stroke-opacity:1"
         d="M 704.34,33.9375 534.219,374.141" /><path
         id="path44"
         style="fill:none;stroke:#000000;stroke-width:3.9849999;stroke-linecap:butt;stroke-linejoin:miter;stroke-miterlimit:10;stroke-dasharray:none;stroke-opacity:1"
         d="M 704.34,374.141 H 534.219" /><path
         id="path46"
         style="fill:none;stroke:#000000;stroke-width:3.9849999;stroke-linecap:butt;stroke-linejoin:miter;stroke-miterlimit:10;stroke-dasharray:none;stroke-opacity:1"
         d="M 704.34,714.34 364.141,544.219" /><path
         id="path48"
         style="fill:none;stroke:#000000;stroke-width:3.9849999;stroke-linecap:butt;stroke-linejoin:miter;stroke-miterlimit:10;stroke-dasharray:none;stroke-opacity:1"
         d="m 364.141,204.059 v 340.16" /><path
         id="path50"
         style="fill:none;stroke:#000000;stroke-width:3.9849999;stroke-linecap:butt;stroke-linejoin:miter;stroke-miterlimit:10;stroke-dasharray:none;stroke-opacity:1"
         d="M 364.141,204.059 194.059,374.141" /><path
         id="path52"
         style="fill:none;stroke:#6495ed;stroke-width:7.97009993;stroke-linecap:butt;stroke-linejoin:miter;stroke-miterlimit:10;stroke-dasharray:none;stroke-opacity:1"
         d="M 364.141,714.34 V 664.688" /><path
         id="path54"
         style="fill:none;stroke:#6495ed;stroke-width:6.37599993;stroke-linecap:round;stroke-linejoin:round;stroke-miterlimit:10;stroke-dasharray:none;stroke-opacity:1"
         d="m 384.84,680.23 c -7.731,-1.292 -19.41,-15.542 -20.699,-19.41 -1.289,3.868 -12.969,18.118 -20.743,19.41" /><path
         id="path56"
         style="fill:none;stroke:#000000;stroke-width:7.97009993;stroke-linecap:butt;stroke-linejoin:miter;stroke-miterlimit:10;stroke-dasharray:none;stroke-opacity:1"
         d="M 534.219,629.301 586.988,550.16" /><path
         id="path58"
         style="fill:none;stroke:#000000;stroke-width:6.39547014;stroke-linecap:round;stroke-linejoin:round;stroke-miterlimit:10;stroke-dasharray:none;stroke-opacity:1"
         d="m 595.621,574.645 c -5.738,-5.43 -7.531,-23.782 -6.484,-27.739 -3.242,2.504 -20.891,7.899 -28.074,4.657" /><path
         id="path60"
         style="fill:none;stroke:#000000;stroke-width:7.97009993;stroke-linecap:butt;stroke-linejoin:miter;stroke-miterlimit:10;stroke-dasharray:none;stroke-opacity:1"
         d="M 619.301,544.219 644.449,493.91" /><path
         id="path62"
         style="fill:none;stroke:#000000;stroke-width:6.40152979;stroke-linecap:round;stroke-linejoin:round;stroke-miterlimit:10;stroke-dasharray:none;stroke-opacity:1"
         d="m 656.098,517.145 c -6.414,-4.645 -10.477,-22.692 -9.883,-26.758 -2.93,2.937 -19.809,10.472 -27.344,8.168" /><path
         id="path64"
         style="fill:none;stroke:#000000;stroke-width:7.97009993;stroke-linecap:butt;stroke-linejoin:miter;stroke-miterlimit:10;stroke-dasharray:none;stroke-opacity:1"
         d="M 619.301,204.059 H 541.289" /><path
         id="path66"
         style="fill:none;stroke:#000000;stroke-width:6.37599993;stroke-linecap:round;stroke-linejoin:round;stroke-miterlimit:10;stroke-dasharray:none;stroke-opacity:1"
         d="m 556.84,183.32 c -1.289,7.77 -15.551,19.45 -19.418,20.739 3.867,1.289 18.129,12.929 19.418,20.711" /><path
         id="path68"
         style="fill:none;stroke:#000000;stroke-width:7.97009993;stroke-linecap:butt;stroke-linejoin:miter;stroke-miterlimit:10;stroke-dasharray:none;stroke-opacity:1"
         d="m 449.18,289.098 -26.09,78.32" /><path
         id="path70"
         style="fill:none;stroke:#000000;stroke-width:6.38223982;stroke-linecap:round;stroke-linejoin:round;stroke-miterlimit:10;stroke-dasharray:none;stroke-opacity:1"
         d="m 408.316,346.09 c 6.961,3.711 13.52,20.941 13.52,25.008 2.461,-3.246 18.055,-13.094 25.816,-11.883" /><path
         id="path72"
         style="fill:none;stroke:#000000;stroke-width:7.97009993;stroke-linecap:butt;stroke-linejoin:miter;stroke-miterlimit:10;stroke-dasharray:none;stroke-opacity:1"
         d="M 619.301,374.141 645.898,267.617" /><path
         id="path74"
         style="fill:none;stroke:#000000;stroke-width:6.37593985;stroke-linecap:round;stroke-linejoin:round;stroke-miterlimit:10;stroke-dasharray:none;stroke-opacity:1"
         d="m 662.23,287.691 c -7.187,-3.125 -15.089,-19.761 -15.39,-23.863 -2.199,3.477 -16.957,14.449 -24.813,13.824" /><path
         id="path76"
         style="fill:none;stroke:#000000;stroke-width:7.97009993;stroke-linecap:butt;stroke-linejoin:miter;stroke-miterlimit:10;stroke-dasharray:none;stroke-opacity:1"
         d="M 534.219,118.98 483.91,93.8281" /><path
         id="path78"
         style="fill:none;stroke:#000000;stroke-width:6.40152979;stroke-linecap:round;stroke-linejoin:round;stroke-miterlimit:10;stroke-dasharray:none;stroke-opacity:1"
         d="m 507.145,82.1836 c -4.645,6.4141 -22.684,10.4687 -26.754,9.8828 2.933,2.9297 10.468,19.8126 8.164,27.3476" /><path
         id="path80"
         style="fill:none;stroke:#000000;stroke-width:7.97009993;stroke-linecap:butt;stroke-linejoin:miter;stroke-miterlimit:10;stroke-dasharray:none;stroke-opacity:1"
         d="m 364.141,374.141 h -49.61" /><path
         id="path82"
         style="fill:none;stroke:#000000;stroke-width:6.37599993;stroke-linecap:round;stroke-linejoin:round;stroke-miterlimit:10;stroke-dasharray:none;stroke-opacity:1"
         d="m 330.039,353.438 c -1.289,7.73 -15.508,19.41 -19.41,20.703 3.902,1.289 18.121,12.968 19.41,20.738" /><path
         id="path84"
         style="fill:none;stroke:#000000;stroke-width:7.97009993;stroke-linecap:butt;stroke-linejoin:miter;stroke-miterlimit:10;stroke-dasharray:none;stroke-opacity:1"
         d="M 364.141,118.98 257.621,92.3789" /><path
         id="path86"
         style="fill:none;stroke:#000000;stroke-width:6.37593985;stroke-linecap:round;stroke-linejoin:round;stroke-miterlimit:10;stroke-dasharray:none;stroke-opacity:1"
         d="m 277.699,76.0547 c -3.125,7.1875 -19.769,15.0781 -23.875,15.3906 3.481,2.1875 14.461,16.9497 13.836,24.8047" /><path
         id="path88"
         style="fill:none;stroke:#000000;stroke-width:7.97009993;stroke-linecap:butt;stroke-linejoin:miter;stroke-miterlimit:10;stroke-dasharray:none;stroke-opacity:1"
         d="m 194.059,118.98 v 78.008" /><path
         id="path90"
         style="fill:none;stroke:#000000;stroke-width:6.37599993;stroke-linecap:round;stroke-linejoin:round;stroke-miterlimit:10;stroke-dasharray:none;stroke-opacity:1"
         d="m 173.32,181.438 c 7.77,1.292 19.41,15.55 20.739,19.421 1.293,-3.871 12.929,-18.129 20.711,-19.421" /><path
         id="path92"
         style="fill:none;stroke:#000000;stroke-width:7.97009993;stroke-linecap:butt;stroke-linejoin:miter;stroke-miterlimit:10;stroke-dasharray:none;stroke-opacity:1"
         d="M 108.98,204.059 83.8281,254.367" /><path
         id="path94"
         style="fill:none;stroke:#000000;stroke-width:6.40152979;stroke-linecap:round;stroke-linejoin:round;stroke-miterlimit:10;stroke-dasharray:none;stroke-opacity:1"
         d="m 72.1875,231.125 c 6.4023,4.652 10.4648,22.695 9.8828,26.766 2.9297,-2.934 19.8087,-10.469 27.3437,-8.164" /><path
         id="path96"
         style="fill:none;stroke:#000000;stroke-width:7.97009993;stroke-linecap:butt;stroke-linejoin:miter;stroke-miterlimit:10;stroke-dasharray:none;stroke-opacity:1"
         d="M 108.98,374.141 82.3789,480.66" /><path
         id="path98"
         style="fill:none;stroke:#000000;stroke-width:6.37593985;stroke-linecap:round;stroke-linejoin:round;stroke-miterlimit:10;stroke-dasharray:none;stroke-opacity:1"
         d="m 66.0195,460.59 c 7.2188,3.121 15.0782,19.758 15.4219,23.859 2.1875,-3.476 16.957,-14.449 24.8126,-13.824" /><path
         id="path100"
         style="fill:none;stroke:#000000;stroke-width:7.97009993;stroke-linecap:butt;stroke-linejoin:miter;stroke-miterlimit:10;stroke-dasharray:none;stroke-opacity:1"
         d="m 108.98,544.219 h 78.008" /><path
         id="path102"
         style="fill:none;stroke:#000000;stroke-width:6.37599993;stroke-linecap:round;stroke-linejoin:round;stroke-miterlimit:10;stroke-dasharray:none;stroke-opacity:1"
         d="m 171.449,564.961 c 1.281,-7.773 15.539,-19.41 19.41,-20.742 -3.871,-1.289 -18.129,-12.93 -19.41,-20.711" /><path
         id="path104"
         style="fill:none;stroke:#000000;stroke-width:7.97009993;stroke-linecap:butt;stroke-linejoin:miter;stroke-miterlimit:10;stroke-dasharray:none;stroke-opacity:1"
         d="M 704.34,714.34 V 551.289" /><path
         id="path106"
         style="fill:none;stroke:#000000;stroke-width:6.37599993;stroke-linecap:round;stroke-linejoin:round;stroke-miterlimit:10;stroke-dasharray:none;stroke-opacity:1"
         d="m 725.039,566.84 c -7.769,-1.289 -19.418,-15.551 -20.699,-19.422 -1.289,3.871 -12.969,18.133 -20.75,19.422" /><path
         id="path108"
         style="fill:none;stroke:#000000;stroke-width:7.97009993;stroke-linecap:butt;stroke-linejoin:miter;stroke-miterlimit:10;stroke-dasharray:none;stroke-opacity:1"
         d="M 23.9492,33.9375 H 186.988" /><path
         id="path110"
         style="fill:none;stroke:#000000;stroke-width:6.37599993;stroke-linecap:round;stroke-linejoin:round;stroke-miterlimit:10;stroke-dasharray:none;stroke-opacity:1"
         d="m 171.449,54.6875 c 1.281,-7.7773 15.539,-19.457 19.41,-20.75 -3.871,-1.2773 -18.129,-12.9297 -19.41,-20.6992" /><path
         id="path112"
         style="fill:none;stroke:#000000;stroke-width:7.97009993;stroke-linecap:butt;stroke-linejoin:miter;stroke-miterlimit:10;stroke-dasharray:none;stroke-opacity:1"
         d="M 23.9492,33.9375 V 196.988" /><path
         id="path114"
         style="fill:none;stroke:#000000;stroke-width:6.37599993;stroke-linecap:round;stroke-linejoin:round;stroke-miterlimit:10;stroke-dasharray:none;stroke-opacity:1"
         d="m 3.23828,181.438 c 7.78122,1.292 19.42192,15.55 20.71092,19.421 1.2813,-3.871 12.961,-18.129 20.7422,-19.421" /><path
         id="path116"
         style="fill:none;stroke:#000000;stroke-width:7.97009993;stroke-linecap:butt;stroke-linejoin:miter;stroke-miterlimit:10;stroke-dasharray:none;stroke-opacity:1"
         d="M 704.34,374.141 V 211.129" /><path
         id="path118"
         style="fill:none;stroke:#000000;stroke-width:6.37599993;stroke-linecap:round;stroke-linejoin:round;stroke-miterlimit:10;stroke-dasharray:none;stroke-opacity:1"
         d="m 725.039,226.68 c -7.769,-1.332 -19.418,-15.551 -20.699,-19.45 -1.289,3.899 -12.969,18.118 -20.75,19.45" /><path
         id="path120"
         style="fill:none;stroke:#000000;stroke-width:7.97009993;stroke-linecap:butt;stroke-linejoin:miter;stroke-miterlimit:10;stroke-dasharray:none;stroke-opacity:1"
         d="M 364.141,33.9375 H 527.148" /><path
         id="path122"
         style="fill:none;stroke:#000000;stroke-width:6.37599993;stroke-linecap:round;stroke-linejoin:round;stroke-miterlimit:10;stroke-dasharray:none;stroke-opacity:1"
         d="m 511.602,54.6875 c 1.328,-7.7773 15.546,-19.457 19.449,-20.75 -3.903,-1.2773 -18.121,-12.9297 -19.449,-20.6992" /><path
         id="path124"
         style="fill:none;stroke:#000000;stroke-width:7.97009993;stroke-linecap:butt;stroke-linejoin:miter;stroke-miterlimit:10;stroke-dasharray:none;stroke-opacity:1"
         d="M 23.9492,374.141 V 537.148" /><path
         id="path126"
         style="fill:none;stroke:#000000;stroke-width:6.37599993;stroke-linecap:round;stroke-linejoin:round;stroke-miterlimit:10;stroke-dasharray:none;stroke-opacity:1"
         d="m 3.23828,521.598 c 7.78122,1.332 19.42192,15.55 20.71092,19.453 1.2813,-3.903 12.961,-18.121 20.7422,-19.453" /><path
         id="path128"
         style="fill:none;stroke:#000000;stroke-width:7.97009993;stroke-linecap:butt;stroke-linejoin:miter;stroke-miterlimit:10;stroke-dasharray:none;stroke-opacity:1"
         d="m 364.141,204.059 -80.039,80.039" /><path
         id="path130"
         style="fill:none;stroke:#000000;stroke-width:6.37593985;stroke-linecap:round;stroke-linejoin:round;stroke-miterlimit:10;stroke-dasharray:none;stroke-opacity:1"
         d="m 280.43,258.438 c 4.57,6.41 2.742,24.722 0.941,28.402 3.629,-1.852 21.949,-3.672 28.348,0.93" /><path
         id="path132"
         style="fill:none;stroke:#6495ed;stroke-width:7.97009993;stroke-linecap:butt;stroke-linejoin:miter;stroke-miterlimit:10;stroke-dasharray:none;stroke-opacity:1"
         d="M 534.219,374.141 454.18,454.18" /><path
         id="path134"
         style="fill:none;stroke:#6495ed;stroke-width:6.37593985;stroke-linecap:round;stroke-linejoin:round;stroke-miterlimit:10;stroke-dasharray:none;stroke-opacity:1"
         d="m 450.512,428.559 c 4.597,6.402 2.777,24.718 0.929,28.351 3.68,-1.801 21.989,-3.633 28.399,0.938" /><path
         id="path136"
         style="fill:none;stroke:#6495ed;stroke-width:7.97009993;stroke-linecap:butt;stroke-linejoin:miter;stroke-miterlimit:10;stroke-dasharray:none;stroke-opacity:1"
         d="m 194.059,374.141 80.043,80.039" /><path
         id="path138"
         style="fill:none;stroke:#6495ed;stroke-width:6.37593985;stroke-linecap:round;stroke-linejoin:round;stroke-miterlimit:10;stroke-dasharray:none;stroke-opacity:1"
         d="m 248.441,457.848 c 6.411,-4.571 24.731,-2.731 28.399,-0.938 -1.84,-3.621 -3.668,-21.949 0.93,-28.351" /></g></g></svg>