<?xml version="1.0" encoding="UTF-8" standalone="no"?>
<svg
   xmlns:dc="http://purl.org/dc/elements/1.1/"
   xmlns:cc="http://creativecommons.org/ns#"
   xmlns:rdf="http://www.w3.org/1999/02/22-rdf-syntax-ns#"
   xmlns:svg="http://www.w3.org/2000/svg"
   xmlns="http://www.w3.org/2000/svg"
   viewBox="0 0 1309.5733 1321.5732"
   height="1321.5732"
   width="1309.5732"
   xml:space="preserve"
   id="svg2"
   version="1.1"><metadata
     id="metadata8"><rdf:RDF><cc:Work
         rdf:about=""><dc:format>image/svg+xml</dc:format><dc:type
           rdf:resource="http://purl.org/dc/dcmitype/StillImage" /></cc:Work></rdf:RDF></metadata><defs
     id="defs6" /><g
     transform="matrix(1.3333333,0,0,-1.3333333,-27.213333,1348.7866)"
     id="g10"><g
       id="g12"><path
         id="path14"
         style="fill:#bdd0e6;fill-opacity:1;fill-rule:evenodd;stroke:none"
         d="m 716.59,629 c 0,19.516 -7.754,38.234 -21.555,52.035 -13.801,13.801 -32.519,21.555 -52.035,21.555 -19.516,0 -38.234,-7.754 -52.035,-21.555 C 577.164,667.234 569.41,648.516 569.41,629 c 0,-19.516 7.754,-38.234 21.555,-52.035 13.801,-13.801 32.519,-21.555 52.035,-21.555 19.516,0 38.234,7.754 52.035,21.555 13.801,13.801 21.555,32.519 21.555,52.035 z" /><path
         id="path16"
         style="fill:#bdd0e6;fill-opacity:1;fill-rule:evenodd;stroke:none"
         d="m 742.59,571 c 0,19.516 -7.754,38.234 -21.555,52.035 -13.801,13.801 -32.519,21.555 -52.035,21.555 -19.516,0 -38.234,-7.754 -52.035,-21.555 C 603.164,609.234 595.41,590.516 595.41,571 c 0,-19.516 7.754,-38.234 21.555,-52.035 13.801,-13.801 32.519,-21.555 52.035,-21.555 19.516,0 38.234,7.754 52.035,21.555 13.801,13.801 21.555,32.519 21.555,52.035 z" /><path
         id="path18"
         style="fill:#bdd0e6;fill-opacity:1;fill-rule:evenodd;stroke:none"
         d="m 962.59,928 c 0,19.516 -7.754,38.234 -21.555,52.035 -13.801,13.801 -32.519,21.555 -52.035,21.555 -19.516,0 -38.234,-7.754 -52.035,-21.555 C 823.164,966.234 815.41,947.516 815.41,928 c 0,-19.516 7.754,-38.234 21.555,-52.035 13.801,-13.801 32.519,-21.555 52.035,-21.555 19.516,0 38.234,7.754 52.035,21.555 13.801,13.801 21.555,32.519 21.555,52.035 z" /><path
         id="path20"
         style="fill:#bdd0e6;fill-opacity:1;fill-rule:evenodd;stroke:none"
         d="m 355.59,633 c 0,19.516 -7.754,38.234 -21.555,52.035 -13.801,13.801 -32.519,21.555 -52.035,21.555 -19.516,0 -38.234,-7.754 -52.035,-21.555 C 216.164,671.234 208.41,652.516 208.41,633 c 0,-19.516 7.754,-38.234 21.555,-52.035 13.801,-13.801 32.519,-21.555 52.035,-21.555 19.516,0 38.234,7.754 52.035,21.555 13.801,13.801 21.555,32.519 21.555,52.035 z" /><path
         id="path22"
         style="fill:#bdd0e6;fill-opacity:1;fill-rule:evenodd;stroke:none"
         d="m 235.59,640 c 0,19.516 -7.754,38.234 -21.555,52.035 -13.801,13.801 -32.519,21.555 -52.035,21.555 -19.516,0 -38.234,-7.754 -52.035,-21.555 C 96.164,678.234 88.41,659.516 88.41,640 c 0,-19.516 7.754,-38.234 21.555,-52.035 13.801,-13.801 32.519,-21.555 52.035,-21.555 19.516,0 38.234,7.754 52.035,21.555 13.801,13.801 21.555,32.519 21.555,52.035 z" /><path
         id="path24"
         style="fill:#bdd0e6;fill-opacity:1;fill-rule:evenodd;stroke:none"
         d="m 286.59,786 c 0,19.516 -7.754,38.234 -21.555,52.035 -13.801,13.801 -32.519,21.555 -52.035,21.555 -19.516,0 -38.234,-7.754 -52.035,-21.555 C 147.164,824.234 139.41,805.516 139.41,786 c 0,-19.516 7.754,-38.234 21.555,-52.035 13.801,-13.801 32.519,-21.555 52.035,-21.555 19.516,0 38.234,7.754 52.035,21.555 13.801,13.801 21.555,32.519 21.555,52.035 z" /><path
         id="path26"
         style="fill:#bdd0e6;fill-opacity:1;fill-rule:evenodd;stroke:none"
         d="m 935.59,636 c 0,19.516 -7.754,38.234 -21.555,52.035 -13.801,13.801 -32.519,21.555 -52.035,21.555 -19.516,0 -38.234,-7.754 -52.035,-21.555 C 796.164,674.234 788.41,655.516 788.41,636 c 0,-19.516 7.754,-38.234 21.555,-52.035 13.801,-13.801 32.519,-21.555 52.035,-21.555 19.516,0 38.234,7.754 52.035,21.555 13.801,13.801 21.555,32.519 21.555,52.035 z" /><path
         id="path28"
         style="fill:#bdd0e6;fill-opacity:1;fill-rule:evenodd;stroke:none"
         d="m 414.59,736 c 0,19.516 -7.754,38.234 -21.555,52.035 -13.801,13.801 -32.519,21.555 -52.035,21.555 -19.516,0 -38.234,-7.754 -52.035,-21.555 C 275.164,774.234 267.41,755.516 267.41,736 c 0,-19.516 7.754,-38.234 21.555,-52.035 13.801,-13.801 32.519,-21.555 52.035,-21.555 19.516,0 38.234,7.754 52.035,21.555 13.801,13.801 21.555,32.519 21.555,52.035 z" /><path
         id="path30"
         style="fill:#bdd0e6;fill-opacity:1;fill-rule:evenodd;stroke:none"
         d="m 911.59,94 c 0,19.516 -7.754,38.234 -21.555,52.035 -13.801,13.801 -32.519,21.555 -52.035,21.555 -19.516,0 -38.234,-7.754 -52.035,-21.555 C 772.164,132.234 764.41,113.516 764.41,94 c 0,-19.516 7.754,-38.234 21.555,-52.035 C 799.766,28.164 818.484,20.41 838,20.41 c 19.516,0 38.234,7.754 52.035,21.555 C 903.836,55.766 911.59,74.484 911.59,94 Z" /><path
         id="path32"
         style="fill:#bdd0e6;fill-opacity:1;fill-rule:evenodd;stroke:none"
         d="m 620.59,384 c 0,19.516 -7.754,38.234 -21.555,52.035 -13.801,13.801 -32.519,21.555 -52.035,21.555 -19.516,0 -38.234,-7.754 -52.035,-21.555 C 481.164,422.234 473.41,403.516 473.41,384 c 0,-19.516 7.754,-38.234 21.555,-52.035 13.801,-13.801 32.519,-21.555 52.035,-21.555 19.516,0 38.234,7.754 52.035,21.555 13.801,13.801 21.555,32.519 21.555,52.035 z" /><path
         id="path34"
         style="fill:#bdd0e6;fill-opacity:1;fill-rule:evenodd;stroke:none"
         d="m 931.59,921 c 0,19.516 -7.754,38.234 -21.555,52.035 -13.801,13.801 -32.519,21.555 -52.035,21.555 -19.516,0 -38.234,-7.754 -52.035,-21.555 C 792.164,959.234 784.41,940.516 784.41,921 c 0,-19.516 7.754,-38.234 21.555,-52.035 13.801,-13.801 32.519,-21.555 52.035,-21.555 19.516,0 38.234,7.754 52.035,21.555 13.801,13.801 21.555,32.519 21.555,52.035 z" /><path
         id="path36"
         style="fill:#bdd0e6;fill-opacity:1;fill-rule:evenodd;stroke:none"
         d="m 911.59,374 c 0,19.516 -7.754,38.234 -21.555,52.035 -13.801,13.801 -32.519,21.555 -52.035,21.555 -19.516,0 -38.234,-7.754 -52.035,-21.555 C 772.164,412.234 764.41,393.516 764.41,374 c 0,-19.516 7.754,-38.234 21.555,-52.035 13.801,-13.801 32.519,-21.555 52.035,-21.555 19.516,0 38.234,7.754 52.035,21.555 13.801,13.801 21.555,32.519 21.555,52.035 z" /><path
         id="path38"
         style="fill:#bdd0e6;fill-opacity:1;fill-rule:evenodd;stroke:none"
         d="m 393.59,336 c 0,19.516 -7.754,38.234 -21.555,52.035 -13.801,13.801 -32.519,21.555 -52.035,21.555 -19.516,0 -38.234,-7.754 -52.035,-21.555 C 254.164,374.234 246.41,355.516 246.41,336 c 0,-19.516 7.754,-38.234 21.555,-52.035 13.801,-13.801 32.519,-21.555 52.035,-21.555 19.516,0 38.234,7.754 52.035,21.555 13.801,13.801 21.555,32.519 21.555,52.035 z" /><path
         id="path40"
         style="fill:#bdd0e6;fill-opacity:1;fill-rule:evenodd;stroke:none"
         d="m 754.59,525 c 0,19.516 -7.754,38.234 -21.555,52.035 -13.801,13.801 -32.519,21.555 -52.035,21.555 -19.516,0 -38.234,-7.754 -52.035,-21.555 C 615.164,563.234 607.41,544.516 607.41,525 c 0,-19.516 7.754,-38.234 21.555,-52.035 13.801,-13.801 32.519,-21.555 52.035,-21.555 19.516,0 38.234,7.754 52.035,21.555 13.801,13.801 21.555,32.519 21.555,52.035 z" /><path
         id="path42"
         style="fill:#bdd0e6;fill-opacity:1;fill-rule:evenodd;stroke:none"
         d="m 828.59,429 c 0,19.516 -7.754,38.234 -21.555,52.035 -13.801,13.801 -32.519,21.555 -52.035,21.555 -19.516,0 -38.234,-7.754 -52.035,-21.555 C 689.164,467.234 681.41,448.516 681.41,429 c 0,-19.516 7.754,-38.234 21.555,-52.035 13.801,-13.801 32.519,-21.555 52.035,-21.555 19.516,0 38.234,7.754 52.035,21.555 13.801,13.801 21.555,32.519 21.555,52.035 z" /><path
         id="path44"
         style="fill:#bdd0e6;fill-opacity:1;fill-rule:evenodd;stroke:none"
         d="m 483.59,408 c 0,19.516 -7.754,38.234 -21.555,52.035 -13.801,13.801 -32.519,21.555 -52.035,21.555 -19.516,0 -38.234,-7.754 -52.035,-21.555 C 344.164,446.234 336.41,427.516 336.41,408 c 0,-19.516 7.754,-38.234 21.555,-52.035 13.801,-13.801 32.519,-21.555 52.035,-21.555 19.516,0 38.234,7.754 52.035,21.555 13.801,13.801 21.555,32.519 21.555,52.035 z" /><path
         id="path46"
         style="fill:#bdd0e6;fill-opacity:1;fill-rule:evenodd;stroke:none"
         d="m 524.59,185 c 0,19.516 -7.754,38.234 -21.555,52.035 -13.801,13.801 -32.519,21.555 -52.035,21.555 -19.516,0 -38.234,-7.754 -52.035,-21.555 C 385.164,223.234 377.41,204.516 377.41,185 c 0,-19.516 7.754,-38.234 21.555,-52.035 13.801,-13.801 32.519,-21.555 52.035,-21.555 19.516,0 38.234,7.754 52.035,21.555 13.801,13.801 21.555,32.519 21.555,52.035 z" /><path
         id="path48"
         style="fill:#bdd0e6;fill-opacity:1;fill-rule:evenodd;stroke:none"
         d="m 750.59,897 c 0,19.516 -7.754,38.234 -21.555,52.035 -13.801,13.801 -32.519,21.555 -52.035,21.555 -19.516,0 -38.234,-7.754 -52.035,-21.555 C 611.164,935.234 603.41,916.516 603.41,897 c 0,-19.516 7.754,-38.234 21.555,-52.035 13.801,-13.801 32.519,-21.555 52.035,-21.555 19.516,0 38.234,7.754 52.035,21.555 13.801,13.801 21.555,32.519 21.555,52.035 z" /><path
         id="path50"
         style="fill:#bdd0e6;fill-opacity:1;fill-rule:evenodd;stroke:none"
         d="m 226.59,789 c 0,19.516 -7.754,38.234 -21.555,52.035 -13.801,13.801 -32.519,21.555 -52.035,21.555 -19.516,0 -38.234,-7.754 -52.035,-21.555 C 87.164,827.234 79.41,808.516 79.41,789 c 0,-19.516 7.754,-38.234 21.555,-52.035 13.801,-13.801 32.519,-21.555 52.035,-21.555 19.516,0 38.234,7.754 52.035,21.555 13.801,13.801 21.555,32.519 21.555,52.035 z" /><path
         id="path52"
         style="fill:#bdd0e6;fill-opacity:1;fill-rule:evenodd;stroke:none"
         d="m 981.59,635 c 0,19.516 -7.754,38.234 -21.555,52.035 -13.801,13.801 -32.519,21.555 -52.035,21.555 -19.516,0 -38.234,-7.754 -52.035,-21.555 C 842.164,673.234 834.41,654.516 834.41,635 c 0,-19.516 7.754,-38.234 21.555,-52.035 13.801,-13.801 32.519,-21.555 52.035,-21.555 19.516,0 38.234,7.754 52.035,21.555 13.801,13.801 21.555,32.519 21.555,52.035 z" /><path
         id="path54"
         style="fill:#bdd0e6;fill-opacity:1;fill-rule:evenodd;stroke:none"
         d="m 981.59,631 c 0,19.516 -7.754,38.234 -21.555,52.035 -13.801,13.801 -32.519,21.555 -52.035,21.555 -19.516,0 -38.234,-7.754 -52.035,-21.555 C 842.164,669.234 834.41,650.516 834.41,631 c 0,-19.516 7.754,-38.234 21.555,-52.035 13.801,-13.801 32.519,-21.555 52.035,-21.555 19.516,0 38.234,7.754 52.035,21.555 13.801,13.801 21.555,32.519 21.555,52.035 z" /><path
         id="path56"
         style="fill:#bdd0e6;fill-opacity:1;fill-rule:evenodd;stroke:none"
         d="m 575.59,400 c 0,19.516 -7.754,38.234 -21.555,52.035 -13.801,13.801 -32.519,21.555 -52.035,21.555 -19.516,0 -38.234,-7.754 -52.035,-21.555 C 436.164,438.234 428.41,419.516 428.41,400 c 0,-19.516 7.754,-38.234 21.555,-52.035 13.801,-13.801 32.519,-21.555 52.035,-21.555 19.516,0 38.234,7.754 52.035,21.555 13.801,13.801 21.555,32.519 21.555,52.035 z" /><path
         id="path58"
         style="fill:#bdd0e6;fill-opacity:1;fill-rule:evenodd;stroke:none"
         d="m 421.59,649 c 0,19.516 -7.754,38.234 -21.555,52.035 -13.801,13.801 -32.519,21.555 -52.035,21.555 -19.516,0 -38.234,-7.754 -52.035,-21.555 C 282.164,687.234 274.41,668.516 274.41,649 c 0,-19.516 7.754,-38.234 21.555,-52.035 13.801,-13.801 32.519,-21.555 52.035,-21.555 19.516,0 38.234,7.754 52.035,21.555 13.801,13.801 21.555,32.519 21.555,52.035 z" /><path
         id="path60"
         style="fill:#bdd0e6;fill-opacity:1;fill-rule:evenodd;stroke:none"
         d="m 410.59,816 c 0,19.516 -7.754,38.234 -21.555,52.035 -13.801,13.801 -32.519,21.555 -52.035,21.555 -19.516,0 -38.234,-7.754 -52.035,-21.555 C 271.164,854.234 263.41,835.516 263.41,816 c 0,-19.516 7.754,-38.234 21.555,-52.035 13.801,-13.801 32.519,-21.555 52.035,-21.555 19.516,0 38.234,7.754 52.035,21.555 13.801,13.801 21.555,32.519 21.555,52.035 z" /><path
         id="path62"
         style="fill:#bdd0e6;fill-opacity:1;fill-rule:evenodd;stroke:none"
         d="m 167.59,220 c 0,19.516 -7.754,38.234 -21.555,52.035 C 132.234,285.836 113.516,293.59 94,293.59 74.484,293.59 55.766,285.836 41.965,272.035 28.164,258.234 20.41,239.516 20.41,220 c 0,-19.516 7.754,-38.234 21.555,-52.035 C 55.766,154.164 74.484,146.41 94,146.41 c 19.516,0 38.234,7.754 52.035,21.555 13.801,13.801 21.555,32.519 21.555,52.035 z" /><path
         id="path64"
         style="fill:#bdd0e6;fill-opacity:1;fill-rule:evenodd;stroke:none"
         d="m 752.59,745 c 0,19.516 -7.754,38.234 -21.555,52.035 -13.801,13.801 -32.519,21.555 -52.035,21.555 -19.516,0 -38.234,-7.754 -52.035,-21.555 C 613.164,783.234 605.41,764.516 605.41,745 c 0,-19.516 7.754,-38.234 21.555,-52.035 13.801,-13.801 32.519,-21.555 52.035,-21.555 19.516,0 38.234,7.754 52.035,21.555 13.801,13.801 21.555,32.519 21.555,52.035 z" /><path
         id="path66"
         style="fill:#bdd0e6;fill-opacity:1;fill-rule:evenodd;stroke:none"
         d="m 330.59,680 c 0,19.516 -7.754,38.234 -21.555,52.035 -13.801,13.801 -32.519,21.555 -52.035,21.555 -19.516,0 -38.234,-7.754 -52.035,-21.555 C 191.164,718.234 183.41,699.516 183.41,680 c 0,-19.516 7.754,-38.234 21.555,-52.035 13.801,-13.801 32.519,-21.555 52.035,-21.555 19.516,0 38.234,7.754 52.035,21.555 13.801,13.801 21.555,32.519 21.555,52.035 z" /><path
         id="path68"
         style="fill:#bdd0e6;fill-opacity:1;fill-rule:evenodd;stroke:none"
         d="m 516.59,341 c 0,19.516 -7.754,38.234 -21.555,52.035 -13.801,13.801 -32.519,21.555 -52.035,21.555 -19.516,0 -38.234,-7.754 -52.035,-21.555 C 377.164,379.234 369.41,360.516 369.41,341 c 0,-19.516 7.754,-38.234 21.555,-52.035 13.801,-13.801 32.519,-21.555 52.035,-21.555 19.516,0 38.234,7.754 52.035,21.555 13.801,13.801 21.555,32.519 21.555,52.035 z" /><path
         id="path70"
         style="fill:#bdd0e6;fill-opacity:1;fill-rule:evenodd;stroke:none"
         d="m 230.59,772 c 0,19.516 -7.754,38.234 -21.555,52.035 -13.801,13.801 -32.519,21.555 -52.035,21.555 -19.516,0 -38.234,-7.754 -52.035,-21.555 C 91.164,810.234 83.41,791.516 83.41,772 c 0,-19.516 7.754,-38.234 21.555,-52.035 13.801,-13.801 32.519,-21.555 52.035,-21.555 19.516,0 38.234,7.754 52.035,21.555 13.801,13.801 21.555,32.519 21.555,52.035 z" /><path
         id="path72"
         style="fill:#bdd0e6;fill-opacity:1;fill-rule:evenodd;stroke:none"
         d="m 173.59,392 c 0,19.516 -7.754,38.234 -21.555,52.035 C 138.234,457.836 119.516,465.59 100,465.59 80.484,465.59 61.766,457.836 47.965,444.035 34.164,430.234 26.41,411.516 26.41,392 c 0,-19.516 7.754,-38.234 21.555,-52.035 C 61.766,326.164 80.484,318.41 100,318.41 c 19.516,0 38.234,7.754 52.035,21.555 13.801,13.801 21.555,32.519 21.555,52.035 z" /><path
         id="path74"
         style="fill:#bdd0e6;fill-opacity:1;fill-rule:evenodd;stroke:none"
         d="m 404.59,244 c 0,19.516 -7.754,38.234 -21.555,52.035 -13.801,13.801 -32.519,21.555 -52.035,21.555 -19.516,0 -38.234,-7.754 -52.035,-21.555 C 265.164,282.234 257.41,263.516 257.41,244 c 0,-19.516 7.754,-38.234 21.555,-52.035 13.801,-13.801 32.519,-21.555 52.035,-21.555 19.516,0 38.234,7.754 52.035,21.555 13.801,13.801 21.555,32.519 21.555,52.035 z" /><path
         id="path76"
         style="fill:#bdd0e6;fill-opacity:1;fill-rule:evenodd;stroke:none"
         d="m 799.59,556 c 0,19.516 -7.754,38.234 -21.555,52.035 -13.801,13.801 -32.519,21.555 -52.035,21.555 -19.516,0 -38.234,-7.754 -52.035,-21.555 C 660.164,594.234 652.41,575.516 652.41,556 c 0,-19.516 7.754,-38.234 21.555,-52.035 13.801,-13.801 32.519,-21.555 52.035,-21.555 19.516,0 38.234,7.754 52.035,21.555 13.801,13.801 21.555,32.519 21.555,52.035 z" /><path
         id="path78"
         style="fill:#bdd0e6;fill-opacity:1;fill-rule:evenodd;stroke:none"
         d="m 797.59,505 c 0,19.516 -7.754,38.234 -21.555,52.035 -13.801,13.801 -32.519,21.555 -52.035,21.555 -19.516,0 -38.234,-7.754 -52.035,-21.555 C 658.164,543.234 650.41,524.516 650.41,505 c 0,-19.516 7.754,-38.234 21.555,-52.035 13.801,-13.801 32.519,-21.555 52.035,-21.555 19.516,0 38.234,7.754 52.035,21.555 13.801,13.801 21.555,32.519 21.555,52.035 z" /><path
         id="path80"
         style="fill:#bdd0e6;fill-opacity:1;fill-rule:evenodd;stroke:none"
         d="m 577.59,538 c 0,19.516 -7.754,38.234 -21.555,52.035 -13.801,13.801 -32.519,21.555 -52.035,21.555 -19.516,0 -38.234,-7.754 -52.035,-21.555 C 438.164,576.234 430.41,557.516 430.41,538 c 0,-19.516 7.754,-38.234 21.555,-52.035 13.801,-13.801 32.519,-21.555 52.035,-21.555 19.516,0 38.234,7.754 52.035,21.555 13.801,13.801 21.555,32.519 21.555,52.035 z" /><path
         id="path82"
         style="fill:#bdd0e6;fill-opacity:1;fill-rule:evenodd;stroke:none"
         d="m 452.59,526 c 0,19.516 -7.754,38.234 -21.555,52.035 -13.801,13.801 -32.519,21.555 -52.035,21.555 -19.516,0 -38.234,-7.754 -52.035,-21.555 C 313.164,564.234 305.41,545.516 305.41,526 c 0,-19.516 7.754,-38.234 21.555,-52.035 13.801,-13.801 32.519,-21.555 52.035,-21.555 19.516,0 38.234,7.754 52.035,21.555 13.801,13.801 21.555,32.519 21.555,52.035 z" /><path
         id="path84"
         style="fill:#bdd0e6;fill-opacity:1;fill-rule:evenodd;stroke:none"
         d="m 445.59,348 c 0,19.516 -7.754,38.234 -21.555,52.035 -13.801,13.801 -32.519,21.555 -52.035,21.555 -19.516,0 -38.234,-7.754 -52.035,-21.555 C 306.164,386.234 298.41,367.516 298.41,348 c 0,-19.516 7.754,-38.234 21.555,-52.035 13.801,-13.801 32.519,-21.555 52.035,-21.555 19.516,0 38.234,7.754 52.035,21.555 13.801,13.801 21.555,32.519 21.555,52.035 z" /><path
         id="path86"
         style="fill:#bdd0e6;fill-opacity:1;fill-rule:evenodd;stroke:none"
         d="m 538.59,468 c 0,19.516 -7.754,38.234 -21.555,52.035 -13.801,13.801 -32.519,21.555 -52.035,21.555 -19.516,0 -38.234,-7.754 -52.035,-21.555 C 399.164,506.234 391.41,487.516 391.41,468 c 0,-19.516 7.754,-38.234 21.555,-52.035 13.801,-13.801 32.519,-21.555 52.035,-21.555 19.516,0 38.234,7.754 52.035,21.555 13.801,13.801 21.555,32.519 21.555,52.035 z" /><path
         id="path88"
         style="fill:#bdd0e6;fill-opacity:1;fill-rule:evenodd;stroke:none"
         d="m 302.59,475 c 0,19.516 -7.754,38.234 -21.555,52.035 -13.801,13.801 -32.519,21.555 -52.035,21.555 -19.516,0 -38.234,-7.754 -52.035,-21.555 C 163.164,513.234 155.41,494.516 155.41,475 c 0,-19.516 7.754,-38.234 21.555,-52.035 13.801,-13.801 32.519,-21.555 52.035,-21.555 19.516,0 38.234,7.754 52.035,21.555 13.801,13.801 21.555,32.519 21.555,52.035 z" /><path
         id="path90"
         style="fill:#bdd0e6;fill-opacity:1;fill-rule:evenodd;stroke:none"
         d="m 862.59,251 c 0,19.516 -7.754,38.234 -21.555,52.035 -13.801,13.801 -32.519,21.555 -52.035,21.555 -19.516,0 -38.234,-7.754 -52.035,-21.555 C 723.164,289.234 715.41,270.516 715.41,251 c 0,-19.516 7.754,-38.234 21.555,-52.035 13.801,-13.801 32.519,-21.555 52.035,-21.555 19.516,0 38.234,7.754 52.035,21.555 13.801,13.801 21.555,32.519 21.555,52.035 z" /><path
         id="path92"
         style="fill:#bdd0e6;fill-opacity:1;fill-rule:evenodd;stroke:none"
         d="m 753.59,163 c 0,19.516 -7.754,38.234 -21.555,52.035 -13.801,13.801 -32.519,21.555 -52.035,21.555 -19.516,0 -38.234,-7.754 -52.035,-21.555 C 614.164,201.234 606.41,182.516 606.41,163 c 0,-19.516 7.754,-38.234 21.555,-52.035 C 641.766,97.164 660.484,89.41 680,89.41 c 19.516,0 38.234,7.754 52.035,21.555 13.801,13.801 21.555,32.519 21.555,52.035 z" /><path
         id="path94"
         style="fill:#bdd0e6;fill-opacity:1;fill-rule:evenodd;stroke:none"
         d="m 624.59,938 c 0,19.516 -7.754,38.234 -21.555,52.035 -13.801,13.801 -32.519,21.555 -52.035,21.555 -19.516,0 -38.234,-7.754 -52.035,-21.555 C 485.164,976.234 477.41,957.516 477.41,938 c 0,-19.516 7.754,-38.234 21.555,-52.035 13.801,-13.801 32.519,-21.555 52.035,-21.555 19.516,0 38.234,7.754 52.035,21.555 13.801,13.801 21.555,32.519 21.555,52.035 z" /><path
         id="path96"
         style="fill:#bdd0e6;fill-opacity:1;fill-rule:evenodd;stroke:none"
         d="m 454.59,505 c 0,19.516 -7.754,38.234 -21.555,52.035 -13.801,13.801 -32.519,21.555 -52.035,21.555 -19.516,0 -38.234,-7.754 -52.035,-21.555 C 315.164,543.234 307.41,524.516 307.41,505 c 0,-19.516 7.754,-38.234 21.555,-52.035 13.801,-13.801 32.519,-21.555 52.035,-21.555 19.516,0 38.234,7.754 52.035,21.555 13.801,13.801 21.555,32.519 21.555,52.035 z" /><path
         id="path98"
         style="fill:#bdd0e6;fill-opacity:1;fill-rule:evenodd;stroke:none"
         d="m 534.59,276 c 0,19.516 -7.754,38.234 -21.555,52.035 -13.801,13.801 -32.519,21.555 -52.035,21.555 -19.516,0 -38.234,-7.754 -52.035,-21.555 C 395.164,314.234 387.41,295.516 387.41,276 c 0,-19.516 7.754,-38.234 21.555,-52.035 13.801,-13.801 32.519,-21.555 52.035,-21.555 19.516,0 38.234,7.754 52.035,21.555 13.801,13.801 21.555,32.519 21.555,52.035 z" /><path
         id="path100"
         style="fill:#bdd0e6;fill-opacity:1;fill-rule:evenodd;stroke:none"
         d="m 322.59,801 c 0,19.516 -7.754,38.234 -21.555,52.035 -13.801,13.801 -32.519,21.555 -52.035,21.555 -19.516,0 -38.234,-7.754 -52.035,-21.555 C 183.164,839.234 175.41,820.516 175.41,801 c 0,-19.516 7.754,-38.234 21.555,-52.035 13.801,-13.801 32.519,-21.555 52.035,-21.555 19.516,0 38.234,7.754 52.035,21.555 13.801,13.801 21.555,32.519 21.555,52.035 z" /><path
         id="path102"
         style="fill:#bdd0e6;fill-opacity:1;fill-rule:evenodd;stroke:none"
         d="m 816.59,587 c 0,19.516 -7.754,38.234 -21.555,52.035 -13.801,13.801 -32.519,21.555 -52.035,21.555 -19.516,0 -38.234,-7.754 -52.035,-21.555 C 677.164,625.234 669.41,606.516 669.41,587 c 0,-19.516 7.754,-38.234 21.555,-52.035 13.801,-13.801 32.519,-21.555 52.035,-21.555 19.516,0 38.234,7.754 52.035,21.555 13.801,13.801 21.555,32.519 21.555,52.035 z" /><path
         id="path104"
         style="fill:#bdd0e6;fill-opacity:1;fill-rule:evenodd;stroke:none"
         d="m 594.59,505 c 0,19.516 -7.754,38.234 -21.555,52.035 -13.801,13.801 -32.519,21.555 -52.035,21.555 -19.516,0 -38.234,-7.754 -52.035,-21.555 C 455.164,543.234 447.41,524.516 447.41,505 c 0,-19.516 7.754,-38.234 21.555,-52.035 13.801,-13.801 32.519,-21.555 52.035,-21.555 19.516,0 38.234,7.754 52.035,21.555 13.801,13.801 21.555,32.519 21.555,52.035 z" /><path
         id="path106"
         style="fill:#bdd0e6;fill-opacity:1;fill-rule:evenodd;stroke:none"
         d="m 793.59,669 c 0,19.516 -7.754,38.234 -21.555,52.035 -13.801,13.801 -32.519,21.555 -52.035,21.555 -19.516,0 -38.234,-7.754 -52.035,-21.555 C 654.164,707.234 646.41,688.516 646.41,669 c 0,-19.516 7.754,-38.234 21.555,-52.035 13.801,-13.801 32.519,-21.555 52.035,-21.555 19.516,0 38.234,7.754 52.035,21.555 13.801,13.801 21.555,32.519 21.555,52.035 z" /><path
         id="path108"
         style="fill:#bdd0e6;fill-opacity:1;fill-rule:evenodd;stroke:none"
         d="m 895.59,513 c 0,19.516 -7.754,38.234 -21.555,52.035 -13.801,13.801 -32.519,21.555 -52.035,21.555 -19.516,0 -38.234,-7.754 -52.035,-21.555 C 756.164,551.234 748.41,532.516 748.41,513 c 0,-19.516 7.754,-38.234 21.555,-52.035 13.801,-13.801 32.519,-21.555 52.035,-21.555 19.516,0 38.234,7.754 52.035,21.555 13.801,13.801 21.555,32.519 21.555,52.035 z" /><path
         id="path110"
         style="fill:#bdd0e6;fill-opacity:1;fill-rule:evenodd;stroke:none"
         d="m 823.59,420 c 0,19.516 -7.754,38.234 -21.555,52.035 -13.801,13.801 -32.519,21.555 -52.035,21.555 -19.516,0 -38.234,-7.754 -52.035,-21.555 C 684.164,458.234 676.41,439.516 676.41,420 c 0,-19.516 7.754,-38.234 21.555,-52.035 13.801,-13.801 32.519,-21.555 52.035,-21.555 19.516,0 38.234,7.754 52.035,21.555 13.801,13.801 21.555,32.519 21.555,52.035 z" /><path
         id="path112"
         style="fill:#bdd0e6;fill-opacity:1;fill-rule:evenodd;stroke:none"
         d="m 291.59,636 c 0,19.516 -7.754,38.234 -21.555,52.035 -13.801,13.801 -32.519,21.555 -52.035,21.555 -19.516,0 -38.234,-7.754 -52.035,-21.555 C 152.164,674.234 144.41,655.516 144.41,636 c 0,-19.516 7.754,-38.234 21.555,-52.035 13.801,-13.801 32.519,-21.555 52.035,-21.555 19.516,0 38.234,7.754 52.035,21.555 13.801,13.801 21.555,32.519 21.555,52.035 z" /><path
         id="path114"
         style="fill:#bdd0e6;fill-opacity:1;fill-rule:evenodd;stroke:none"
         d="m 187.59,516 c 0,19.516 -7.754,38.234 -21.555,52.035 C 152.234,581.836 133.516,589.59 114,589.59 94.484,589.59 75.766,581.836 61.965,568.035 48.164,554.234 40.41,535.516 40.41,516 c 0,-19.516 7.754,-38.234 21.555,-52.035 C 75.766,450.164 94.484,442.41 114,442.41 c 19.516,0 38.234,7.754 52.035,21.555 13.801,13.801 21.555,32.519 21.555,52.035 z" /><path
         id="path116"
         style="fill:#bdd0e6;fill-opacity:1;fill-rule:evenodd;stroke:none"
         d="m 727.59,758 c 0,19.516 -7.754,38.234 -21.555,52.035 -13.801,13.801 -32.519,21.555 -52.035,21.555 -19.516,0 -38.234,-7.754 -52.035,-21.555 C 588.164,796.234 580.41,777.516 580.41,758 c 0,-19.516 7.754,-38.234 21.555,-52.035 13.801,-13.801 32.519,-21.555 52.035,-21.555 19.516,0 38.234,7.754 52.035,21.555 13.801,13.801 21.555,32.519 21.555,52.035 z" /><path
         id="path118"
         style="fill:#bdd0e6;fill-opacity:1;fill-rule:evenodd;stroke:none"
         d="m 212.59,489 c 0,19.516 -7.754,38.234 -21.555,52.035 -13.801,13.801 -32.519,21.555 -52.035,21.555 -19.516,0 -38.234,-7.754 -52.035,-21.555 C 73.164,527.234 65.41,508.516 65.41,489 c 0,-19.516 7.754,-38.234 21.555,-52.035 13.801,-13.801 32.519,-21.555 52.035,-21.555 19.516,0 38.234,7.754 52.035,21.555 13.801,13.801 21.555,32.519 21.555,52.035 z" /><path
         id="path120"
         style="fill:#bdd0e6;fill-opacity:1;fill-rule:evenodd;stroke:none"
         d="m 681.59,874 c 0,19.516 -7.754,38.234 -21.555,52.035 -13.801,13.801 -32.519,21.555 -52.035,21.555 -19.516,0 -38.234,-7.754 -52.035,-21.555 C 542.164,912.234 534.41,893.516 534.41,874 c 0,-19.516 7.754,-38.234 21.555,-52.035 13.801,-13.801 32.519,-21.555 52.035,-21.555 19.516,0 38.234,7.754 52.035,21.555 13.801,13.801 21.555,32.519 21.555,52.035 z" /><path
         id="path122"
         style="fill:#bdd0e6;fill-opacity:1;fill-rule:evenodd;stroke:none"
         d="m 384.59,840 c 0,19.516 -7.754,38.234 -21.555,52.035 -13.801,13.801 -32.519,21.555 -52.035,21.555 -19.516,0 -38.234,-7.754 -52.035,-21.555 C 245.164,878.234 237.41,859.516 237.41,840 c 0,-19.516 7.754,-38.234 21.555,-52.035 13.801,-13.801 32.519,-21.555 52.035,-21.555 19.516,0 38.234,7.754 52.035,21.555 13.801,13.801 21.555,32.519 21.555,52.035 z" /><path
         id="path124"
         style="fill:#bdd0e6;fill-opacity:1;fill-rule:evenodd;stroke:none"
         d="m 532.59,676 c 0,19.516 -7.754,38.234 -21.555,52.035 -13.801,13.801 -32.519,21.555 -52.035,21.555 -19.516,0 -38.234,-7.754 -52.035,-21.555 C 393.164,714.234 385.41,695.516 385.41,676 c 0,-19.516 7.754,-38.234 21.555,-52.035 13.801,-13.801 32.519,-21.555 52.035,-21.555 19.516,0 38.234,7.754 52.035,21.555 13.801,13.801 21.555,32.519 21.555,52.035 z" /><path
         id="path126"
         style="fill:#bdd0e6;fill-opacity:1;fill-rule:evenodd;stroke:none"
         d="m 478.59,776 c 0,19.516 -7.754,38.234 -21.555,52.035 -13.801,13.801 -32.519,21.555 -52.035,21.555 -19.516,0 -38.234,-7.754 -52.035,-21.555 C 339.164,814.234 331.41,795.516 331.41,776 c 0,-19.516 7.754,-38.234 21.555,-52.035 13.801,-13.801 32.519,-21.555 52.035,-21.555 19.516,0 38.234,7.754 52.035,21.555 13.801,13.801 21.555,32.519 21.555,52.035 z" /><path
         id="path128"
         style="fill:#bdd0e6;fill-opacity:1;fill-rule:evenodd;stroke:none"
         d="m 612.59,768 c 0,19.516 -7.754,38.234 -21.555,52.035 -13.801,13.801 -32.519,21.555 -52.035,21.555 -19.516,0 -38.234,-7.754 -52.035,-21.555 C 473.164,806.234 465.41,787.516 465.41,768 c 0,-19.516 7.754,-38.234 21.555,-52.035 13.801,-13.801 32.519,-21.555 52.035,-21.555 19.516,0 38.234,7.754 52.035,21.555 13.801,13.801 21.555,32.519 21.555,52.035 z" /><path
         id="path130"
         style="fill:#bdd0e6;fill-opacity:1;fill-rule:evenodd;stroke:none"
         d="m 554.59,467 c 0,19.516 -7.754,38.234 -21.555,52.035 -13.801,13.801 -32.519,21.555 -52.035,21.555 -19.516,0 -38.234,-7.754 -52.035,-21.555 C 415.164,505.234 407.41,486.516 407.41,467 c 0,-19.516 7.754,-38.234 21.555,-52.035 13.801,-13.801 32.519,-21.555 52.035,-21.555 19.516,0 38.234,7.754 52.035,21.555 13.801,13.801 21.555,32.519 21.555,52.035 z" /><path
         id="path132"
         style="fill:#bdd0e6;fill-opacity:1;fill-rule:evenodd;stroke:none"
         d="m 451.59,559 c 0,19.516 -7.754,38.234 -21.555,52.035 -13.801,13.801 -32.519,21.555 -52.035,21.555 -19.516,0 -38.234,-7.754 -52.035,-21.555 C 312.164,597.234 304.41,578.516 304.41,559 c 0,-19.516 7.754,-38.234 21.555,-52.035 13.801,-13.801 32.519,-21.555 52.035,-21.555 19.516,0 38.234,7.754 52.035,21.555 13.801,13.801 21.555,32.519 21.555,52.035 z" /><path
         id="path134"
         style="fill:#bdd0e6;fill-opacity:1;fill-rule:evenodd;stroke:none"
         d="m 995.59,924 c 0,19.516 -7.754,38.234 -21.555,52.035 -13.801,13.801 -32.519,21.555 -52.035,21.555 -19.516,0 -38.234,-7.754 -52.035,-21.555 C 856.164,962.234 848.41,943.516 848.41,924 c 0,-19.516 7.754,-38.234 21.555,-52.035 13.801,-13.801 32.519,-21.555 52.035,-21.555 19.516,0 38.234,7.754 52.035,21.555 13.801,13.801 21.555,32.519 21.555,52.035 z" /><path
         id="path136"
         style="fill:#bdd0e6;fill-opacity:1;fill-rule:evenodd;stroke:none"
         d="m 187.59,608 c 0,19.516 -7.754,38.234 -21.555,52.035 C 152.234,673.836 133.516,681.59 114,681.59 94.484,681.59 75.766,673.836 61.965,660.035 48.164,646.234 40.41,627.516 40.41,608 c 0,-19.516 7.754,-38.234 21.555,-52.035 C 75.766,542.164 94.484,534.41 114,534.41 c 19.516,0 38.234,7.754 52.035,21.555 13.801,13.801 21.555,32.519 21.555,52.035 z" /><path
         id="path138"
         style="fill:#bdd0e6;fill-opacity:1;fill-rule:evenodd;stroke:none"
         d="m 892.59,388 c 0,19.516 -7.754,38.234 -21.555,52.035 -13.801,13.801 -32.519,21.555 -52.035,21.555 -19.516,0 -38.234,-7.754 -52.035,-21.555 C 753.164,426.234 745.41,407.516 745.41,388 c 0,-19.516 7.754,-38.234 21.555,-52.035 13.801,-13.801 32.519,-21.555 52.035,-21.555 19.516,0 38.234,7.754 52.035,21.555 13.801,13.801 21.555,32.519 21.555,52.035 z" /><path
         id="path140"
         style="fill:#bdd0e6;fill-opacity:1;fill-rule:evenodd;stroke:none"
         d="m 414.59,156 c 0,19.516 -7.754,38.234 -21.555,52.035 -13.801,13.801 -32.519,21.555 -52.035,21.555 -19.516,0 -38.234,-7.754 -52.035,-21.555 C 275.164,194.234 267.41,175.516 267.41,156 c 0,-19.516 7.754,-38.234 21.555,-52.035 C 302.766,90.164 321.484,82.41 341,82.41 c 19.516,0 38.234,7.754 52.035,21.555 13.801,13.801 21.555,32.519 21.555,52.035 z" /><path
         id="path142"
         style="fill:#bdd0e6;fill-opacity:1;fill-rule:evenodd;stroke:none"
         d="m 419.59,781 c 0,19.516 -7.754,38.234 -21.555,52.035 -13.801,13.801 -32.519,21.555 -52.035,21.555 -19.516,0 -38.234,-7.754 -52.035,-21.555 C 280.164,819.234 272.41,800.516 272.41,781 c 0,-19.516 7.754,-38.234 21.555,-52.035 13.801,-13.801 32.519,-21.555 52.035,-21.555 19.516,0 38.234,7.754 52.035,21.555 13.801,13.801 21.555,32.519 21.555,52.035 z" /><path
         id="path144"
         style="fill:#bdd0e6;fill-opacity:1;fill-rule:evenodd;stroke:none"
         d="m 441.59,743 c 0,19.516 -7.754,38.234 -21.555,52.035 -13.801,13.801 -32.519,21.555 -52.035,21.555 -19.516,0 -38.234,-7.754 -52.035,-21.555 C 302.164,781.234 294.41,762.516 294.41,743 c 0,-19.516 7.754,-38.234 21.555,-52.035 13.801,-13.801 32.519,-21.555 52.035,-21.555 19.516,0 38.234,7.754 52.035,21.555 13.801,13.801 21.555,32.519 21.555,52.035 z" /><path
         id="path146"
         style="fill:#bdd0e6;fill-opacity:1;fill-rule:evenodd;stroke:none"
         d="m 1001.59,157 c 0,19.516 -7.754,38.234 -21.555,52.035 -13.801,13.801 -32.519,21.555 -52.035,21.555 -19.516,0 -38.234,-7.754 -52.035,-21.555 C 862.164,195.234 854.41,176.516 854.41,157 c 0,-19.516 7.754,-38.234 21.555,-52.035 C 889.766,91.164 908.484,83.41 928,83.41 c 19.516,0 38.234,7.754 52.035,21.555 13.801,13.801 21.555,32.519 21.555,52.035 z" /><path
         id="path148"
         style="fill:#bdd0e6;fill-opacity:1;fill-rule:evenodd;stroke:none"
         d="m 956.59,796 c 0,19.516 -7.754,38.234 -21.555,52.035 -13.801,13.801 -32.519,21.555 -52.035,21.555 -19.516,0 -38.234,-7.754 -52.035,-21.555 C 817.164,834.234 809.41,815.516 809.41,796 c 0,-19.516 7.754,-38.234 21.555,-52.035 13.801,-13.801 32.519,-21.555 52.035,-21.555 19.516,0 38.234,7.754 52.035,21.555 13.801,13.801 21.555,32.519 21.555,52.035 z" /><path
         id="path150"
         style="fill:#bdd0e6;fill-opacity:1;fill-rule:evenodd;stroke:none"
         d="m 786.59,776 c 0,19.516 -7.754,38.234 -21.555,52.035 -13.801,13.801 -32.519,21.555 -52.035,21.555 -19.516,0 -38.234,-7.754 -52.035,-21.555 C 647.164,814.234 639.41,795.516 639.41,776 c 0,-19.516 7.754,-38.234 21.555,-52.035 13.801,-13.801 32.519,-21.555 52.035,-21.555 19.516,0 38.234,7.754 52.035,21.555 13.801,13.801 21.555,32.519 21.555,52.035 z" /><path
         id="path152"
         style="fill:#bdd0e6;fill-opacity:1;fill-rule:evenodd;stroke:none"
         d="m 930.59,425 c 0,19.516 -7.754,38.234 -21.555,52.035 -13.801,13.801 -32.519,21.555 -52.035,21.555 -19.516,0 -38.234,-7.754 -52.035,-21.555 C 791.164,463.234 783.41,444.516 783.41,425 c 0,-19.516 7.754,-38.234 21.555,-52.035 13.801,-13.801 32.519,-21.555 52.035,-21.555 19.516,0 38.234,7.754 52.035,21.555 13.801,13.801 21.555,32.519 21.555,52.035 z" /><path
         id="path154"
         style="fill:#bdd0e6;fill-opacity:1;fill-rule:evenodd;stroke:none"
         d="m 1001.59,235 c 0,19.516 -7.754,38.234 -21.555,52.035 -13.801,13.801 -32.519,21.555 -52.035,21.555 -19.516,0 -38.234,-7.754 -52.035,-21.555 C 862.164,273.234 854.41,254.516 854.41,235 c 0,-19.516 7.754,-38.234 21.555,-52.035 13.801,-13.801 32.519,-21.555 52.035,-21.555 19.516,0 38.234,7.754 52.035,21.555 13.801,13.801 21.555,32.519 21.555,52.035 z" /><path
         id="path156"
         style="fill:#bdd0e6;fill-opacity:1;fill-rule:evenodd;stroke:none"
         d="m 582.59,695 c 0,19.516 -7.754,38.234 -21.555,52.035 -13.801,13.801 -32.519,21.555 -52.035,21.555 -19.516,0 -38.234,-7.754 -52.035,-21.555 C 443.164,733.234 435.41,714.516 435.41,695 c 0,-19.516 7.754,-38.234 21.555,-52.035 13.801,-13.801 32.519,-21.555 52.035,-21.555 19.516,0 38.234,7.754 52.035,21.555 13.801,13.801 21.555,32.519 21.555,52.035 z" /><path
         id="path158"
         style="fill:#bdd0e6;fill-opacity:1;fill-rule:evenodd;stroke:none"
         d="m 212.59,890 c 0,19.516 -7.754,38.234 -21.555,52.035 -13.801,13.801 -32.519,21.555 -52.035,21.555 -19.516,0 -38.234,-7.754 -52.035,-21.555 C 73.164,928.234 65.41,909.516 65.41,890 c 0,-19.516 7.754,-38.234 21.555,-52.035 13.801,-13.801 32.519,-21.555 52.035,-21.555 19.516,0 38.234,7.754 52.035,21.555 13.801,13.801 21.555,32.519 21.555,52.035 z" /><path
         id="path160"
         style="fill:#bdd0e6;fill-opacity:1;fill-rule:evenodd;stroke:none"
         d="m 612.59,152 c 0,19.516 -7.754,38.234 -21.555,52.035 -13.801,13.801 -32.519,21.555 -52.035,21.555 -19.516,0 -38.234,-7.754 -52.035,-21.555 C 473.164,190.234 465.41,171.516 465.41,152 c 0,-19.516 7.754,-38.234 21.555,-52.035 C 500.766,86.164 519.484,78.41 539,78.41 c 19.516,0 38.234,7.754 52.035,21.555 13.801,13.801 21.555,32.519 21.555,52.035 z" /><path
         id="path162"
         style="fill:#bdd0e6;fill-opacity:1;fill-rule:evenodd;stroke:none"
         d="m 416.59,635 c 0,19.516 -7.754,38.234 -21.555,52.035 -13.801,13.801 -32.519,21.555 -52.035,21.555 -19.516,0 -38.234,-7.754 -52.035,-21.555 C 277.164,673.234 269.41,654.516 269.41,635 c 0,-19.516 7.754,-38.234 21.555,-52.035 13.801,-13.801 32.519,-21.555 52.035,-21.555 19.516,0 38.234,7.754 52.035,21.555 13.801,13.801 21.555,32.519 21.555,52.035 z" /><path
         id="path164"
         style="fill:#bdd0e6;fill-opacity:1;fill-rule:evenodd;stroke:none"
         d="m 1002.59,544 c 0,19.516 -7.754,38.234 -21.555,52.035 -13.801,13.801 -32.519,21.555 -52.035,21.555 -19.516,0 -38.234,-7.754 -52.035,-21.555 C 863.164,582.234 855.41,563.516 855.41,544 c 0,-19.516 7.754,-38.234 21.555,-52.035 13.801,-13.801 32.519,-21.555 52.035,-21.555 19.516,0 38.234,7.754 52.035,21.555 13.801,13.801 21.555,32.519 21.555,52.035 z" /><path
         id="path166"
         style="fill:#bdd0e6;fill-opacity:1;fill-rule:evenodd;stroke:none"
         d="m 617.59,461 c 0,19.516 -7.754,38.234 -21.555,52.035 -13.801,13.801 -32.519,21.555 -52.035,21.555 -19.516,0 -38.234,-7.754 -52.035,-21.555 C 478.164,499.234 470.41,480.516 470.41,461 c 0,-19.516 7.754,-38.234 21.555,-52.035 13.801,-13.801 32.519,-21.555 52.035,-21.555 19.516,0 38.234,7.754 52.035,21.555 13.801,13.801 21.555,32.519 21.555,52.035 z" /><path
         id="path168"
         style="fill:#bdd0e6;fill-opacity:1;fill-rule:evenodd;stroke:none"
         d="m 619.59,458 c 0,19.516 -7.754,38.234 -21.555,52.035 -13.801,13.801 -32.519,21.555 -52.035,21.555 -19.516,0 -38.234,-7.754 -52.035,-21.555 C 480.164,496.234 472.41,477.516 472.41,458 c 0,-19.516 7.754,-38.234 21.555,-52.035 13.801,-13.801 32.519,-21.555 52.035,-21.555 19.516,0 38.234,7.754 52.035,21.555 13.801,13.801 21.555,32.519 21.555,52.035 z" /><path
         id="path170"
         style="fill:#bdd0e6;fill-opacity:1;fill-rule:evenodd;stroke:none"
         d="m 509.59,587 c 0,19.516 -7.754,38.234 -21.555,52.035 -13.801,13.801 -32.519,21.555 -52.035,21.555 -19.516,0 -38.234,-7.754 -52.035,-21.555 C 370.164,625.234 362.41,606.516 362.41,587 c 0,-19.516 7.754,-38.234 21.555,-52.035 13.801,-13.801 32.519,-21.555 52.035,-21.555 19.516,0 38.234,7.754 52.035,21.555 13.801,13.801 21.555,32.519 21.555,52.035 z" /><path
         id="path172"
         style="fill:#bdd0e6;fill-opacity:1;fill-rule:evenodd;stroke:none"
         d="m 916.59,450 c 0,19.516 -7.754,38.234 -21.555,52.035 -13.801,13.801 -32.519,21.555 -52.035,21.555 -19.516,0 -38.234,-7.754 -52.035,-21.555 C 777.164,488.234 769.41,469.516 769.41,450 c 0,-19.516 7.754,-38.234 21.555,-52.035 13.801,-13.801 32.519,-21.555 52.035,-21.555 19.516,0 38.234,7.754 52.035,21.555 13.801,13.801 21.555,32.519 21.555,52.035 z" /><path
         id="path174"
         style="fill:#bdd0e6;fill-opacity:1;fill-rule:evenodd;stroke:none"
         d="m 435.59,395 c 0,19.516 -7.754,38.234 -21.555,52.035 -13.801,13.801 -32.519,21.555 -52.035,21.555 -19.516,0 -38.234,-7.754 -52.035,-21.555 C 296.164,433.234 288.41,414.516 288.41,395 c 0,-19.516 7.754,-38.234 21.555,-52.035 13.801,-13.801 32.519,-21.555 52.035,-21.555 19.516,0 38.234,7.754 52.035,21.555 13.801,13.801 21.555,32.519 21.555,52.035 z" /><path
         id="path176"
         style="fill:#bdd0e6;fill-opacity:1;fill-rule:evenodd;stroke:none"
         d="m 849.59,266 c 0,19.516 -7.754,38.234 -21.555,52.035 -13.801,13.801 -32.519,21.555 -52.035,21.555 -19.516,0 -38.234,-7.754 -52.035,-21.555 C 710.164,304.234 702.41,285.516 702.41,266 c 0,-19.516 7.754,-38.234 21.555,-52.035 13.801,-13.801 32.519,-21.555 52.035,-21.555 19.516,0 38.234,7.754 52.035,21.555 13.801,13.801 21.555,32.519 21.555,52.035 z" /><path
         id="path178"
         style="fill:#bdd0e6;fill-opacity:1;fill-rule:evenodd;stroke:none"
         d="m 917.59,125 c 0,19.516 -7.754,38.234 -21.555,52.035 -13.801,13.801 -32.519,21.555 -52.035,21.555 -19.516,0 -38.234,-7.754 -52.035,-21.555 C 778.164,163.234 770.41,144.516 770.41,125 c 0,-19.516 7.754,-38.234 21.555,-52.035 C 805.766,59.164 824.484,51.41 844,51.41 c 19.516,0 38.234,7.754 52.035,21.555 13.801,13.801 21.555,32.519 21.555,52.035 z" /><path
         id="path180"
         style="fill:#bdd0e6;fill-opacity:1;fill-rule:evenodd;stroke:none"
         d="m 188.59,496 c 0,19.516 -7.754,38.234 -21.555,52.035 C 153.234,561.836 134.516,569.59 115,569.59 95.484,569.59 76.766,561.836 62.965,548.035 49.164,534.234 41.41,515.516 41.41,496 c 0,-19.516 7.754,-38.234 21.555,-52.035 C 76.766,430.164 95.484,422.41 115,422.41 c 19.516,0 38.234,7.754 52.035,21.555 13.801,13.801 21.555,32.519 21.555,52.035 z" /><path
         id="path182"
         style="fill:#bdd0e6;fill-opacity:1;fill-rule:evenodd;stroke:none"
         d="m 910.59,797 c 0,19.516 -7.754,38.234 -21.555,52.035 -13.801,13.801 -32.519,21.555 -52.035,21.555 -19.516,0 -38.234,-7.754 -52.035,-21.555 C 771.164,835.234 763.41,816.516 763.41,797 c 0,-19.516 7.754,-38.234 21.555,-52.035 13.801,-13.801 32.519,-21.555 52.035,-21.555 19.516,0 38.234,7.754 52.035,21.555 13.801,13.801 21.555,32.519 21.555,52.035 z" /><path
         id="path184"
         style="fill:#bdd0e6;fill-opacity:1;fill-rule:evenodd;stroke:none"
         d="m 181.59,140 c 0,19.516 -7.754,38.234 -21.555,52.035 C 146.234,205.836 127.516,213.59 108,213.59 88.484,213.59 69.766,205.836 55.965,192.035 42.164,178.234 34.41,159.516 34.41,140 34.41,120.484 42.164,101.766 55.965,87.965 69.766,74.164 88.484,66.41 108,66.41 c 19.516,0 38.234,7.754 52.035,21.555 13.801,13.801 21.555,32.519 21.555,52.035 z" /><path
         id="path186"
         style="fill:#bdd0e6;fill-opacity:1;fill-rule:evenodd;stroke:none"
         d="m 672.59,210 c 0,19.516 -7.754,38.234 -21.555,52.035 -13.801,13.801 -32.519,21.555 -52.035,21.555 -19.516,0 -38.234,-7.754 -52.035,-21.555 C 533.164,248.234 525.41,229.516 525.41,210 c 0,-19.516 7.754,-38.234 21.555,-52.035 13.801,-13.801 32.519,-21.555 52.035,-21.555 19.516,0 38.234,7.754 52.035,21.555 13.801,13.801 21.555,32.519 21.555,52.035 z" /><path
         id="path188"
         style="fill:#bdd0e6;fill-opacity:1;fill-rule:evenodd;stroke:none"
         d="m 208.59,365 c 0,19.516 -7.754,38.234 -21.555,52.035 -13.801,13.801 -32.519,21.555 -52.035,21.555 -19.516,0 -38.234,-7.754 -52.035,-21.555 C 69.164,403.234 61.41,384.516 61.41,365 c 0,-19.516 7.754,-38.234 21.555,-52.035 13.801,-13.801 32.519,-21.555 52.035,-21.555 19.516,0 38.234,7.754 52.035,21.555 13.801,13.801 21.555,32.519 21.555,52.035 z" /><path
         id="path190"
         style="fill:#bdd0e6;fill-opacity:1;fill-rule:evenodd;stroke:none"
         d="m 174.59,691 c 0,19.516 -7.754,38.234 -21.555,52.035 C 139.234,756.836 120.516,764.59 101,764.59 81.484,764.59 62.766,756.836 48.965,743.035 35.164,729.234 27.41,710.516 27.41,691 c 0,-19.516 7.754,-38.234 21.555,-52.035 C 62.766,625.164 81.484,617.41 101,617.41 c 19.516,0 38.234,7.754 52.035,21.555 13.801,13.801 21.555,32.519 21.555,52.035 z" /><path
         id="path192"
         style="fill:#bdd0e6;fill-opacity:1;fill-rule:evenodd;stroke:none"
         d="m 824.59,204 c 0,19.516 -7.754,38.234 -21.555,52.035 -13.801,13.801 -32.519,21.555 -52.035,21.555 -19.516,0 -38.234,-7.754 -52.035,-21.555 C 685.164,242.234 677.41,223.516 677.41,204 c 0,-19.516 7.754,-38.234 21.555,-52.035 13.801,-13.801 32.519,-21.555 52.035,-21.555 19.516,0 38.234,7.754 52.035,21.555 13.801,13.801 21.555,32.519 21.555,52.035 z" /><path
         id="path194"
         style="fill:#bdd0e6;fill-opacity:1;fill-rule:evenodd;stroke:none"
         d="m 733.59,198 c 0,19.516 -7.754,38.234 -21.555,52.035 -13.801,13.801 -32.519,21.555 -52.035,21.555 -19.516,0 -38.234,-7.754 -52.035,-21.555 C 594.164,236.234 586.41,217.516 586.41,198 c 0,-19.516 7.754,-38.234 21.555,-52.035 13.801,-13.801 32.519,-21.555 52.035,-21.555 19.516,0 38.234,7.754 52.035,21.555 13.801,13.801 21.555,32.519 21.555,52.035 z" /><path
         id="path196"
         style="fill:#bdd0e6;fill-opacity:1;fill-rule:evenodd;stroke:none"
         d="m 815.59,512 c 0,19.516 -7.754,38.234 -21.555,52.035 -13.801,13.801 -32.519,21.555 -52.035,21.555 -19.516,0 -38.234,-7.754 -52.035,-21.555 C 676.164,550.234 668.41,531.516 668.41,512 c 0,-19.516 7.754,-38.234 21.555,-52.035 13.801,-13.801 32.519,-21.555 52.035,-21.555 19.516,0 38.234,7.754 52.035,21.555 13.801,13.801 21.555,32.519 21.555,52.035 z" /><path
         id="path198"
         style="fill:#bdd0e6;fill-opacity:1;fill-rule:evenodd;stroke:none"
         d="m 191.59,135 c 0,19.516 -7.754,38.234 -21.555,52.035 C 156.234,200.836 137.516,208.59 118,208.59 98.484,208.59 79.766,200.836 65.965,187.035 52.164,173.234 44.41,154.516 44.41,135 44.41,115.484 52.164,96.766 65.965,82.965 79.766,69.164 98.484,61.41 118,61.41 c 19.516,0 38.234,7.754 52.035,21.555 13.801,13.801 21.555,32.519 21.555,52.035 z" /><path
         id="path200"
         style="fill:#bdd0e6;fill-opacity:1;fill-rule:evenodd;stroke:none"
         d="m 811.59,403 c 0,19.516 -7.754,38.234 -21.555,52.035 -13.801,13.801 -32.519,21.555 -52.035,21.555 -19.516,0 -38.234,-7.754 -52.035,-21.555 C 672.164,441.234 664.41,422.516 664.41,403 c 0,-19.516 7.754,-38.234 21.555,-52.035 13.801,-13.801 32.519,-21.555 52.035,-21.555 19.516,0 38.234,7.754 52.035,21.555 13.801,13.801 21.555,32.519 21.555,52.035 z" /><path
         id="path202"
         style="fill:#bdd0e6;fill-opacity:1;fill-rule:evenodd;stroke:none"
         d="m 814.59,101 c 0,19.516 -7.754,38.234 -21.555,52.035 -13.801,13.801 -32.519,21.555 -52.035,21.555 -19.516,0 -38.234,-7.754 -52.035,-21.555 C 675.164,139.234 667.41,120.516 667.41,101 c 0,-19.516 7.754,-38.234 21.555,-52.035 C 702.766,35.164 721.484,27.41 741,27.41 c 19.516,0 38.234,7.754 52.035,21.555 13.801,13.801 21.555,32.519 21.555,52.035 z" /><path
         id="path204"
         style="fill:#bdd0e6;fill-opacity:1;fill-rule:evenodd;stroke:none"
         d="m 1002.59,304 c 0,19.516 -7.754,38.234 -21.555,52.035 -13.801,13.801 -32.519,21.555 -52.035,21.555 -19.516,0 -38.234,-7.754 -52.035,-21.555 C 863.164,342.234 855.41,323.516 855.41,304 c 0,-19.516 7.754,-38.234 21.555,-52.035 13.801,-13.801 32.519,-21.555 52.035,-21.555 19.516,0 38.234,7.754 52.035,21.555 13.801,13.801 21.555,32.519 21.555,52.035 z" /><path
         id="path206"
         style="fill:#bdd0e6;fill-opacity:1;fill-rule:evenodd;stroke:none"
         d="m 762.59,341 c 0,19.516 -7.754,38.234 -21.555,52.035 -13.801,13.801 -32.519,21.555 -52.035,21.555 -19.516,0 -38.234,-7.754 -52.035,-21.555 C 623.164,379.234 615.41,360.516 615.41,341 c 0,-19.516 7.754,-38.234 21.555,-52.035 13.801,-13.801 32.519,-21.555 52.035,-21.555 19.516,0 38.234,7.754 52.035,21.555 13.801,13.801 21.555,32.519 21.555,52.035 z" /><path
         id="path208"
         style="fill:#bdd0e6;fill-opacity:1;fill-rule:evenodd;stroke:none"
         d="m 721.59,411 c 0,19.516 -7.754,38.234 -21.555,52.035 -13.801,13.801 -32.519,21.555 -52.035,21.555 -19.516,0 -38.234,-7.754 -52.035,-21.555 C 582.164,449.234 574.41,430.516 574.41,411 c 0,-19.516 7.754,-38.234 21.555,-52.035 13.801,-13.801 32.519,-21.555 52.035,-21.555 19.516,0 38.234,7.754 52.035,21.555 13.801,13.801 21.555,32.519 21.555,52.035 z" /><path
         id="path210"
         style="fill:#bdd0e6;fill-opacity:1;fill-rule:evenodd;stroke:none"
         d="m 793.59,248 c 0,19.516 -7.754,38.234 -21.555,52.035 -13.801,13.801 -32.519,21.555 -52.035,21.555 -19.516,0 -38.234,-7.754 -52.035,-21.555 C 654.164,286.234 646.41,267.516 646.41,248 c 0,-19.516 7.754,-38.234 21.555,-52.035 13.801,-13.801 32.519,-21.555 52.035,-21.555 19.516,0 38.234,7.754 52.035,21.555 13.801,13.801 21.555,32.519 21.555,52.035 z" /><path
         id="path212"
         style="fill:#bdd0e6;fill-opacity:1;fill-rule:evenodd;stroke:none"
         d="m 168.59,230 c 0,19.516 -7.754,38.234 -21.555,52.035 C 133.234,295.836 114.516,303.59 95,303.59 75.484,303.59 56.766,295.836 42.965,282.035 29.164,268.234 21.41,249.516 21.41,230 c 0,-19.516 7.754,-38.234 21.555,-52.035 C 56.766,164.164 75.484,156.41 95,156.41 c 19.516,0 38.234,7.754 52.035,21.555 13.801,13.801 21.555,32.519 21.555,52.035 z" /><path
         id="path214"
         style="fill:#3873b3;fill-opacity:1;fill-rule:evenodd;stroke:none"
         d="m 695.562,629 c 0,13.941 -5.539,27.309 -15.394,37.168 -9.859,9.855 -23.227,15.394 -37.168,15.394 -13.941,0 -27.309,-5.539 -37.168,-15.394 -9.855,-9.859 -15.394,-23.227 -15.394,-37.168 0,-13.941 5.539,-27.309 15.394,-37.168 9.859,-9.855 23.227,-15.394 37.168,-15.394 13.941,0 27.309,5.539 37.168,15.394 9.855,9.859 15.394,23.227 15.394,37.168 z" /><path
         id="path216"
         style="fill:#3873b3;fill-opacity:1;fill-rule:evenodd;stroke:none"
         d="m 721.562,571 c 0,13.941 -5.539,27.309 -15.394,37.168 -9.859,9.855 -23.227,15.394 -37.168,15.394 -13.941,0 -27.309,-5.539 -37.168,-15.394 -9.855,-9.859 -15.394,-23.227 -15.394,-37.168 0,-13.941 5.539,-27.309 15.394,-37.168 9.859,-9.855 23.227,-15.394 37.168,-15.394 13.941,0 27.309,5.539 37.168,15.394 9.855,9.859 15.394,23.227 15.394,37.168 z" /><path
         id="path218"
         style="fill:#3873b3;fill-opacity:1;fill-rule:evenodd;stroke:none"
         d="m 941.562,928 c 0,13.941 -5.539,27.309 -15.394,37.168 -9.859,9.855 -23.227,15.394 -37.168,15.394 -13.941,0 -27.309,-5.539 -37.168,-15.394 -9.855,-9.859 -15.394,-23.227 -15.394,-37.168 0,-13.941 5.539,-27.309 15.394,-37.168 9.859,-9.855 23.227,-15.394 37.168,-15.394 13.941,0 27.309,5.539 37.168,15.394 9.855,9.859 15.394,23.227 15.394,37.168 z" /><path
         id="path220"
         style="fill:#3873b3;fill-opacity:1;fill-rule:evenodd;stroke:none"
         d="m 334.562,633 c 0,13.941 -5.539,27.309 -15.394,37.168 -9.859,9.855 -23.227,15.394 -37.168,15.394 -13.941,0 -27.309,-5.539 -37.168,-15.394 -9.855,-9.859 -15.394,-23.227 -15.394,-37.168 0,-13.941 5.539,-27.309 15.394,-37.168 9.859,-9.855 23.227,-15.394 37.168,-15.394 13.941,0 27.309,5.539 37.168,15.394 9.855,9.859 15.394,23.227 15.394,37.168 z" /><path
         id="path222"
         style="fill:#3873b3;fill-opacity:1;fill-rule:evenodd;stroke:none"
         d="m 214.562,640 c 0,13.941 -5.539,27.309 -15.394,37.168 -9.859,9.855 -23.227,15.394 -37.168,15.394 -13.941,0 -27.309,-5.539 -37.168,-15.394 -9.855,-9.859 -15.394,-23.227 -15.394,-37.168 0,-13.941 5.539,-27.309 15.394,-37.168 9.859,-9.855 23.227,-15.394 37.168,-15.394 13.941,0 27.309,5.539 37.168,15.394 9.855,9.859 15.394,23.227 15.394,37.168 z" /><path
         id="path224"
         style="fill:#3873b3;fill-opacity:1;fill-rule:evenodd;stroke:none"
         d="m 265.562,786 c 0,13.941 -5.539,27.309 -15.394,37.168 -9.859,9.855 -23.227,15.394 -37.168,15.394 -13.941,0 -27.309,-5.539 -37.168,-15.394 -9.855,-9.859 -15.394,-23.227 -15.394,-37.168 0,-13.941 5.539,-27.309 15.394,-37.168 9.859,-9.855 23.227,-15.394 37.168,-15.394 13.941,0 27.309,5.539 37.168,15.394 9.855,9.859 15.394,23.227 15.394,37.168 z" /><path
         id="path226"
         style="fill:#3873b3;fill-opacity:1;fill-rule:evenodd;stroke:none"
         d="m 914.562,636 c 0,13.941 -5.539,27.309 -15.394,37.168 -9.859,9.855 -23.227,15.394 -37.168,15.394 -13.941,0 -27.309,-5.539 -37.168,-15.394 -9.855,-9.859 -15.394,-23.227 -15.394,-37.168 0,-13.941 5.539,-27.309 15.394,-37.168 9.859,-9.855 23.227,-15.394 37.168,-15.394 13.941,0 27.309,5.539 37.168,15.394 9.855,9.859 15.394,23.227 15.394,37.168 z" /><path
         id="path228"
         style="fill:#3873b3;fill-opacity:1;fill-rule:evenodd;stroke:none"
         d="m 393.562,736 c 0,13.941 -5.539,27.309 -15.394,37.168 -9.859,9.855 -23.227,15.394 -37.168,15.394 -13.941,0 -27.309,-5.539 -37.168,-15.394 -9.855,-9.859 -15.394,-23.227 -15.394,-37.168 0,-13.941 5.539,-27.309 15.394,-37.168 9.859,-9.855 23.227,-15.394 37.168,-15.394 13.941,0 27.309,5.539 37.168,15.394 9.855,9.859 15.394,23.227 15.394,37.168 z" /><path
         id="path230"
         style="fill:#3873b3;fill-opacity:1;fill-rule:evenodd;stroke:none"
         d="m 890.562,94 c 0,13.941 -5.539,27.309 -15.394,37.168 -9.859,9.855 -23.227,15.394 -37.168,15.394 -13.941,0 -27.309,-5.539 -37.168,-15.394 -9.855,-9.859 -15.394,-23.227 -15.394,-37.168 0,-13.941 5.539,-27.309 15.394,-37.168 9.859,-9.855 23.227,-15.394 37.168,-15.394 13.941,0 27.309,5.539 37.168,15.394 9.855,9.859 15.394,23.227 15.394,37.168 z" /><path
         id="path232"
         style="fill:#3873b3;fill-opacity:1;fill-rule:evenodd;stroke:none"
         d="m 599.562,384 c 0,13.941 -5.539,27.309 -15.394,37.168 -9.859,9.855 -23.227,15.394 -37.168,15.394 -13.941,0 -27.309,-5.539 -37.168,-15.394 -9.855,-9.859 -15.394,-23.227 -15.394,-37.168 0,-13.941 5.539,-27.309 15.394,-37.168 9.859,-9.855 23.227,-15.394 37.168,-15.394 13.941,0 27.309,5.539 37.168,15.394 9.855,9.859 15.394,23.227 15.394,37.168 z" /><path
         id="path234"
         style="fill:#3873b3;fill-opacity:1;fill-rule:evenodd;stroke:none"
         d="m 910.562,921 c 0,13.941 -5.539,27.309 -15.394,37.168 -9.859,9.855 -23.227,15.394 -37.168,15.394 -13.941,0 -27.309,-5.539 -37.168,-15.394 -9.855,-9.859 -15.394,-23.227 -15.394,-37.168 0,-13.941 5.539,-27.309 15.394,-37.168 9.859,-9.855 23.227,-15.394 37.168,-15.394 13.941,0 27.309,5.539 37.168,15.394 9.855,9.859 15.394,23.227 15.394,37.168 z" /><path
         id="path236"
         style="fill:#3873b3;fill-opacity:1;fill-rule:evenodd;stroke:none"
         d="m 890.562,374 c 0,13.941 -5.539,27.309 -15.394,37.168 -9.859,9.855 -23.227,15.394 -37.168,15.394 -13.941,0 -27.309,-5.539 -37.168,-15.394 -9.855,-9.859 -15.394,-23.227 -15.394,-37.168 0,-13.941 5.539,-27.309 15.394,-37.168 9.859,-9.855 23.227,-15.394 37.168,-15.394 13.941,0 27.309,5.539 37.168,15.394 9.855,9.859 15.394,23.227 15.394,37.168 z" /><path
         id="path238"
         style="fill:#3873b3;fill-opacity:1;fill-rule:evenodd;stroke:none"
         d="m 372.562,336 c 0,13.941 -5.539,27.309 -15.394,37.168 -9.859,9.855 -23.227,15.394 -37.168,15.394 -13.941,0 -27.309,-5.539 -37.168,-15.394 -9.855,-9.859 -15.394,-23.227 -15.394,-37.168 0,-13.941 5.539,-27.309 15.394,-37.168 9.859,-9.855 23.227,-15.394 37.168,-15.394 13.941,0 27.309,5.539 37.168,15.394 9.855,9.859 15.394,23.227 15.394,37.168 z" /><path
         id="path240"
         style="fill:#3873b3;fill-opacity:1;fill-rule:evenodd;stroke:none"
         d="m 733.562,525 c 0,13.941 -5.539,27.309 -15.394,37.168 -9.859,9.855 -23.227,15.394 -37.168,15.394 -13.941,0 -27.309,-5.539 -37.168,-15.394 -9.855,-9.859 -15.394,-23.227 -15.394,-37.168 0,-13.941 5.539,-27.309 15.394,-37.168 9.859,-9.855 23.227,-15.394 37.168,-15.394 13.941,0 27.309,5.539 37.168,15.394 9.855,9.859 15.394,23.227 15.394,37.168 z" /><path
         id="path242"
         style="fill:#3873b3;fill-opacity:1;fill-rule:evenodd;stroke:none"
         d="m 807.562,429 c 0,13.941 -5.539,27.309 -15.394,37.168 -9.859,9.855 -23.227,15.394 -37.168,15.394 -13.941,0 -27.309,-5.539 -37.168,-15.394 -9.855,-9.859 -15.394,-23.227 -15.394,-37.168 0,-13.941 5.539,-27.309 15.394,-37.168 9.859,-9.855 23.227,-15.394 37.168,-15.394 13.941,0 27.309,5.539 37.168,15.394 9.855,9.859 15.394,23.227 15.394,37.168 z" /><path
         id="path244"
         style="fill:#3873b3;fill-opacity:1;fill-rule:evenodd;stroke:none"
         d="m 462.562,408 c 0,13.941 -5.539,27.309 -15.394,37.168 -9.859,9.855 -23.227,15.394 -37.168,15.394 -13.941,0 -27.309,-5.539 -37.168,-15.394 -9.855,-9.859 -15.394,-23.227 -15.394,-37.168 0,-13.941 5.539,-27.309 15.394,-37.168 9.859,-9.855 23.227,-15.394 37.168,-15.394 13.941,0 27.309,5.539 37.168,15.394 9.855,9.859 15.394,23.227 15.394,37.168 z" /><path
         id="path246"
         style="fill:#3873b3;fill-opacity:1;fill-rule:evenodd;stroke:none"
         d="m 503.562,185 c 0,13.941 -5.539,27.309 -15.394,37.168 -9.859,9.855 -23.227,15.394 -37.168,15.394 -13.941,0 -27.309,-5.539 -37.168,-15.394 -9.855,-9.859 -15.394,-23.227 -15.394,-37.168 0,-13.941 5.539,-27.309 15.394,-37.168 9.859,-9.855 23.227,-15.394 37.168,-15.394 13.941,0 27.309,5.539 37.168,15.394 9.855,9.859 15.394,23.227 15.394,37.168 z" /><path
         id="path248"
         style="fill:#3873b3;fill-opacity:1;fill-rule:evenodd;stroke:none"
         d="m 729.562,897 c 0,13.941 -5.539,27.309 -15.394,37.168 -9.859,9.855 -23.227,15.394 -37.168,15.394 -13.941,0 -27.309,-5.539 -37.168,-15.394 -9.855,-9.859 -15.394,-23.227 -15.394,-37.168 0,-13.941 5.539,-27.309 15.394,-37.168 9.859,-9.855 23.227,-15.394 37.168,-15.394 13.941,0 27.309,5.539 37.168,15.394 9.855,9.859 15.394,23.227 15.394,37.168 z" /><path
         id="path250"
         style="fill:#3873b3;fill-opacity:1;fill-rule:evenodd;stroke:none"
         d="m 205.562,789 c 0,13.941 -5.539,27.309 -15.394,37.168 -9.859,9.855 -23.227,15.394 -37.168,15.394 -13.941,0 -27.309,-5.539 -37.168,-15.394 -9.855,-9.859 -15.394,-23.227 -15.394,-37.168 0,-13.941 5.539,-27.309 15.394,-37.168 9.859,-9.855 23.227,-15.394 37.168,-15.394 13.941,0 27.309,5.539 37.168,15.394 9.855,9.859 15.394,23.227 15.394,37.168 z" /><path
         id="path252"
         style="fill:#3873b3;fill-opacity:1;fill-rule:evenodd;stroke:none"
         d="m 960.562,635 c 0,13.941 -5.539,27.309 -15.394,37.168 -9.859,9.855 -23.227,15.394 -37.168,15.394 -13.941,0 -27.309,-5.539 -37.168,-15.394 -9.855,-9.859 -15.394,-23.227 -15.394,-37.168 0,-13.941 5.539,-27.309 15.394,-37.168 9.859,-9.855 23.227,-15.394 37.168,-15.394 13.941,0 27.309,5.539 37.168,15.394 9.855,9.859 15.394,23.227 15.394,37.168 z" /><path
         id="path254"
         style="fill:#3873b3;fill-opacity:1;fill-rule:evenodd;stroke:none"
         d="m 960.562,631 c 0,13.941 -5.539,27.309 -15.394,37.168 -9.859,9.855 -23.227,15.394 -37.168,15.394 -13.941,0 -27.309,-5.539 -37.168,-15.394 -9.855,-9.859 -15.394,-23.227 -15.394,-37.168 0,-13.941 5.539,-27.309 15.394,-37.168 9.859,-9.855 23.227,-15.394 37.168,-15.394 13.941,0 27.309,5.539 37.168,15.394 9.855,9.859 15.394,23.227 15.394,37.168 z" /><path
         id="path256"
         style="fill:#3873b3;fill-opacity:1;fill-rule:evenodd;stroke:none"
         d="m 554.562,400 c 0,13.941 -5.539,27.309 -15.394,37.168 -9.859,9.855 -23.227,15.394 -37.168,15.394 -13.941,0 -27.309,-5.539 -37.168,-15.394 -9.855,-9.859 -15.394,-23.227 -15.394,-37.168 0,-13.941 5.539,-27.309 15.394,-37.168 9.859,-9.855 23.227,-15.394 37.168,-15.394 13.941,0 27.309,5.539 37.168,15.394 9.855,9.859 15.394,23.227 15.394,37.168 z" /><path
         id="path258"
         style="fill:#3873b3;fill-opacity:1;fill-rule:evenodd;stroke:none"
         d="m 400.562,649 c 0,13.941 -5.539,27.309 -15.394,37.168 -9.859,9.855 -23.227,15.394 -37.168,15.394 -13.941,0 -27.309,-5.539 -37.168,-15.394 -9.855,-9.859 -15.394,-23.227 -15.394,-37.168 0,-13.941 5.539,-27.309 15.394,-37.168 9.859,-9.855 23.227,-15.394 37.168,-15.394 13.941,0 27.309,5.539 37.168,15.394 9.855,9.859 15.394,23.227 15.394,37.168 z" /><path
         id="path260"
         style="fill:#3873b3;fill-opacity:1;fill-rule:evenodd;stroke:none"
         d="m 389.562,816 c 0,13.941 -5.539,27.309 -15.394,37.168 -9.859,9.855 -23.227,15.394 -37.168,15.394 -13.941,0 -27.309,-5.539 -37.168,-15.394 -9.855,-9.859 -15.394,-23.227 -15.394,-37.168 0,-13.941 5.539,-27.309 15.394,-37.168 9.859,-9.855 23.227,-15.394 37.168,-15.394 13.941,0 27.309,5.539 37.168,15.394 9.855,9.859 15.394,23.227 15.394,37.168 z" /><path
         id="path262"
         style="fill:#3873b3;fill-opacity:1;fill-rule:evenodd;stroke:none"
         d="m 146.562,220 c 0,13.941 -5.539,27.309 -15.394,37.168 -9.859,9.855 -23.227,15.394 -37.168,15.394 -13.941,0 -27.309,-5.539 -37.168,-15.394 C 46.977,247.309 41.438,233.941 41.438,220 c 0,-13.941 5.539,-27.309 15.394,-37.168 9.859,-9.855 23.227,-15.394 37.168,-15.394 13.941,0 27.309,5.539 37.168,15.394 9.855,9.859 15.394,23.227 15.394,37.168 z" /><path
         id="path264"
         style="fill:#3873b3;fill-opacity:1;fill-rule:evenodd;stroke:none"
         d="m 731.562,745 c 0,13.941 -5.539,27.309 -15.394,37.168 -9.859,9.855 -23.227,15.394 -37.168,15.394 -13.941,0 -27.309,-5.539 -37.168,-15.394 -9.855,-9.859 -15.394,-23.227 -15.394,-37.168 0,-13.941 5.539,-27.309 15.394,-37.168 9.859,-9.855 23.227,-15.394 37.168,-15.394 13.941,0 27.309,5.539 37.168,15.394 9.855,9.859 15.394,23.227 15.394,37.168 z" /><path
         id="path266"
         style="fill:#3873b3;fill-opacity:1;fill-rule:evenodd;stroke:none"
         d="m 309.562,680 c 0,13.941 -5.539,27.309 -15.394,37.168 -9.859,9.855 -23.227,15.394 -37.168,15.394 -13.941,0 -27.309,-5.539 -37.168,-15.394 -9.855,-9.859 -15.394,-23.227 -15.394,-37.168 0,-13.941 5.539,-27.309 15.394,-37.168 9.859,-9.855 23.227,-15.394 37.168,-15.394 13.941,0 27.309,5.539 37.168,15.394 9.855,9.859 15.394,23.227 15.394,37.168 z" /><path
         id="path268"
         style="fill:#3873b3;fill-opacity:1;fill-rule:evenodd;stroke:none"
         d="m 495.562,341 c 0,13.941 -5.539,27.309 -15.394,37.168 -9.859,9.855 -23.227,15.394 -37.168,15.394 -13.941,0 -27.309,-5.539 -37.168,-15.394 -9.855,-9.859 -15.394,-23.227 -15.394,-37.168 0,-13.941 5.539,-27.309 15.394,-37.168 9.859,-9.855 23.227,-15.394 37.168,-15.394 13.941,0 27.309,5.539 37.168,15.394 9.855,9.859 15.394,23.227 15.394,37.168 z" /><path
         id="path270"
         style="fill:#3873b3;fill-opacity:1;fill-rule:evenodd;stroke:none"
         d="m 209.562,772 c 0,13.941 -5.539,27.309 -15.394,37.168 -9.859,9.855 -23.227,15.394 -37.168,15.394 -13.941,0 -27.309,-5.539 -37.168,-15.394 -9.855,-9.859 -15.394,-23.227 -15.394,-37.168 0,-13.941 5.539,-27.309 15.394,-37.168 9.859,-9.855 23.227,-15.394 37.168,-15.394 13.941,0 27.309,5.539 37.168,15.394 9.855,9.859 15.394,23.227 15.394,37.168 z" /><path
         id="path272"
         style="fill:#3873b3;fill-opacity:1;fill-rule:evenodd;stroke:none"
         d="m 152.562,392 c 0,13.941 -5.539,27.309 -15.394,37.168 -9.859,9.855 -23.227,15.394 -37.168,15.394 -13.941,0 -27.309,-5.539 -37.168,-15.394 C 52.977,419.309 47.438,405.941 47.438,392 c 0,-13.941 5.539,-27.309 15.394,-37.168 9.859,-9.855 23.227,-15.394 37.168,-15.394 13.941,0 27.309,5.539 37.168,15.394 9.855,9.859 15.394,23.227 15.394,37.168 z" /><path
         id="path274"
         style="fill:#3873b3;fill-opacity:1;fill-rule:evenodd;stroke:none"
         d="m 383.562,244 c 0,13.941 -5.539,27.309 -15.394,37.168 -9.859,9.855 -23.227,15.394 -37.168,15.394 -13.941,0 -27.309,-5.539 -37.168,-15.394 -9.855,-9.859 -15.394,-23.227 -15.394,-37.168 0,-13.941 5.539,-27.309 15.394,-37.168 9.859,-9.855 23.227,-15.394 37.168,-15.394 13.941,0 27.309,5.539 37.168,15.394 9.855,9.859 15.394,23.227 15.394,37.168 z" /><path
         id="path276"
         style="fill:#3873b3;fill-opacity:1;fill-rule:evenodd;stroke:none"
         d="m 778.562,556 c 0,13.941 -5.539,27.309 -15.394,37.168 -9.859,9.855 -23.227,15.394 -37.168,15.394 -13.941,0 -27.309,-5.539 -37.168,-15.394 -9.855,-9.859 -15.394,-23.227 -15.394,-37.168 0,-13.941 5.539,-27.309 15.394,-37.168 9.859,-9.855 23.227,-15.394 37.168,-15.394 13.941,0 27.309,5.539 37.168,15.394 9.855,9.859 15.394,23.227 15.394,37.168 z" /><path
         id="path278"
         style="fill:#3873b3;fill-opacity:1;fill-rule:evenodd;stroke:none"
         d="m 776.562,505 c 0,13.941 -5.539,27.309 -15.394,37.168 -9.859,9.855 -23.227,15.394 -37.168,15.394 -13.941,0 -27.309,-5.539 -37.168,-15.394 -9.855,-9.859 -15.394,-23.227 -15.394,-37.168 0,-13.941 5.539,-27.309 15.394,-37.168 9.859,-9.855 23.227,-15.394 37.168,-15.394 13.941,0 27.309,5.539 37.168,15.394 9.855,9.859 15.394,23.227 15.394,37.168 z" /><path
         id="path280"
         style="fill:#3873b3;fill-opacity:1;fill-rule:evenodd;stroke:none"
         d="m 556.562,538 c 0,13.941 -5.539,27.309 -15.394,37.168 -9.859,9.855 -23.227,15.394 -37.168,15.394 -13.941,0 -27.309,-5.539 -37.168,-15.394 -9.855,-9.859 -15.394,-23.227 -15.394,-37.168 0,-13.941 5.539,-27.309 15.394,-37.168 9.859,-9.855 23.227,-15.394 37.168,-15.394 13.941,0 27.309,5.539 37.168,15.394 9.855,9.859 15.394,23.227 15.394,37.168 z" /><path
         id="path282"
         style="fill:#3873b3;fill-opacity:1;fill-rule:evenodd;stroke:none"
         d="m 431.562,526 c 0,13.941 -5.539,27.309 -15.394,37.168 -9.859,9.855 -23.227,15.394 -37.168,15.394 -13.941,0 -27.309,-5.539 -37.168,-15.394 -9.855,-9.859 -15.394,-23.227 -15.394,-37.168 0,-13.941 5.539,-27.309 15.394,-37.168 9.859,-9.855 23.227,-15.394 37.168,-15.394 13.941,0 27.309,5.539 37.168,15.394 9.855,9.859 15.394,23.227 15.394,37.168 z" /><path
         id="path284"
         style="fill:#3873b3;fill-opacity:1;fill-rule:evenodd;stroke:none"
         d="m 424.562,348 c 0,13.941 -5.539,27.309 -15.394,37.168 -9.859,9.855 -23.227,15.394 -37.168,15.394 -13.941,0 -27.309,-5.539 -37.168,-15.394 -9.855,-9.859 -15.394,-23.227 -15.394,-37.168 0,-13.941 5.539,-27.309 15.394,-37.168 9.859,-9.855 23.227,-15.394 37.168,-15.394 13.941,0 27.309,5.539 37.168,15.394 9.855,9.859 15.394,23.227 15.394,37.168 z" /><path
         id="path286"
         style="fill:#3873b3;fill-opacity:1;fill-rule:evenodd;stroke:none"
         d="m 517.562,468 c 0,13.941 -5.539,27.309 -15.394,37.168 -9.859,9.855 -23.227,15.394 -37.168,15.394 -13.941,0 -27.309,-5.539 -37.168,-15.394 -9.855,-9.859 -15.394,-23.227 -15.394,-37.168 0,-13.941 5.539,-27.309 15.394,-37.168 9.859,-9.855 23.227,-15.394 37.168,-15.394 13.941,0 27.309,5.539 37.168,15.394 9.855,9.859 15.394,23.227 15.394,37.168 z" /><path
         id="path288"
         style="fill:#3873b3;fill-opacity:1;fill-rule:evenodd;stroke:none"
         d="m 281.562,475 c 0,13.941 -5.539,27.309 -15.394,37.168 -9.859,9.855 -23.227,15.394 -37.168,15.394 -13.941,0 -27.309,-5.539 -37.168,-15.394 -9.855,-9.859 -15.394,-23.227 -15.394,-37.168 0,-13.941 5.539,-27.309 15.394,-37.168 9.859,-9.855 23.227,-15.394 37.168,-15.394 13.941,0 27.309,5.539 37.168,15.394 9.855,9.859 15.394,23.227 15.394,37.168 z" /><path
         id="path290"
         style="fill:#3873b3;fill-opacity:1;fill-rule:evenodd;stroke:none"
         d="m 841.562,251 c 0,13.941 -5.539,27.309 -15.394,37.168 -9.859,9.855 -23.227,15.394 -37.168,15.394 -13.941,0 -27.309,-5.539 -37.168,-15.394 -9.855,-9.859 -15.394,-23.227 -15.394,-37.168 0,-13.941 5.539,-27.309 15.394,-37.168 9.859,-9.855 23.227,-15.394 37.168,-15.394 13.941,0 27.309,5.539 37.168,15.394 9.855,9.859 15.394,23.227 15.394,37.168 z" /><path
         id="path292"
         style="fill:#3873b3;fill-opacity:1;fill-rule:evenodd;stroke:none"
         d="m 732.562,163 c 0,13.941 -5.539,27.309 -15.394,37.168 -9.859,9.855 -23.227,15.394 -37.168,15.394 -13.941,0 -27.309,-5.539 -37.168,-15.394 -9.855,-9.859 -15.394,-23.227 -15.394,-37.168 0,-13.941 5.539,-27.309 15.394,-37.168 9.859,-9.855 23.227,-15.394 37.168,-15.394 13.941,0 27.309,5.539 37.168,15.394 9.855,9.859 15.394,23.227 15.394,37.168 z" /><path
         id="path294"
         style="fill:#3873b3;fill-opacity:1;fill-rule:evenodd;stroke:none"
         d="m 603.562,938 c 0,13.941 -5.539,27.309 -15.394,37.168 -9.859,9.855 -23.227,15.394 -37.168,15.394 -13.941,0 -27.309,-5.539 -37.168,-15.394 -9.855,-9.859 -15.394,-23.227 -15.394,-37.168 0,-13.941 5.539,-27.309 15.394,-37.168 9.859,-9.855 23.227,-15.394 37.168,-15.394 13.941,0 27.309,5.539 37.168,15.394 9.855,9.859 15.394,23.227 15.394,37.168 z" /><path
         id="path296"
         style="fill:#3873b3;fill-opacity:1;fill-rule:evenodd;stroke:none"
         d="m 433.562,505 c 0,13.941 -5.539,27.309 -15.394,37.168 -9.859,9.855 -23.227,15.394 -37.168,15.394 -13.941,0 -27.309,-5.539 -37.168,-15.394 -9.855,-9.859 -15.394,-23.227 -15.394,-37.168 0,-13.941 5.539,-27.309 15.394,-37.168 9.859,-9.855 23.227,-15.394 37.168,-15.394 13.941,0 27.309,5.539 37.168,15.394 9.855,9.859 15.394,23.227 15.394,37.168 z" /><path
         id="path298"
         style="fill:#3873b3;fill-opacity:1;fill-rule:evenodd;stroke:none"
         d="m 513.562,276 c 0,13.941 -5.539,27.309 -15.394,37.168 -9.859,9.855 -23.227,15.394 -37.168,15.394 -13.941,0 -27.309,-5.539 -37.168,-15.394 -9.855,-9.859 -15.394,-23.227 -15.394,-37.168 0,-13.941 5.539,-27.309 15.394,-37.168 9.859,-9.855 23.227,-15.394 37.168,-15.394 13.941,0 27.309,5.539 37.168,15.394 9.855,9.859 15.394,23.227 15.394,37.168 z" /><path
         id="path300"
         style="fill:#3873b3;fill-opacity:1;fill-rule:evenodd;stroke:none"
         d="m 301.562,801 c 0,13.941 -5.539,27.309 -15.394,37.168 -9.859,9.855 -23.227,15.394 -37.168,15.394 -13.941,0 -27.309,-5.539 -37.168,-15.394 -9.855,-9.859 -15.394,-23.227 -15.394,-37.168 0,-13.941 5.539,-27.309 15.394,-37.168 9.859,-9.855 23.227,-15.394 37.168,-15.394 13.941,0 27.309,5.539 37.168,15.394 9.855,9.859 15.394,23.227 15.394,37.168 z" /><path
         id="path302"
         style="fill:#3873b3;fill-opacity:1;fill-rule:evenodd;stroke:none"
         d="m 795.562,587 c 0,13.941 -5.539,27.309 -15.394,37.168 -9.859,9.855 -23.227,15.394 -37.168,15.394 -13.941,0 -27.309,-5.539 -37.168,-15.394 -9.855,-9.859 -15.394,-23.227 -15.394,-37.168 0,-13.941 5.539,-27.309 15.394,-37.168 9.859,-9.855 23.227,-15.394 37.168,-15.394 13.941,0 27.309,5.539 37.168,15.394 9.855,9.859 15.394,23.227 15.394,37.168 z" /><path
         id="path304"
         style="fill:#3873b3;fill-opacity:1;fill-rule:evenodd;stroke:none"
         d="m 573.562,505 c 0,13.941 -5.539,27.309 -15.394,37.168 -9.859,9.855 -23.227,15.394 -37.168,15.394 -13.941,0 -27.309,-5.539 -37.168,-15.394 -9.855,-9.859 -15.394,-23.227 -15.394,-37.168 0,-13.941 5.539,-27.309 15.394,-37.168 9.859,-9.855 23.227,-15.394 37.168,-15.394 13.941,0 27.309,5.539 37.168,15.394 9.855,9.859 15.394,23.227 15.394,37.168 z" /><path
         id="path306"
         style="fill:#3873b3;fill-opacity:1;fill-rule:evenodd;stroke:none"
         d="m 772.562,669 c 0,13.941 -5.539,27.309 -15.394,37.168 -9.859,9.855 -23.227,15.394 -37.168,15.394 -13.941,0 -27.309,-5.539 -37.168,-15.394 -9.855,-9.859 -15.394,-23.227 -15.394,-37.168 0,-13.941 5.539,-27.309 15.394,-37.168 9.859,-9.855 23.227,-15.394 37.168,-15.394 13.941,0 27.309,5.539 37.168,15.394 9.855,9.859 15.394,23.227 15.394,37.168 z" /><path
         id="path308"
         style="fill:#3873b3;fill-opacity:1;fill-rule:evenodd;stroke:none"
         d="m 874.562,513 c 0,13.941 -5.539,27.309 -15.394,37.168 -9.859,9.855 -23.227,15.394 -37.168,15.394 -13.941,0 -27.309,-5.539 -37.168,-15.394 -9.855,-9.859 -15.394,-23.227 -15.394,-37.168 0,-13.941 5.539,-27.309 15.394,-37.168 9.859,-9.855 23.227,-15.394 37.168,-15.394 13.941,0 27.309,5.539 37.168,15.394 9.855,9.859 15.394,23.227 15.394,37.168 z" /><path
         id="path310"
         style="fill:#3873b3;fill-opacity:1;fill-rule:evenodd;stroke:none"
         d="m 802.562,420 c 0,13.941 -5.539,27.309 -15.394,37.168 -9.859,9.855 -23.227,15.394 -37.168,15.394 -13.941,0 -27.309,-5.539 -37.168,-15.394 -9.855,-9.859 -15.394,-23.227 -15.394,-37.168 0,-13.941 5.539,-27.309 15.394,-37.168 9.859,-9.855 23.227,-15.394 37.168,-15.394 13.941,0 27.309,5.539 37.168,15.394 9.855,9.859 15.394,23.227 15.394,37.168 z" /><path
         id="path312"
         style="fill:#3873b3;fill-opacity:1;fill-rule:evenodd;stroke:none"
         d="m 270.562,636 c 0,13.941 -5.539,27.309 -15.394,37.168 -9.859,9.855 -23.227,15.394 -37.168,15.394 -13.941,0 -27.309,-5.539 -37.168,-15.394 -9.855,-9.859 -15.394,-23.227 -15.394,-37.168 0,-13.941 5.539,-27.309 15.394,-37.168 9.859,-9.855 23.227,-15.394 37.168,-15.394 13.941,0 27.309,5.539 37.168,15.394 9.855,9.859 15.394,23.227 15.394,37.168 z" /><path
         id="path314"
         style="fill:#3873b3;fill-opacity:1;fill-rule:evenodd;stroke:none"
         d="m 166.562,516 c 0,13.941 -5.539,27.309 -15.394,37.168 -9.859,9.855 -23.227,15.394 -37.168,15.394 -13.941,0 -27.309,-5.539 -37.168,-15.394 C 66.977,543.309 61.438,529.941 61.438,516 c 0,-13.941 5.539,-27.309 15.394,-37.168 9.859,-9.855 23.227,-15.394 37.168,-15.394 13.941,0 27.309,5.539 37.168,15.394 9.855,9.859 15.394,23.227 15.394,37.168 z" /><path
         id="path316"
         style="fill:#3873b3;fill-opacity:1;fill-rule:evenodd;stroke:none"
         d="m 706.562,758 c 0,13.941 -5.539,27.309 -15.394,37.168 -9.859,9.855 -23.227,15.394 -37.168,15.394 -13.941,0 -27.309,-5.539 -37.168,-15.394 -9.855,-9.859 -15.394,-23.227 -15.394,-37.168 0,-13.941 5.539,-27.309 15.394,-37.168 9.859,-9.855 23.227,-15.394 37.168,-15.394 13.941,0 27.309,5.539 37.168,15.394 9.855,9.859 15.394,23.227 15.394,37.168 z" /><path
         id="path318"
         style="fill:#3873b3;fill-opacity:1;fill-rule:evenodd;stroke:none"
         d="m 191.562,489 c 0,13.941 -5.539,27.309 -15.394,37.168 -9.859,9.855 -23.227,15.394 -37.168,15.394 -13.941,0 -27.309,-5.539 -37.168,-15.394 C 91.977,516.309 86.438,502.941 86.438,489 c 0,-13.941 5.539,-27.309 15.394,-37.168 9.859,-9.855 23.227,-15.394 37.168,-15.394 13.941,0 27.309,5.539 37.168,15.394 9.855,9.859 15.394,23.227 15.394,37.168 z" /><path
         id="path320"
         style="fill:#3873b3;fill-opacity:1;fill-rule:evenodd;stroke:none"
         d="m 660.562,874 c 0,13.941 -5.539,27.309 -15.394,37.168 -9.859,9.855 -23.227,15.394 -37.168,15.394 -13.941,0 -27.309,-5.539 -37.168,-15.394 -9.855,-9.859 -15.394,-23.227 -15.394,-37.168 0,-13.941 5.539,-27.309 15.394,-37.168 9.859,-9.855 23.227,-15.394 37.168,-15.394 13.941,0 27.309,5.539 37.168,15.394 9.855,9.859 15.394,23.227 15.394,37.168 z" /><path
         id="path322"
         style="fill:#3873b3;fill-opacity:1;fill-rule:evenodd;stroke:none"
         d="m 363.562,840 c 0,13.941 -5.539,27.309 -15.394,37.168 -9.859,9.855 -23.227,15.394 -37.168,15.394 -13.941,0 -27.309,-5.539 -37.168,-15.394 -9.855,-9.859 -15.394,-23.227 -15.394,-37.168 0,-13.941 5.539,-27.309 15.394,-37.168 9.859,-9.855 23.227,-15.394 37.168,-15.394 13.941,0 27.309,5.539 37.168,15.394 9.855,9.859 15.394,23.227 15.394,37.168 z" /><path
         id="path324"
         style="fill:#3873b3;fill-opacity:1;fill-rule:evenodd;stroke:none"
         d="m 511.562,676 c 0,13.941 -5.539,27.309 -15.394,37.168 -9.859,9.855 -23.227,15.394 -37.168,15.394 -13.941,0 -27.309,-5.539 -37.168,-15.394 -9.855,-9.859 -15.394,-23.227 -15.394,-37.168 0,-13.941 5.539,-27.309 15.394,-37.168 9.859,-9.855 23.227,-15.394 37.168,-15.394 13.941,0 27.309,5.539 37.168,15.394 9.855,9.859 15.394,23.227 15.394,37.168 z" /><path
         id="path326"
         style="fill:#3873b3;fill-opacity:1;fill-rule:evenodd;stroke:none"
         d="m 457.562,776 c 0,13.941 -5.539,27.309 -15.394,37.168 -9.859,9.855 -23.227,15.394 -37.168,15.394 -13.941,0 -27.309,-5.539 -37.168,-15.394 -9.855,-9.859 -15.394,-23.227 -15.394,-37.168 0,-13.941 5.539,-27.309 15.394,-37.168 9.859,-9.855 23.227,-15.394 37.168,-15.394 13.941,0 27.309,5.539 37.168,15.394 9.855,9.859 15.394,23.227 15.394,37.168 z" /><path
         id="path328"
         style="fill:#3873b3;fill-opacity:1;fill-rule:evenodd;stroke:none"
         d="m 591.562,768 c 0,13.941 -5.539,27.309 -15.394,37.168 -9.859,9.855 -23.227,15.394 -37.168,15.394 -13.941,0 -27.309,-5.539 -37.168,-15.394 -9.855,-9.859 -15.394,-23.227 -15.394,-37.168 0,-13.941 5.539,-27.309 15.394,-37.168 9.859,-9.855 23.227,-15.394 37.168,-15.394 13.941,0 27.309,5.539 37.168,15.394 9.855,9.859 15.394,23.227 15.394,37.168 z" /><path
         id="path330"
         style="fill:#3873b3;fill-opacity:1;fill-rule:evenodd;stroke:none"
         d="m 533.562,467 c 0,13.941 -5.539,27.309 -15.394,37.168 -9.859,9.855 -23.227,15.394 -37.168,15.394 -13.941,0 -27.309,-5.539 -37.168,-15.394 -9.855,-9.859 -15.394,-23.227 -15.394,-37.168 0,-13.941 5.539,-27.309 15.394,-37.168 9.859,-9.855 23.227,-15.394 37.168,-15.394 13.941,0 27.309,5.539 37.168,15.394 9.855,9.859 15.394,23.227 15.394,37.168 z" /><path
         id="path332"
         style="fill:#3873b3;fill-opacity:1;fill-rule:evenodd;stroke:none"
         d="m 430.562,559 c 0,13.941 -5.539,27.309 -15.394,37.168 -9.859,9.855 -23.227,15.394 -37.168,15.394 -13.941,0 -27.309,-5.539 -37.168,-15.394 -9.855,-9.859 -15.394,-23.227 -15.394,-37.168 0,-13.941 5.539,-27.309 15.394,-37.168 9.859,-9.855 23.227,-15.394 37.168,-15.394 13.941,0 27.309,5.539 37.168,15.394 9.855,9.859 15.394,23.227 15.394,37.168 z" /><path
         id="path334"
         style="fill:#3873b3;fill-opacity:1;fill-rule:evenodd;stroke:none"
         d="m 974.562,924 c 0,13.941 -5.539,27.309 -15.394,37.168 -9.859,9.855 -23.227,15.394 -37.168,15.394 -13.941,0 -27.309,-5.539 -37.168,-15.394 -9.855,-9.859 -15.394,-23.227 -15.394,-37.168 0,-13.941 5.539,-27.309 15.394,-37.168 9.859,-9.855 23.227,-15.394 37.168,-15.394 13.941,0 27.309,5.539 37.168,15.394 9.855,9.859 15.394,23.227 15.394,37.168 z" /><path
         id="path336"
         style="fill:#3873b3;fill-opacity:1;fill-rule:evenodd;stroke:none"
         d="m 166.562,608 c 0,13.941 -5.539,27.309 -15.394,37.168 -9.859,9.855 -23.227,15.394 -37.168,15.394 -13.941,0 -27.309,-5.539 -37.168,-15.394 C 66.977,635.309 61.438,621.941 61.438,608 c 0,-13.941 5.539,-27.309 15.394,-37.168 9.859,-9.855 23.227,-15.394 37.168,-15.394 13.941,0 27.309,5.539 37.168,15.394 9.855,9.859 15.394,23.227 15.394,37.168 z" /><path
         id="path338"
         style="fill:#3873b3;fill-opacity:1;fill-rule:evenodd;stroke:none"
         d="m 871.562,388 c 0,13.941 -5.539,27.309 -15.394,37.168 -9.859,9.855 -23.227,15.394 -37.168,15.394 -13.941,0 -27.309,-5.539 -37.168,-15.394 -9.855,-9.859 -15.394,-23.227 -15.394,-37.168 0,-13.941 5.539,-27.309 15.394,-37.168 9.859,-9.855 23.227,-15.394 37.168,-15.394 13.941,0 27.309,5.539 37.168,15.394 9.855,9.859 15.394,23.227 15.394,37.168 z" /><path
         id="path340"
         style="fill:#3873b3;fill-opacity:1;fill-rule:evenodd;stroke:none"
         d="m 393.562,156 c 0,13.941 -5.539,27.309 -15.394,37.168 -9.859,9.855 -23.227,15.394 -37.168,15.394 -13.941,0 -27.309,-5.539 -37.168,-15.394 -9.855,-9.859 -15.394,-23.227 -15.394,-37.168 0,-13.941 5.539,-27.309 15.394,-37.168 9.859,-9.855 23.227,-15.394 37.168,-15.394 13.941,0 27.309,5.539 37.168,15.394 9.855,9.859 15.394,23.227 15.394,37.168 z" /><path
         id="path342"
         style="fill:#3873b3;fill-opacity:1;fill-rule:evenodd;stroke:none"
         d="m 398.562,781 c 0,13.941 -5.539,27.309 -15.394,37.168 -9.859,9.855 -23.227,15.394 -37.168,15.394 -13.941,0 -27.309,-5.539 -37.168,-15.394 -9.855,-9.859 -15.394,-23.227 -15.394,-37.168 0,-13.941 5.539,-27.309 15.394,-37.168 9.859,-9.855 23.227,-15.394 37.168,-15.394 13.941,0 27.309,5.539 37.168,15.394 9.855,9.859 15.394,23.227 15.394,37.168 z" /><path
         id="path344"
         style="fill:#3873b3;fill-opacity:1;fill-rule:evenodd;stroke:none"
         d="m 420.562,743 c 0,13.941 -5.539,27.309 -15.394,37.168 -9.859,9.855 -23.227,15.394 -37.168,15.394 -13.941,0 -27.309,-5.539 -37.168,-15.394 -9.855,-9.859 -15.394,-23.227 -15.394,-37.168 0,-13.941 5.539,-27.309 15.394,-37.168 9.859,-9.855 23.227,-15.394 37.168,-15.394 13.941,0 27.309,5.539 37.168,15.394 9.855,9.859 15.394,23.227 15.394,37.168 z" /><path
         id="path346"
         style="fill:#3873b3;fill-opacity:1;fill-rule:evenodd;stroke:none"
         d="m 980.562,157 c 0,13.941 -5.539,27.309 -15.394,37.168 -9.859,9.855 -23.227,15.394 -37.168,15.394 -13.941,0 -27.309,-5.539 -37.168,-15.394 -9.855,-9.859 -15.394,-23.227 -15.394,-37.168 0,-13.941 5.539,-27.309 15.394,-37.168 9.859,-9.855 23.227,-15.394 37.168,-15.394 13.941,0 27.309,5.539 37.168,15.394 9.855,9.859 15.394,23.227 15.394,37.168 z" /><path
         id="path348"
         style="fill:#3873b3;fill-opacity:1;fill-rule:evenodd;stroke:none"
         d="m 935.562,796 c 0,13.941 -5.539,27.309 -15.394,37.168 -9.859,9.855 -23.227,15.394 -37.168,15.394 -13.941,0 -27.309,-5.539 -37.168,-15.394 -9.855,-9.859 -15.394,-23.227 -15.394,-37.168 0,-13.941 5.539,-27.309 15.394,-37.168 9.859,-9.855 23.227,-15.394 37.168,-15.394 13.941,0 27.309,5.539 37.168,15.394 9.855,9.859 15.394,23.227 15.394,37.168 z" /><path
         id="path350"
         style="fill:#3873b3;fill-opacity:1;fill-rule:evenodd;stroke:none"
         d="m 765.562,776 c 0,13.941 -5.539,27.309 -15.394,37.168 -9.859,9.855 -23.227,15.394 -37.168,15.394 -13.941,0 -27.309,-5.539 -37.168,-15.394 -9.855,-9.859 -15.394,-23.227 -15.394,-37.168 0,-13.941 5.539,-27.309 15.394,-37.168 9.859,-9.855 23.227,-15.394 37.168,-15.394 13.941,0 27.309,5.539 37.168,15.394 9.855,9.859 15.394,23.227 15.394,37.168 z" /><path
         id="path352"
         style="fill:#3873b3;fill-opacity:1;fill-rule:evenodd;stroke:none"
         d="m 909.562,425 c 0,13.941 -5.539,27.309 -15.394,37.168 -9.859,9.855 -23.227,15.394 -37.168,15.394 -13.941,0 -27.309,-5.539 -37.168,-15.394 -9.855,-9.859 -15.394,-23.227 -15.394,-37.168 0,-13.941 5.539,-27.309 15.394,-37.168 9.859,-9.855 23.227,-15.394 37.168,-15.394 13.941,0 27.309,5.539 37.168,15.394 9.855,9.859 15.394,23.227 15.394,37.168 z" /><path
         id="path354"
         style="fill:#3873b3;fill-opacity:1;fill-rule:evenodd;stroke:none"
         d="m 980.562,235 c 0,13.941 -5.539,27.309 -15.394,37.168 -9.859,9.855 -23.227,15.394 -37.168,15.394 -13.941,0 -27.309,-5.539 -37.168,-15.394 -9.855,-9.859 -15.394,-23.227 -15.394,-37.168 0,-13.941 5.539,-27.309 15.394,-37.168 9.859,-9.855 23.227,-15.394 37.168,-15.394 13.941,0 27.309,5.539 37.168,15.394 9.855,9.859 15.394,23.227 15.394,37.168 z" /><path
         id="path356"
         style="fill:#3873b3;fill-opacity:1;fill-rule:evenodd;stroke:none"
         d="m 561.562,695 c 0,13.941 -5.539,27.309 -15.394,37.168 -9.859,9.855 -23.227,15.394 -37.168,15.394 -13.941,0 -27.309,-5.539 -37.168,-15.394 -9.855,-9.859 -15.394,-23.227 -15.394,-37.168 0,-13.941 5.539,-27.309 15.394,-37.168 9.859,-9.855 23.227,-15.394 37.168,-15.394 13.941,0 27.309,5.539 37.168,15.394 9.855,9.859 15.394,23.227 15.394,37.168 z" /><path
         id="path358"
         style="fill:#3873b3;fill-opacity:1;fill-rule:evenodd;stroke:none"
         d="m 191.562,890 c 0,13.941 -5.539,27.309 -15.394,37.168 -9.859,9.855 -23.227,15.394 -37.168,15.394 -13.941,0 -27.309,-5.539 -37.168,-15.394 C 91.977,917.309 86.438,903.941 86.438,890 c 0,-13.941 5.539,-27.309 15.394,-37.168 9.859,-9.855 23.227,-15.394 37.168,-15.394 13.941,0 27.309,5.539 37.168,15.394 9.855,9.859 15.394,23.227 15.394,37.168 z" /><path
         id="path360"
         style="fill:#3873b3;fill-opacity:1;fill-rule:evenodd;stroke:none"
         d="m 591.562,152 c 0,13.941 -5.539,27.309 -15.394,37.168 -9.859,9.855 -23.227,15.394 -37.168,15.394 -13.941,0 -27.309,-5.539 -37.168,-15.394 -9.855,-9.859 -15.394,-23.227 -15.394,-37.168 0,-13.941 5.539,-27.309 15.394,-37.168 9.859,-9.855 23.227,-15.394 37.168,-15.394 13.941,0 27.309,5.539 37.168,15.394 9.855,9.859 15.394,23.227 15.394,37.168 z" /><path
         id="path362"
         style="fill:#3873b3;fill-opacity:1;fill-rule:evenodd;stroke:none"
         d="m 395.562,635 c 0,13.941 -5.539,27.309 -15.394,37.168 -9.859,9.855 -23.227,15.394 -37.168,15.394 -13.941,0 -27.309,-5.539 -37.168,-15.394 -9.855,-9.859 -15.394,-23.227 -15.394,-37.168 0,-13.941 5.539,-27.309 15.394,-37.168 9.859,-9.855 23.227,-15.394 37.168,-15.394 13.941,0 27.309,5.539 37.168,15.394 9.855,9.859 15.394,23.227 15.394,37.168 z" /><path
         id="path364"
         style="fill:#3873b3;fill-opacity:1;fill-rule:evenodd;stroke:none"
         d="m 981.562,544 c 0,13.941 -5.539,27.309 -15.394,37.168 -9.859,9.855 -23.227,15.394 -37.168,15.394 -13.941,0 -27.309,-5.539 -37.168,-15.394 -9.855,-9.859 -15.394,-23.227 -15.394,-37.168 0,-13.941 5.539,-27.309 15.394,-37.168 9.859,-9.855 23.227,-15.394 37.168,-15.394 13.941,0 27.309,5.539 37.168,15.394 9.855,9.859 15.394,23.227 15.394,37.168 z" /><path
         id="path366"
         style="fill:#3873b3;fill-opacity:1;fill-rule:evenodd;stroke:none"
         d="m 596.562,461 c 0,13.941 -5.539,27.309 -15.394,37.168 -9.859,9.855 -23.227,15.394 -37.168,15.394 -13.941,0 -27.309,-5.539 -37.168,-15.394 -9.855,-9.859 -15.394,-23.227 -15.394,-37.168 0,-13.941 5.539,-27.309 15.394,-37.168 9.859,-9.855 23.227,-15.394 37.168,-15.394 13.941,0 27.309,5.539 37.168,15.394 9.855,9.859 15.394,23.227 15.394,37.168 z" /><path
         id="path368"
         style="fill:#3873b3;fill-opacity:1;fill-rule:evenodd;stroke:none"
         d="m 598.562,458 c 0,13.941 -5.539,27.309 -15.394,37.168 -9.859,9.855 -23.227,15.394 -37.168,15.394 -13.941,0 -27.309,-5.539 -37.168,-15.394 -9.855,-9.859 -15.394,-23.227 -15.394,-37.168 0,-13.941 5.539,-27.309 15.394,-37.168 9.859,-9.855 23.227,-15.394 37.168,-15.394 13.941,0 27.309,5.539 37.168,15.394 9.855,9.859 15.394,23.227 15.394,37.168 z" /><path
         id="path370"
         style="fill:#3873b3;fill-opacity:1;fill-rule:evenodd;stroke:none"
         d="m 488.562,587 c 0,13.941 -5.539,27.309 -15.394,37.168 -9.859,9.855 -23.227,15.394 -37.168,15.394 -13.941,0 -27.309,-5.539 -37.168,-15.394 -9.855,-9.859 -15.394,-23.227 -15.394,-37.168 0,-13.941 5.539,-27.309 15.394,-37.168 9.859,-9.855 23.227,-15.394 37.168,-15.394 13.941,0 27.309,5.539 37.168,15.394 9.855,9.859 15.394,23.227 15.394,37.168 z" /><path
         id="path372"
         style="fill:#3873b3;fill-opacity:1;fill-rule:evenodd;stroke:none"
         d="m 895.562,450 c 0,13.941 -5.539,27.309 -15.394,37.168 -9.859,9.855 -23.227,15.394 -37.168,15.394 -13.941,0 -27.309,-5.539 -37.168,-15.394 -9.855,-9.859 -15.394,-23.227 -15.394,-37.168 0,-13.941 5.539,-27.309 15.394,-37.168 9.859,-9.855 23.227,-15.394 37.168,-15.394 13.941,0 27.309,5.539 37.168,15.394 9.855,9.859 15.394,23.227 15.394,37.168 z" /><path
         id="path374"
         style="fill:#3873b3;fill-opacity:1;fill-rule:evenodd;stroke:none"
         d="m 414.562,395 c 0,13.941 -5.539,27.309 -15.394,37.168 -9.859,9.855 -23.227,15.394 -37.168,15.394 -13.941,0 -27.309,-5.539 -37.168,-15.394 -9.855,-9.859 -15.394,-23.227 -15.394,-37.168 0,-13.941 5.539,-27.309 15.394,-37.168 9.859,-9.855 23.227,-15.394 37.168,-15.394 13.941,0 27.309,5.539 37.168,15.394 9.855,9.859 15.394,23.227 15.394,37.168 z" /><path
         id="path376"
         style="fill:#3873b3;fill-opacity:1;fill-rule:evenodd;stroke:none"
         d="m 828.562,266 c 0,13.941 -5.539,27.309 -15.394,37.168 -9.859,9.855 -23.227,15.394 -37.168,15.394 -13.941,0 -27.309,-5.539 -37.168,-15.394 -9.855,-9.859 -15.394,-23.227 -15.394,-37.168 0,-13.941 5.539,-27.309 15.394,-37.168 9.859,-9.855 23.227,-15.394 37.168,-15.394 13.941,0 27.309,5.539 37.168,15.394 9.855,9.859 15.394,23.227 15.394,37.168 z" /><path
         id="path378"
         style="fill:#3873b3;fill-opacity:1;fill-rule:evenodd;stroke:none"
         d="m 896.562,125 c 0,13.941 -5.539,27.309 -15.394,37.168 -9.859,9.855 -23.227,15.394 -37.168,15.394 -13.941,0 -27.309,-5.539 -37.168,-15.394 -9.855,-9.859 -15.394,-23.227 -15.394,-37.168 0,-13.941 5.539,-27.309 15.394,-37.168 9.859,-9.855 23.227,-15.394 37.168,-15.394 13.941,0 27.309,5.539 37.168,15.394 9.855,9.859 15.394,23.227 15.394,37.168 z" /><path
         id="path380"
         style="fill:#3873b3;fill-opacity:1;fill-rule:evenodd;stroke:none"
         d="m 167.562,496 c 0,13.941 -5.539,27.309 -15.394,37.168 -9.859,9.855 -23.227,15.394 -37.168,15.394 -13.941,0 -27.309,-5.539 -37.168,-15.394 C 67.977,523.309 62.438,509.941 62.438,496 c 0,-13.941 5.539,-27.309 15.394,-37.168 9.859,-9.855 23.227,-15.394 37.168,-15.394 13.941,0 27.309,5.539 37.168,15.394 9.855,9.859 15.394,23.227 15.394,37.168 z" /><path
         id="path382"
         style="fill:#3873b3;fill-opacity:1;fill-rule:evenodd;stroke:none"
         d="m 889.562,797 c 0,13.941 -5.539,27.309 -15.394,37.168 -9.859,9.855 -23.227,15.394 -37.168,15.394 -13.941,0 -27.309,-5.539 -37.168,-15.394 -9.855,-9.859 -15.394,-23.227 -15.394,-37.168 0,-13.941 5.539,-27.309 15.394,-37.168 9.859,-9.855 23.227,-15.394 37.168,-15.394 13.941,0 27.309,5.539 37.168,15.394 9.855,9.859 15.394,23.227 15.394,37.168 z" /><path
         id="path384"
         style="fill:#3873b3;fill-opacity:1;fill-rule:evenodd;stroke:none"
         d="m 160.562,140 c 0,13.941 -5.539,27.309 -15.394,37.168 -9.859,9.855 -23.227,15.394 -37.168,15.394 -13.941,0 -27.309,-5.539 -37.168,-15.394 C 60.977,167.309 55.438,153.941 55.438,140 c 0,-13.941 5.539,-27.309 15.394,-37.168 9.859,-9.855 23.227,-15.394 37.168,-15.394 13.941,0 27.309,5.539 37.168,15.394 9.855,9.859 15.394,23.227 15.394,37.168 z" /><path
         id="path386"
         style="fill:#3873b3;fill-opacity:1;fill-rule:evenodd;stroke:none"
         d="m 651.562,210 c 0,13.941 -5.539,27.309 -15.394,37.168 -9.859,9.855 -23.227,15.394 -37.168,15.394 -13.941,0 -27.309,-5.539 -37.168,-15.394 -9.855,-9.859 -15.394,-23.227 -15.394,-37.168 0,-13.941 5.539,-27.309 15.394,-37.168 9.859,-9.855 23.227,-15.394 37.168,-15.394 13.941,0 27.309,5.539 37.168,15.394 9.855,9.859 15.394,23.227 15.394,37.168 z" /><path
         id="path388"
         style="fill:#3873b3;fill-opacity:1;fill-rule:evenodd;stroke:none"
         d="m 187.562,365 c 0,13.941 -5.539,27.309 -15.394,37.168 -9.859,9.855 -23.227,15.394 -37.168,15.394 -13.941,0 -27.309,-5.539 -37.168,-15.394 C 87.977,392.309 82.438,378.941 82.438,365 c 0,-13.941 5.539,-27.309 15.394,-37.168 9.859,-9.855 23.227,-15.394 37.168,-15.394 13.941,0 27.309,5.539 37.168,15.394 9.855,9.859 15.394,23.227 15.394,37.168 z" /><path
         id="path390"
         style="fill:#3873b3;fill-opacity:1;fill-rule:evenodd;stroke:none"
         d="m 153.562,691 c 0,13.941 -5.539,27.309 -15.394,37.168 -9.859,9.855 -23.227,15.394 -37.168,15.394 -13.941,0 -27.309,-5.539 -37.168,-15.394 C 53.977,718.309 48.438,704.941 48.438,691 c 0,-13.941 5.539,-27.309 15.394,-37.168 9.859,-9.855 23.227,-15.394 37.168,-15.394 13.941,0 27.309,5.539 37.168,15.394 9.855,9.859 15.394,23.227 15.394,37.168 z" /><path
         id="path392"
         style="fill:#3873b3;fill-opacity:1;fill-rule:evenodd;stroke:none"
         d="m 803.562,204 c 0,13.941 -5.539,27.309 -15.394,37.168 -9.859,9.855 -23.227,15.394 -37.168,15.394 -13.941,0 -27.309,-5.539 -37.168,-15.394 -9.855,-9.859 -15.394,-23.227 -15.394,-37.168 0,-13.941 5.539,-27.309 15.394,-37.168 9.859,-9.855 23.227,-15.394 37.168,-15.394 13.941,0 27.309,5.539 37.168,15.394 9.855,9.859 15.394,23.227 15.394,37.168 z" /><path
         id="path394"
         style="fill:#3873b3;fill-opacity:1;fill-rule:evenodd;stroke:none"
         d="m 712.562,198 c 0,13.941 -5.539,27.309 -15.394,37.168 -9.859,9.855 -23.227,15.394 -37.168,15.394 -13.941,0 -27.309,-5.539 -37.168,-15.394 -9.855,-9.859 -15.394,-23.227 -15.394,-37.168 0,-13.941 5.539,-27.309 15.394,-37.168 9.859,-9.855 23.227,-15.394 37.168,-15.394 13.941,0 27.309,5.539 37.168,15.394 9.855,9.859 15.394,23.227 15.394,37.168 z" /><path
         id="path396"
         style="fill:#3873b3;fill-opacity:1;fill-rule:evenodd;stroke:none"
         d="m 794.562,512 c 0,13.941 -5.539,27.309 -15.394,37.168 -9.859,9.855 -23.227,15.394 -37.168,15.394 -13.941,0 -27.309,-5.539 -37.168,-15.394 -9.855,-9.859 -15.394,-23.227 -15.394,-37.168 0,-13.941 5.539,-27.309 15.394,-37.168 9.859,-9.855 23.227,-15.394 37.168,-15.394 13.941,0 27.309,5.539 37.168,15.394 9.855,9.859 15.394,23.227 15.394,37.168 z" /><path
         id="path398"
         style="fill:#3873b3;fill-opacity:1;fill-rule:evenodd;stroke:none"
         d="m 170.562,135 c 0,13.941 -5.539,27.309 -15.394,37.168 -9.859,9.855 -23.227,15.394 -37.168,15.394 -13.941,0 -27.309,-5.539 -37.168,-15.394 C 70.977,162.309 65.438,148.941 65.438,135 c 0,-13.941 5.539,-27.309 15.394,-37.168 9.859,-9.855 23.227,-15.394 37.168,-15.394 13.941,0 27.309,5.539 37.168,15.394 9.855,9.859 15.394,23.227 15.394,37.168 z" /><path
         id="path400"
         style="fill:#3873b3;fill-opacity:1;fill-rule:evenodd;stroke:none"
         d="m 790.562,403 c 0,13.941 -5.539,27.309 -15.394,37.168 -9.859,9.855 -23.227,15.394 -37.168,15.394 -13.941,0 -27.309,-5.539 -37.168,-15.394 -9.855,-9.859 -15.394,-23.227 -15.394,-37.168 0,-13.941 5.539,-27.309 15.394,-37.168 9.859,-9.855 23.227,-15.394 37.168,-15.394 13.941,0 27.309,5.539 37.168,15.394 9.855,9.859 15.394,23.227 15.394,37.168 z" /><path
         id="path402"
         style="fill:#3873b3;fill-opacity:1;fill-rule:evenodd;stroke:none"
         d="m 793.562,101 c 0,13.941 -5.539,27.309 -15.394,37.168 -9.859,9.855 -23.227,15.394 -37.168,15.394 -13.941,0 -27.309,-5.539 -37.168,-15.394 -9.855,-9.859 -15.394,-23.227 -15.394,-37.168 0,-13.941 5.539,-27.309 15.394,-37.168 9.859,-9.855 23.227,-15.394 37.168,-15.394 13.941,0 27.309,5.539 37.168,15.394 9.855,9.859 15.394,23.227 15.394,37.168 z" /><path
         id="path404"
         style="fill:#3873b3;fill-opacity:1;fill-rule:evenodd;stroke:none"
         d="m 981.562,304 c 0,13.941 -5.539,27.309 -15.394,37.168 -9.859,9.855 -23.227,15.394 -37.168,15.394 -13.941,0 -27.309,-5.539 -37.168,-15.394 -9.855,-9.859 -15.394,-23.227 -15.394,-37.168 0,-13.941 5.539,-27.309 15.394,-37.168 9.859,-9.855 23.227,-15.394 37.168,-15.394 13.941,0 27.309,5.539 37.168,15.394 9.855,9.859 15.394,23.227 15.394,37.168 z" /><path
         id="path406"
         style="fill:#3873b3;fill-opacity:1;fill-rule:evenodd;stroke:none"
         d="m 741.562,341 c 0,13.941 -5.539,27.309 -15.394,37.168 -9.859,9.855 -23.227,15.394 -37.168,15.394 -13.941,0 -27.309,-5.539 -37.168,-15.394 -9.855,-9.859 -15.394,-23.227 -15.394,-37.168 0,-13.941 5.539,-27.309 15.394,-37.168 9.859,-9.855 23.227,-15.394 37.168,-15.394 13.941,0 27.309,5.539 37.168,15.394 9.855,9.859 15.394,23.227 15.394,37.168 z" /><path
         id="path408"
         style="fill:#3873b3;fill-opacity:1;fill-rule:evenodd;stroke:none"
         d="m 700.562,411 c 0,13.941 -5.539,27.309 -15.394,37.168 -9.859,9.855 -23.227,15.394 -37.168,15.394 -13.941,0 -27.309,-5.539 -37.168,-15.394 -9.855,-9.859 -15.394,-23.227 -15.394,-37.168 0,-13.941 5.539,-27.309 15.394,-37.168 9.859,-9.855 23.227,-15.394 37.168,-15.394 13.941,0 27.309,5.539 37.168,15.394 9.855,9.859 15.394,23.227 15.394,37.168 z" /><path
         id="path410"
         style="fill:#3873b3;fill-opacity:1;fill-rule:evenodd;stroke:none"
         d="m 772.562,248 c 0,13.941 -5.539,27.309 -15.394,37.168 -9.859,9.855 -23.227,15.394 -37.168,15.394 -13.941,0 -27.309,-5.539 -37.168,-15.394 -9.855,-9.859 -15.394,-23.227 -15.394,-37.168 0,-13.941 5.539,-27.309 15.394,-37.168 9.859,-9.855 23.227,-15.394 37.168,-15.394 13.941,0 27.309,5.539 37.168,15.394 9.855,9.859 15.394,23.227 15.394,37.168 z" /><path
         id="path412"
         style="fill:#3873b3;fill-opacity:1;fill-rule:evenodd;stroke:none"
         d="m 147.562,230 c 0,13.941 -5.539,27.309 -15.394,37.168 -9.859,9.855 -23.227,15.394 -37.168,15.394 -13.941,0 -27.309,-5.539 -37.168,-15.394 C 47.977,257.309 42.438,243.941 42.438,230 c 0,-13.941 5.539,-27.309 15.394,-37.168 9.859,-9.855 23.227,-15.394 37.168,-15.394 13.941,0 27.309,5.539 37.168,15.394 9.855,9.859 15.394,23.227 15.394,37.168 z" /></g></g></svg>