<?xml version="1.0" encoding="UTF-8" standalone="no"?>
<svg
   xmlns:dc="http://purl.org/dc/elements/1.1/"
   xmlns:cc="http://creativecommons.org/ns#"
   xmlns:rdf="http://www.w3.org/1999/02/22-rdf-syntax-ns#"
   xmlns:svg="http://www.w3.org/2000/svg"
   xmlns="http://www.w3.org/2000/svg"
   viewBox="0 0 480 480"
   height="480"
   width="480"
   xml:space="preserve"
   id="svg2"
   version="1.1"><metadata
     id="metadata8"><rdf:RDF><cc:Work
         rdf:about=""><dc:format>image/svg+xml</dc:format><dc:type
           rdf:resource="http://purl.org/dc/dcmitype/StillImage" /></cc:Work></rdf:RDF></metadata><defs
     id="defs6" /><g
     transform="matrix(1.3333333,0,0,-1.3333333,0,480)"
     id="g10"><g
       id="g12"><path
         id="path14"
         style="fill:#e42414;fill-opacity:0.1;fill-rule:evenodd;stroke:none"
         d="m 181.352,69 c 0,11.234 -4.461,22.004 -12.403,29.949 -7.945,7.942 -18.715,12.403 -29.949,12.403 -11.234,0 -22.004,-4.461 -29.949,-12.403 C 101.109,91.004 96.648,80.234 96.648,69 c 0,-11.234 4.461,-22.004 12.403,-29.949 7.945,-7.942 18.715,-12.403 29.949,-12.403 11.234,0 22.004,4.461 29.949,12.403 7.942,7.945 12.403,18.715 12.403,29.949 z" /><path
         id="path16"
         style="fill:#e42414;fill-opacity:0.1;fill-rule:evenodd;stroke:none"
         d="m 329.352,220 c 0,11.234 -4.461,22.004 -12.403,29.949 -7.945,7.942 -18.715,12.403 -29.949,12.403 -11.234,0 -22.004,-4.461 -29.949,-12.403 -7.942,-7.945 -12.403,-18.715 -12.403,-29.949 0,-11.234 4.461,-22.004 12.403,-29.949 7.945,-7.942 18.715,-12.403 29.949,-12.403 11.234,0 22.004,4.461 29.949,12.403 7.942,7.945 12.403,18.715 12.403,29.949 z" /><path
         id="path18"
         style="fill:#e42414;fill-opacity:0.1;fill-rule:evenodd;stroke:none"
         d="m 260.352,81 c 0,11.234 -4.461,22.004 -12.403,29.949 -7.945,7.942 -18.715,12.403 -29.949,12.403 -11.234,0 -22.004,-4.461 -29.949,-12.403 -7.942,-7.945 -12.403,-18.715 -12.403,-29.949 0,-11.234 4.461,-22.004 12.403,-29.949 7.945,-7.942 18.715,-12.403 29.949,-12.403 11.234,0 22.004,4.461 29.949,12.403 7.942,7.945 12.403,18.715 12.403,29.949 z" /><path
         id="path20"
         style="fill:#e42414;fill-opacity:0.1;fill-rule:evenodd;stroke:none"
         d="m 228.352,290 c 0,11.234 -4.461,22.004 -12.403,29.949 -7.945,7.942 -18.715,12.403 -29.949,12.403 -11.234,0 -22.004,-4.461 -29.949,-12.403 -7.942,-7.945 -12.403,-18.715 -12.403,-29.949 0,-11.234 4.461,-22.004 12.403,-29.949 7.945,-7.942 18.715,-12.403 29.949,-12.403 11.234,0 22.004,4.461 29.949,12.403 7.942,7.945 12.403,18.715 12.403,29.949 z" /><path
         id="path22"
         style="fill:#e42414;fill-opacity:0.1;fill-rule:evenodd;stroke:none"
         d="m 93.352,180 c 0,11.234 -4.461,22.004 -12.403,29.949 -7.945,7.942 -18.715,12.403 -29.949,12.403 -11.234,0 -22.004,-4.461 -29.949,-12.403 C 13.109,202.004 8.648,191.234 8.648,180 c 0,-11.234 4.461,-22.004 12.403,-29.949 7.945,-7.942 18.715,-12.403 29.949,-12.403 11.234,0 22.004,4.461 29.949,12.403 7.942,7.945 12.403,18.715 12.403,29.949 z" /><path
         id="path24"
         style="fill:#e42414;fill-opacity:0.1;fill-rule:evenodd;stroke:none"
         d="m 160.352,250 c 0,11.234 -4.461,22.004 -12.403,29.949 -7.945,7.942 -18.715,12.403 -29.949,12.403 -11.234,0 -22.004,-4.461 -29.949,-12.403 C 80.109,272.004 75.648,261.234 75.648,250 c 0,-11.234 4.461,-22.004 12.403,-29.949 7.945,-7.942 18.715,-12.403 29.949,-12.403 11.234,0 22.004,4.461 29.949,12.403 7.942,7.945 12.403,18.715 12.403,29.949 z" /><path
         id="path26"
         style="fill:#e42414;fill-opacity:0.1;fill-rule:evenodd;stroke:none"
         d="m 174.352,267 c 0,11.234 -4.461,22.004 -12.403,29.949 -7.945,7.942 -18.715,12.403 -29.949,12.403 -11.234,0 -22.004,-4.461 -29.949,-12.403 C 94.109,289.004 89.648,278.234 89.648,267 c 0,-11.234 4.461,-22.004 12.403,-29.949 7.945,-7.942 18.715,-12.403 29.949,-12.403 11.234,0 22.004,4.461 29.949,12.403 7.942,7.945 12.403,18.715 12.403,29.949 z" /><path
         id="path28"
         style="fill:#e42414;fill-opacity:0.1;fill-rule:evenodd;stroke:none"
         d="m 153.352,124 c 0,11.234 -4.461,22.004 -12.403,29.949 -7.945,7.942 -18.715,12.403 -29.949,12.403 -11.234,0 -22.004,-4.461 -29.949,-12.403 C 73.109,146.004 68.648,135.234 68.648,124 c 0,-11.234 4.461,-22.004 12.403,-29.949 7.945,-7.942 18.715,-12.403 29.949,-12.403 11.234,0 22.004,4.461 29.949,12.403 7.942,7.945 12.403,18.715 12.403,29.949 z" /><path
         id="path30"
         style="fill:#e42414;fill-opacity:0.1;fill-rule:evenodd;stroke:none"
         d="m 295.352,211 c 0,11.234 -4.461,22.004 -12.403,29.949 -7.945,7.942 -18.715,12.403 -29.949,12.403 -11.234,0 -22.004,-4.461 -29.949,-12.403 -7.942,-7.945 -12.403,-18.715 -12.403,-29.949 0,-11.234 4.461,-22.004 12.403,-29.949 7.945,-7.942 18.715,-12.403 29.949,-12.403 11.234,0 22.004,4.461 29.949,12.403 7.942,7.945 12.403,18.715 12.403,29.949 z" /><path
         id="path32"
         style="fill:#e42414;fill-opacity:0.1;fill-rule:evenodd;stroke:none"
         d="m 280.352,262 c 0,11.234 -4.461,22.004 -12.403,29.949 -7.945,7.942 -18.715,12.403 -29.949,12.403 -11.234,0 -22.004,-4.461 -29.949,-12.403 -7.942,-7.945 -12.403,-18.715 -12.403,-29.949 0,-11.234 4.461,-22.004 12.403,-29.949 7.945,-7.942 18.715,-12.403 29.949,-12.403 11.234,0 22.004,4.461 29.949,12.403 7.942,7.945 12.403,18.715 12.403,29.949 z" /><path
         id="path34"
         style="fill:#e42414;fill-opacity:0.1;fill-rule:evenodd;stroke:none"
         d="m 307.352,229 c 0,11.234 -4.461,22.004 -12.403,29.949 -7.945,7.942 -18.715,12.403 -29.949,12.403 -11.234,0 -22.004,-4.461 -29.949,-12.403 -7.942,-7.945 -12.403,-18.715 -12.403,-29.949 0,-11.234 4.461,-22.004 12.403,-29.949 7.945,-7.942 18.715,-12.403 29.949,-12.403 11.234,0 22.004,4.461 29.949,12.403 7.942,7.945 12.403,18.715 12.403,29.949 z" /><path
         id="path36"
         style="fill:#e42414;fill-opacity:0.1;fill-rule:evenodd;stroke:none"
         d="m 237.352,68 c 0,11.234 -4.461,22.004 -12.403,29.949 -7.945,7.942 -18.715,12.403 -29.949,12.403 -11.234,0 -22.004,-4.461 -29.949,-12.403 C 157.109,90.004 152.648,79.234 152.648,68 c 0,-11.234 4.461,-22.004 12.403,-29.949 7.945,-7.942 18.715,-12.403 29.949,-12.403 11.234,0 22.004,4.461 29.949,12.403 7.942,7.945 12.403,18.715 12.403,29.949 z" /><path
         id="path38"
         style="fill:#e42414;fill-opacity:0.1;fill-rule:evenodd;stroke:none"
         d="m 264.352,102 c 0,11.234 -4.461,22.004 -12.403,29.949 -7.945,7.942 -18.715,12.403 -29.949,12.403 -11.234,0 -22.004,-4.461 -29.949,-12.403 -7.942,-7.945 -12.403,-18.715 -12.403,-29.949 0,-11.234 4.461,-22.004 12.403,-29.949 7.945,-7.942 18.715,-12.403 29.949,-12.403 11.234,0 22.004,4.461 29.949,12.403 7.942,7.945 12.403,18.715 12.403,29.949 z" /><path
         id="path40"
         style="fill:#e42414;fill-opacity:0.1;fill-rule:evenodd;stroke:none"
         d="m 256.352,57 c 0,11.234 -4.461,22.004 -12.403,29.949 -7.945,7.942 -18.715,12.403 -29.949,12.403 -11.234,0 -22.004,-4.461 -29.949,-12.403 C 176.109,79.004 171.648,68.234 171.648,57 c 0,-11.234 4.461,-22.004 12.403,-29.949 7.945,-7.942 18.715,-12.403 29.949,-12.403 11.234,0 22.004,4.461 29.949,12.403 7.942,7.945 12.403,18.715 12.403,29.949 z" /><path
         id="path42"
         style="fill:#e42414;fill-opacity:0.1;fill-rule:evenodd;stroke:none"
         d="m 329.352,212 c 0,11.234 -4.461,22.004 -12.403,29.949 -7.945,7.942 -18.715,12.403 -29.949,12.403 -11.234,0 -22.004,-4.461 -29.949,-12.403 -7.942,-7.945 -12.403,-18.715 -12.403,-29.949 0,-11.234 4.461,-22.004 12.403,-29.949 7.945,-7.942 18.715,-12.403 29.949,-12.403 11.234,0 22.004,4.461 29.949,12.403 7.942,7.945 12.403,18.715 12.403,29.949 z" /><path
         id="path44"
         style="fill:#e42414;fill-opacity:0.1;fill-rule:evenodd;stroke:none"
         d="m 291.352,270 c 0,11.234 -4.461,22.004 -12.403,29.949 -7.945,7.942 -18.715,12.403 -29.949,12.403 -11.234,0 -22.004,-4.461 -29.949,-12.403 -7.942,-7.945 -12.403,-18.715 -12.403,-29.949 0,-11.234 4.461,-22.004 12.403,-29.949 7.945,-7.942 18.715,-12.403 29.949,-12.403 11.234,0 22.004,4.461 29.949,12.403 7.942,7.945 12.403,18.715 12.403,29.949 z" /><path
         id="path46"
         style="fill:#e42414;fill-opacity:0.1;fill-rule:evenodd;stroke:none"
         d="m 215.352,300 c 0,11.234 -4.461,22.004 -12.403,29.949 -7.945,7.942 -18.715,12.403 -29.949,12.403 -11.234,0 -22.004,-4.461 -29.949,-12.403 -7.942,-7.945 -12.403,-18.715 -12.403,-29.949 0,-11.234 4.461,-22.004 12.403,-29.949 7.945,-7.942 18.715,-12.403 29.949,-12.403 11.234,0 22.004,4.461 29.949,12.403 7.942,7.945 12.403,18.715 12.403,29.949 z" /><path
         id="path48"
         style="fill:#e42414;fill-opacity:0.1;fill-rule:evenodd;stroke:none"
         d="m 126.352,248 c 0,11.234 -4.461,22.004 -12.403,29.949 -7.945,7.942 -18.715,12.403 -29.949,12.403 -11.234,0 -22.004,-4.461 -29.949,-12.403 C 46.109,270.004 41.648,259.234 41.648,248 c 0,-11.234 4.461,-22.004 12.403,-29.949 7.945,-7.942 18.715,-12.403 29.949,-12.403 11.234,0 22.004,4.461 29.949,12.403 7.942,7.945 12.403,18.715 12.403,29.949 z" /><path
         id="path50"
         style="fill:#e42414;fill-opacity:0.1;fill-rule:evenodd;stroke:none"
         d="m 160.352,262 c 0,11.234 -4.461,22.004 -12.403,29.949 -7.945,7.942 -18.715,12.403 -29.949,12.403 -11.234,0 -22.004,-4.461 -29.949,-12.403 C 80.109,284.004 75.648,273.234 75.648,262 c 0,-11.234 4.461,-22.004 12.403,-29.949 7.945,-7.942 18.715,-12.403 29.949,-12.403 11.234,0 22.004,4.461 29.949,12.403 7.942,7.945 12.403,18.715 12.403,29.949 z" /><path
         id="path52"
         style="fill:#e42414;fill-opacity:0.1;fill-rule:evenodd;stroke:none"
         d="m 175.352,278 c 0,11.234 -4.461,22.004 -12.403,29.949 -7.945,7.942 -18.715,12.403 -29.949,12.403 -11.234,0 -22.004,-4.461 -29.949,-12.403 C 95.109,300.004 90.648,289.234 90.648,278 c 0,-11.234 4.461,-22.004 12.403,-29.949 7.945,-7.942 18.715,-12.403 29.949,-12.403 11.234,0 22.004,4.461 29.949,12.403 7.942,7.945 12.403,18.715 12.403,29.949 z" /><path
         id="path54"
         style="fill:#e42414;fill-opacity:0.1;fill-rule:evenodd;stroke:none"
         d="m 124.352,115 c 0,11.234 -4.461,22.004 -12.403,29.949 -7.945,7.942 -18.715,12.403 -29.949,12.403 -11.234,0 -22.004,-4.461 -29.949,-12.403 C 44.109,137.004 39.648,126.234 39.648,115 39.648,103.766 44.109,92.996 52.051,85.051 59.996,77.109 70.766,72.648 82,72.648 c 11.234,0 22.004,4.461 29.949,12.403 7.942,7.945 12.403,18.715 12.403,29.949 z" /><path
         id="path56"
         style="fill:#e42414;fill-opacity:0.1;fill-rule:evenodd;stroke:none"
         d="m 113.352,197 c 0,11.234 -4.461,22.004 -12.403,29.949 -7.945,7.942 -18.715,12.403 -29.949,12.403 -11.234,0 -22.004,-4.461 -29.949,-12.403 C 33.109,219.004 28.648,208.234 28.648,197 c 0,-11.234 4.461,-22.004 12.403,-29.949 7.945,-7.942 18.715,-12.403 29.949,-12.403 11.234,0 22.004,4.461 29.949,12.403 7.942,7.945 12.403,18.715 12.403,29.949 z" /><path
         id="path58"
         style="fill:#e42414;fill-opacity:0.1;fill-rule:evenodd;stroke:none"
         d="m 118.352,131 c 0,11.234 -4.461,22.004 -12.403,29.949 -7.945,7.942 -18.715,12.403 -29.949,12.403 -11.234,0 -22.004,-4.461 -29.949,-12.403 C 38.109,153.004 33.648,142.234 33.648,131 c 0,-11.234 4.461,-22.004 12.403,-29.949 C 53.996,93.109 64.766,88.648 76,88.648 c 11.234,0 22.004,4.461 29.949,12.403 7.942,7.945 12.403,18.715 12.403,29.949 z" /><path
         id="path60"
         style="fill:#e42414;fill-opacity:0.1;fill-rule:evenodd;stroke:none"
         d="m 287.352,96 c 0,11.234 -4.461,22.004 -12.403,29.949 -7.945,7.942 -18.715,12.403 -29.949,12.403 -11.234,0 -22.004,-4.461 -29.949,-12.403 -7.942,-7.945 -12.403,-18.715 -12.403,-29.949 0,-11.234 4.461,-22.004 12.403,-29.949 7.945,-7.942 18.715,-12.403 29.949,-12.403 11.234,0 22.004,4.461 29.949,12.403 7.942,7.945 12.403,18.715 12.403,29.949 z" /><path
         id="path62"
         style="fill:#e42414;fill-opacity:0.1;fill-rule:evenodd;stroke:none"
         d="m 303.352,265 c 0,11.234 -4.461,22.004 -12.403,29.949 -7.945,7.942 -18.715,12.403 -29.949,12.403 -11.234,0 -22.004,-4.461 -29.949,-12.403 -7.942,-7.945 -12.403,-18.715 -12.403,-29.949 0,-11.234 4.461,-22.004 12.403,-29.949 7.945,-7.942 18.715,-12.403 29.949,-12.403 11.234,0 22.004,4.461 29.949,12.403 7.942,7.945 12.403,18.715 12.403,29.949 z" /><path
         id="path64"
         style="fill:#e42414;fill-opacity:0.1;fill-rule:evenodd;stroke:none"
         d="m 121.352,156 c 0,11.234 -4.461,22.004 -12.403,29.949 -7.945,7.942 -18.715,12.403 -29.949,12.403 -11.234,0 -22.004,-4.461 -29.949,-12.403 C 41.109,178.004 36.648,167.234 36.648,156 c 0,-11.234 4.461,-22.004 12.403,-29.949 7.945,-7.942 18.715,-12.403 29.949,-12.403 11.234,0 22.004,4.461 29.949,12.403 7.942,7.945 12.403,18.715 12.403,29.949 z" /><path
         id="path66"
         style="fill:#e42414;fill-opacity:0.1;fill-rule:evenodd;stroke:none"
         d="m 234.352,76 c 0,11.234 -4.461,22.004 -12.403,29.949 -7.945,7.942 -18.715,12.403 -29.949,12.403 -11.234,0 -22.004,-4.461 -29.949,-12.403 C 154.109,98.004 149.648,87.234 149.648,76 c 0,-11.234 4.461,-22.004 12.403,-29.949 7.945,-7.942 18.715,-12.403 29.949,-12.403 11.234,0 22.004,4.461 29.949,12.403 7.942,7.945 12.403,18.715 12.403,29.949 z" /><path
         id="path68"
         style="fill:#e42414;fill-opacity:0.1;fill-rule:evenodd;stroke:none"
         d="m 288.352,251 c 0,11.234 -4.461,22.004 -12.403,29.949 -7.945,7.942 -18.715,12.403 -29.949,12.403 -11.234,0 -22.004,-4.461 -29.949,-12.403 -7.942,-7.945 -12.403,-18.715 -12.403,-29.949 0,-11.234 4.461,-22.004 12.403,-29.949 7.945,-7.942 18.715,-12.403 29.949,-12.403 11.234,0 22.004,4.461 29.949,12.403 7.942,7.945 12.403,18.715 12.403,29.949 z" /><path
         id="path70"
         style="fill:#e42414;fill-opacity:0.1;fill-rule:evenodd;stroke:none"
         d="m 142.352,256 c 0,11.234 -4.461,22.004 -12.403,29.949 -7.945,7.942 -18.715,12.403 -29.949,12.403 -11.234,0 -22.004,-4.461 -29.949,-12.403 C 62.109,278.004 57.648,267.234 57.648,256 c 0,-11.234 4.461,-22.004 12.403,-29.949 7.945,-7.942 18.715,-12.403 29.949,-12.403 11.234,0 22.004,4.461 29.949,12.403 7.942,7.945 12.403,18.715 12.403,29.949 z" /><path
         id="path72"
         style="fill:#e42414;fill-opacity:0.1;fill-rule:evenodd;stroke:none"
         d="m 227.352,300 c 0,11.234 -4.461,22.004 -12.403,29.949 -7.945,7.942 -18.715,12.403 -29.949,12.403 -11.234,0 -22.004,-4.461 -29.949,-12.403 -7.942,-7.945 -12.403,-18.715 -12.403,-29.949 0,-11.234 4.461,-22.004 12.403,-29.949 7.945,-7.942 18.715,-12.403 29.949,-12.403 11.234,0 22.004,4.461 29.949,12.403 7.942,7.945 12.403,18.715 12.403,29.949 z" /><path
         id="path74"
         style="fill:#e42414;fill-opacity:0.1;fill-rule:evenodd;stroke:none"
         d="m 207.352,82 c 0,11.234 -4.461,22.004 -12.403,29.949 -7.945,7.942 -18.715,12.403 -29.949,12.403 -11.234,0 -22.004,-4.461 -29.949,-12.403 -7.942,-7.945 -12.403,-18.715 -12.403,-29.949 0,-11.234 4.461,-22.004 12.403,-29.949 7.945,-7.942 18.715,-12.403 29.949,-12.403 11.234,0 22.004,4.461 29.949,12.403 7.942,7.945 12.403,18.715 12.403,29.949 z" /><path
         id="path76"
         style="fill:#e42414;fill-opacity:0.1;fill-rule:evenodd;stroke:none"
         d="m 146.352,102 c 0,11.234 -4.461,22.004 -12.403,29.949 -7.945,7.942 -18.715,12.403 -29.949,12.403 -11.234,0 -22.004,-4.461 -29.949,-12.403 C 66.109,124.004 61.648,113.234 61.648,102 61.648,90.766 66.109,79.996 74.051,72.051 81.996,64.109 92.766,59.648 104,59.648 c 11.234,0 22.004,4.461 29.949,12.403 7.942,7.945 12.403,18.715 12.403,29.949 z" /><path
         id="path78"
         style="fill:#e42414;fill-opacity:0.1;fill-rule:evenodd;stroke:none"
         d="m 226.352,286 c 0,11.234 -4.461,22.004 -12.403,29.949 -7.945,7.942 -18.715,12.403 -29.949,12.403 -11.234,0 -22.004,-4.461 -29.949,-12.403 -7.942,-7.945 -12.403,-18.715 -12.403,-29.949 0,-11.234 4.461,-22.004 12.403,-29.949 7.945,-7.942 18.715,-12.403 29.949,-12.403 11.234,0 22.004,4.461 29.949,12.403 7.942,7.945 12.403,18.715 12.403,29.949 z" /><path
         id="path80"
         style="fill:#e42414;fill-opacity:0.1;fill-rule:evenodd;stroke:none"
         d="m 149.352,90 c 0,11.234 -4.461,22.004 -12.403,29.949 -7.945,7.942 -18.715,12.403 -29.949,12.403 -11.234,0 -22.004,-4.461 -29.949,-12.403 C 69.109,112.004 64.648,101.234 64.648,90 64.648,78.766 69.109,67.996 77.051,60.051 84.996,52.109 95.766,47.648 107,47.648 c 11.234,0 22.004,4.461 29.949,12.403 7.942,7.945 12.403,18.715 12.403,29.949 z" /><path
         id="path82"
         style="fill:#e42414;fill-opacity:0.1;fill-rule:evenodd;stroke:none"
         d="m 268.352,80 c 0,11.234 -4.461,22.004 -12.403,29.949 -7.945,7.942 -18.715,12.403 -29.949,12.403 -11.234,0 -22.004,-4.461 -29.949,-12.403 -7.942,-7.945 -12.403,-18.715 -12.403,-29.949 0,-11.234 4.461,-22.004 12.403,-29.949 7.945,-7.942 18.715,-12.403 29.949,-12.403 11.234,0 22.004,4.461 29.949,12.403 7.942,7.945 12.403,18.715 12.403,29.949 z" /><path
         id="path84"
         style="fill:#e42414;fill-opacity:0.1;fill-rule:evenodd;stroke:none"
         d="m 185.352,66 c 0,11.234 -4.461,22.004 -12.403,29.949 -7.945,7.942 -18.715,12.403 -29.949,12.403 -11.234,0 -22.004,-4.461 -29.949,-12.403 C 105.109,88.004 100.648,77.234 100.648,66 c 0,-11.234 4.461,-22.004 12.403,-29.949 7.945,-7.942 18.715,-12.403 29.949,-12.403 11.234,0 22.004,4.461 29.949,12.403 7.942,7.945 12.403,18.715 12.403,29.949 z" /><path
         id="path86"
         style="fill:#e42414;fill-opacity:0.1;fill-rule:evenodd;stroke:none"
         d="m 262.352,100 c 0,11.234 -4.461,22.004 -12.403,29.949 -7.945,7.942 -18.715,12.403 -29.949,12.403 -11.234,0 -22.004,-4.461 -29.949,-12.403 -7.942,-7.945 -12.403,-18.715 -12.403,-29.949 0,-11.234 4.461,-22.004 12.403,-29.949 7.945,-7.942 18.715,-12.403 29.949,-12.403 11.234,0 22.004,4.461 29.949,12.403 7.942,7.945 12.403,18.715 12.403,29.949 z" /><path
         id="path88"
         style="fill:#e42414;fill-opacity:0.1;fill-rule:evenodd;stroke:none"
         d="m 120.352,211 c 0,11.234 -4.461,22.004 -12.403,29.949 -7.945,7.942 -18.715,12.403 -29.949,12.403 -11.234,0 -22.004,-4.461 -29.949,-12.403 C 40.109,233.004 35.648,222.234 35.648,211 c 0,-11.234 4.461,-22.004 12.403,-29.949 7.945,-7.942 18.715,-12.403 29.949,-12.403 11.234,0 22.004,4.461 29.949,12.403 7.942,7.945 12.403,18.715 12.403,29.949 z" /><path
         id="path90"
         style="fill:#e42414;fill-opacity:0.1;fill-rule:evenodd;stroke:none"
         d="m 206.352,290 c 0,11.234 -4.461,22.004 -12.403,29.949 -7.945,7.942 -18.715,12.403 -29.949,12.403 -11.234,0 -22.004,-4.461 -29.949,-12.403 -7.942,-7.945 -12.403,-18.715 -12.403,-29.949 0,-11.234 4.461,-22.004 12.403,-29.949 7.945,-7.942 18.715,-12.403 29.949,-12.403 11.234,0 22.004,4.461 29.949,12.403 7.942,7.945 12.403,18.715 12.403,29.949 z" /><path
         id="path92"
         style="fill:#e42414;fill-opacity:0.1;fill-rule:evenodd;stroke:none"
         d="m 328.352,180 c 0,11.234 -4.461,22.004 -12.403,29.949 -7.945,7.942 -18.715,12.403 -29.949,12.403 -11.234,0 -22.004,-4.461 -29.949,-12.403 -7.942,-7.945 -12.403,-18.715 -12.403,-29.949 0,-11.234 4.461,-22.004 12.403,-29.949 7.945,-7.942 18.715,-12.403 29.949,-12.403 11.234,0 22.004,4.461 29.949,12.403 7.942,7.945 12.403,18.715 12.403,29.949 z" /><path
         id="path94"
         style="fill:#e42414;fill-opacity:0.1;fill-rule:evenodd;stroke:none"
         d="m 268.352,89 c 0,11.234 -4.461,22.004 -12.403,29.949 -7.945,7.942 -18.715,12.403 -29.949,12.403 -11.234,0 -22.004,-4.461 -29.949,-12.403 -7.942,-7.945 -12.403,-18.715 -12.403,-29.949 0,-11.234 4.461,-22.004 12.403,-29.949 7.945,-7.942 18.715,-12.403 29.949,-12.403 11.234,0 22.004,4.461 29.949,12.403 7.942,7.945 12.403,18.715 12.403,29.949 z" /><path
         id="path96"
         style="fill:#e42414;fill-opacity:0.1;fill-rule:evenodd;stroke:none"
         d="m 180.352,99 c 0,11.234 -4.461,22.004 -12.403,29.949 -7.945,7.942 -18.715,12.403 -29.949,12.403 -11.234,0 -22.004,-4.461 -29.949,-12.403 C 100.109,121.004 95.648,110.234 95.648,99 c 0,-11.234 4.461,-22.004 12.403,-29.949 7.945,-7.942 18.715,-12.403 29.949,-12.403 11.234,0 22.004,4.461 29.949,12.403 7.942,7.945 12.403,18.715 12.403,29.949 z" /><path
         id="path98"
         style="fill:#e42414;fill-opacity:0.1;fill-rule:evenodd;stroke:none"
         d="m 176.352,80 c 0,11.234 -4.461,22.004 -12.403,29.949 -7.945,7.942 -18.715,12.403 -29.949,12.403 -11.234,0 -22.004,-4.461 -29.949,-12.403 C 96.109,102.004 91.648,91.234 91.648,80 c 0,-11.234 4.461,-22.004 12.403,-29.949 7.945,-7.942 18.715,-12.403 29.949,-12.403 11.234,0 22.004,4.461 29.949,12.403 7.942,7.945 12.403,18.715 12.403,29.949 z" /><path
         id="path100"
         style="fill:#e42414;fill-opacity:0.1;fill-rule:evenodd;stroke:none"
         d="m 248.352,85 c 0,11.234 -4.461,22.004 -12.403,29.949 -7.945,7.942 -18.715,12.403 -29.949,12.403 -11.234,0 -22.004,-4.461 -29.949,-12.403 -7.942,-7.945 -12.403,-18.715 -12.403,-29.949 0,-11.234 4.461,-22.004 12.403,-29.949 7.945,-7.942 18.715,-12.403 29.949,-12.403 11.234,0 22.004,4.461 29.949,12.403 7.942,7.945 12.403,18.715 12.403,29.949 z" /><path
         id="path102"
         style="fill:#e42414;fill-opacity:0.1;fill-rule:evenodd;stroke:none"
         d="m 163.352,278 c 0,11.234 -4.461,22.004 -12.403,29.949 -7.945,7.942 -18.715,12.403 -29.949,12.403 -11.234,0 -22.004,-4.461 -29.949,-12.403 C 83.109,300.004 78.648,289.234 78.648,278 c 0,-11.234 4.461,-22.004 12.403,-29.949 7.945,-7.942 18.715,-12.403 29.949,-12.403 11.234,0 22.004,4.461 29.949,12.403 7.942,7.945 12.403,18.715 12.403,29.949 z" /><path
         id="path104"
         style="fill:#e42414;fill-opacity:0.1;fill-rule:evenodd;stroke:none"
         d="m 290.352,84 c 0,11.234 -4.461,22.004 -12.403,29.949 -7.945,7.942 -18.715,12.403 -29.949,12.403 -11.234,0 -22.004,-4.461 -29.949,-12.403 -7.942,-7.945 -12.403,-18.715 -12.403,-29.949 0,-11.234 4.461,-22.004 12.403,-29.949 7.945,-7.942 18.715,-12.403 29.949,-12.403 11.234,0 22.004,4.461 29.949,12.403 7.942,7.945 12.403,18.715 12.403,29.949 z" /><path
         id="path106"
         style="fill:#e42414;fill-opacity:0.1;fill-rule:evenodd;stroke:none"
         d="m 125.352,210 c 0,11.234 -4.461,22.004 -12.403,29.949 -7.945,7.942 -18.715,12.403 -29.949,12.403 -11.234,0 -22.004,-4.461 -29.949,-12.403 C 45.109,232.004 40.648,221.234 40.648,210 c 0,-11.234 4.461,-22.004 12.403,-29.949 7.945,-7.942 18.715,-12.403 29.949,-12.403 11.234,0 22.004,4.461 29.949,12.403 7.942,7.945 12.403,18.715 12.403,29.949 z" /><path
         id="path108"
         style="fill:#e42414;fill-opacity:0.1;fill-rule:evenodd;stroke:none"
         d="m 286.352,269 c 0,11.234 -4.461,22.004 -12.403,29.949 -7.945,7.942 -18.715,12.403 -29.949,12.403 -11.234,0 -22.004,-4.461 -29.949,-12.403 -7.942,-7.945 -12.403,-18.715 -12.403,-29.949 0,-11.234 4.461,-22.004 12.403,-29.949 7.945,-7.942 18.715,-12.403 29.949,-12.403 11.234,0 22.004,4.461 29.949,12.403 7.942,7.945 12.403,18.715 12.403,29.949 z" /><path
         id="path110"
         style="fill:#e42414;fill-opacity:0.1;fill-rule:evenodd;stroke:none"
         d="m 114.352,140 c 0,11.234 -4.461,22.004 -12.403,29.949 -7.945,7.942 -18.715,12.403 -29.949,12.403 -11.234,0 -22.004,-4.461 -29.949,-12.403 C 34.109,162.004 29.648,151.234 29.648,140 c 0,-11.234 4.461,-22.004 12.403,-29.949 7.945,-7.942 18.715,-12.403 29.949,-12.403 11.234,0 22.004,4.461 29.949,12.403 7.942,7.945 12.403,18.715 12.403,29.949 z" /><path
         id="path112"
         style="fill:#e42414;fill-opacity:0.1;fill-rule:evenodd;stroke:none"
         d="m 155.352,290 c 0,11.234 -4.461,22.004 -12.403,29.949 -7.945,7.942 -18.715,12.403 -29.949,12.403 -11.234,0 -22.004,-4.461 -29.949,-12.403 C 75.109,312.004 70.648,301.234 70.648,290 c 0,-11.234 4.461,-22.004 12.403,-29.949 7.945,-7.942 18.715,-12.403 29.949,-12.403 11.234,0 22.004,4.461 29.949,12.403 7.942,7.945 12.403,18.715 12.403,29.949 z" /><path
         id="path114"
         style="fill:#e42414;fill-opacity:0.1;fill-rule:evenodd;stroke:none"
         d="m 315.352,112 c 0,11.234 -4.461,22.004 -12.403,29.949 -7.945,7.942 -18.715,12.403 -29.949,12.403 -11.234,0 -22.004,-4.461 -29.949,-12.403 -7.942,-7.945 -12.403,-18.715 -12.403,-29.949 0,-11.234 4.461,-22.004 12.403,-29.949 7.945,-7.942 18.715,-12.403 29.949,-12.403 11.234,0 22.004,4.461 29.949,12.403 7.942,7.945 12.403,18.715 12.403,29.949 z" /><path
         id="path116"
         style="fill:#e42414;fill-opacity:0.1;fill-rule:evenodd;stroke:none"
         d="m 164.352,251 c 0,11.234 -4.461,22.004 -12.403,29.949 -7.945,7.942 -18.715,12.403 -29.949,12.403 -11.234,0 -22.004,-4.461 -29.949,-12.403 C 84.109,273.004 79.648,262.234 79.648,251 c 0,-11.234 4.461,-22.004 12.403,-29.949 7.945,-7.942 18.715,-12.403 29.949,-12.403 11.234,0 22.004,4.461 29.949,12.403 7.942,7.945 12.403,18.715 12.403,29.949 z" /><path
         id="path118"
         style="fill:#e42414;fill-opacity:0.1;fill-rule:evenodd;stroke:none"
         d="m 108.352,171 c 0,11.234 -4.461,22.004 -12.403,29.949 -7.945,7.942 -18.715,12.403 -29.949,12.403 -11.234,0 -22.004,-4.461 -29.949,-12.403 C 28.109,193.004 23.648,182.234 23.648,171 c 0,-11.234 4.461,-22.004 12.403,-29.949 7.945,-7.942 18.715,-12.403 29.949,-12.403 11.234,0 22.004,4.461 29.949,12.403 7.942,7.945 12.403,18.715 12.403,29.949 z" /><path
         id="path120"
         style="fill:#e42414;fill-opacity:0.1;fill-rule:evenodd;stroke:none"
         d="m 322.352,100 c 0,11.234 -4.461,22.004 -12.403,29.949 -7.945,7.942 -18.715,12.403 -29.949,12.403 -11.234,0 -22.004,-4.461 -29.949,-12.403 -7.942,-7.945 -12.403,-18.715 -12.403,-29.949 0,-11.234 4.461,-22.004 12.403,-29.949 7.945,-7.942 18.715,-12.403 29.949,-12.403 11.234,0 22.004,4.461 29.949,12.403 7.942,7.945 12.403,18.715 12.403,29.949 z" /><path
         id="path122"
         style="fill:#e42414;fill-opacity:0.1;fill-rule:evenodd;stroke:none"
         d="m 212.352,87 c 0,11.234 -4.461,22.004 -12.403,29.949 -7.945,7.942 -18.715,12.403 -29.949,12.403 -11.234,0 -22.004,-4.461 -29.949,-12.403 -7.942,-7.945 -12.403,-18.715 -12.403,-29.949 0,-11.234 4.461,-22.004 12.403,-29.949 7.945,-7.942 18.715,-12.403 29.949,-12.403 11.234,0 22.004,4.461 29.949,12.403 7.942,7.945 12.403,18.715 12.403,29.949 z" /><path
         id="path124"
         style="fill:#e42414;fill-opacity:0.1;fill-rule:evenodd;stroke:none"
         d="m 116.352,209 c 0,11.234 -4.461,22.004 -12.403,29.949 -7.945,7.942 -18.715,12.403 -29.949,12.403 -11.234,0 -22.004,-4.461 -29.949,-12.403 C 36.109,231.004 31.648,220.234 31.648,209 c 0,-11.234 4.461,-22.004 12.403,-29.949 7.945,-7.942 18.715,-12.403 29.949,-12.403 11.234,0 22.004,4.461 29.949,12.403 7.942,7.945 12.403,18.715 12.403,29.949 z" /><path
         id="path126"
         style="fill:#e42414;fill-opacity:0.1;fill-rule:evenodd;stroke:none"
         d="m 176.352,291 c 0,11.234 -4.461,22.004 -12.403,29.949 -7.945,7.942 -18.715,12.403 -29.949,12.403 -11.234,0 -22.004,-4.461 -29.949,-12.403 C 96.109,313.004 91.648,302.234 91.648,291 c 0,-11.234 4.461,-22.004 12.403,-29.949 7.945,-7.942 18.715,-12.403 29.949,-12.403 11.234,0 22.004,4.461 29.949,12.403 7.942,7.945 12.403,18.715 12.403,29.949 z" /><path
         id="path128"
         style="fill:#e42414;fill-opacity:0.1;fill-rule:evenodd;stroke:none"
         d="m 128.352,145 c 0,11.234 -4.461,22.004 -12.403,29.949 -7.945,7.942 -18.715,12.403 -29.949,12.403 -11.234,0 -22.004,-4.461 -29.949,-12.403 C 48.109,167.004 43.648,156.234 43.648,145 c 0,-11.234 4.461,-22.004 12.403,-29.949 7.945,-7.942 18.715,-12.403 29.949,-12.403 11.234,0 22.004,4.461 29.949,12.403 7.942,7.945 12.403,18.715 12.403,29.949 z" /><path
         id="path130"
         style="fill:#e42414;fill-opacity:0.1;fill-rule:evenodd;stroke:none"
         d="m 128.352,143 c 0,11.234 -4.461,22.004 -12.403,29.949 -7.945,7.942 -18.715,12.403 -29.949,12.403 -11.234,0 -22.004,-4.461 -29.949,-12.403 C 48.109,165.004 43.648,154.234 43.648,143 c 0,-11.234 4.461,-22.004 12.403,-29.949 7.945,-7.942 18.715,-12.403 29.949,-12.403 11.234,0 22.004,4.461 29.949,12.403 7.942,7.945 12.403,18.715 12.403,29.949 z" /><path
         id="path132"
         style="fill:#e42414;fill-opacity:0.1;fill-rule:evenodd;stroke:none"
         d="m 316.352,144 c 0,11.234 -4.461,22.004 -12.403,29.949 -7.945,7.942 -18.715,12.403 -29.949,12.403 -11.234,0 -22.004,-4.461 -29.949,-12.403 -7.942,-7.945 -12.403,-18.715 -12.403,-29.949 0,-11.234 4.461,-22.004 12.403,-29.949 7.945,-7.942 18.715,-12.403 29.949,-12.403 11.234,0 22.004,4.461 29.949,12.403 7.942,7.945 12.403,18.715 12.403,29.949 z" /><path
         id="path134"
         style="fill:#e42414;fill-opacity:0.1;fill-rule:evenodd;stroke:none"
         d="m 160.352,79 c 0,11.234 -4.461,22.004 -12.403,29.949 -7.945,7.942 -18.715,12.403 -29.949,12.403 -11.234,0 -22.004,-4.461 -29.949,-12.403 C 80.109,101.004 75.648,90.234 75.648,79 c 0,-11.234 4.461,-22.004 12.403,-29.949 7.945,-7.942 18.715,-12.403 29.949,-12.403 11.234,0 22.004,4.461 29.949,12.403 7.942,7.945 12.403,18.715 12.403,29.949 z" /><path
         id="path136"
         style="fill:#e42414;fill-opacity:0.1;fill-rule:evenodd;stroke:none"
         d="m 137.352,240 c 0,11.234 -4.461,22.004 -12.403,29.949 -7.945,7.942 -18.715,12.403 -29.949,12.403 -11.234,0 -22.004,-4.461 -29.949,-12.403 C 57.109,262.004 52.648,251.234 52.648,240 c 0,-11.234 4.461,-22.004 12.403,-29.949 7.945,-7.942 18.715,-12.403 29.949,-12.403 11.234,0 22.004,4.461 29.949,12.403 7.942,7.945 12.403,18.715 12.403,29.949 z" /><path
         id="path138"
         style="fill:#e42414;fill-opacity:0.1;fill-rule:evenodd;stroke:none"
         d="m 251.352,91 c 0,11.234 -4.461,22.004 -12.403,29.949 -7.945,7.942 -18.715,12.403 -29.949,12.403 -11.234,0 -22.004,-4.461 -29.949,-12.403 -7.942,-7.945 -12.403,-18.715 -12.403,-29.949 0,-11.234 4.461,-22.004 12.403,-29.949 7.945,-7.942 18.715,-12.403 29.949,-12.403 11.234,0 22.004,4.461 29.949,12.403 7.942,7.945 12.403,18.715 12.403,29.949 z" /><path
         id="path140"
         style="fill:#e42414;fill-opacity:0.1;fill-rule:evenodd;stroke:none"
         d="m 141.352,129 c 0,11.234 -4.461,22.004 -12.403,29.949 -7.945,7.942 -18.715,12.403 -29.949,12.403 -11.234,0 -22.004,-4.461 -29.949,-12.403 C 61.109,151.004 56.648,140.234 56.648,129 c 0,-11.234 4.461,-22.004 12.403,-29.949 C 76.996,91.109 87.766,86.648 99,86.648 c 11.234,0 22.004,4.461 29.949,12.403 7.942,7.945 12.403,18.715 12.403,29.949 z" /><path
         id="path142"
         style="fill:#e42414;fill-opacity:0.1;fill-rule:evenodd;stroke:none"
         d="m 303.352,198 c 0,11.234 -4.461,22.004 -12.403,29.949 -7.945,7.942 -18.715,12.403 -29.949,12.403 -11.234,0 -22.004,-4.461 -29.949,-12.403 -7.942,-7.945 -12.403,-18.715 -12.403,-29.949 0,-11.234 4.461,-22.004 12.403,-29.949 7.945,-7.942 18.715,-12.403 29.949,-12.403 11.234,0 22.004,4.461 29.949,12.403 7.942,7.945 12.403,18.715 12.403,29.949 z" /><path
         id="path144"
         style="fill:#e42414;fill-opacity:0.1;fill-rule:evenodd;stroke:none"
         d="m 242.352,286 c 0,11.234 -4.461,22.004 -12.403,29.949 -7.945,7.942 -18.715,12.403 -29.949,12.403 -11.234,0 -22.004,-4.461 -29.949,-12.403 -7.942,-7.945 -12.403,-18.715 -12.403,-29.949 0,-11.234 4.461,-22.004 12.403,-29.949 7.945,-7.942 18.715,-12.403 29.949,-12.403 11.234,0 22.004,4.461 29.949,12.403 7.942,7.945 12.403,18.715 12.403,29.949 z" /><path
         id="path146"
         style="fill:#e42414;fill-opacity:0.1;fill-rule:evenodd;stroke:none"
         d="m 123.352,234 c 0,11.234 -4.461,22.004 -12.403,29.949 -7.945,7.942 -18.715,12.403 -29.949,12.403 -11.234,0 -22.004,-4.461 -29.949,-12.403 C 43.109,256.004 38.648,245.234 38.648,234 c 0,-11.234 4.461,-22.004 12.403,-29.949 7.945,-7.942 18.715,-12.403 29.949,-12.403 11.234,0 22.004,4.461 29.949,12.403 7.942,7.945 12.403,18.715 12.403,29.949 z" /><path
         id="path148"
         style="fill:#e42414;fill-opacity:0.1;fill-rule:evenodd;stroke:none"
         d="m 331.352,207 c 0,11.234 -4.461,22.004 -12.403,29.949 -7.945,7.942 -18.715,12.403 -29.949,12.403 -11.234,0 -22.004,-4.461 -29.949,-12.403 -7.942,-7.945 -12.403,-18.715 -12.403,-29.949 0,-11.234 4.461,-22.004 12.403,-29.949 7.945,-7.942 18.715,-12.403 29.949,-12.403 11.234,0 22.004,4.461 29.949,12.403 7.942,7.945 12.403,18.715 12.403,29.949 z" /><path
         id="path150"
         style="fill:#e42414;fill-opacity:0.1;fill-rule:evenodd;stroke:none"
         d="m 137.352,219 c 0,11.234 -4.461,22.004 -12.403,29.949 -7.945,7.942 -18.715,12.403 -29.949,12.403 -11.234,0 -22.004,-4.461 -29.949,-12.403 C 57.109,241.004 52.648,230.234 52.648,219 c 0,-11.234 4.461,-22.004 12.403,-29.949 7.945,-7.942 18.715,-12.403 29.949,-12.403 11.234,0 22.004,4.461 29.949,12.403 7.942,7.945 12.403,18.715 12.403,29.949 z" /><path
         id="path152"
         style="fill:#e42414;fill-opacity:0.1;fill-rule:evenodd;stroke:none"
         d="m 315.352,131 c 0,11.234 -4.461,22.004 -12.403,29.949 -7.945,7.942 -18.715,12.403 -29.949,12.403 -11.234,0 -22.004,-4.461 -29.949,-12.403 -7.942,-7.945 -12.403,-18.715 -12.403,-29.949 0,-11.234 4.461,-22.004 12.403,-29.949 7.945,-7.942 18.715,-12.403 29.949,-12.403 11.234,0 22.004,4.461 29.949,12.403 7.942,7.945 12.403,18.715 12.403,29.949 z" /><path
         id="path154"
         style="fill:#e42414;fill-opacity:0.1;fill-rule:evenodd;stroke:none"
         d="m 171.352,270 c 0,11.234 -4.461,22.004 -12.403,29.949 -7.945,7.942 -18.715,12.403 -29.949,12.403 -11.234,0 -22.004,-4.461 -29.949,-12.403 C 91.109,292.004 86.648,281.234 86.648,270 c 0,-11.234 4.461,-22.004 12.403,-29.949 7.945,-7.942 18.715,-12.403 29.949,-12.403 11.234,0 22.004,4.461 29.949,12.403 7.942,7.945 12.403,18.715 12.403,29.949 z" /><path
         id="path156"
         style="fill:#e42414;fill-opacity:0.1;fill-rule:evenodd;stroke:none"
         d="m 148.352,112 c 0,11.234 -4.461,22.004 -12.403,29.949 -7.945,7.942 -18.715,12.403 -29.949,12.403 -11.234,0 -22.004,-4.461 -29.949,-12.403 C 68.109,134.004 63.648,123.234 63.648,112 c 0,-11.234 4.461,-22.004 12.403,-29.949 7.945,-7.942 18.715,-12.403 29.949,-12.403 11.234,0 22.004,4.461 29.949,12.403 7.942,7.945 12.403,18.715 12.403,29.949 z" /><path
         id="path158"
         style="fill:#e42414;fill-opacity:0.1;fill-rule:evenodd;stroke:none"
         d="m 134.352,127 c 0,11.234 -4.461,22.004 -12.403,29.949 -7.945,7.942 -18.715,12.403 -29.949,12.403 -11.234,0 -22.004,-4.461 -29.949,-12.403 C 54.109,149.004 49.648,138.234 49.648,127 c 0,-11.234 4.461,-22.004 12.403,-29.949 C 69.996,89.109 80.766,84.648 92,84.648 c 11.234,0 22.004,4.461 29.949,12.403 7.942,7.945 12.403,18.715 12.403,29.949 z" /><path
         id="path160"
         style="fill:#e42414;fill-opacity:0.1;fill-rule:evenodd;stroke:none"
         d="m 173.352,92 c 0,11.234 -4.461,22.004 -12.403,29.949 -7.945,7.942 -18.715,12.403 -29.949,12.403 -11.234,0 -22.004,-4.461 -29.949,-12.403 C 93.109,114.004 88.648,103.234 88.648,92 c 0,-11.234 4.461,-22.004 12.403,-29.949 7.945,-7.942 18.715,-12.403 29.949,-12.403 11.234,0 22.004,4.461 29.949,12.403 7.942,7.945 12.403,18.715 12.403,29.949 z" /><path
         id="path162"
         style="fill:#e42414;fill-opacity:0.1;fill-rule:evenodd;stroke:none"
         d="m 355.352,224 c 0,11.234 -4.461,22.004 -12.403,29.949 -7.945,7.942 -18.715,12.403 -29.949,12.403 -11.234,0 -22.004,-4.461 -29.949,-12.403 -7.942,-7.945 -12.403,-18.715 -12.403,-29.949 0,-11.234 4.461,-22.004 12.403,-29.949 7.945,-7.942 18.715,-12.403 29.949,-12.403 11.234,0 22.004,4.461 29.949,12.403 7.942,7.945 12.403,18.715 12.403,29.949 z" /><path
         id="path164"
         style="fill:#e42414;fill-opacity:0.1;fill-rule:evenodd;stroke:none"
         d="m 139.352,119 c 0,11.234 -4.461,22.004 -12.403,29.949 -7.945,7.942 -18.715,12.403 -29.949,12.403 -11.234,0 -22.004,-4.461 -29.949,-12.403 C 59.109,141.004 54.648,130.234 54.648,119 54.648,107.766 59.109,96.996 67.051,89.051 74.996,81.109 85.766,76.648 97,76.648 c 11.234,0 22.004,4.461 29.949,12.403 7.942,7.945 12.403,18.715 12.403,29.949 z" /><path
         id="path166"
         style="fill:#e42414;fill-opacity:0.1;fill-rule:evenodd;stroke:none"
         d="m 335.352,206 c 0,11.234 -4.461,22.004 -12.403,29.949 -7.945,7.942 -18.715,12.403 -29.949,12.403 -11.234,0 -22.004,-4.461 -29.949,-12.403 -7.942,-7.945 -12.403,-18.715 -12.403,-29.949 0,-11.234 4.461,-22.004 12.403,-29.949 7.945,-7.942 18.715,-12.403 29.949,-12.403 11.234,0 22.004,4.461 29.949,12.403 7.942,7.945 12.403,18.715 12.403,29.949 z" /><path
         id="path168"
         style="fill:#e42414;fill-opacity:0.1;fill-rule:evenodd;stroke:none"
         d="m 158.352,250 c 0,11.234 -4.461,22.004 -12.403,29.949 -7.945,7.942 -18.715,12.403 -29.949,12.403 -11.234,0 -22.004,-4.461 -29.949,-12.403 C 78.109,272.004 73.648,261.234 73.648,250 c 0,-11.234 4.461,-22.004 12.403,-29.949 7.945,-7.942 18.715,-12.403 29.949,-12.403 11.234,0 22.004,4.461 29.949,12.403 7.942,7.945 12.403,18.715 12.403,29.949 z" /><path
         id="path170"
         style="fill:#e42414;fill-opacity:0.1;fill-rule:evenodd;stroke:none"
         d="m 300.352,240 c 0,11.234 -4.461,22.004 -12.403,29.949 -7.945,7.942 -18.715,12.403 -29.949,12.403 -11.234,0 -22.004,-4.461 -29.949,-12.403 -7.942,-7.945 -12.403,-18.715 -12.403,-29.949 0,-11.234 4.461,-22.004 12.403,-29.949 7.945,-7.942 18.715,-12.403 29.949,-12.403 11.234,0 22.004,4.461 29.949,12.403 7.942,7.945 12.403,18.715 12.403,29.949 z" /><path
         id="path172"
         style="fill:#e42414;fill-opacity:0.1;fill-rule:evenodd;stroke:none"
         d="m 206.352,84 c 0,11.234 -4.461,22.004 -12.403,29.949 -7.945,7.942 -18.715,12.403 -29.949,12.403 -11.234,0 -22.004,-4.461 -29.949,-12.403 -7.942,-7.945 -12.403,-18.715 -12.403,-29.949 0,-11.234 4.461,-22.004 12.403,-29.949 7.945,-7.942 18.715,-12.403 29.949,-12.403 11.234,0 22.004,4.461 29.949,12.403 7.942,7.945 12.403,18.715 12.403,29.949 z" /><path
         id="path174"
         style="fill:#e42414;fill-opacity:0.1;fill-rule:evenodd;stroke:none"
         d="m 179.352,88 c 0,11.234 -4.461,22.004 -12.403,29.949 -7.945,7.942 -18.715,12.403 -29.949,12.403 -11.234,0 -22.004,-4.461 -29.949,-12.403 C 99.109,110.004 94.648,99.234 94.648,88 c 0,-11.234 4.461,-22.004 12.403,-29.949 7.945,-7.942 18.715,-12.403 29.949,-12.403 11.234,0 22.004,4.461 29.949,12.403 7.942,7.945 12.403,18.715 12.403,29.949 z" /><path
         id="path176"
         style="fill:#e42414;fill-opacity:0.1;fill-rule:evenodd;stroke:none"
         d="m 301.352,250 c 0,11.234 -4.461,22.004 -12.403,29.949 -7.945,7.942 -18.715,12.403 -29.949,12.403 -11.234,0 -22.004,-4.461 -29.949,-12.403 -7.942,-7.945 -12.403,-18.715 -12.403,-29.949 0,-11.234 4.461,-22.004 12.403,-29.949 7.945,-7.942 18.715,-12.403 29.949,-12.403 11.234,0 22.004,4.461 29.949,12.403 7.942,7.945 12.403,18.715 12.403,29.949 z" /><path
         id="path178"
         style="fill:#e42414;fill-opacity:0.1;fill-rule:evenodd;stroke:none"
         d="m 305.352,252 c 0,11.234 -4.461,22.004 -12.403,29.949 -7.945,7.942 -18.715,12.403 -29.949,12.403 -11.234,0 -22.004,-4.461 -29.949,-12.403 -7.942,-7.945 -12.403,-18.715 -12.403,-29.949 0,-11.234 4.461,-22.004 12.403,-29.949 7.945,-7.942 18.715,-12.403 29.949,-12.403 11.234,0 22.004,4.461 29.949,12.403 7.942,7.945 12.403,18.715 12.403,29.949 z" /><path
         id="path180"
         style="fill:#e42414;fill-opacity:0.1;fill-rule:evenodd;stroke:none"
         d="m 301.352,123 c 0,11.234 -4.461,22.004 -12.403,29.949 -7.945,7.942 -18.715,12.403 -29.949,12.403 -11.234,0 -22.004,-4.461 -29.949,-12.403 -7.942,-7.945 -12.403,-18.715 -12.403,-29.949 0,-11.234 4.461,-22.004 12.403,-29.949 7.945,-7.942 18.715,-12.403 29.949,-12.403 11.234,0 22.004,4.461 29.949,12.403 7.942,7.945 12.403,18.715 12.403,29.949 z" /><path
         id="path182"
         style="fill:#e42414;fill-opacity:0.1;fill-rule:evenodd;stroke:none"
         d="m 132.352,135 c 0,11.234 -4.461,22.004 -12.403,29.949 -7.945,7.942 -18.715,12.403 -29.949,12.403 -11.234,0 -22.004,-4.461 -29.949,-12.403 C 52.109,157.004 47.648,146.234 47.648,135 c 0,-11.234 4.461,-22.004 12.403,-29.949 C 67.996,97.109 78.766,92.648 90,92.648 c 11.234,0 22.004,4.461 29.949,12.403 7.942,7.945 12.403,18.715 12.403,29.949 z" /><path
         id="path184"
         style="fill:#e42414;fill-opacity:0.1;fill-rule:evenodd;stroke:none"
         d="m 133.352,233 c 0,11.234 -4.461,22.004 -12.403,29.949 -7.945,7.942 -18.715,12.403 -29.949,12.403 -11.234,0 -22.004,-4.461 -29.949,-12.403 C 53.109,255.004 48.648,244.234 48.648,233 c 0,-11.234 4.461,-22.004 12.403,-29.949 7.945,-7.942 18.715,-12.403 29.949,-12.403 11.234,0 22.004,4.461 29.949,12.403 7.942,7.945 12.403,18.715 12.403,29.949 z" /><path
         id="path186"
         style="fill:#e42414;fill-opacity:0.1;fill-rule:evenodd;stroke:none"
         d="m 327.352,220 c 0,11.234 -4.461,22.004 -12.403,29.949 -7.945,7.942 -18.715,12.403 -29.949,12.403 -11.234,0 -22.004,-4.461 -29.949,-12.403 -7.942,-7.945 -12.403,-18.715 -12.403,-29.949 0,-11.234 4.461,-22.004 12.403,-29.949 7.945,-7.942 18.715,-12.403 29.949,-12.403 11.234,0 22.004,4.461 29.949,12.403 7.942,7.945 12.403,18.715 12.403,29.949 z" /><path
         id="path188"
         style="fill:#e42414;fill-opacity:0.1;fill-rule:evenodd;stroke:none"
         d="m 130.352,223 c 0,11.234 -4.461,22.004 -12.403,29.949 -7.945,7.942 -18.715,12.403 -29.949,12.403 -11.234,0 -22.004,-4.461 -29.949,-12.403 C 50.109,245.004 45.648,234.234 45.648,223 c 0,-11.234 4.461,-22.004 12.403,-29.949 7.945,-7.942 18.715,-12.403 29.949,-12.403 11.234,0 22.004,4.461 29.949,12.403 7.942,7.945 12.403,18.715 12.403,29.949 z" /><path
         id="path190"
         style="fill:#e42414;fill-opacity:0.1;fill-rule:evenodd;stroke:none"
         d="m 154.352,74 c 0,11.234 -4.461,22.004 -12.403,29.949 -7.945,7.942 -18.715,12.403 -29.949,12.403 -11.234,0 -22.004,-4.461 -29.949,-12.403 C 74.109,96.004 69.648,85.234 69.648,74 c 0,-11.234 4.461,-22.004 12.403,-29.949 7.945,-7.942 18.715,-12.403 29.949,-12.403 11.234,0 22.004,4.461 29.949,12.403 7.942,7.945 12.403,18.715 12.403,29.949 z" /><path
         id="path192"
         style="fill:#e42414;fill-opacity:0.1;fill-rule:evenodd;stroke:none"
         d="m 118.352,196 c 0,11.234 -4.461,22.004 -12.403,29.949 -7.945,7.942 -18.715,12.403 -29.949,12.403 -11.234,0 -22.004,-4.461 -29.949,-12.403 C 38.109,218.004 33.648,207.234 33.648,196 c 0,-11.234 4.461,-22.004 12.403,-29.949 7.945,-7.942 18.715,-12.403 29.949,-12.403 11.234,0 22.004,4.461 29.949,12.403 7.942,7.945 12.403,18.715 12.403,29.949 z" /><path
         id="path194"
         style="fill:#e42414;fill-opacity:0.1;fill-rule:evenodd;stroke:none"
         d="m 319.352,216 c 0,11.234 -4.461,22.004 -12.403,29.949 -7.945,7.942 -18.715,12.403 -29.949,12.403 -11.234,0 -22.004,-4.461 -29.949,-12.403 -7.942,-7.945 -12.403,-18.715 -12.403,-29.949 0,-11.234 4.461,-22.004 12.403,-29.949 7.945,-7.942 18.715,-12.403 29.949,-12.403 11.234,0 22.004,4.461 29.949,12.403 7.942,7.945 12.403,18.715 12.403,29.949 z" /><path
         id="path196"
         style="fill:#e42414;fill-opacity:0.1;fill-rule:evenodd;stroke:none"
         d="m 170.352,88 c 0,11.234 -4.461,22.004 -12.403,29.949 -7.945,7.942 -18.715,12.403 -29.949,12.403 -11.234,0 -22.004,-4.461 -29.949,-12.403 C 90.109,110.004 85.648,99.234 85.648,88 c 0,-11.234 4.461,-22.004 12.403,-29.949 7.945,-7.942 18.715,-12.403 29.949,-12.403 11.234,0 22.004,4.461 29.949,12.403 7.942,7.945 12.403,18.715 12.403,29.949 z" /><path
         id="path198"
         style="fill:#e42414;fill-opacity:0.1;fill-rule:evenodd;stroke:none"
         d="m 296.352,102 c 0,11.234 -4.461,22.004 -12.403,29.949 -7.945,7.942 -18.715,12.403 -29.949,12.403 -11.234,0 -22.004,-4.461 -29.949,-12.403 -7.942,-7.945 -12.403,-18.715 -12.403,-29.949 0,-11.234 4.461,-22.004 12.403,-29.949 7.945,-7.942 18.715,-12.403 29.949,-12.403 11.234,0 22.004,4.461 29.949,12.403 7.942,7.945 12.403,18.715 12.403,29.949 z" /><path
         id="path200"
         style="fill:#e42414;fill-opacity:0.1;fill-rule:evenodd;stroke:none"
         d="m 138.352,226 c 0,11.234 -4.461,22.004 -12.403,29.949 -7.945,7.942 -18.715,12.403 -29.949,12.403 -11.234,0 -22.004,-4.461 -29.949,-12.403 C 58.109,248.004 53.648,237.234 53.648,226 c 0,-11.234 4.461,-22.004 12.403,-29.949 7.945,-7.942 18.715,-12.403 29.949,-12.403 11.234,0 22.004,4.461 29.949,12.403 7.942,7.945 12.403,18.715 12.403,29.949 z" /><path
         id="path202"
         style="fill:#e42414;fill-opacity:0.1;fill-rule:evenodd;stroke:none"
         d="m 128.352,165 c 0,11.234 -4.461,22.004 -12.403,29.949 -7.945,7.942 -18.715,12.403 -29.949,12.403 -11.234,0 -22.004,-4.461 -29.949,-12.403 C 48.109,187.004 43.648,176.234 43.648,165 c 0,-11.234 4.461,-22.004 12.403,-29.949 7.945,-7.942 18.715,-12.403 29.949,-12.403 11.234,0 22.004,4.461 29.949,12.403 7.942,7.945 12.403,18.715 12.403,29.949 z" /><path
         id="path204"
         style="fill:#e42414;fill-opacity:0.1;fill-rule:evenodd;stroke:none"
         d="m 265.352,280 c 0,11.234 -4.461,22.004 -12.403,29.949 -7.945,7.942 -18.715,12.403 -29.949,12.403 -11.234,0 -22.004,-4.461 -29.949,-12.403 -7.942,-7.945 -12.403,-18.715 -12.403,-29.949 0,-11.234 4.461,-22.004 12.403,-29.949 7.945,-7.942 18.715,-12.403 29.949,-12.403 11.234,0 22.004,4.461 29.949,12.403 7.942,7.945 12.403,18.715 12.403,29.949 z" /><path
         id="path206"
         style="fill:#e42414;fill-opacity:0.1;fill-rule:evenodd;stroke:none"
         d="m 336.352,198 c 0,11.234 -4.461,22.004 -12.403,29.949 -7.945,7.942 -18.715,12.403 -29.949,12.403 -11.234,0 -22.004,-4.461 -29.949,-12.403 -7.942,-7.945 -12.403,-18.715 -12.403,-29.949 0,-11.234 4.461,-22.004 12.403,-29.949 7.945,-7.942 18.715,-12.403 29.949,-12.403 11.234,0 22.004,4.461 29.949,12.403 7.942,7.945 12.403,18.715 12.403,29.949 z" /><path
         id="path208"
         style="fill:#e42414;fill-opacity:0.1;fill-rule:evenodd;stroke:none"
         d="m 153.352,263 c 0,11.234 -4.461,22.004 -12.403,29.949 -7.945,7.942 -18.715,12.403 -29.949,12.403 -11.234,0 -22.004,-4.461 -29.949,-12.403 C 73.109,285.004 68.648,274.234 68.648,263 c 0,-11.234 4.461,-22.004 12.403,-29.949 7.945,-7.942 18.715,-12.403 29.949,-12.403 11.234,0 22.004,4.461 29.949,12.403 7.942,7.945 12.403,18.715 12.403,29.949 z" /><path
         id="path210"
         style="fill:#e42414;fill-opacity:0.1;fill-rule:evenodd;stroke:none"
         d="m 179.352,283 c 0,11.234 -4.461,22.004 -12.403,29.949 -7.945,7.942 -18.715,12.403 -29.949,12.403 -11.234,0 -22.004,-4.461 -29.949,-12.403 C 99.109,305.004 94.648,294.234 94.648,283 c 0,-11.234 4.461,-22.004 12.403,-29.949 7.945,-7.942 18.715,-12.403 29.949,-12.403 11.234,0 22.004,4.461 29.949,12.403 7.942,7.945 12.403,18.715 12.403,29.949 z" /><path
         id="path212"
         style="fill:#e42414;fill-opacity:0.1;fill-rule:evenodd;stroke:none"
         d="m 189.352,266 c 0,11.234 -4.461,22.004 -12.403,29.949 -7.945,7.942 -18.715,12.403 -29.949,12.403 -11.234,0 -22.004,-4.461 -29.949,-12.403 -7.942,-7.945 -12.403,-18.715 -12.403,-29.949 0,-11.234 4.461,-22.004 12.403,-29.949 7.945,-7.942 18.715,-12.403 29.949,-12.403 11.234,0 22.004,4.461 29.949,12.403 7.942,7.945 12.403,18.715 12.403,29.949 z" /><path
         id="path214"
         style="fill:#ffffff;fill-opacity:1;fill-rule:evenodd;stroke:none"
         d="m 113.5,277 c 0,0.398 -0.156,0.781 -0.438,1.062 -0.281,0.282 -0.664,0.438 -1.062,0.438 -0.398,0 -0.781,-0.156 -1.062,-0.438 -0.282,-0.281 -0.438,-0.664 -0.438,-1.062 0,-0.398 0.156,-0.781 0.438,-1.062 0.281,-0.282 0.664,-0.438 1.062,-0.438 0.398,0 0.781,0.156 1.062,0.438 0.282,0.281 0.438,0.664 0.438,1.062 z" /><path
         id="path216"
         style="fill:#ffffff;fill-opacity:1;fill-rule:evenodd;stroke:none"
         d="m 68.5,159 c 0,0.398 -0.156,0.781 -0.438,1.062 -0.281,0.282 -0.664,0.438 -1.062,0.438 -0.398,0 -0.781,-0.156 -1.062,-0.438 C 65.656,159.781 65.5,159.398 65.5,159 c 0,-0.398 0.156,-0.781 0.438,-1.062 0.281,-0.282 0.664,-0.438 1.062,-0.438 0.398,0 0.781,0.156 1.062,0.438 0.282,0.281 0.438,0.664 0.438,1.062 z" /><path
         id="path218"
         style="fill:#ffffff;fill-opacity:1;fill-rule:evenodd;stroke:none"
         d="m 93.5,240 c 0,0.398 -0.156,0.781 -0.438,1.062 -0.281,0.282 -0.664,0.438 -1.062,0.438 -0.398,0 -0.781,-0.156 -1.062,-0.438 C 90.656,240.781 90.5,240.398 90.5,240 c 0,-0.398 0.156,-0.781 0.438,-1.062 0.281,-0.282 0.664,-0.438 1.062,-0.438 0.398,0 0.781,0.156 1.062,0.438 0.282,0.281 0.438,0.664 0.438,1.062 z" /><path
         id="path220"
         style="fill:#ffffff;fill-opacity:1;fill-rule:evenodd;stroke:none"
         d="m 101.5,104 c 0,0.398 -0.156,0.781 -0.438,1.062 -0.281,0.282 -0.664,0.438 -1.062,0.438 -0.398,0 -0.781,-0.156 -1.062,-0.438 C 98.656,104.781 98.5,104.398 98.5,104 c 0,-0.398 0.156,-0.781 0.438,-1.062 0.281,-0.282 0.664,-0.438 1.062,-0.438 0.398,0 0.781,0.156 1.062,0.438 0.282,0.281 0.438,0.664 0.438,1.062 z" /><path
         id="path222"
         style="fill:#ffffff;fill-opacity:1;fill-rule:evenodd;stroke:none"
         d="m 181.5,51 c 0,0.398 -0.156,0.781 -0.438,1.062 -0.281,0.282 -0.664,0.438 -1.062,0.438 -0.398,0 -0.781,-0.156 -1.062,-0.438 C 178.656,51.781 178.5,51.398 178.5,51 c 0,-0.398 0.156,-0.781 0.438,-1.062 0.281,-0.282 0.664,-0.438 1.062,-0.438 0.398,0 0.781,0.156 1.062,0.438 0.282,0.281 0.438,0.664 0.438,1.062 z" /><path
         id="path224"
         style="fill:#ffffff;fill-opacity:1;fill-rule:evenodd;stroke:none"
         d="m 220.5,265 c 0,0.398 -0.156,0.781 -0.438,1.062 -0.281,0.282 -0.664,0.438 -1.062,0.438 -0.398,0 -0.781,-0.156 -1.062,-0.438 -0.282,-0.281 -0.438,-0.664 -0.438,-1.062 0,-0.398 0.156,-0.781 0.438,-1.062 0.281,-0.282 0.664,-0.438 1.062,-0.438 0.398,0 0.781,0.156 1.062,0.438 0.282,0.281 0.438,0.664 0.438,1.062 z" /><path
         id="path226"
         style="fill:#ffffff;fill-opacity:1;fill-rule:evenodd;stroke:none"
         d="m 130.5,95 c 0,0.398 -0.156,0.781 -0.438,1.062 -0.281,0.282 -0.664,0.438 -1.062,0.438 -0.398,0 -0.781,-0.156 -1.062,-0.438 C 127.656,95.781 127.5,95.398 127.5,95 c 0,-0.398 0.156,-0.781 0.438,-1.062 0.281,-0.282 0.664,-0.438 1.062,-0.438 0.398,0 0.781,0.156 1.062,0.438 0.282,0.281 0.438,0.664 0.438,1.062 z" /><path
         id="path228"
         style="fill:#ffffff;fill-opacity:1;fill-rule:evenodd;stroke:none"
         d="m 211.5,96 c 0,0.398 -0.156,0.781 -0.438,1.062 -0.281,0.282 -0.664,0.438 -1.062,0.438 -0.398,0 -0.781,-0.156 -1.062,-0.438 C 208.656,96.781 208.5,96.398 208.5,96 c 0,-0.398 0.156,-0.781 0.438,-1.062 0.281,-0.282 0.664,-0.438 1.062,-0.438 0.398,0 0.781,0.156 1.062,0.438 0.282,0.281 0.438,0.664 0.438,1.062 z" /><path
         id="path230"
         style="fill:#ffffff;fill-opacity:1;fill-rule:evenodd;stroke:none"
         d="m 104.5,164 c 0,0.398 -0.156,0.781 -0.438,1.062 -0.281,0.282 -0.664,0.438 -1.062,0.438 -0.398,0 -0.781,-0.156 -1.062,-0.438 -0.282,-0.281 -0.438,-0.664 -0.438,-1.062 0,-0.398 0.156,-0.781 0.438,-1.062 0.281,-0.282 0.664,-0.438 1.062,-0.438 0.398,0 0.781,0.156 1.062,0.438 0.282,0.281 0.438,0.664 0.438,1.062 z" /><path
         id="path232"
         style="fill:#ffffff;fill-opacity:1;fill-rule:evenodd;stroke:none"
         d="m 92.5,134 c 0,0.398 -0.156,0.781 -0.438,1.062 -0.281,0.282 -0.664,0.438 -1.062,0.438 -0.398,0 -0.781,-0.156 -1.062,-0.438 C 89.656,134.781 89.5,134.398 89.5,134 c 0,-0.398 0.156,-0.781 0.438,-1.062 0.281,-0.282 0.664,-0.438 1.062,-0.438 0.398,0 0.781,0.156 1.062,0.438 0.282,0.281 0.438,0.664 0.438,1.062 z" /><path
         id="path234"
         style="fill:#ffffff;fill-opacity:1;fill-rule:evenodd;stroke:none"
         d="m 86.5,155 c 0,0.398 -0.156,0.781 -0.438,1.062 -0.281,0.282 -0.664,0.438 -1.062,0.438 -0.398,0 -0.781,-0.156 -1.062,-0.438 C 83.656,155.781 83.5,155.398 83.5,155 c 0,-0.398 0.156,-0.781 0.438,-1.062 0.281,-0.282 0.664,-0.438 1.062,-0.438 0.398,0 0.781,0.156 1.062,0.438 0.282,0.281 0.438,0.664 0.438,1.062 z" /><path
         id="path236"
         style="fill:#ffffff;fill-opacity:1;fill-rule:evenodd;stroke:none"
         d="m 96.5,255 c 0,0.398 -0.156,0.781 -0.438,1.062 -0.281,0.282 -0.664,0.438 -1.062,0.438 -0.398,0 -0.781,-0.156 -1.062,-0.438 C 93.656,255.781 93.5,255.398 93.5,255 c 0,-0.398 0.156,-0.781 0.438,-1.062 0.281,-0.282 0.664,-0.438 1.062,-0.438 0.398,0 0.781,0.156 1.062,0.438 0.282,0.281 0.438,0.664 0.438,1.062 z" /><path
         id="path238"
         style="fill:#ffffff;fill-opacity:1;fill-rule:evenodd;stroke:none"
         d="m 257.5,135 c 0,0.398 -0.156,0.781 -0.438,1.062 -0.281,0.282 -0.664,0.438 -1.062,0.438 -0.398,0 -0.781,-0.156 -1.062,-0.438 -0.282,-0.281 -0.438,-0.664 -0.438,-1.062 0,-0.398 0.156,-0.781 0.438,-1.062 0.281,-0.282 0.664,-0.438 1.062,-0.438 0.398,0 0.781,0.156 1.062,0.438 0.282,0.281 0.438,0.664 0.438,1.062 z" /><path
         id="path240"
         style="fill:#ffffff;fill-opacity:1;fill-rule:evenodd;stroke:none"
         d="m 283.5,102 c 0,0.398 -0.156,0.781 -0.438,1.062 -0.281,0.282 -0.664,0.438 -1.062,0.438 -0.398,0 -0.781,-0.156 -1.062,-0.438 -0.282,-0.281 -0.438,-0.664 -0.438,-1.062 0,-0.398 0.156,-0.781 0.438,-1.062 0.281,-0.282 0.664,-0.438 1.062,-0.438 0.398,0 0.781,0.156 1.062,0.438 0.282,0.281 0.438,0.664 0.438,1.062 z" /><path
         id="path242"
         style="fill:#ffffff;fill-opacity:1;fill-rule:evenodd;stroke:none"
         d="m 291.5,196 c 0,0.398 -0.156,0.781 -0.438,1.062 -0.281,0.282 -0.664,0.438 -1.062,0.438 -0.398,0 -0.781,-0.156 -1.062,-0.438 -0.282,-0.281 -0.438,-0.664 -0.438,-1.062 0,-0.398 0.156,-0.781 0.438,-1.062 0.281,-0.282 0.664,-0.438 1.062,-0.438 0.398,0 0.781,0.156 1.062,0.438 0.282,0.281 0.438,0.664 0.438,1.062 z" /><path
         id="path244"
         style="fill:#ffffff;fill-opacity:1;fill-rule:evenodd;stroke:none"
         d="m 283.5,230 c 0,0.398 -0.156,0.781 -0.438,1.062 -0.281,0.282 -0.664,0.438 -1.062,0.438 -0.398,0 -0.781,-0.156 -1.062,-0.438 -0.282,-0.281 -0.438,-0.664 -0.438,-1.062 0,-0.398 0.156,-0.781 0.438,-1.062 0.281,-0.282 0.664,-0.438 1.062,-0.438 0.398,0 0.781,0.156 1.062,0.438 0.282,0.281 0.438,0.664 0.438,1.062 z" /><path
         id="path246"
         style="fill:#ffffff;fill-opacity:1;fill-rule:evenodd;stroke:none"
         d="m 264.5,268 c 0,0.398 -0.156,0.781 -0.438,1.062 -0.281,0.282 -0.664,0.438 -1.062,0.438 -0.398,0 -0.781,-0.156 -1.062,-0.438 -0.282,-0.281 -0.438,-0.664 -0.438,-1.062 0,-0.398 0.156,-0.781 0.438,-1.062 0.281,-0.282 0.664,-0.438 1.062,-0.438 0.398,0 0.781,0.156 1.062,0.438 0.282,0.281 0.438,0.664 0.438,1.062 z" /><path
         id="path248"
         style="fill:#ffffff;fill-opacity:1;fill-rule:evenodd;stroke:none"
         d="m 146.5,68 c 0,0.398 -0.156,0.781 -0.438,1.062 -0.281,0.282 -0.664,0.438 -1.062,0.438 -0.398,0 -0.781,-0.156 -1.062,-0.438 C 143.656,68.781 143.5,68.398 143.5,68 c 0,-0.398 0.156,-0.781 0.438,-1.062 0.281,-0.282 0.664,-0.438 1.062,-0.438 0.398,0 0.781,0.156 1.062,0.438 0.282,0.281 0.438,0.664 0.438,1.062 z" /><path
         id="path250"
         style="fill:#ffffff;fill-opacity:1;fill-rule:evenodd;stroke:none"
         d="m 227.5,272 c 0,0.398 -0.156,0.781 -0.438,1.062 -0.281,0.282 -0.664,0.438 -1.062,0.438 -0.398,0 -0.781,-0.156 -1.062,-0.438 -0.282,-0.281 -0.438,-0.664 -0.438,-1.062 0,-0.398 0.156,-0.781 0.438,-1.062 0.281,-0.282 0.664,-0.438 1.062,-0.438 0.398,0 0.781,0.156 1.062,0.438 0.282,0.281 0.438,0.664 0.438,1.062 z" /><path
         id="path252"
         style="fill:#ffffff;fill-opacity:1;fill-rule:evenodd;stroke:none"
         d="m 239.5,272 c 0,0.398 -0.156,0.781 -0.438,1.062 -0.281,0.282 -0.664,0.438 -1.062,0.438 -0.398,0 -0.781,-0.156 -1.062,-0.438 -0.282,-0.281 -0.438,-0.664 -0.438,-1.062 0,-0.398 0.156,-0.781 0.438,-1.062 0.281,-0.282 0.664,-0.438 1.062,-0.438 0.398,0 0.781,0.156 1.062,0.438 0.282,0.281 0.438,0.664 0.438,1.062 z" /><path
         id="path254"
         style="fill:#ffffff;fill-opacity:1;fill-rule:evenodd;stroke:none"
         d="m 215.5,67 c 0,0.398 -0.156,0.781 -0.438,1.062 -0.281,0.282 -0.664,0.438 -1.062,0.438 -0.398,0 -0.781,-0.156 -1.062,-0.438 C 212.656,67.781 212.5,67.398 212.5,67 c 0,-0.398 0.156,-0.781 0.438,-1.062 0.281,-0.282 0.664,-0.438 1.062,-0.438 0.398,0 0.781,0.156 1.062,0.438 0.282,0.281 0.438,0.664 0.438,1.062 z" /><path
         id="path256"
         style="fill:#ffffff;fill-opacity:1;fill-rule:evenodd;stroke:none"
         d="m 172.5,70 c 0,0.398 -0.156,0.781 -0.438,1.062 -0.281,0.282 -0.664,0.438 -1.062,0.438 -0.398,0 -0.781,-0.156 -1.062,-0.438 C 169.656,70.781 169.5,70.398 169.5,70 c 0,-0.398 0.156,-0.781 0.438,-1.062 0.281,-0.282 0.664,-0.438 1.062,-0.438 0.398,0 0.781,0.156 1.062,0.438 0.282,0.281 0.438,0.664 0.438,1.062 z" /><path
         id="path258"
         style="fill:#ffffff;fill-opacity:1;fill-rule:evenodd;stroke:none"
         d="m 206.5,67 c 0,0.398 -0.156,0.781 -0.438,1.062 -0.281,0.282 -0.664,0.438 -1.062,0.438 -0.398,0 -0.781,-0.156 -1.062,-0.438 C 203.656,67.781 203.5,67.398 203.5,67 c 0,-0.398 0.156,-0.781 0.438,-1.062 0.281,-0.282 0.664,-0.438 1.062,-0.438 0.398,0 0.781,0.156 1.062,0.438 0.282,0.281 0.438,0.664 0.438,1.062 z" /><path
         id="path260"
         style="fill:#ffffff;fill-opacity:1;fill-rule:evenodd;stroke:none"
         d="m 86.5,227 c 0,0.398 -0.156,0.781 -0.438,1.062 -0.281,0.282 -0.664,0.438 -1.062,0.438 -0.398,0 -0.781,-0.156 -1.062,-0.438 C 83.656,227.781 83.5,227.398 83.5,227 c 0,-0.398 0.156,-0.781 0.438,-1.062 0.281,-0.282 0.664,-0.438 1.062,-0.438 0.398,0 0.781,0.156 1.062,0.438 0.282,0.281 0.438,0.664 0.438,1.062 z" /><path
         id="path262"
         style="fill:#ffffff;fill-opacity:1;fill-rule:evenodd;stroke:none"
         d="m 289.5,226 c 0,0.398 -0.156,0.781 -0.438,1.062 -0.281,0.282 -0.664,0.438 -1.062,0.438 -0.398,0 -0.781,-0.156 -1.062,-0.438 -0.282,-0.281 -0.438,-0.664 -0.438,-1.062 0,-0.398 0.156,-0.781 0.438,-1.062 0.281,-0.282 0.664,-0.438 1.062,-0.438 0.398,0 0.781,0.156 1.062,0.438 0.282,0.281 0.438,0.664 0.438,1.062 z" /><path
         id="path264"
         style="fill:#ffffff;fill-opacity:1;fill-rule:evenodd;stroke:none"
         d="m 193.5,77 c 0,0.398 -0.156,0.781 -0.438,1.062 -0.281,0.282 -0.664,0.438 -1.062,0.438 -0.398,0 -0.781,-0.156 -1.062,-0.438 C 190.656,77.781 190.5,77.398 190.5,77 c 0,-0.398 0.156,-0.781 0.438,-1.062 0.281,-0.282 0.664,-0.438 1.062,-0.438 0.398,0 0.781,0.156 1.062,0.438 0.282,0.281 0.438,0.664 0.438,1.062 z" /><path
         id="path266"
         style="fill:#ffffff;fill-opacity:1;fill-rule:evenodd;stroke:none"
         d="m 259.5,110 c 0,0.398 -0.156,0.781 -0.438,1.062 -0.281,0.282 -0.664,0.438 -1.062,0.438 -0.398,0 -0.781,-0.156 -1.062,-0.438 -0.282,-0.281 -0.438,-0.664 -0.438,-1.062 0,-0.398 0.156,-0.781 0.438,-1.062 0.281,-0.282 0.664,-0.438 1.062,-0.438 0.398,0 0.781,0.156 1.062,0.438 0.282,0.281 0.438,0.664 0.438,1.062 z" /><path
         id="path268"
         style="fill:#ffffff;fill-opacity:1;fill-rule:evenodd;stroke:none"
         d="m 92.5,141 c 0,0.398 -0.156,0.781 -0.438,1.062 -0.281,0.282 -0.664,0.438 -1.062,0.438 -0.398,0 -0.781,-0.156 -1.062,-0.438 C 89.656,141.781 89.5,141.398 89.5,141 c 0,-0.398 0.156,-0.781 0.438,-1.062 0.281,-0.282 0.664,-0.438 1.062,-0.438 0.398,0 0.781,0.156 1.062,0.438 0.282,0.281 0.438,0.664 0.438,1.062 z" /><path
         id="path270"
         style="fill:#ffffff;fill-opacity:1;fill-rule:evenodd;stroke:none"
         d="m 222.5,282 c 0,0.398 -0.156,0.781 -0.438,1.062 -0.281,0.282 -0.664,0.438 -1.062,0.438 -0.398,0 -0.781,-0.156 -1.062,-0.438 -0.282,-0.281 -0.438,-0.664 -0.438,-1.062 0,-0.398 0.156,-0.781 0.438,-1.062 0.281,-0.282 0.664,-0.438 1.062,-0.438 0.398,0 0.781,0.156 1.062,0.438 0.282,0.281 0.438,0.664 0.438,1.062 z" /><path
         id="path272"
         style="fill:#ffffff;fill-opacity:1;fill-rule:evenodd;stroke:none"
         d="m 94.5,97 c 0,0.398 -0.156,0.781 -0.438,1.062 C 93.781,98.344 93.398,98.5 93,98.5 92.602,98.5 92.219,98.344 91.938,98.062 91.656,97.781 91.5,97.398 91.5,97 c 0,-0.398 0.156,-0.781 0.438,-1.062 C 92.219,95.656 92.602,95.5 93,95.5 c 0.398,0 0.781,0.156 1.062,0.438 0.282,0.281 0.438,0.664 0.438,1.062 z" /><path
         id="path274"
         style="fill:#ffffff;fill-opacity:1;fill-rule:evenodd;stroke:none"
         d="m 246.5,105 c 0,0.398 -0.156,0.781 -0.438,1.062 -0.281,0.282 -0.664,0.438 -1.062,0.438 -0.398,0 -0.781,-0.156 -1.062,-0.438 -0.282,-0.281 -0.438,-0.664 -0.438,-1.062 0,-0.398 0.156,-0.781 0.438,-1.062 0.281,-0.282 0.664,-0.438 1.062,-0.438 0.398,0 0.781,0.156 1.062,0.438 0.282,0.281 0.438,0.664 0.438,1.062 z" /><path
         id="path276"
         style="fill:#ffffff;fill-opacity:1;fill-rule:evenodd;stroke:none"
         d="m 223.5,80 c 0,0.398 -0.156,0.781 -0.438,1.062 -0.281,0.282 -0.664,0.438 -1.062,0.438 -0.398,0 -0.781,-0.156 -1.062,-0.438 C 220.656,80.781 220.5,80.398 220.5,80 c 0,-0.398 0.156,-0.781 0.438,-1.062 0.281,-0.282 0.664,-0.438 1.062,-0.438 0.398,0 0.781,0.156 1.062,0.438 0.282,0.281 0.438,0.664 0.438,1.062 z" /><path
         id="path278"
         style="fill:#ffffff;fill-opacity:1;fill-rule:evenodd;stroke:none"
         d="m 105.5,107 c 0,0.398 -0.156,0.781 -0.438,1.062 -0.281,0.282 -0.664,0.438 -1.062,0.438 -0.398,0 -0.781,-0.156 -1.062,-0.438 -0.282,-0.281 -0.438,-0.664 -0.438,-1.062 0,-0.398 0.156,-0.781 0.438,-1.062 0.281,-0.282 0.664,-0.438 1.062,-0.438 0.398,0 0.781,0.156 1.062,0.438 0.282,0.281 0.438,0.664 0.438,1.062 z" /><path
         id="path280"
         style="fill:#ffffff;fill-opacity:1;fill-rule:evenodd;stroke:none"
         d="m 131.5,285 c 0,0.398 -0.156,0.781 -0.438,1.062 -0.281,0.282 -0.664,0.438 -1.062,0.438 -0.398,0 -0.781,-0.156 -1.062,-0.438 -0.282,-0.281 -0.438,-0.664 -0.438,-1.062 0,-0.398 0.156,-0.781 0.438,-1.062 0.281,-0.282 0.664,-0.438 1.062,-0.438 0.398,0 0.781,0.156 1.062,0.438 0.282,0.281 0.438,0.664 0.438,1.062 z" /><path
         id="path282"
         style="fill:#ffffff;fill-opacity:1;fill-rule:evenodd;stroke:none"
         d="m 273.5,121 c 0,0.398 -0.156,0.781 -0.438,1.062 -0.281,0.282 -0.664,0.438 -1.062,0.438 -0.398,0 -0.781,-0.156 -1.062,-0.438 -0.282,-0.281 -0.438,-0.664 -0.438,-1.062 0,-0.398 0.156,-0.781 0.438,-1.062 0.281,-0.282 0.664,-0.438 1.062,-0.438 0.398,0 0.781,0.156 1.062,0.438 0.282,0.281 0.438,0.664 0.438,1.062 z" /><path
         id="path284"
         style="fill:#ffffff;fill-opacity:1;fill-rule:evenodd;stroke:none"
         d="m 251.5,83 c 0,0.398 -0.156,0.781 -0.438,1.062 -0.281,0.282 -0.664,0.438 -1.062,0.438 -0.398,0 -0.781,-0.156 -1.062,-0.438 C 248.656,83.781 248.5,83.398 248.5,83 c 0,-0.398 0.156,-0.781 0.438,-1.062 0.281,-0.282 0.664,-0.438 1.062,-0.438 0.398,0 0.781,0.156 1.062,0.438 0.282,0.281 0.438,0.664 0.438,1.062 z" /><path
         id="path286"
         style="fill:#ffffff;fill-opacity:1;fill-rule:evenodd;stroke:none"
         d="m 257.5,133 c 0,0.398 -0.156,0.781 -0.438,1.062 -0.281,0.282 -0.664,0.438 -1.062,0.438 -0.398,0 -0.781,-0.156 -1.062,-0.438 -0.282,-0.281 -0.438,-0.664 -0.438,-1.062 0,-0.398 0.156,-0.781 0.438,-1.062 0.281,-0.282 0.664,-0.438 1.062,-0.438 0.398,0 0.781,0.156 1.062,0.438 0.282,0.281 0.438,0.664 0.438,1.062 z" /><path
         id="path288"
         style="fill:#ffffff;fill-opacity:1;fill-rule:evenodd;stroke:none"
         d="m 197.5,285 c 0,0.398 -0.156,0.781 -0.438,1.062 -0.281,0.282 -0.664,0.438 -1.062,0.438 -0.398,0 -0.781,-0.156 -1.062,-0.438 -0.282,-0.281 -0.438,-0.664 -0.438,-1.062 0,-0.398 0.156,-0.781 0.438,-1.062 0.281,-0.282 0.664,-0.438 1.062,-0.438 0.398,0 0.781,0.156 1.062,0.438 0.282,0.281 0.438,0.664 0.438,1.062 z" /><path
         id="path290"
         style="fill:#ffffff;fill-opacity:1;fill-rule:evenodd;stroke:none"
         d="m 254.5,264 c 0,0.398 -0.156,0.781 -0.438,1.062 -0.281,0.282 -0.664,0.438 -1.062,0.438 -0.398,0 -0.781,-0.156 -1.062,-0.438 -0.282,-0.281 -0.438,-0.664 -0.438,-1.062 0,-0.398 0.156,-0.781 0.438,-1.062 0.281,-0.282 0.664,-0.438 1.062,-0.438 0.398,0 0.781,0.156 1.062,0.438 0.282,0.281 0.438,0.664 0.438,1.062 z" /><path
         id="path292"
         style="fill:#ffffff;fill-opacity:1;fill-rule:evenodd;stroke:none"
         d="m 75.5,180 c 0,0.398 -0.156,0.781 -0.438,1.062 -0.281,0.282 -0.664,0.438 -1.062,0.438 -0.398,0 -0.781,-0.156 -1.062,-0.438 C 72.656,180.781 72.5,180.398 72.5,180 c 0,-0.398 0.156,-0.781 0.438,-1.062 0.281,-0.282 0.664,-0.438 1.062,-0.438 0.398,0 0.781,0.156 1.062,0.438 0.282,0.281 0.438,0.664 0.438,1.062 z" /><path
         id="path294"
         style="fill:#ffffff;fill-opacity:1;fill-rule:evenodd;stroke:none"
         d="m 268.5,126 c 0,0.398 -0.156,0.781 -0.438,1.062 -0.281,0.282 -0.664,0.438 -1.062,0.438 -0.398,0 -0.781,-0.156 -1.062,-0.438 -0.282,-0.281 -0.438,-0.664 -0.438,-1.062 0,-0.398 0.156,-0.781 0.438,-1.062 0.281,-0.282 0.664,-0.438 1.062,-0.438 0.398,0 0.781,0.156 1.062,0.438 0.282,0.281 0.438,0.664 0.438,1.062 z" /><path
         id="path296"
         style="fill:#ffffff;fill-opacity:1;fill-rule:evenodd;stroke:none"
         d="m 228.5,102 c 0,0.398 -0.156,0.781 -0.438,1.062 -0.281,0.282 -0.664,0.438 -1.062,0.438 -0.398,0 -0.781,-0.156 -1.062,-0.438 -0.282,-0.281 -0.438,-0.664 -0.438,-1.062 0,-0.398 0.156,-0.781 0.438,-1.062 0.281,-0.282 0.664,-0.438 1.062,-0.438 0.398,0 0.781,0.156 1.062,0.438 0.282,0.281 0.438,0.664 0.438,1.062 z" /><path
         id="path298"
         style="fill:#ffffff;fill-opacity:1;fill-rule:evenodd;stroke:none"
         d="m 122.5,272 c 0,0.398 -0.156,0.781 -0.438,1.062 -0.281,0.282 -0.664,0.438 -1.062,0.438 -0.398,0 -0.781,-0.156 -1.062,-0.438 -0.282,-0.281 -0.438,-0.664 -0.438,-1.062 0,-0.398 0.156,-0.781 0.438,-1.062 0.281,-0.282 0.664,-0.438 1.062,-0.438 0.398,0 0.781,0.156 1.062,0.438 0.282,0.281 0.438,0.664 0.438,1.062 z" /><path
         id="path300"
         style="fill:#ffffff;fill-opacity:1;fill-rule:evenodd;stroke:none"
         d="m 259.5,120 c 0,0.398 -0.156,0.781 -0.438,1.062 -0.281,0.282 -0.664,0.438 -1.062,0.438 -0.398,0 -0.781,-0.156 -1.062,-0.438 -0.282,-0.281 -0.438,-0.664 -0.438,-1.062 0,-0.398 0.156,-0.781 0.438,-1.062 0.281,-0.282 0.664,-0.438 1.062,-0.438 0.398,0 0.781,0.156 1.062,0.438 0.282,0.281 0.438,0.664 0.438,1.062 z" /><path
         id="path302"
         style="fill:#ffffff;fill-opacity:1;fill-rule:evenodd;stroke:none"
         d="m 238.5,280 c 0,0.398 -0.156,0.781 -0.438,1.062 -0.281,0.282 -0.664,0.438 -1.062,0.438 -0.398,0 -0.781,-0.156 -1.062,-0.438 -0.282,-0.281 -0.438,-0.664 -0.438,-1.062 0,-0.398 0.156,-0.781 0.438,-1.062 0.281,-0.282 0.664,-0.438 1.062,-0.438 0.398,0 0.781,0.156 1.062,0.438 0.282,0.281 0.438,0.664 0.438,1.062 z" /><path
         id="path304"
         style="fill:#ffffff;fill-opacity:1;fill-rule:evenodd;stroke:none"
         d="m 286.5,126 c 0,0.398 -0.156,0.781 -0.438,1.062 -0.281,0.282 -0.664,0.438 -1.062,0.438 -0.398,0 -0.781,-0.156 -1.062,-0.438 -0.282,-0.281 -0.438,-0.664 -0.438,-1.062 0,-0.398 0.156,-0.781 0.438,-1.062 0.281,-0.282 0.664,-0.438 1.062,-0.438 0.398,0 0.781,0.156 1.062,0.438 0.282,0.281 0.438,0.664 0.438,1.062 z" /><path
         id="path306"
         style="fill:#ffffff;fill-opacity:1;fill-rule:evenodd;stroke:none"
         d="m 166.5,80 c 0,0.398 -0.156,0.781 -0.438,1.062 -0.281,0.282 -0.664,0.438 -1.062,0.438 -0.398,0 -0.781,-0.156 -1.062,-0.438 C 163.656,80.781 163.5,80.398 163.5,80 c 0,-0.398 0.156,-0.781 0.438,-1.062 0.281,-0.282 0.664,-0.438 1.062,-0.438 0.398,0 0.781,0.156 1.062,0.438 0.282,0.281 0.438,0.664 0.438,1.062 z" /><path
         id="path308"
         style="fill:#ffffff;fill-opacity:1;fill-rule:evenodd;stroke:none"
         d="m 83.5,130 c 0,0.398 -0.156,0.781 -0.438,1.062 -0.281,0.282 -0.664,0.438 -1.062,0.438 -0.398,0 -0.781,-0.156 -1.062,-0.438 C 80.656,130.781 80.5,130.398 80.5,130 c 0,-0.398 0.156,-0.781 0.438,-1.062 0.281,-0.282 0.664,-0.438 1.062,-0.438 0.398,0 0.781,0.156 1.062,0.438 0.282,0.281 0.438,0.664 0.438,1.062 z" /><path
         id="path310"
         style="fill:#ffffff;fill-opacity:1;fill-rule:evenodd;stroke:none"
         d="m 161.5,293 c 0,0.398 -0.156,0.781 -0.438,1.062 -0.281,0.282 -0.664,0.438 -1.062,0.438 -0.398,0 -0.781,-0.156 -1.062,-0.438 -0.282,-0.281 -0.438,-0.664 -0.438,-1.062 0,-0.398 0.156,-0.781 0.438,-1.062 0.281,-0.282 0.664,-0.438 1.062,-0.438 0.398,0 0.781,0.156 1.062,0.438 0.282,0.281 0.438,0.664 0.438,1.062 z" /><path
         id="path312"
         style="fill:#ffffff;fill-opacity:1;fill-rule:evenodd;stroke:none"
         d="m 244.5,293 c 0,0.398 -0.156,0.781 -0.438,1.062 -0.281,0.282 -0.664,0.438 -1.062,0.438 -0.398,0 -0.781,-0.156 -1.062,-0.438 -0.282,-0.281 -0.438,-0.664 -0.438,-1.062 0,-0.398 0.156,-0.781 0.438,-1.062 0.281,-0.282 0.664,-0.438 1.062,-0.438 0.398,0 0.781,0.156 1.062,0.438 0.282,0.281 0.438,0.664 0.438,1.062 z" /><path
         id="path314"
         style="fill:#ffffff;fill-opacity:1;fill-rule:evenodd;stroke:none"
         d="m 71.5,216 c 0,0.398 -0.156,0.781 -0.438,1.062 -0.281,0.282 -0.664,0.438 -1.062,0.438 -0.398,0 -0.781,-0.156 -1.062,-0.438 C 68.656,216.781 68.5,216.398 68.5,216 c 0,-0.398 0.156,-0.781 0.438,-1.062 0.281,-0.282 0.664,-0.438 1.062,-0.438 0.398,0 0.781,0.156 1.062,0.438 0.282,0.281 0.438,0.664 0.438,1.062 z" /><path
         id="path316"
         style="fill:#ffffff;fill-opacity:1;fill-rule:evenodd;stroke:none"
         d="m 142.5,97 c 0,0.398 -0.156,0.781 -0.438,1.062 -0.281,0.282 -0.664,0.438 -1.062,0.438 -0.398,0 -0.781,-0.156 -1.062,-0.438 C 139.656,97.781 139.5,97.398 139.5,97 c 0,-0.398 0.156,-0.781 0.438,-1.062 0.281,-0.282 0.664,-0.438 1.062,-0.438 0.398,0 0.781,0.156 1.062,0.438 0.282,0.281 0.438,0.664 0.438,1.062 z" /><path
         id="path318"
         style="fill:#ffffff;fill-opacity:1;fill-rule:evenodd;stroke:none"
         d="m 185.5,66 c 0,0.398 -0.156,0.781 -0.438,1.062 -0.281,0.282 -0.664,0.438 -1.062,0.438 -0.398,0 -0.781,-0.156 -1.062,-0.438 C 182.656,66.781 182.5,66.398 182.5,66 c 0,-0.398 0.156,-0.781 0.438,-1.062 0.281,-0.282 0.664,-0.438 1.062,-0.438 0.398,0 0.781,0.156 1.062,0.438 0.282,0.281 0.438,0.664 0.438,1.062 z" /><path
         id="path320"
         style="fill:#ffffff;fill-opacity:1;fill-rule:evenodd;stroke:none"
         d="m 302.5,137 c 0,0.398 -0.156,0.781 -0.438,1.062 -0.281,0.282 -0.664,0.438 -1.062,0.438 -0.398,0 -0.781,-0.156 -1.062,-0.438 -0.282,-0.281 -0.438,-0.664 -0.438,-1.062 0,-0.398 0.156,-0.781 0.438,-1.062 0.281,-0.282 0.664,-0.438 1.062,-0.438 0.398,0 0.781,0.156 1.062,0.438 0.282,0.281 0.438,0.664 0.438,1.062 z" /><path
         id="path322"
         style="fill:#ffffff;fill-opacity:1;fill-rule:evenodd;stroke:none"
         d="m 119.5,250 c 0,0.398 -0.156,0.781 -0.438,1.062 -0.281,0.282 -0.664,0.438 -1.062,0.438 -0.398,0 -0.781,-0.156 -1.062,-0.438 -0.282,-0.281 -0.438,-0.664 -0.438,-1.062 0,-0.398 0.156,-0.781 0.438,-1.062 0.281,-0.282 0.664,-0.438 1.062,-0.438 0.398,0 0.781,0.156 1.062,0.438 0.282,0.281 0.438,0.664 0.438,1.062 z" /><path
         id="path324"
         style="fill:#ffffff;fill-opacity:1;fill-rule:evenodd;stroke:none"
         d="m 166.5,71 c 0,0.398 -0.156,0.781 -0.438,1.062 -0.281,0.282 -0.664,0.438 -1.062,0.438 -0.398,0 -0.781,-0.156 -1.062,-0.438 C 163.656,71.781 163.5,71.398 163.5,71 c 0,-0.398 0.156,-0.781 0.438,-1.062 0.281,-0.282 0.664,-0.438 1.062,-0.438 0.398,0 0.781,0.156 1.062,0.438 0.282,0.281 0.438,0.664 0.438,1.062 z" /><path
         id="path326"
         style="fill:#ffffff;fill-opacity:1;fill-rule:evenodd;stroke:none"
         d="m 248.5,280 c 0,0.398 -0.156,0.781 -0.438,1.062 -0.281,0.282 -0.664,0.438 -1.062,0.438 -0.398,0 -0.781,-0.156 -1.062,-0.438 -0.282,-0.281 -0.438,-0.664 -0.438,-1.062 0,-0.398 0.156,-0.781 0.438,-1.062 0.281,-0.282 0.664,-0.438 1.062,-0.438 0.398,0 0.781,0.156 1.062,0.438 0.282,0.281 0.438,0.664 0.438,1.062 z" /><path
         id="path328"
         style="fill:#ffffff;fill-opacity:1;fill-rule:evenodd;stroke:none"
         d="m 163.5,279 c 0,0.398 -0.156,0.781 -0.438,1.062 -0.281,0.282 -0.664,0.438 -1.062,0.438 -0.398,0 -0.781,-0.156 -1.062,-0.438 -0.282,-0.281 -0.438,-0.664 -0.438,-1.062 0,-0.398 0.156,-0.781 0.438,-1.062 0.281,-0.282 0.664,-0.438 1.062,-0.438 0.398,0 0.781,0.156 1.062,0.438 0.282,0.281 0.438,0.664 0.438,1.062 z" /><path
         id="path330"
         style="fill:#ffffff;fill-opacity:1;fill-rule:evenodd;stroke:none"
         d="m 200.5,80 c 0,0.398 -0.156,0.781 -0.438,1.062 -0.281,0.282 -0.664,0.438 -1.062,0.438 -0.398,0 -0.781,-0.156 -1.062,-0.438 C 197.656,80.781 197.5,80.398 197.5,80 c 0,-0.398 0.156,-0.781 0.438,-1.062 0.281,-0.282 0.664,-0.438 1.062,-0.438 0.398,0 0.781,0.156 1.062,0.438 0.282,0.281 0.438,0.664 0.438,1.062 z" /><path
         id="path332"
         style="fill:#ffffff;fill-opacity:1;fill-rule:evenodd;stroke:none"
         d="m 280.5,162 c 0,0.398 -0.156,0.781 -0.438,1.062 -0.281,0.282 -0.664,0.438 -1.062,0.438 -0.398,0 -0.781,-0.156 -1.062,-0.438 -0.282,-0.281 -0.438,-0.664 -0.438,-1.062 0,-0.398 0.156,-0.781 0.438,-1.062 0.281,-0.282 0.664,-0.438 1.062,-0.438 0.398,0 0.781,0.156 1.062,0.438 0.282,0.281 0.438,0.664 0.438,1.062 z" /><path
         id="path334"
         style="fill:#ffffff;fill-opacity:1;fill-rule:evenodd;stroke:none"
         d="m 239.5,77 c 0,0.398 -0.156,0.781 -0.438,1.062 -0.281,0.282 -0.664,0.438 -1.062,0.438 -0.398,0 -0.781,-0.156 -1.062,-0.438 C 236.656,77.781 236.5,77.398 236.5,77 c 0,-0.398 0.156,-0.781 0.438,-1.062 0.281,-0.282 0.664,-0.438 1.062,-0.438 0.398,0 0.781,0.156 1.062,0.438 0.282,0.281 0.438,0.664 0.438,1.062 z" /><path
         id="path336"
         style="fill:#ffffff;fill-opacity:1;fill-rule:evenodd;stroke:none"
         d="m 149.5,81 c 0,0.398 -0.156,0.781 -0.438,1.062 -0.281,0.282 -0.664,0.438 -1.062,0.438 -0.398,0 -0.781,-0.156 -1.062,-0.438 C 146.656,81.781 146.5,81.398 146.5,81 c 0,-0.398 0.156,-0.781 0.438,-1.062 0.281,-0.282 0.664,-0.438 1.062,-0.438 0.398,0 0.781,0.156 1.062,0.438 0.282,0.281 0.438,0.664 0.438,1.062 z" /><path
         id="path338"
         style="fill:#ffffff;fill-opacity:1;fill-rule:evenodd;stroke:none"
         d="m 257.5,125 c 0,0.398 -0.156,0.781 -0.438,1.062 -0.281,0.282 -0.664,0.438 -1.062,0.438 -0.398,0 -0.781,-0.156 -1.062,-0.438 -0.282,-0.281 -0.438,-0.664 -0.438,-1.062 0,-0.398 0.156,-0.781 0.438,-1.062 0.281,-0.282 0.664,-0.438 1.062,-0.438 0.398,0 0.781,0.156 1.062,0.438 0.282,0.281 0.438,0.664 0.438,1.062 z" /><path
         id="path340"
         style="fill:#ffffff;fill-opacity:1;fill-rule:evenodd;stroke:none"
         d="m 208.5,88 c 0,0.398 -0.156,0.781 -0.438,1.062 -0.281,0.282 -0.664,0.438 -1.062,0.438 -0.398,0 -0.781,-0.156 -1.062,-0.438 C 205.656,88.781 205.5,88.398 205.5,88 c 0,-0.398 0.156,-0.781 0.438,-1.062 0.281,-0.282 0.664,-0.438 1.062,-0.438 0.398,0 0.781,0.156 1.062,0.438 0.282,0.281 0.438,0.664 0.438,1.062 z" /><path
         id="path342"
         style="fill:#ffffff;fill-opacity:1;fill-rule:evenodd;stroke:none"
         d="m 264.5,189 c 0,0.398 -0.156,0.781 -0.438,1.062 -0.281,0.282 -0.664,0.438 -1.062,0.438 -0.398,0 -0.781,-0.156 -1.062,-0.438 -0.282,-0.281 -0.438,-0.664 -0.438,-1.062 0,-0.398 0.156,-0.781 0.438,-1.062 0.281,-0.282 0.664,-0.438 1.062,-0.438 0.398,0 0.781,0.156 1.062,0.438 0.282,0.281 0.438,0.664 0.438,1.062 z" /><path
         id="path344"
         style="fill:#ffffff;fill-opacity:1;fill-rule:evenodd;stroke:none"
         d="m 98.5,111 c 0,0.398 -0.156,0.781 -0.438,1.062 -0.281,0.282 -0.664,0.438 -1.062,0.438 -0.398,0 -0.781,-0.156 -1.062,-0.438 C 95.656,111.781 95.5,111.398 95.5,111 c 0,-0.398 0.156,-0.781 0.438,-1.062 0.281,-0.282 0.664,-0.438 1.062,-0.438 0.398,0 0.781,0.156 1.062,0.438 0.282,0.281 0.438,0.664 0.438,1.062 z" /><path
         id="path346"
         style="fill:#ffffff;fill-opacity:1;fill-rule:evenodd;stroke:none"
         d="m 153.5,70 c 0,0.398 -0.156,0.781 -0.438,1.062 -0.281,0.282 -0.664,0.438 -1.062,0.438 -0.398,0 -0.781,-0.156 -1.062,-0.438 C 150.656,70.781 150.5,70.398 150.5,70 c 0,-0.398 0.156,-0.781 0.438,-1.062 0.281,-0.282 0.664,-0.438 1.062,-0.438 0.398,0 0.781,0.156 1.062,0.438 0.282,0.281 0.438,0.664 0.438,1.062 z" /><path
         id="path348"
         style="fill:#ffffff;fill-opacity:1;fill-rule:evenodd;stroke:none"
         d="m 293.5,194 c 0,0.398 -0.156,0.781 -0.438,1.062 -0.281,0.282 -0.664,0.438 -1.062,0.438 -0.398,0 -0.781,-0.156 -1.062,-0.438 -0.282,-0.281 -0.438,-0.664 -0.438,-1.062 0,-0.398 0.156,-0.781 0.438,-1.062 0.281,-0.282 0.664,-0.438 1.062,-0.438 0.398,0 0.781,0.156 1.062,0.438 0.282,0.281 0.438,0.664 0.438,1.062 z" /><path
         id="path350"
         style="fill:#ffffff;fill-opacity:1;fill-rule:evenodd;stroke:none"
         d="m 201.5,272 c 0,0.398 -0.156,0.781 -0.438,1.062 -0.281,0.282 -0.664,0.438 -1.062,0.438 -0.398,0 -0.781,-0.156 -1.062,-0.438 -0.282,-0.281 -0.438,-0.664 -0.438,-1.062 0,-0.398 0.156,-0.781 0.438,-1.062 0.281,-0.282 0.664,-0.438 1.062,-0.438 0.398,0 0.781,0.156 1.062,0.438 0.282,0.281 0.438,0.664 0.438,1.062 z" /><path
         id="path352"
         style="fill:#ffffff;fill-opacity:1;fill-rule:evenodd;stroke:none"
         d="m 283.5,155 c 0,0.398 -0.156,0.781 -0.438,1.062 -0.281,0.282 -0.664,0.438 -1.062,0.438 -0.398,0 -0.781,-0.156 -1.062,-0.438 -0.282,-0.281 -0.438,-0.664 -0.438,-1.062 0,-0.398 0.156,-0.781 0.438,-1.062 0.281,-0.282 0.664,-0.438 1.062,-0.438 0.398,0 0.781,0.156 1.062,0.438 0.282,0.281 0.438,0.664 0.438,1.062 z" /><path
         id="path354"
         style="fill:#ffffff;fill-opacity:1;fill-rule:evenodd;stroke:none"
         d="m 129.5,91 c 0,0.398 -0.156,0.781 -0.438,1.062 -0.281,0.282 -0.664,0.438 -1.062,0.438 -0.398,0 -0.781,-0.156 -1.062,-0.438 C 126.656,91.781 126.5,91.398 126.5,91 c 0,-0.398 0.156,-0.781 0.438,-1.062 0.281,-0.282 0.664,-0.438 1.062,-0.438 0.398,0 0.781,0.156 1.062,0.438 0.282,0.281 0.438,0.664 0.438,1.062 z" /><path
         id="path356"
         style="fill:#ffffff;fill-opacity:1;fill-rule:evenodd;stroke:none"
         d="m 145.5,273 c 0,0.398 -0.156,0.781 -0.438,1.062 -0.281,0.282 -0.664,0.438 -1.062,0.438 -0.398,0 -0.781,-0.156 -1.062,-0.438 -0.282,-0.281 -0.438,-0.664 -0.438,-1.062 0,-0.398 0.156,-0.781 0.438,-1.062 0.281,-0.282 0.664,-0.438 1.062,-0.438 0.398,0 0.781,0.156 1.062,0.438 0.282,0.281 0.438,0.664 0.438,1.062 z" /><path
         id="path358"
         style="fill:#ffffff;fill-opacity:1;fill-rule:evenodd;stroke:none"
         d="m 209.5,81 c 0,0.398 -0.156,0.781 -0.438,1.062 -0.281,0.282 -0.664,0.438 -1.062,0.438 -0.398,0 -0.781,-0.156 -1.062,-0.438 C 206.656,81.781 206.5,81.398 206.5,81 c 0,-0.398 0.156,-0.781 0.438,-1.062 0.281,-0.282 0.664,-0.438 1.062,-0.438 0.398,0 0.781,0.156 1.062,0.438 0.282,0.281 0.438,0.664 0.438,1.062 z" /><path
         id="path360"
         style="fill:#ffffff;fill-opacity:1;fill-rule:evenodd;stroke:none"
         d="m 130.5,266 c 0,0.398 -0.156,0.781 -0.438,1.062 -0.281,0.282 -0.664,0.438 -1.062,0.438 -0.398,0 -0.781,-0.156 -1.062,-0.438 -0.282,-0.281 -0.438,-0.664 -0.438,-1.062 0,-0.398 0.156,-0.781 0.438,-1.062 0.281,-0.282 0.664,-0.438 1.062,-0.438 0.398,0 0.781,0.156 1.062,0.438 0.282,0.281 0.438,0.664 0.438,1.062 z" /><path
         id="path362"
         style="fill:#ffffff;fill-opacity:1;fill-rule:evenodd;stroke:none"
         d="m 42.5,157 c 0,0.398 -0.156,0.781 -0.438,1.062 -0.281,0.282 -0.664,0.438 -1.062,0.438 -0.398,0 -0.781,-0.156 -1.062,-0.438 C 39.656,157.781 39.5,157.398 39.5,157 c 0,-0.398 0.156,-0.781 0.438,-1.062 0.281,-0.282 0.664,-0.438 1.062,-0.438 0.398,0 0.781,0.156 1.062,0.438 0.282,0.281 0.438,0.664 0.438,1.062 z" /><path
         id="path364"
         style="fill:#ffffff;fill-opacity:1;fill-rule:evenodd;stroke:none"
         d="m 149.5,278 c 0,0.398 -0.156,0.781 -0.438,1.062 -0.281,0.282 -0.664,0.438 -1.062,0.438 -0.398,0 -0.781,-0.156 -1.062,-0.438 -0.282,-0.281 -0.438,-0.664 -0.438,-1.062 0,-0.398 0.156,-0.781 0.438,-1.062 0.281,-0.282 0.664,-0.438 1.062,-0.438 0.398,0 0.781,0.156 1.062,0.438 0.282,0.281 0.438,0.664 0.438,1.062 z" /><path
         id="path366"
         style="fill:#ffffff;fill-opacity:1;fill-rule:evenodd;stroke:none"
         d="m 66.5,167 c 0,0.398 -0.156,0.781 -0.438,1.062 -0.281,0.282 -0.664,0.438 -1.062,0.438 -0.398,0 -0.781,-0.156 -1.062,-0.438 C 63.656,167.781 63.5,167.398 63.5,167 c 0,-0.398 0.156,-0.781 0.438,-1.062 0.281,-0.282 0.664,-0.438 1.062,-0.438 0.398,0 0.781,0.156 1.062,0.438 0.282,0.281 0.438,0.664 0.438,1.062 z" /><path
         id="path368"
         style="fill:#ffffff;fill-opacity:1;fill-rule:evenodd;stroke:none"
         d="m 143.5,93 c 0,0.398 -0.156,0.781 -0.438,1.062 -0.281,0.282 -0.664,0.438 -1.062,0.438 -0.398,0 -0.781,-0.156 -1.062,-0.438 C 140.656,93.781 140.5,93.398 140.5,93 c 0,-0.398 0.156,-0.781 0.438,-1.062 0.281,-0.282 0.664,-0.438 1.062,-0.438 0.398,0 0.781,0.156 1.062,0.438 0.282,0.281 0.438,0.664 0.438,1.062 z" /><path
         id="path370"
         style="fill:#ffffff;fill-opacity:1;fill-rule:evenodd;stroke:none"
         d="m 274.5,212 c 0,0.398 -0.156,0.781 -0.438,1.062 -0.281,0.282 -0.664,0.438 -1.062,0.438 -0.398,0 -0.781,-0.156 -1.062,-0.438 -0.282,-0.281 -0.438,-0.664 -0.438,-1.062 0,-0.398 0.156,-0.781 0.438,-1.062 0.281,-0.282 0.664,-0.438 1.062,-0.438 0.398,0 0.781,0.156 1.062,0.438 0.282,0.281 0.438,0.664 0.438,1.062 z" /><path
         id="path372"
         style="fill:#ffffff;fill-opacity:1;fill-rule:evenodd;stroke:none"
         d="m 118.5,255 c 0,0.398 -0.156,0.781 -0.438,1.062 -0.281,0.282 -0.664,0.438 -1.062,0.438 -0.398,0 -0.781,-0.156 -1.062,-0.438 -0.282,-0.281 -0.438,-0.664 -0.438,-1.062 0,-0.398 0.156,-0.781 0.438,-1.062 0.281,-0.282 0.664,-0.438 1.062,-0.438 0.398,0 0.781,0.156 1.062,0.438 0.282,0.281 0.438,0.664 0.438,1.062 z" /><path
         id="path374"
         style="fill:#ffffff;fill-opacity:1;fill-rule:evenodd;stroke:none"
         d="m 126.5,266 c 0,0.398 -0.156,0.781 -0.438,1.062 -0.281,0.282 -0.664,0.438 -1.062,0.438 -0.398,0 -0.781,-0.156 -1.062,-0.438 -0.282,-0.281 -0.438,-0.664 -0.438,-1.062 0,-0.398 0.156,-0.781 0.438,-1.062 0.281,-0.282 0.664,-0.438 1.062,-0.438 0.398,0 0.781,0.156 1.062,0.438 0.282,0.281 0.438,0.664 0.438,1.062 z" /><path
         id="path376"
         style="fill:#ffffff;fill-opacity:1;fill-rule:evenodd;stroke:none"
         d="m 82.5,142 c 0,0.398 -0.156,0.781 -0.438,1.062 -0.281,0.282 -0.664,0.438 -1.062,0.438 -0.398,0 -0.781,-0.156 -1.062,-0.438 C 79.656,142.781 79.5,142.398 79.5,142 c 0,-0.398 0.156,-0.781 0.438,-1.062 0.281,-0.282 0.664,-0.438 1.062,-0.438 0.398,0 0.781,0.156 1.062,0.438 0.282,0.281 0.438,0.664 0.438,1.062 z" /><path
         id="path378"
         style="fill:#ffffff;fill-opacity:1;fill-rule:evenodd;stroke:none"
         d="m 284.5,218 c 0,0.398 -0.156,0.781 -0.438,1.062 -0.281,0.282 -0.664,0.438 -1.062,0.438 -0.398,0 -0.781,-0.156 -1.062,-0.438 -0.282,-0.281 -0.438,-0.664 -0.438,-1.062 0,-0.398 0.156,-0.781 0.438,-1.062 0.281,-0.282 0.664,-0.438 1.062,-0.438 0.398,0 0.781,0.156 1.062,0.438 0.282,0.281 0.438,0.664 0.438,1.062 z" /><path
         id="path380"
         style="fill:#ffffff;fill-opacity:1;fill-rule:evenodd;stroke:none"
         d="m 274.5,150 c 0,0.398 -0.156,0.781 -0.438,1.062 -0.281,0.282 -0.664,0.438 -1.062,0.438 -0.398,0 -0.781,-0.156 -1.062,-0.438 -0.282,-0.281 -0.438,-0.664 -0.438,-1.062 0,-0.398 0.156,-0.781 0.438,-1.062 0.281,-0.282 0.664,-0.438 1.062,-0.438 0.398,0 0.781,0.156 1.062,0.438 0.282,0.281 0.438,0.664 0.438,1.062 z" /><path
         id="path382"
         style="fill:#ffffff;fill-opacity:1;fill-rule:evenodd;stroke:none"
         d="m 204.5,82 c 0,0.398 -0.156,0.781 -0.438,1.062 -0.281,0.282 -0.664,0.438 -1.062,0.438 -0.398,0 -0.781,-0.156 -1.062,-0.438 C 201.656,82.781 201.5,82.398 201.5,82 c 0,-0.398 0.156,-0.781 0.438,-1.062 0.281,-0.282 0.664,-0.438 1.062,-0.438 0.398,0 0.781,0.156 1.062,0.438 0.282,0.281 0.438,0.664 0.438,1.062 z" /><path
         id="path384"
         style="fill:#ffffff;fill-opacity:1;fill-rule:evenodd;stroke:none"
         d="m 208.5,280 c 0,0.398 -0.156,0.781 -0.438,1.062 -0.281,0.282 -0.664,0.438 -1.062,0.438 -0.398,0 -0.781,-0.156 -1.062,-0.438 -0.282,-0.281 -0.438,-0.664 -0.438,-1.062 0,-0.398 0.156,-0.781 0.438,-1.062 0.281,-0.282 0.664,-0.438 1.062,-0.438 0.398,0 0.781,0.156 1.062,0.438 0.282,0.281 0.438,0.664 0.438,1.062 z" /><path
         id="path386"
         style="fill:#ffffff;fill-opacity:1;fill-rule:evenodd;stroke:none"
         d="m 292.5,200 c 0,0.398 -0.156,0.781 -0.438,1.062 -0.281,0.282 -0.664,0.438 -1.062,0.438 -0.398,0 -0.781,-0.156 -1.062,-0.438 -0.282,-0.281 -0.438,-0.664 -0.438,-1.062 0,-0.398 0.156,-0.781 0.438,-1.062 0.281,-0.282 0.664,-0.438 1.062,-0.438 0.398,0 0.781,0.156 1.062,0.438 0.282,0.281 0.438,0.664 0.438,1.062 z" /><path
         id="path388"
         style="fill:#ffffff;fill-opacity:1;fill-rule:evenodd;stroke:none"
         d="m 159.5,81 c 0,0.398 -0.156,0.781 -0.438,1.062 -0.281,0.282 -0.664,0.438 -1.062,0.438 -0.398,0 -0.781,-0.156 -1.062,-0.438 C 156.656,81.781 156.5,81.398 156.5,81 c 0,-0.398 0.156,-0.781 0.438,-1.062 0.281,-0.282 0.664,-0.438 1.062,-0.438 0.398,0 0.781,0.156 1.062,0.438 0.282,0.281 0.438,0.664 0.438,1.062 z" /><path
         id="path390"
         style="fill:#ffffff;fill-opacity:1;fill-rule:evenodd;stroke:none"
         d="m 242.5,69 c 0,0.398 -0.156,0.781 -0.438,1.062 -0.281,0.282 -0.664,0.438 -1.062,0.438 -0.398,0 -0.781,-0.156 -1.062,-0.438 C 239.656,69.781 239.5,69.398 239.5,69 c 0,-0.398 0.156,-0.781 0.438,-1.062 0.281,-0.282 0.664,-0.438 1.062,-0.438 0.398,0 0.781,0.156 1.062,0.438 0.282,0.281 0.438,0.664 0.438,1.062 z" /><path
         id="path392"
         style="fill:#ffffff;fill-opacity:1;fill-rule:evenodd;stroke:none"
         d="m 173.5,75 c 0,0.398 -0.156,0.781 -0.438,1.062 -0.281,0.282 -0.664,0.438 -1.062,0.438 -0.398,0 -0.781,-0.156 -1.062,-0.438 C 170.656,75.781 170.5,75.398 170.5,75 c 0,-0.398 0.156,-0.781 0.438,-1.062 0.281,-0.282 0.664,-0.438 1.062,-0.438 0.398,0 0.781,0.156 1.062,0.438 0.282,0.281 0.438,0.664 0.438,1.062 z" /><path
         id="path394"
         style="fill:#ffffff;fill-opacity:1;fill-rule:evenodd;stroke:none"
         d="m 283.5,198 c 0,0.398 -0.156,0.781 -0.438,1.062 -0.281,0.282 -0.664,0.438 -1.062,0.438 -0.398,0 -0.781,-0.156 -1.062,-0.438 -0.282,-0.281 -0.438,-0.664 -0.438,-1.062 0,-0.398 0.156,-0.781 0.438,-1.062 0.281,-0.282 0.664,-0.438 1.062,-0.438 0.398,0 0.781,0.156 1.062,0.438 0.282,0.281 0.438,0.664 0.438,1.062 z" /><path
         id="path396"
         style="fill:#ffffff;fill-opacity:1;fill-rule:evenodd;stroke:none"
         d="m 234.5,89 c 0,0.398 -0.156,0.781 -0.438,1.062 -0.281,0.282 -0.664,0.438 -1.062,0.438 -0.398,0 -0.781,-0.156 -1.062,-0.438 C 231.656,89.781 231.5,89.398 231.5,89 c 0,-0.398 0.156,-0.781 0.438,-1.062 0.281,-0.282 0.664,-0.438 1.062,-0.438 0.398,0 0.781,0.156 1.062,0.438 0.282,0.281 0.438,0.664 0.438,1.062 z" /><path
         id="path398"
         style="fill:#ffffff;fill-opacity:1;fill-rule:evenodd;stroke:none"
         d="m 280.5,138 c 0,0.398 -0.156,0.781 -0.438,1.062 -0.281,0.282 -0.664,0.438 -1.062,0.438 -0.398,0 -0.781,-0.156 -1.062,-0.438 -0.282,-0.281 -0.438,-0.664 -0.438,-1.062 0,-0.398 0.156,-0.781 0.438,-1.062 0.281,-0.282 0.664,-0.438 1.062,-0.438 0.398,0 0.781,0.156 1.062,0.438 0.282,0.281 0.438,0.664 0.438,1.062 z" /><path
         id="path400"
         style="fill:#ffffff;fill-opacity:1;fill-rule:evenodd;stroke:none"
         d="m 157.5,87 c 0,0.398 -0.156,0.781 -0.438,1.062 -0.281,0.282 -0.664,0.438 -1.062,0.438 -0.398,0 -0.781,-0.156 -1.062,-0.438 C 154.656,87.781 154.5,87.398 154.5,87 c 0,-0.398 0.156,-0.781 0.438,-1.062 0.281,-0.282 0.664,-0.438 1.062,-0.438 0.398,0 0.781,0.156 1.062,0.438 0.282,0.281 0.438,0.664 0.438,1.062 z" /><path
         id="path402"
         style="fill:#ffffff;fill-opacity:1;fill-rule:evenodd;stroke:none"
         d="m 173.5,275 c 0,0.398 -0.156,0.781 -0.438,1.062 -0.281,0.282 -0.664,0.438 -1.062,0.438 -0.398,0 -0.781,-0.156 -1.062,-0.438 -0.282,-0.281 -0.438,-0.664 -0.438,-1.062 0,-0.398 0.156,-0.781 0.438,-1.062 0.281,-0.282 0.664,-0.438 1.062,-0.438 0.398,0 0.781,0.156 1.062,0.438 0.282,0.281 0.438,0.664 0.438,1.062 z" /><path
         id="path404"
         style="fill:#ffffff;fill-opacity:1;fill-rule:evenodd;stroke:none"
         d="m 272.5,240 c 0,0.398 -0.156,0.781 -0.438,1.062 -0.281,0.282 -0.664,0.438 -1.062,0.438 -0.398,0 -0.781,-0.156 -1.062,-0.438 -0.282,-0.281 -0.438,-0.664 -0.438,-1.062 0,-0.398 0.156,-0.781 0.438,-1.062 0.281,-0.282 0.664,-0.438 1.062,-0.438 0.398,0 0.781,0.156 1.062,0.438 0.282,0.281 0.438,0.664 0.438,1.062 z" /><path
         id="path406"
         style="fill:#ffffff;fill-opacity:1;fill-rule:evenodd;stroke:none"
         d="m 296.5,189 c 0,0.398 -0.156,0.781 -0.438,1.062 -0.281,0.282 -0.664,0.438 -1.062,0.438 -0.398,0 -0.781,-0.156 -1.062,-0.438 -0.282,-0.281 -0.438,-0.664 -0.438,-1.062 0,-0.398 0.156,-0.781 0.438,-1.062 0.281,-0.282 0.664,-0.438 1.062,-0.438 0.398,0 0.781,0.156 1.062,0.438 0.282,0.281 0.438,0.664 0.438,1.062 z" /><path
         id="path408"
         style="fill:#ffffff;fill-opacity:1;fill-rule:evenodd;stroke:none"
         d="m 227.5,278 c 0,0.398 -0.156,0.781 -0.438,1.062 -0.281,0.282 -0.664,0.438 -1.062,0.438 -0.398,0 -0.781,-0.156 -1.062,-0.438 -0.282,-0.281 -0.438,-0.664 -0.438,-1.062 0,-0.398 0.156,-0.781 0.438,-1.062 0.281,-0.282 0.664,-0.438 1.062,-0.438 0.398,0 0.781,0.156 1.062,0.438 0.282,0.281 0.438,0.664 0.438,1.062 z" /><path
         id="path410"
         style="fill:#ffffff;fill-opacity:1;fill-rule:evenodd;stroke:none"
         d="m 119.5,87 c 0,0.398 -0.156,0.781 -0.438,1.062 -0.281,0.282 -0.664,0.438 -1.062,0.438 -0.398,0 -0.781,-0.156 -1.062,-0.438 C 116.656,87.781 116.5,87.398 116.5,87 c 0,-0.398 0.156,-0.781 0.438,-1.062 0.281,-0.282 0.664,-0.438 1.062,-0.438 0.398,0 0.781,0.156 1.062,0.438 0.282,0.281 0.438,0.664 0.438,1.062 z" /><path
         id="path412"
         style="fill:#ffffff;fill-opacity:1;fill-rule:evenodd;stroke:none"
         d="m 129.5,104 c 0,0.398 -0.156,0.781 -0.438,1.062 -0.281,0.282 -0.664,0.438 -1.062,0.438 -0.398,0 -0.781,-0.156 -1.062,-0.438 -0.282,-0.281 -0.438,-0.664 -0.438,-1.062 0,-0.398 0.156,-0.781 0.438,-1.062 0.281,-0.282 0.664,-0.438 1.062,-0.438 0.398,0 0.781,0.156 1.062,0.438 0.282,0.281 0.438,0.664 0.438,1.062 z" /><path
         id="path414"
         style="fill:none;stroke:#e42414;stroke-width:1;stroke-linecap:square;stroke-linejoin:miter;stroke-miterlimit:3.25;stroke-dasharray:none;stroke-opacity:1"
         d="m 181.352,69 c 0,11.234 -4.461,22.004 -12.403,29.949 -7.945,7.942 -18.715,12.403 -29.949,12.403 -11.234,0 -22.004,-4.461 -29.949,-12.403 C 101.109,91.004 96.648,80.234 96.648,69 c 0,-11.234 4.461,-22.004 12.403,-29.949 7.945,-7.942 18.715,-12.403 29.949,-12.403 11.234,0 22.004,4.461 29.949,12.403 7.942,7.945 12.403,18.715 12.403,29.949 z" /><path
         id="path416"
         style="fill:none;stroke:#5e81b5;stroke-width:1.60000002;stroke-linecap:square;stroke-linejoin:miter;stroke-miterlimit:3.25;stroke-dasharray:none;stroke-opacity:1"
         d="m 111.027,62.07 -0.101,0.11 -0.102,0.105 -0.203,0.215 -0.394,0.43 -0.77,0.867 -1.441,1.762 -0.094,0.117 -0.094,0.121 -0.183,0.242 -0.36,0.484 -0.691,0.969 -0.043,0.063 -0.039,0.062 -0.086,0.121 -0.164,0.242 -0.321,0.489 -0.613,0.98 -0.035,0.059 -0.035,0.054 -0.067,0.118 -0.136,0.226 -0.262,0.457 -0.504,0.918 -0.027,0.055 -0.032,0.059 -0.058,0.113 -0.121,0.23 -0.227,0.457 -0.429,0.91 -0.028,0.059 -0.023,0.055 -0.051,0.109 -0.098,0.223 -0.191,0.445 -0.352,0.887 -0.023,0.055 -0.02,0.054 -0.039,0.113 -0.082,0.219 -0.156,0.438 -0.285,0.875 -0.016,0.058 -0.019,0.059 -0.035,0.117 -0.067,0.234 -0.129,0.469 -0.031,0.117 -0.031,0.114 -0.059,0.234 -0.109,0.461 -0.024,0.117 -0.027,0.113 -0.047,0.231 -0.012,0.055 -0.011,0.058 -0.024,0.114 -0.043,0.226 -0.008,0.059 -0.011,0.054 -0.059,0.34 -0.066,0.449 -0.016,0.102 -0.012,0.105 -0.027,0.207 -0.008,0.051 -0.004,0.051 -0.011,0.106 -0.024,0.203 -0.008,0.101 -0.011,0.106 -0.036,0.457 -0.003,0.047 -0.004,0.101 -0.008,0.102 -0.004,0.101 -0.004,0.047 v 0.051 l -0.004,0.101 -0.004,0.051 v 0.098 l -0.004,0.051 v 0.148 l -0.004,0.047 v 0.539 l 0.004,0.051 v 0.144 l 0.004,0.047 v 0.055 l 0.004,0.051 v 0.051 l 0.004,0.054 v 0.051 l 0.004,0.051 0.004,0.105 0.008,0.102 0.004,0.101 0.003,0.055 0.016,0.203 0.008,0.051 0.016,0.203 0.011,0.102 0.004,0.046 0.008,0.051 0.012,0.102 0.023,0.199 0.008,0.051 0.008,0.047 0.015,0.097 0.028,0.2 0.008,0.046 0.007,0.051 0.02,0.098 0.035,0.191 0.008,0.047 0.012,0.051 0.015,0.094 0.043,0.191 0.086,0.375 0.024,0.094 0.023,0.09 0.051,0.179 0.105,0.36 0.016,0.043 0.012,0.043 0.027,0.09 0.059,0.171 0.125,0.348 0.015,0.039 0.02,0.043 0.031,0.086 0.07,0.168 0.141,0.332 0.312,0.641 0.02,0.039 0.019,0.035 0.043,0.074 0.079,0.145 0.167,0.281 0.02,0.035 0.023,0.035 0.043,0.071 0.27,0.41 0.023,0.031 0.024,0.035 0.047,0.067 0.097,0.132 0.2,0.258 0.418,0.5 0.027,0.031 0.031,0.036 0.059,0.062 0.121,0.129 0.25,0.254 0.031,0.027 0.094,0.094 0.133,0.121 0.265,0.234 0.032,0.032 0.035,0.027 0.07,0.059 0.137,0.113 0.281,0.219 0.594,0.414 0.14,0.093 0.149,0.09 0.332,0.199 0.035,0.02 0.074,0.043 0.153,0.082 0.308,0.16 0.039,0.024 0.043,0.019 0.078,0.035 0.157,0.078 0.324,0.149 0.668,0.269 0.043,0.016 0.039,0.016 0.086,0.031 0.168,0.062 0.343,0.114 0.043,0.015 0.043,0.012 0.09,0.027 0.176,0.055 0.355,0.102 0.043,0.011 0.047,0.016 0.09,0.023 0.184,0.047 0.367,0.086 0.094,0.024 0.281,0.058 0.383,0.074 0.05,0.008 0.055,0.012 0.102,0.02 0.211,0.035 0.109,0.015 0.106,0.016 0.214,0.031 0.11,0.016 0.105,0.015 0.219,0.028 0.055,0.004 0.054,0.008 0.114,0.011 0.218,0.024 0.059,0.007 0.055,0.004 0.109,0.012 0.227,0.02 0.058,0.004 0.055,0.003 0.113,0.008 0.231,0.016 0.054,0.004 0.176,0.011 h 0.055 l 0.176,0.012 h 0.058 l 0.059,0.004 0.117,0.004 0.059,0.004 h 0.058 l 0.117,0.004 0.055,0.004 h 0.109 l 0.059,0.004 h 0.164 l 0.055,0.004 h 0.793 l 0.054,-0.004 h 0.172 l 0.059,-0.004 h 0.113 l 0.059,-0.004 h 0.117 l 0.055,-0.004 h 0.058 l 0.117,-0.004 0.118,-0.008 0.117,-0.004 h 0.058 l 0.176,-0.011 0.234,-0.012 0.059,-0.004 h 0.063 l 0.117,-0.008 0.238,-0.015 0.063,-0.004 0.058,-0.004 0.121,-0.012 0.239,-0.016 0.066,-0.007 0.066,-0.004 0.399,-0.035 0.531,-0.055 0.066,-0.008 0.071,-0.004 0.133,-0.016 0.269,-0.031 0.547,-0.066 0.066,-0.012 0.071,-0.008 0.136,-0.019 0.278,-0.035 0.554,-0.082 1.133,-0.18 0.071,-0.012 0.066,-0.012 0.141,-0.027 0.285,-0.047 0.566,-0.105 1.149,-0.227 2.351,-0.519 0.141,-0.032 0.136,-0.035 0.282,-0.066 0.562,-0.137 1.133,-0.289 2.305,-0.625 5.144,-1.547 4.91,-1.637 5.352,-1.925 5.184,-2.008 4.675,-1.949 4.797,-2.192 4.129,-2.117 0.117,-0.062 0.121,-0.067 0.239,-0.133 0.472,-0.265 0.926,-0.535 1.77,-1.086 0.058,-0.036 0.055,-0.039 0.117,-0.074 0.231,-0.148 0.449,-0.301 0.879,-0.602 1.64,-1.222 0.047,-0.039 0.043,-0.035 0.094,-0.071 0.18,-0.148 0.351,-0.289 0.68,-0.586 0.043,-0.035 0.039,-0.039 0.246,-0.223 0.32,-0.293 0.61,-0.598 0.039,-0.043 0.121,-0.121 0.156,-0.164 0.305,-0.328 0.578,-0.66 0.031,-0.039 0.035,-0.043 0.071,-0.082 0.132,-0.168 0.262,-0.332 0.492,-0.676 0.028,-0.039 0.027,-0.043 0.059,-0.082 0.109,-0.168 0.211,-0.332 0.055,-0.086 0.05,-0.082 0.098,-0.168 0.191,-0.336 0.047,-0.086 0.043,-0.082 0.09,-0.168 0.168,-0.34 0.305,-0.679 0.015,-0.043 0.02,-0.039 0.031,-0.079 0.063,-0.16 0.113,-0.32 0.031,-0.078 0.024,-0.082 0.054,-0.16 0.098,-0.321 0.012,-0.039 0.008,-0.043 0.023,-0.078 0.043,-0.164 0.012,-0.039 0.008,-0.039 0.019,-0.082 0.039,-0.16 0.008,-0.039 0.008,-0.043 0.019,-0.082 0.032,-0.16 0.007,-0.039 0.008,-0.043 0.016,-0.079 0.027,-0.164 0.004,-0.043 0.008,-0.043 0.015,-0.089 0.004,-0.043 0.008,-0.043 0.012,-0.09 0.008,-0.086 0.011,-0.09 0.02,-0.176 0.008,-0.086 0.008,-0.089 v -0.043 l 0.003,-0.043 0.008,-0.09 v -0.043 l 0.004,-0.047 0.004,-0.043 v -0.043 l 0.004,-0.043 v -0.09 l 0.004,-0.043 v -0.09 l 0.004,-0.043 v -0.308 l -0.004,-0.043 v -0.133 l -0.004,-0.043 v -0.047 l -0.004,-0.043 v -0.043 l -0.004,-0.047 v -0.043 l -0.008,-0.086 -0.004,-0.089 -0.003,-0.043 -0.004,-0.047 -0.012,-0.129 -0.004,-0.047 -0.012,-0.129 -0.004,-0.039 -0.011,-0.082 -0.02,-0.164 -0.008,-0.043 -0.004,-0.039 -0.011,-0.082 -0.028,-0.164 -0.007,-0.043 -0.008,-0.039 -0.012,-0.082 -0.105,-0.492 -0.008,-0.043 -0.008,-0.04 -0.02,-0.082 -0.043,-0.164 -0.089,-0.328 -0.012,-0.039 -0.016,-0.039 -0.023,-0.082 -0.051,-0.164 -0.109,-0.324 -0.032,-0.078 -0.027,-0.082 -0.062,-0.157 -0.129,-0.316 -0.032,-0.078 -0.035,-0.078 -0.07,-0.16 -0.148,-0.313 -0.016,-0.039 -0.059,-0.117 -0.246,-0.469 -0.363,-0.617 -0.023,-0.043 -0.028,-0.039 -0.051,-0.086 -0.109,-0.164 -0.223,-0.332 -0.476,-0.653 -0.063,-0.078 -0.066,-0.082 -0.129,-0.16 -0.266,-0.32 -0.562,-0.633 -0.035,-0.035 -0.035,-0.039 -0.067,-0.07 -0.14,-0.145 -0.29,-0.289 -0.597,-0.566 -0.156,-0.141 -0.161,-0.141 -0.32,-0.273 -0.672,-0.539 -0.047,-0.039 -0.14,-0.106 -0.188,-0.144 -0.39,-0.282 -0.805,-0.554 -0.051,-0.031 -0.051,-0.036 -0.105,-0.066 -0.207,-0.137 -0.426,-0.261 -0.883,-0.512 -0.051,-0.031 -0.054,-0.028 -0.317,-0.176 -0.429,-0.226 -0.887,-0.442 -0.055,-0.027 -0.058,-0.027 -0.114,-0.051 -0.226,-0.105 -0.461,-0.208 -0.945,-0.402 -0.235,-0.094 -0.238,-0.093 -0.481,-0.18 -0.976,-0.352 -0.125,-0.039 -0.125,-0.043 -0.25,-0.082 -0.504,-0.16 -1.027,-0.305 -0.282,-0.078 -0.855,-0.222 -0.074,-0.02 -0.071,-0.015 -0.144,-0.036 -0.293,-0.07 -0.586,-0.133 -0.07,-0.015 -0.52,-0.11 -0.598,-0.121 -1.21,-0.211 -0.071,-0.011 -0.074,-0.012 -0.141,-0.024 -0.289,-0.043 -0.574,-0.082 -0.074,-0.011 -0.07,-0.008 -0.149,-0.02 -0.289,-0.039 -0.586,-0.066 -0.148,-0.016 -0.145,-0.015 -0.445,-0.047 -0.149,-0.012 -0.296,-0.027 -0.075,-0.008 -0.074,-0.004 -0.148,-0.012 -0.301,-0.023 -0.074,-0.008 -0.075,-0.004 -0.148,-0.012 -0.301,-0.019 -0.328,-0.016 -0.082,-0.008 -0.574,-0.027 h -0.082 l -0.328,-0.016 h -0.086 l -0.164,-0.003 -0.164,-0.008 -0.168,-0.004 h -0.164 l -0.082,-0.004 h -0.086 l -0.082,-0.004 h -0.332 l -0.086,-0.004 h -0.668 l -0.082,0.004 h -0.254 l -0.082,0.004 h -0.168 l -0.086,0.004 h -0.082 l -0.086,0.004 h -0.086 l -0.082,0.004 -0.168,0.004 -0.086,0.003 h -0.082 l -0.172,0.008 -0.082,0.004 h -0.086 l -0.168,0.008 -0.086,0.004 -0.082,0.004 -0.168,0.008 -0.332,0.015 -0.082,0.008 -0.086,0.004 -0.164,0.008 -0.336,0.023 -0.082,0.004 -0.086,0.008 -0.168,0.012 -0.332,0.023 -0.672,0.059 -0.086,0.007 -0.082,0.008 -0.168,0.016 -0.34,0.035 -0.671,0.074 -0.086,0.012 -0.082,0.008 -0.168,0.023 -0.34,0.043 -0.676,0.09 -0.156,0.023 -0.16,0.024 -0.313,0.047 -0.633,0.101 -0.156,0.024 -0.16,0.027 -0.316,0.055 -0.629,0.117 -0.078,0.016 -0.083,0.015 -0.156,0.028 -0.316,0.062 -0.629,0.133 -1.262,0.281 -0.172,0.039 -0.168,0.043 -0.343,0.082 -0.68,0.176 -1.356,0.371 -0.085,0.024 -0.086,0.027 -0.168,0.047 -0.34,0.101 -0.672,0.207 -1.344,0.442 -0.078,0.027 -0.078,0.024 -0.152,0.054 -0.313,0.11 -0.621,0.222 -1.234,0.469 -0.075,0.031 -0.078,0.032 -0.152,0.058 -0.914,0.375 -1.211,0.524 -0.07,0.031 -0.075,0.035 -0.148,0.066 -0.293,0.133 -0.582,0.274 -1.16,0.562 -2.262,1.195 -0.078,0.043 -0.074,0.043 -0.153,0.086 -0.3,0.168 -0.594,0.348 -1.18,0.715 -2.277,1.5 -0.133,0.094 -0.387,0.269 -0.511,0.371 -1.004,0.75 -1.938,1.555 -0.062,0.055 -0.067,0.054 -0.133,0.113 -0.257,0.223 -0.512,0.449 -1.004,0.918 -0.059,0.055 -0.062,0.059 -0.121,0.117 -0.242,0.23 -0.481,0.469 -0.234,0.234 -0.235,0.239 -0.058,0.058 -0.055,0.059 -0.117,0.117 -0.059,0.063 -0.054,0.058 -0.059,0.059 -0.055,0.058" /></g></g></svg>