<?xml version="1.0" encoding="UTF-8" standalone="no"?>
<svg
   xmlns:dc="http://purl.org/dc/elements/1.1/"
   xmlns:cc="http://creativecommons.org/ns#"
   xmlns:rdf="http://www.w3.org/1999/02/22-rdf-syntax-ns#"
   xmlns:svg="http://www.w3.org/2000/svg"
   xmlns="http://www.w3.org/2000/svg"
   viewBox="0 0 317.86667 251.3148"
   height="251.3148"
   width="317.86667"
   xml:space="preserve"
   id="svg2"
   version="1.1"><metadata
     id="metadata8"><rdf:RDF><cc:Work
         rdf:about=""><dc:format>image/svg+xml</dc:format><dc:type
           rdf:resource="http://purl.org/dc/dcmitype/StillImage" /></cc:Work></rdf:RDF></metadata><defs
     id="defs6"><clipPath
       id="clipPath14"
       clipPathUnits="userSpaceOnUse"><path
         id="path12"
         d="M 0,0 H 595 V 842 H 0 Z" /></clipPath></defs><g
     clip-path="url(#clipPath14)"
     transform="matrix(1.3333333,0,0,-1.3333333,-237.73333,686.99074)"
     id="g10"><g
       id="g16"><path
         id="path18"
         style="fill:none;stroke:#000000;stroke-width:0.40000001;stroke-linecap:butt;stroke-linejoin:round;stroke-miterlimit:10;stroke-dasharray:none;stroke-opacity:1"
         d="m 215.91397,484.47895 163.8252,-0.59149" /></g><g
       id="g20"><path
         id="path22"
         style="fill:none;stroke:#000000;stroke-width:0.40000001;stroke-linecap:butt;stroke-linejoin:round;stroke-miterlimit:10;stroke-dasharray:none;stroke-opacity:1"
         d="m 190.72382,357.7873 25.19015,126.69165" /><g
         id="g24"><g
           id="g26"><path
             id="path28"
             style="fill:#000000;fill-opacity:1;fill-rule:evenodd;stroke:#000000;stroke-width:0.40000001;stroke-linecap:butt;stroke-linejoin:round;stroke-miterlimit:10;stroke-dasharray:none;stroke-opacity:1"
             d="m 215.91397,484.47895 -2.6081,-4.5793 3.26607,-0.6494 z" /></g></g></g><g
       id="g30"><path
         id="path32"
         style="fill:none;stroke:#000000;stroke-width:0.40000001;stroke-linecap:butt;stroke-linejoin:round;stroke-miterlimit:10;stroke-dasharray:none;stroke-opacity:1"
         d="M 190.72382,357.7873 H 404.46968" /><g
         id="g34"><g
           id="g36"><path
             id="path38"
             style="fill:#000000;fill-opacity:1;fill-rule:evenodd;stroke:#000000;stroke-width:0.40000001;stroke-linecap:butt;stroke-linejoin:round;stroke-miterlimit:10;stroke-dasharray:none;stroke-opacity:1"
             d="m 404.46968,357.7873 -5,1.665 v -3.33 z" /></g></g></g><g
       id="g40"><path
         id="path42"
         style="fill:none;stroke:#ff8c00;stroke-width:0.40000001;stroke-linecap:butt;stroke-linejoin:round;stroke-miterlimit:10;stroke-dasharray:none;stroke-opacity:1"
         d="m 257.08937,466.74632 v 21.59871" /><g
         id="g44"><g
           id="g46"><path
             id="path48"
             style="fill:#ff8c00;fill-opacity:1;fill-rule:evenodd;stroke:#ff8c00;stroke-width:0.40000001;stroke-linecap:butt;stroke-linejoin:round;stroke-miterlimit:10;stroke-dasharray:none;stroke-opacity:1"
             d="m 257.08937,488.34503 -1.665,-5 h 3.33 z" /></g></g></g><g
       id="g50"><path
         id="path52"
         style="fill:none;stroke:#ff8c00;stroke-width:0.40000001;stroke-linecap:butt;stroke-linejoin:round;stroke-miterlimit:10;stroke-dasharray:none;stroke-opacity:1"
         d="m 319.01275,452.58532 v 21.5987" /><g
         id="g54"><g
           id="g56"><path
             id="path58"
             style="fill:#ff8c00;fill-opacity:1;fill-rule:evenodd;stroke:#ff8c00;stroke-width:0.40000001;stroke-linecap:butt;stroke-linejoin:round;stroke-miterlimit:10;stroke-dasharray:none;stroke-opacity:1"
             d="m 319.01275,474.18402 -1.665,-5 h 3.33 z" /></g></g></g><g
       id="g60"><path
         id="path62"
         style="fill:none;stroke:#ff8c00;stroke-width:0.40000001;stroke-linecap:butt;stroke-linejoin:round;stroke-miterlimit:10;stroke-dasharray:none;stroke-opacity:1"
         d="m 254.21664,417.21353 v 21.5987" /><g
         id="g64"><g
           id="g66"><path
             id="path68"
             style="fill:#ff8c00;fill-opacity:1;fill-rule:evenodd;stroke:#ff8c00;stroke-width:0.40000001;stroke-linecap:butt;stroke-linejoin:round;stroke-miterlimit:10;stroke-dasharray:none;stroke-opacity:1"
             d="m 254.21664,438.81223 -1.665,-5 h 3.33 z" /></g></g></g><g
       id="g70"><path
         id="path72"
         style="fill:none;stroke:#ff8c00;stroke-width:0.40000001;stroke-linecap:butt;stroke-linejoin:round;stroke-miterlimit:10;stroke-dasharray:none;stroke-opacity:1"
         d="m 231.36583,400.93624 v 21.59871" /><g
         id="g74"><g
           id="g76"><path
             id="path78"
             style="fill:#ff8c00;fill-opacity:1;fill-rule:evenodd;stroke:#ff8c00;stroke-width:0.40000001;stroke-linecap:butt;stroke-linejoin:round;stroke-miterlimit:10;stroke-dasharray:none;stroke-opacity:1"
             d="m 231.36583,422.53495 -1.665,-5 h 3.33 z" /></g></g></g><g
       id="g80"><path
         id="path82"
         style="fill:none;stroke:#bebebe;stroke-width:0.40000001;stroke-linecap:butt;stroke-linejoin:round;stroke-miterlimit:10;stroke-dasharray:none;stroke-opacity:1"
         d="M 190.72382,357.7873 379.73917,483.88746" /></g><g
       id="g84"><path
         id="path86"
         style="fill:none;stroke:#000080;stroke-width:0.40000001;stroke-linecap:butt;stroke-linejoin:round;stroke-miterlimit:10;stroke-dasharray:none;stroke-opacity:1"
         d="M 330.59429,443.50728 V 421.90857" /><g
         id="g88"><g
           id="g90"><path
             id="path92"
             style="fill:#000080;fill-opacity:1;fill-rule:evenodd;stroke:#000080;stroke-width:0.40000001;stroke-linecap:butt;stroke-linejoin:round;stroke-miterlimit:10;stroke-dasharray:none;stroke-opacity:1"
             d="m 330.59429,421.90857 1.665,5 h -3.33 z" /></g></g></g><g
       id="g94"><path
         id="path96"
         style="fill:none;stroke:#000080;stroke-width:0.40000001;stroke-linecap:butt;stroke-linejoin:round;stroke-miterlimit:10;stroke-dasharray:none;stroke-opacity:1"
         d="m 275.50224,397.49292 v -21.5987" /><g
         id="g98"><g
           id="g100"><path
             id="path102"
             style="fill:#000080;fill-opacity:1;fill-rule:evenodd;stroke:#000080;stroke-width:0.40000001;stroke-linecap:butt;stroke-linejoin:round;stroke-miterlimit:10;stroke-dasharray:none;stroke-opacity:1"
             d="m 275.50224,375.89422 1.665,5 h -3.33 z" /></g></g></g><g
       id="g104"><path
         id="path106"
         style="fill:none;stroke:#000080;stroke-width:0.40000001;stroke-linecap:butt;stroke-linejoin:round;stroke-miterlimit:10;stroke-dasharray:none;stroke-opacity:1"
         d="m 248.58211,382.78076 v -21.5987" /><g
         id="g108"><g
           id="g110"><path
             id="path112"
             style="fill:#000080;fill-opacity:1;fill-rule:evenodd;stroke:#000080;stroke-width:0.40000001;stroke-linecap:butt;stroke-linejoin:round;stroke-miterlimit:10;stroke-dasharray:none;stroke-opacity:1"
             d="m 248.58211,361.18206 1.665,5 h -3.33 z" /></g></g></g><g
       id="g114"><path
         id="path116"
         style="fill:none;stroke:#000080;stroke-width:0.40000001;stroke-linecap:butt;stroke-linejoin:round;stroke-miterlimit:10;stroke-dasharray:none;stroke-opacity:1"
         d="m 360.01891,396.55385 v -21.5987" /><g
         id="g118"><g
           id="g120"><path
             id="path122"
             style="fill:#000080;fill-opacity:1;fill-rule:evenodd;stroke:#000080;stroke-width:0.40000001;stroke-linecap:butt;stroke-linejoin:round;stroke-miterlimit:10;stroke-dasharray:none;stroke-opacity:1"
             d="m 360.01891,374.95515 1.665,5 h -3.33 z" /></g></g></g><g
       id="g124"><g
         id="g126"><path
           id="path128"
           style="fill:#000080;fill-opacity:1;fill-rule:evenodd;stroke:none"
           d="m 250.38211,382.78076 c 0,0.99412 -0.80588,1.8 -1.8,1.8 -0.99411,0 -1.8,-0.80588 -1.8,-1.8 0,-0.99411 0.80589,-1.8 1.8,-1.8 0.99412,0 1.8,0.80589 1.8,1.8" /></g></g><g
       id="g130"><g
         id="g132"><path
           id="path134"
           style="fill:#000080;fill-opacity:1;fill-rule:evenodd;stroke:none"
           d="m 277.30224,397.49292 c 0,0.99412 -0.80589,1.8 -1.8,1.8 -0.99411,0 -1.8,-0.80588 -1.8,-1.8 0,-0.99411 0.80589,-1.8 1.8,-1.8 0.99411,0 1.8,0.80589 1.8,1.8" /></g></g><g
       id="g136"><g
         id="g138"><path
           id="path140"
           style="fill:#000080;fill-opacity:1;fill-rule:evenodd;stroke:none"
           d="m 332.39429,443.50728 c 0,0.99411 -0.80588,1.8 -1.8,1.8 -0.99411,0 -1.8,-0.80589 -1.8,-1.8 0,-0.99412 0.80589,-1.8 1.8,-1.8 0.99412,0 1.8,0.80588 1.8,1.8" /></g></g><g
       id="g142"><g
         id="g144"><path
           id="path146"
           style="fill:#000080;fill-opacity:1;fill-rule:evenodd;stroke:none"
           d="m 361.81891,396.55385 c 0,0.99411 -0.80589,1.8 -1.8,1.8 -0.99412,0 -1.8,-0.80589 -1.8,-1.8 0,-0.99411 0.80588,-1.8 1.8,-1.8 0.99411,0 1.8,0.80589 1.8,1.8" /></g></g><g
       id="g148"><g
         id="g150"><path
           id="path152"
           style="fill:#ffa500;fill-opacity:1;fill-rule:evenodd;stroke:none"
           d="m 233.16583,400.93624 c 0,0.99411 -0.80588,1.8 -1.8,1.8 -0.99411,0 -1.8,-0.80589 -1.8,-1.8 0,-0.99411 0.80589,-1.8 1.8,-1.8 0.99412,0 1.8,0.80589 1.8,1.8" /></g></g><g
       id="g154"><g
         id="g156"><path
           id="path158"
           style="fill:#ffa500;fill-opacity:1;fill-rule:evenodd;stroke:none"
           d="m 256.01664,417.21353 c 0,0.99411 -0.80589,1.8 -1.8,1.8 -0.99411,0 -1.8,-0.80589 -1.8,-1.8 0,-0.99412 0.80589,-1.8 1.8,-1.8 0.99411,0 1.8,0.80588 1.8,1.8" /></g></g><g
       id="g160"><g
         id="g162"><path
           id="path164"
           style="fill:#ffa500;fill-opacity:1;fill-rule:evenodd;stroke:none"
           d="m 320.81275,452.58532 c 0,0.99411 -0.80589,1.8 -1.8,1.8 -0.99411,0 -1.8,-0.80589 -1.8,-1.8 0,-0.99412 0.80589,-1.8 1.8,-1.8 0.99411,0 1.8,0.80588 1.8,1.8" /></g></g><g
       id="g166"><g
         id="g168"><path
           id="path170"
           style="fill:#ffa500;fill-opacity:1;fill-rule:evenodd;stroke:none"
           d="m 258.88937,466.74632 c 0,0.99412 -0.80589,1.8 -1.8,1.8 -0.99411,0 -1.8,-0.80588 -1.8,-1.8 0,-0.99411 0.80589,-1.8 1.8,-1.8 0.99411,0 1.8,0.80589 1.8,1.8" /></g></g><g
       id="g172"><path
         id="path174"
         style="fill:none;stroke:#000000;stroke-width:0.40000001;stroke-linecap:butt;stroke-linejoin:round;stroke-miterlimit:10;stroke-dasharray:none;stroke-opacity:1"
         d="M 379.73917,483.88746 404.46968,357.7873" /></g><g
       id="g176"><path
         id="path178"
         style="fill:none;stroke:#ffffff;stroke-width:0.40000001;stroke-linecap:butt;stroke-linejoin:round;stroke-miterlimit:10;stroke-dasharray:none;stroke-opacity:1"
         d="M 178.5,515.04306 V 326.95694 h 238 v 188.08612 z" /></g></g></svg>