<?xml version="1.0" encoding="UTF-8" standalone="no"?>
<svg
   xmlns:dc="http://purl.org/dc/elements/1.1/"
   xmlns:cc="http://creativecommons.org/ns#"
   xmlns:rdf="http://www.w3.org/1999/02/22-rdf-syntax-ns#"
   xmlns:svg="http://www.w3.org/2000/svg"
   xmlns="http://www.w3.org/2000/svg"
   viewBox="0 0 298.66666 373.75467"
   height="373.75467"
   width="298.66666"
   xml:space="preserve"
   id="svg2"
   version="1.1"><metadata
     id="metadata8"><rdf:RDF><cc:Work
         rdf:about=""><dc:format>image/svg+xml</dc:format><dc:type
           rdf:resource="http://purl.org/dc/dcmitype/StillImage" /></cc:Work></rdf:RDF></metadata><defs
     id="defs6"><clipPath
       id="clipPath18"
       clipPathUnits="userSpaceOnUse"><path
         id="path16"
         d="M 0,280.316 H 224 V 0 H 0 Z" /></clipPath><clipPath
       id="clipPath50"
       clipPathUnits="userSpaceOnUse"><path
         id="path48"
         d="m 60.5,280.316 h 163 V 124.163 h -163 z" /></clipPath><linearGradient
       id="linearGradient60"
       spreadMethod="pad"
       gradientTransform="matrix(162,0,0,-162,61,201.989)"
       gradientUnits="userSpaceOnUse"
       y2="0"
       x2="1"
       y1="0"
       x1="0"><stop
         id="stop56"
         offset="0"
         style="stop-opacity:1;stop-color:#1565af" /><stop
         id="stop58"
         offset="1"
         style="stop-opacity:1;stop-color:#8ccae3" /></linearGradient><clipPath
       id="clipPath86"
       clipPathUnits="userSpaceOnUse"><path
         id="path84"
         d="m 60.5,256.161 h 163 V 100.006 h -163 z" /></clipPath><linearGradient
       id="linearGradient96"
       spreadMethod="pad"
       gradientTransform="matrix(162,0,0,-162,61,178.333)"
       gradientUnits="userSpaceOnUse"
       y2="0"
       x2="1"
       y1="0"
       x1="0"><stop
         id="stop92"
         offset="0"
         style="stop-opacity:1;stop-color:#8ccae3" /><stop
         id="stop94"
         offset="1"
         style="stop-opacity:1;stop-color:#1565af" /></linearGradient></defs><g
     transform="matrix(1.3333333,0,0,-1.3333333,0,373.75467)"
     id="g10"><g
       id="g12"><g
         clip-path="url(#clipPath18)"
         id="g14"><g
           transform="translate(223,46.1621)"
           id="g20"><path
             id="path22"
             style="fill:none;stroke:#1565af;stroke-width:2;stroke-linecap:butt;stroke-linejoin:miter;stroke-miterlimit:10;stroke-dasharray:none;stroke-opacity:1"
             d="m 0,0 c 0,-24.942 -36.264,-45.162 -81,-45.162 -44.735,0 -81,20.22 -81,45.162 0,24.942 36.265,45.161 81,45.161 C -36.264,45.161 0,24.942 0,0 Z" /></g><g
           transform="translate(1,256.163)"
           id="g24"><path
             id="path26"
             style="fill:none;stroke:#1565af;stroke-width:2;stroke-linecap:butt;stroke-linejoin:miter;stroke-miterlimit:10;stroke-dasharray:none;stroke-opacity:1"
             d="M 0,0 V -132" /></g><g
           transform="translate(61,256.161)"
           id="g28"><path
             id="path30"
             style="fill:none;stroke:#231f20;stroke-width:1;stroke-linecap:butt;stroke-linejoin:miter;stroke-miterlimit:10;stroke-dasharray:none;stroke-opacity:1"
             d="M 0,0 V -65.999" /></g><g
           transform="translate(223,190.162)"
           id="g32"><path
             id="path34"
             style="fill:none;stroke:#231f20;stroke-width:1;stroke-linecap:butt;stroke-linejoin:miter;stroke-miterlimit:10;stroke-dasharray:none;stroke-opacity:1"
             d="M 0,0 V -65.999" /></g><g
           transform="translate(223,124.163)"
           id="g36"><path
             id="path38"
             style="fill:none;stroke:#231f20;stroke-width:1;stroke-linecap:butt;stroke-linejoin:miter;stroke-miterlimit:10;stroke-dasharray:none;stroke-opacity:1"
             d="m 0,0 c 0,-25.433 -36.265,-31.274 -81,-13.05 -44.735,18.226 -81,53.616 -81,79.049 0,25.432 36.265,31.272 81,13.048 C -36.265,60.821 0,25.432 0,0 Z" /></g><g
           transform="translate(223,190.162)"
           id="g40"><path
             id="path42"
             style="fill:none;stroke:#231f20;stroke-width:1;stroke-linecap:butt;stroke-linejoin:miter;stroke-miterlimit:10;stroke-dasharray:none;stroke-opacity:1"
             d="m 0,0 c 0,-25.433 -36.265,-31.274 -81,-13.049 -44.735,18.225 -81,53.616 -81,79.048 0,25.432 36.265,31.272 81,13.048 C -36.265,60.821 0,25.432 0,0 Z" /></g><g
           id="g44"><g
             id="g46" /><g
             id="g78"><g
               style="opacity:0.80000299"
               id="g76"
               clip-path="url(#clipPath50)"><g
                 id="g70"><g
                   id="g68"><g
                     id="g66"><g
                       id="g64"><path
                         id="path62"
                         style="fill:url(#linearGradient60);stroke:none"
                         d="m 223,124.163 v 65.999 c 0,25.432 -36.264,60.821 -81,79.047 -44.735,18.225 -81,12.384 -81,-13.048 v -65.999 c 0,25.432 36.265,31.273 81,13.048 44.736,-18.226 81,-53.615 81,-79.047" /></g></g></g></g><g
                 id="g74"
                 transform="translate(223,124.163)"><path
                   id="path72"
                   style="fill:none;stroke:#231f20;stroke-width:1;stroke-linecap:butt;stroke-linejoin:miter;stroke-miterlimit:10;stroke-dasharray:none;stroke-opacity:1"
                   d="m 0,0 v 65.999 c 0,25.432 -36.264,60.821 -81,79.047 -44.735,18.225 -81,12.384 -81,-13.048 V 65.999 c 0,25.432 36.265,31.272 81,13.048 C -36.264,60.821 0,25.432 0,0 Z" /></g></g></g></g><g
           id="g80"><g
             id="g82" /><g
             id="g114"><g
               style="opacity:0.80000299"
               id="g112"
               clip-path="url(#clipPath86)"><g
                 id="g106"><g
                   id="g104"><g
                     id="g102"><g
                       id="g100"><path
                         id="path98"
                         style="fill:url(#linearGradient96);stroke:none"
                         d="m 61,256.161 c 0,-25.432 36.265,-60.823 81,-79.048 44.736,-18.225 81,-12.384 81,13.049 v -65.999 c 0,-25.433 -36.264,-31.274 -81,-13.05 -44.735,18.226 -81,53.616 -81,79.049 z" /></g></g></g></g><g
                 id="g110"
                 transform="translate(61,256.161)"><path
                   id="path108"
                   style="fill:none;stroke:#231f20;stroke-width:1;stroke-linecap:butt;stroke-linejoin:miter;stroke-miterlimit:10;stroke-dasharray:none;stroke-opacity:1"
                   d="m 0,0 c 0,-25.432 36.265,-60.823 81,-79.048 44.736,-18.225 81,-12.384 81,13.049 v -65.999 c 0,-25.433 -36.264,-31.274 -81,-13.05 -44.735,18.226 -81,53.616 -81,79.049 z" /></g></g></g></g><g
           transform="translate(223,190.162)"
           id="g116"><path
             id="path118"
             style="fill:none;stroke:#231f20;stroke-width:1;stroke-linecap:round;stroke-linejoin:miter;stroke-miterlimit:10;stroke-dasharray:none;stroke-opacity:1"
             d="M 0,0 V 0" /></g><g
           transform="translate(217,190.162)"
           id="g120"><path
             id="path122"
             style="fill:none;stroke:#231f20;stroke-width:1;stroke-linecap:round;stroke-linejoin:miter;stroke-miterlimit:10;stroke-dasharray:0, 6;stroke-dashoffset:0;stroke-opacity:1"
             d="M 0,0 -213,0.002" /></g><g
           transform="translate(1.0005,190.164)"
           id="g124"><path
             id="path126"
             style="fill:none;stroke:#231f20;stroke-width:1;stroke-linecap:round;stroke-linejoin:miter;stroke-miterlimit:10;stroke-dasharray:none;stroke-opacity:1"
             d="M 0,0 V 0" /></g><g
           transform="translate(61,256.161)"
           id="g128"><path
             id="path130"
             style="fill:none;stroke:#231f20;stroke-width:1;stroke-linecap:round;stroke-linejoin:miter;stroke-miterlimit:10;stroke-dasharray:none;stroke-opacity:1"
             d="M 0,0 V 0" /></g><g
           transform="translate(55,256.161)"
           id="g132"><path
             id="path134"
             style="fill:none;stroke:#231f20;stroke-width:1;stroke-linecap:round;stroke-linejoin:miter;stroke-miterlimit:10;stroke-dasharray:0, 6;stroke-dashoffset:0;stroke-opacity:1"
             d="M 0,0 -51,0.002" /></g><g
           transform="translate(1,256.163)"
           id="g136"><path
             id="path138"
             style="fill:none;stroke:#231f20;stroke-width:1;stroke-linecap:round;stroke-linejoin:miter;stroke-miterlimit:10;stroke-dasharray:none;stroke-opacity:1"
             d="M 0,0 V 0" /></g><g
           transform="translate(223,124.163)"
           id="g140"><path
             id="path142"
             style="fill:none;stroke:#231f20;stroke-width:1;stroke-linecap:round;stroke-linejoin:miter;stroke-miterlimit:10;stroke-dasharray:none;stroke-opacity:1"
             d="M 0,0 V 0" /></g><g
           transform="translate(217,124.163)"
           id="g144"><path
             id="path146"
             style="fill:none;stroke:#231f20;stroke-width:1;stroke-linecap:round;stroke-linejoin:miter;stroke-miterlimit:10;stroke-dasharray:0, 6;stroke-dashoffset:0;stroke-opacity:1"
             d="M 0,0 -213,0.001" /></g><g
           transform="translate(1.0005,124.164)"
           id="g148"><path
             id="path150"
             style="fill:none;stroke:#231f20;stroke-width:1;stroke-linecap:round;stroke-linejoin:miter;stroke-miterlimit:10;stroke-dasharray:none;stroke-opacity:1"
             d="M 0,0 V 0" /></g><g
           transform="translate(223,46.1621)"
           id="g152"><path
             id="path154"
             style="fill:none;stroke:#231f20;stroke-width:1;stroke-linecap:round;stroke-linejoin:miter;stroke-miterlimit:10;stroke-dasharray:none;stroke-opacity:1"
             d="M 0,0 V 0" /></g><g
           transform="translate(223,52.1621)"
           id="g156"><path
             id="path158"
             style="fill:none;stroke:#231f20;stroke-width:1;stroke-linecap:round;stroke-linejoin:miter;stroke-miterlimit:10;stroke-dasharray:0, 6;stroke-dashoffset:0;stroke-opacity:1"
             d="M 0,0 V 69.001" /></g><g
           transform="translate(223,124.163)"
           id="g160"><path
             id="path162"
             style="fill:none;stroke:#231f20;stroke-width:1;stroke-linecap:round;stroke-linejoin:miter;stroke-miterlimit:10;stroke-dasharray:none;stroke-opacity:1"
             d="M 0,0 V 0" /></g><g
           transform="translate(61,46.1621)"
           id="g164"><path
             id="path166"
             style="fill:none;stroke:#231f20;stroke-width:1;stroke-linecap:round;stroke-linejoin:miter;stroke-miterlimit:10;stroke-dasharray:none;stroke-opacity:1"
             d="M 0,0 V 0" /></g><g
           transform="translate(61,52.1621)"
           id="g168"><path
             id="path170"
             style="fill:none;stroke:#231f20;stroke-width:1;stroke-linecap:round;stroke-linejoin:miter;stroke-miterlimit:10;stroke-dasharray:0, 6;stroke-dashoffset:0;stroke-opacity:1"
             d="M 0,0 V 135" /></g><g
           transform="translate(61,190.162)"
           id="g172"><path
             id="path174"
             style="fill:none;stroke:#231f20;stroke-width:1;stroke-linecap:round;stroke-linejoin:miter;stroke-miterlimit:10;stroke-dasharray:none;stroke-opacity:1"
             d="M 0,0 V 0" /></g></g></g></g></svg>