<?xml version="1.0" encoding="utf-8"?>
<!-- Generator: Adobe Illustrator 16.0.4, SVG Export Plug-In . SVG Version: 6.00 Build 0)  -->
<!DOCTYPE svg PUBLIC "-//W3C//DTD SVG 1.1//EN" "http://www.w3.org/Graphics/SVG/1.1/DTD/svg11.dtd">
<svg version="1.1" id="Ebene_1" xmlns="http://www.w3.org/2000/svg" xmlns:xlink="http://www.w3.org/1999/xlink" x="0px" y="0px"
	 width="300.832px" height="263.125px" viewBox="0 0 300.832 263.125" enable-background="new 0 0 300.832 263.125"
	 xml:space="preserve">
<circle fill-rule="evenodd" clip-rule="evenodd" fill="#FFFFFF" cx="297.944" cy="29.937" r="2.588"/>
<circle fill="none" stroke="#000000" stroke-width="0.6" stroke-linejoin="round" stroke-miterlimit="10" cx="297.944" cy="29.937" r="2.588"/>
<path fill-rule="evenodd" clip-rule="evenodd" fill="#FFAA00" d="M1.925,136.378c1.571,16.279,4.256,33.212,8.58,46.639
	c4.325,13.429,10.287,23.351,15.013,29.223c4.727,5.872,8.216,7.691,12.464,7.92c4.249,0.227,9.255-1.139,14.186-5.538
	c4.931-4.4,9.787-11.835,13.428-16.462c3.641-4.628,6.069-6.448,10.089-5.538c4.021,0.91,9.634,4.552,12.745,13.503
	c3.11,8.952,3.717,23.214,5.917,32.621c2.2,9.407,5.993,13.958,9.331,17.068s6.22,4.778,11.455,3.792
	c5.234-0.985,12.821-4.628,19.041-14.033c6.221-9.407,11.076-24.579,13.807-37.932c2.731-13.351,3.338-24.882,4.453-36.382
	c1.115-11.501,2.739-22.971,2.564-36.497c-0.174-13.525-2.147-29.107-4.316-42.225c-2.17-13.116-4.537-23.768-9.665-34.714
	s-13.018-22.189-18.639-26.247c-5.621-4.06-8.975-0.934-12.32,5.333c-3.346,6.266-6.683,15.672-9.263,22.576
	c-2.579,6.902-4.399,11.303-9.937,9.103c-5.538-2.2-14.793-11-20.786-21.165c-5.993-10.166-8.724-21.696-15.096-30.117
	C48.603,8.886,38.59,3.575,30.548,3.271c-8.041-0.304-14.11,4.4-18.965,19.496C6.728,37.864,3.086,63.354,1.493,83.912
	C-0.1,104.47,0.355,120.098,1.925,136.378z"/>
<path fill="none" stroke="#000000" stroke-linejoin="round" stroke-miterlimit="10" d="M1.925,136.378
	c1.571,16.279,4.256,33.212,8.58,46.639c4.325,13.429,10.287,23.351,15.013,29.223c4.727,5.872,8.216,7.691,12.464,7.92
	c4.249,0.227,9.255-1.139,14.186-5.538c4.931-4.4,9.787-11.835,13.428-16.462c3.641-4.628,6.069-6.448,10.089-5.538
	c4.021,0.91,9.634,4.552,12.745,13.503c3.11,8.952,3.717,23.214,5.917,32.621c2.2,9.407,5.993,13.958,9.331,17.068
	s6.22,4.778,11.455,3.792c5.234-0.985,12.821-4.628,19.041-14.033c6.221-9.407,11.076-24.579,13.807-37.932
	c2.731-13.351,3.338-24.882,4.453-36.382c1.115-11.501,2.739-22.971,2.564-36.497c-0.174-13.525-2.147-29.107-4.316-42.225
	c-2.17-13.116-4.537-23.768-9.665-34.714s-13.018-22.189-18.639-26.247c-5.621-4.06-8.975-0.934-12.32,5.333
	c-3.346,6.266-6.683,15.672-9.263,22.576c-2.579,6.902-4.399,11.303-9.937,9.103c-5.538-2.2-14.793-11-20.786-21.165
	c-5.993-10.166-8.724-21.696-15.096-30.117C48.603,8.886,38.59,3.575,30.548,3.271c-8.041-0.304-14.11,4.4-18.965,19.496
	C6.728,37.864,3.086,63.354,1.493,83.912C-0.1,104.47,0.355,120.098,1.925,136.378z"/>
<path fill-rule="evenodd" clip-rule="evenodd" fill="#FFFFFF" d="M45.898,115.171c-2.179,5.769-2.948,12.435-2.563,19.359
	c0.384,6.923,1.923,14.102,6.134,20.443c4.211,6.341,11.094,11.845,16.903,15.286c5.809,3.442,10.542,4.822,16.459,3.343
	c5.918-1.479,13.018-5.818,18.344-10.75c5.325-4.931,8.876-10.452,11.055-16.725c2.18-6.273,2.988-13.294,1.854-21.292
	c-1.134-7.998-4.211-16.973-11.391-23.511c-7.179-6.539-18.461-10.642-27.051-10.514c-8.59,0.128-14.487,4.487-19.231,9.103
	C51.667,104.53,48.078,109.401,45.898,115.171z"/>
<path fill="none" stroke="#000000" stroke-linejoin="round" stroke-miterlimit="10" d="M45.898,115.171
	c-2.179,5.769-2.948,12.435-2.563,19.359c0.384,6.923,1.923,14.102,6.134,20.443c4.211,6.341,11.094,11.845,16.903,15.286
	c5.809,3.442,10.542,4.822,16.459,3.343c5.918-1.479,13.018-5.818,18.344-10.75c5.325-4.931,8.876-10.452,11.055-16.725
	c2.18-6.273,2.988-13.294,1.854-21.292c-1.134-7.998-4.211-16.973-11.391-23.511c-7.179-6.539-18.461-10.642-27.051-10.514
	c-8.59,0.128-14.487,4.487-19.231,9.103C51.667,104.53,48.078,109.401,45.898,115.171z"/>
<circle fill-rule="evenodd" clip-rule="evenodd" fill="#FFFFFF" cx="218.663" cy="220.212" r="2.588"/>
<circle fill="none" stroke="#000000" stroke-width="0.6" stroke-linejoin="round" stroke-miterlimit="10" cx="218.663" cy="220.212" r="2.588"/>
<circle fill-rule="evenodd" clip-rule="evenodd" fill="#FFFFFF" cx="292.658" cy="259.612" r="2.588"/>
<circle fill="none" stroke="#000000" stroke-width="0.6" stroke-linejoin="round" stroke-miterlimit="10" cx="292.658" cy="259.612" r="2.588"/>
<circle fill-rule="evenodd" clip-rule="evenodd" fill="#FFFFFF" cx="273.919" cy="68.856" r="2.587"/>
<circle fill="none" stroke="#000000" stroke-width="0.6" stroke-linejoin="round" stroke-miterlimit="10" cx="273.919" cy="68.856" r="2.587"/>
<circle fill-rule="evenodd" clip-rule="evenodd" fill="#FFFFFF" cx="210.014" cy="3.99" r="2.587"/>
<circle fill="none" stroke="#000000" stroke-width="0.6" stroke-linejoin="round" stroke-miterlimit="10" cx="210.014" cy="3.99" r="2.587"/>
<path fill="none" stroke="#000000" stroke-linejoin="round" stroke-miterlimit="10" stroke-dasharray="4,4" d="M218.181,217.329
	c0,0,0,0,1.281-1.683c1.282-1.681,3.844-5.045,9.53-9.368c5.686-4.325,14.494-9.61,18.899-12.253
	c4.404-2.644,4.404-2.644,4.404-2.644"/>
<path fill="none" stroke="#000000" stroke-linejoin="round" stroke-miterlimit="10" stroke-dasharray="4,4" d="M255.661,191.863
	c0,0,0,0,2.723,0.881c2.722,0.881,8.168,2.642,13.053,6.086c4.885,3.442,9.209,8.568,12.252,14.335
	c3.044,5.766,4.806,12.172,6.087,19.38c1.281,7.207,2.082,15.215,2.483,19.219c0.4,4.004,0.4,4.004,0.4,4.004"/>
<path fill="none" stroke="#000000" stroke-linejoin="round" stroke-miterlimit="10" stroke-dasharray="4,4" d="M253.738,189.94
	c0,0,0,0,0.08-2.321c0.08-2.323,0.24-6.967,0.32-9.29c0.08-2.322,0.08-2.322,0.08-2.322"/>
<path fill="none" stroke="#000000" stroke-linejoin="round" stroke-miterlimit="10" stroke-dasharray="4,4" d="M251.335,175.046
	c0,0,0,0-3.844-0.4c-3.845-0.4-11.532-1.201-18.26-5.525c-6.727-4.325-12.491-12.173-16.416-20.662
	c-3.924-8.488-6.007-17.618-3.684-26.267c2.322-8.648,9.049-16.817,16.497-22.103c7.447-5.286,15.616-7.688,19.7-8.89
	c4.084-1.201,4.084-1.201,4.084-1.201"/>
<path fill="none" stroke="#000000" stroke-linejoin="round" stroke-miterlimit="10" stroke-dasharray="4,4" d="M254.218,89.518
	c0,0,0,0,3.283,0.561c3.284,0.561,9.85,1.682,15.855,4.885c6.007,3.203,11.452,8.489,15.456,15.055
	c4.005,6.567,6.567,14.416,6.567,22.424c0,8.009-2.562,16.178-6.086,22.424c-3.524,6.246-8.008,10.57-12.974,13.533
	c-4.965,2.964-10.41,4.564-13.854,5.445c-3.444,0.881-4.885,1.042-5.606,1.122c-0.721,0.08-0.721,0.08-0.721,0.08"/>
<path fill="none" stroke="#000000" stroke-linejoin="round" stroke-miterlimit="10" stroke-dasharray="4,4" d="M251.335,88.557
	c0,0,0,0,2.803-0.961s8.408-2.883,12.252-5.045c3.844-2.163,5.927-4.564,6.968-6.487c1.041-1.922,1.041-3.363,1.041-4.084
	s0-0.721,0-0.721"/>
<path fill="none" stroke="#000000" stroke-linejoin="round" stroke-miterlimit="10" stroke-dasharray="4,4" d="M276.321,69.337
	c0,0,0,0,1.843-0.881c1.842-0.881,5.524-2.643,8.889-6.246c3.363-3.604,6.407-9.049,8.168-14.495
	c1.762-5.446,2.243-10.891,2.483-13.614c0.239-2.723,0.239-2.723,0.239-2.723"/>
<path fill="none" stroke="#000000" stroke-linejoin="round" stroke-miterlimit="10" stroke-dasharray="4,4" d="M210.494,6.392
	c0,0,0,0,0.881,2.884c0.881,2.883,2.643,8.648,5.846,16.177c3.204,7.527,7.848,16.816,12.173,23.384
	c4.324,6.567,8.328,10.411,14.574,13.294c6.247,2.883,14.735,4.805,19.7,5.846c4.966,1.041,6.407,1.201,7.128,1.281
	s0.721,0.08,0.721,0.08"/>
<circle fill-rule="evenodd" clip-rule="evenodd" fill="#FFFFFF" cx="251.816" cy="90.479" r="2.588"/>
<circle fill="none" stroke="#000000" stroke-width="0.6" stroke-linejoin="round" stroke-miterlimit="10" cx="251.816" cy="90.479" r="2.588"/>
<circle fill-rule="evenodd" clip-rule="evenodd" fill="#FFFFFF" cx="253.738" cy="175.046" r="2.588"/>
<circle fill="none" stroke="#000000" stroke-width="0.6" stroke-linejoin="round" stroke-miterlimit="10" cx="253.738" cy="175.046" r="2.588"/>
<circle fill-rule="evenodd" clip-rule="evenodd" fill="#FFFFFF" cx="253.738" cy="192.343" r="2.588"/>
<circle fill="none" stroke="#000000" stroke-width="0.6" stroke-linejoin="round" stroke-miterlimit="10" cx="253.738" cy="192.343" r="2.588"/>
<circle fill-rule="evenodd" clip-rule="evenodd" fill="#FFFFFF" cx="112.138" cy="260.237" r="2.588"/>
<circle fill="none" stroke="#000000" stroke-width="0.6" stroke-linejoin="round" stroke-miterlimit="10" cx="112.138" cy="260.237" r="2.588"/>
<circle fill-rule="evenodd" clip-rule="evenodd" fill="#FFFFFF" cx="37.806" cy="219.636" r="2.588"/>
<circle fill="none" stroke="#000000" stroke-width="0.6" stroke-linejoin="round" stroke-miterlimit="10" cx="37.806" cy="219.636" r="2.588"/>
<circle fill-rule="evenodd" clip-rule="evenodd" fill="#FFFFFF" cx="74.66" cy="192.152" r="2.588"/>
<circle fill="none" stroke="#000000" stroke-width="0.6" stroke-linejoin="round" stroke-miterlimit="10" cx="74.66" cy="192.152" r="2.588"/>
<circle fill-rule="evenodd" clip-rule="evenodd" fill="#FFFFFF" cx="77.783" cy="174.662" r="2.588"/>
<circle fill="none" stroke="#000000" stroke-width="0.6" stroke-linejoin="round" stroke-miterlimit="10" cx="77.783" cy="174.662" r="2.588"/>
<circle fill-rule="evenodd" clip-rule="evenodd" fill="#FFFFFF" cx="78.408" cy="90.961" r="2.588"/>
<circle fill="none" stroke="#000000" stroke-width="0.6" stroke-linejoin="round" stroke-miterlimit="10" cx="78.408" cy="90.961" r="2.588"/>
<circle fill-rule="evenodd" clip-rule="evenodd" fill="#FFFFFF" cx="92.775" cy="69.099" r="2.588"/>
<circle fill="none" stroke="#000000" stroke-width="0.6" stroke-linejoin="round" stroke-miterlimit="10" cx="92.775" cy="69.099" r="2.588"/>
<circle fill-rule="evenodd" clip-rule="evenodd" fill="#FFFFFF" cx="117.136" cy="30.372" r="2.588"/>
<circle fill="none" stroke="#000000" stroke-width="0.6" stroke-linejoin="round" stroke-miterlimit="10" cx="117.136" cy="30.372" r="2.588"/>
<circle fill-rule="evenodd" clip-rule="evenodd" fill="#FFFFFF" cx="27.813" cy="2.888" r="2.588"/>
<circle fill="none" stroke="#000000" stroke-width="0.6" stroke-linejoin="round" stroke-miterlimit="10" cx="27.813" cy="2.888" r="2.588"/>
<path fill-rule="evenodd" clip-rule="evenodd" fill="#FFAA00" d="M0.879,126.758c12.479,8.846,29.055,9.313,42.012,1.184"/>
<path fill="none" stroke="#000000" stroke-width="0.4" stroke-linejoin="round" stroke-miterlimit="10" d="M0.879,126.758
	c12.479,8.846,29.055,9.313,42.012,1.184"/>
<path fill-rule="evenodd" clip-rule="evenodd" fill="#FFAA00" d="M114.488,129.717c12.479,8.846,29.055,9.313,42.012,1.184"/>
<path fill="none" stroke="#000000" stroke-width="0.4" stroke-linejoin="round" stroke-miterlimit="10" d="M114.488,129.717
	c12.479,8.846,29.055,9.313,42.012,1.184"/>
<path fill="none" stroke="#000000" stroke-width="0.4" stroke-linejoin="round" stroke-miterlimit="10" stroke-dasharray="4,4" d="
	M0.287,124.982c0,0,0,0,1.085-0.492c1.085-0.493,3.254-1.479,6.114-2.366c2.86-0.888,6.411-1.677,10.158-1.874
	c3.748-0.198,7.692,0.197,11.637,1.084c3.945,0.888,7.889,2.268,10.256,3.255c2.367,0.986,3.156,1.577,3.55,1.873
	c0.395,0.296,0.395,0.296,0.395,0.296"/>
<path fill="none" stroke="#000000" stroke-width="0.4" stroke-linejoin="round" stroke-miterlimit="10" stroke-dasharray="4,4" d="
	M112.713,129.125c0,0,0,0,1.085-0.493s3.254-1.479,6.114-2.366c2.86-0.888,6.411-1.677,10.158-1.874
	c3.748-0.197,7.692,0.197,11.637,1.084c3.945,0.889,7.889,2.269,10.256,3.255c2.367,0.986,3.156,1.577,3.55,1.873
	c0.396,0.297,0.396,0.297,0.396,0.297"/>
<circle fill-rule="evenodd" clip-rule="evenodd" cx="207.388" cy="132.084" r="3.017"/>
<circle fill="none" stroke="#000000" stroke-width="0.4" stroke-linejoin="round" stroke-miterlimit="10" stroke-dasharray="4,4" cx="207.388" cy="132.084" r="3.017"/>
<circle fill-rule="evenodd" clip-rule="evenodd" cx="294.962" cy="133.268" r="3.017"/>
<circle fill="none" stroke="#000000" stroke-width="0.4" stroke-linejoin="round" stroke-miterlimit="10" stroke-dasharray="4,4" cx="294.962" cy="133.268" r="3.017"/>
<circle fill-rule="evenodd" clip-rule="evenodd" cx="18.039" cy="133.267" r="1.323"/>
<circle fill="none" stroke="#000000" stroke-width="0.4" stroke-linejoin="round" stroke-miterlimit="10" stroke-dasharray="4,4" cx="18.039" cy="133.267" r="1.323"/>
<circle fill-rule="evenodd" clip-rule="evenodd" cx="125.139" cy="135.042" r="1.323"/>
<circle fill="none" stroke="#000000" stroke-width="0.4" stroke-linejoin="round" stroke-miterlimit="10" stroke-dasharray="4,4" cx="125.139" cy="135.042" r="1.323"/>
<circle fill-rule="evenodd" clip-rule="evenodd" cx="144.074" cy="135.634" r="1.323"/>
<circle fill="none" stroke="#000000" stroke-width="0.4" stroke-linejoin="round" stroke-miterlimit="10" stroke-dasharray="4,4" cx="144.074" cy="135.634" r="1.323"/>
</svg>
