<svg xmlns:dc="http://purl.org/dc/elements/1.1/" xmlns:cc="http://creativecommons.org/ns#" xmlns:rdf="http://www.w3.org/1999/02/22-rdf-syntax-ns#" xmlns:svg="http://www.w3.org/2000/svg" xmlns="http://www.w3.org/2000/svg" viewBox="0 0 130.5896 95.313202" height="95.313202" width="130.5896" xml:space="preserve" id="svg2" version="1.1"><metadata id="metadata8"><rdf:RDF><cc:Work rdf:about=""><dc:format>image/svg+xml</dc:format><dc:type rdf:resource="http://purl.org/dc/dcmitype/StillImage"/></cc:Work></rdf:RDF></metadata><defs id="defs6"><clipPath id="clipPath14" clipPathUnits="userSpaceOnUse"><path id="path12" d="M 0,0 H 612 V 792 H 0 Z"/></clipPath><clipPath id="clipPath24" clipPathUnits="userSpaceOnUse"><path id="path22" d="M 0,0 H 612 V 792 H 0 Z"/></clipPath></defs><g clip-path="url(#clipPath14)" transform="matrix(1.3333333,0,0,-1.3333333,-489.16173,458.03307)" id="g10"><g id="g18"><g clip-path="url(#clipPath24)" id="g20"><path id="path1578" style="fill:#000000;fill-opacity:1;fill-rule:evenodd;stroke:none" d="m 311.3256,297.2724 6.4836,-2.3844 -6.4836,-2.3844 c 1.0356,1.4076 1.0296,3.3336 0,4.7688"/><g transform="scale(0.12)" id="g1580"><path id="path1582" style="fill:none;stroke:#000000;stroke-width:5.49510002;stroke-linecap:butt;stroke-linejoin:miter;stroke-miterlimit:10;stroke-dasharray:none;stroke-opacity:1" d="m 3720.94,2471.93 -2.75,145.27 96.05,95.69"/></g><g transform="scale(0.12)" id="g1584"><path id="path1586" style="fill:none;stroke:#000000;stroke-width:5.49510002;stroke-linecap:butt;stroke-linejoin:miter;stroke-miterlimit:10;stroke-dasharray:none;stroke-opacity:1" d="m 3814.24,2373.21 -93.3,102.32 -109.85,-150.35"/></g><g transform="scale(0.12)" id="g1588"><path id="path1590" style="fill:none;stroke:#000000;stroke-width:8.24265957;stroke-linecap:butt;stroke-linejoin:round;stroke-miterlimit:10;stroke-dasharray:none;stroke-opacity:1" d="m 3605.2,2326.01 c -7.08,0 -12.77,-5.45 -12.77,-12.22 0,-6.76 5.69,-12.21 12.77,-12.21 7.07,0 12.76,5.45 12.76,12.21 0,6.77 -5.69,12.22 -12.76,12.22 z"/></g><g transform="scale(0.12)" id="g1592"><path id="path1594" style="fill:none;stroke:#000000;stroke-width:8.24265957;stroke-linecap:butt;stroke-linejoin:round;stroke-miterlimit:10;stroke-dasharray:none;stroke-opacity:1" d="m 3825,2381.03 c -7.07,0 -12.77,-5.44 -12.77,-12.21 0,-6.77 5.7,-12.21 12.77,-12.21 7.07,0 12.76,5.44 12.76,12.21 0,6.77 -5.69,12.21 -12.76,12.21 z"/></g><path id="path1596" style="fill:#000000;fill-opacity:1;fill-rule:evenodd;stroke:none" d="m 446.4708,315.3888 c -0.8484,0 -1.5324,-0.654 -1.5324,-1.4664 0,-0.8112 0.684,-1.4652 1.5324,-1.4652 0.8484,0 1.5324,0.654 1.5324,1.4652 0,0.8124 -0.684,1.4664 -1.5324,1.4664"/><g transform="scale(0.12)" id="g1598"><path id="path1600" style="fill:none;stroke:#000000;stroke-width:9.89118958;stroke-linecap:butt;stroke-linejoin:round;stroke-miterlimit:10;stroke-dasharray:none;stroke-opacity:1" d="m 3720.59,2628.24 c -7.07,0 -12.77,-5.45 -12.77,-12.22 0,-6.76 5.7,-12.21 12.77,-12.21 7.07,0 12.77,5.45 12.77,12.21 0,6.77 -5.7,12.22 -12.77,12.22 z"/></g><path id="path1602" style="fill:#000000;fill-opacity:1;fill-rule:evenodd;stroke:none" d="m 446.4708,298.2528 c -0.8484,0 -1.5312,-0.654 -1.5312,-1.4652 0,-0.8124 0.6828,-1.4664 1.5312,-1.4664 0.8484,0 1.5324,0.654 1.5324,1.4664 0,0.8112 -0.684,1.4652 -1.5324,1.4652"/><g transform="scale(0.12)" id="g1604"><path id="path1606" style="fill:none;stroke:#000000;stroke-width:9.89118958;stroke-linecap:butt;stroke-linejoin:round;stroke-miterlimit:10;stroke-dasharray:none;stroke-opacity:1" d="m 3720.59,2485.44 c -7.07,0 -12.76,-5.45 -12.76,-12.21 0,-6.77 5.69,-12.22 12.76,-12.22 7.07,0 12.77,5.45 12.77,12.22 0,6.76 -5.7,12.21 -12.77,12.21 z"/></g><g transform="scale(0.12)" id="g1608"><path id="path1610" style="fill:none;stroke:#000000;stroke-width:5.49510002;stroke-linecap:butt;stroke-linejoin:miter;stroke-miterlimit:10;stroke-dasharray:none;stroke-opacity:1" d="m 3614.98,2771.89 103.2,-156.47"/></g><g transform="scale(0.12)" id="g1612"><path id="path1614" style="fill:none;stroke:#000000;stroke-width:8.24265957;stroke-linecap:butt;stroke-linejoin:round;stroke-miterlimit:10;stroke-dasharray:none;stroke-opacity:1" d="m 3605.2,2793.16 c -7.08,0 -12.77,-5.44 -12.77,-12.21 0,-6.77 5.69,-12.21 12.77,-12.21 7.07,0 12.76,5.44 12.76,12.21 0,6.77 -5.69,12.21 -12.76,12.21 z"/></g><g transform="scale(0.12)" id="g1616"><path id="path1618" style="fill:none;stroke:#000000;stroke-width:8.24265957;stroke-linecap:butt;stroke-linejoin:round;stroke-miterlimit:10;stroke-dasharray:none;stroke-opacity:1" d="m 3825,2738.21 c -7.07,0 -12.77,-5.44 -12.77,-12.21 0,-6.77 5.7,-12.21 12.77,-12.21 7.07,0 12.76,5.44 12.76,12.21 0,6.77 -5.69,12.21 -12.76,12.21 z"/></g><g transform="scale(0.12)" id="g1620"><path id="path1622" style="fill:none;stroke:#000000;stroke-width:5.49510002;stroke-linecap:butt;stroke-linejoin:miter;stroke-miterlimit:10;stroke-dasharray:none;stroke-opacity:1" d="m 3303.31,2547.34 60.39,164.03"/></g><g transform="scale(0.12)" id="g1624"><path id="path1626" style="fill:none;stroke:#000000;stroke-width:5.49510002;stroke-linecap:butt;stroke-linejoin:miter;stroke-miterlimit:10;stroke-dasharray:none;stroke-opacity:1" d="m 3150.23,2761.67 18.44,-351.09"/></g><g transform="scale(0.12)" id="g1628"><path id="path1630" style="fill:none;stroke:#000000;stroke-width:5.49510002;stroke-linecap:butt;stroke-linejoin:miter;stroke-miterlimit:10;stroke-dasharray:none;stroke-opacity:1" d="m 3363.7,2382.79 -57.65,165.05 -134.62,-134.28 -21.98,-87.13"/></g><g transform="scale(0.12)" id="g1632"><path id="path1634" style="fill:none;stroke:#000000;stroke-width:8.24265957;stroke-linecap:butt;stroke-linejoin:round;stroke-miterlimit:10;stroke-dasharray:none;stroke-opacity:1" d="m 3149.1,2324.48 c -7.07,0 -12.76,-5.44 -12.76,-12.21 0,-6.77 5.69,-12.22 12.76,-12.22 7.07,0 12.76,5.45 12.76,12.22 0,6.77 -5.69,12.21 -12.76,12.21 z"/></g><g transform="scale(0.12)" id="g1636"><path id="path1638" style="fill:none;stroke:#000000;stroke-width:8.24265957;stroke-linecap:butt;stroke-linejoin:round;stroke-miterlimit:10;stroke-dasharray:none;stroke-opacity:1" d="m 3368.9,2379.51 c -7.07,0 -12.76,-5.45 -12.76,-12.21 0,-6.77 5.69,-12.22 12.76,-12.22 7.08,0 12.77,5.45 12.77,12.22 0,6.76 -5.69,12.21 -12.77,12.21 z"/></g><path id="path1640" style="fill:#000000;fill-opacity:1;fill-rule:evenodd;stroke:none" d="m 380.2992,290.8068 c -0.8484,0 -1.5324,-0.6528 -1.5324,-1.4652 0,-0.8124 0.684,-1.4652 1.5324,-1.4652 0.8484,0 1.5312,0.6528 1.5312,1.4652 0,0.8124 -0.6828,1.4652 -1.5312,1.4652"/><g transform="scale(0.12)" id="g1642"><path id="path1644" style="fill:none;stroke:#000000;stroke-width:9.89118958;stroke-linecap:butt;stroke-linejoin:round;stroke-miterlimit:10;stroke-dasharray:none;stroke-opacity:1" d="m 3169.16,2423.39 c -7.07,0 -12.77,-5.44 -12.77,-12.21 0,-6.77 5.7,-12.21 12.77,-12.21 7.07,0 12.76,5.44 12.76,12.21 0,6.77 -5.69,12.21 -12.76,12.21 z"/></g><path id="path1646" style="fill:#000000;fill-opacity:1;fill-rule:evenodd;stroke:none" d="m 396.7512,307.302 c -0.8484,0 -1.5312,-0.654 -1.5312,-1.4664 0,-0.8112 0.6828,-1.4652 1.5312,-1.4652 0.8484,0 1.5312,0.654 1.5312,1.4652 0,0.8124 -0.6828,1.4664 -1.5312,1.4664"/><g transform="scale(0.12)" id="g1648"><path id="path1650" style="fill:none;stroke:#000000;stroke-width:9.89118958;stroke-linecap:butt;stroke-linejoin:round;stroke-miterlimit:10;stroke-dasharray:none;stroke-opacity:1" d="m 3306.26,2560.85 c -7.07,0 -12.76,-5.45 -12.76,-12.22 0,-6.76 5.69,-12.21 12.76,-12.21 7.07,0 12.76,5.45 12.76,12.21 0,6.77 -5.69,12.22 -12.76,12.22 z"/></g><g transform="scale(0.12)" id="g1652"><path id="path1654" style="fill:none;stroke:#000000;stroke-width:8.24265957;stroke-linecap:butt;stroke-linejoin:round;stroke-miterlimit:10;stroke-dasharray:none;stroke-opacity:1" d="m 3149.1,2791.64 c -7.07,0 -12.76,-5.44 -12.76,-12.21 0,-6.77 5.69,-12.22 12.76,-12.22 7.07,0 12.76,5.45 12.76,12.22 0,6.77 -5.69,12.21 -12.76,12.21 z"/></g><g transform="scale(0.12)" id="g1656"><path id="path1658" style="fill:none;stroke:#000000;stroke-width:8.24265957;stroke-linecap:butt;stroke-linejoin:round;stroke-miterlimit:10;stroke-dasharray:none;stroke-opacity:1" d="m 3368.9,2736.69 c -7.07,0 -12.76,-5.44 -12.76,-12.21 0,-6.77 5.69,-12.21 12.76,-12.21 7.08,0 12.77,5.44 12.77,12.21 0,6.77 -5.69,12.21 -12.77,12.21 z"/></g><g xmlns="http://www.w3.org/2000/svg" transform="scale(0.12)" id="g1660"><path id="path1662" style="fill:none;stroke:#000000;stroke-width:8.24265957;stroke-linecap:butt;stroke-linejoin:miter;stroke-miterlimit:10;stroke-dasharray:none;stroke-opacity:1" d="m 3399.24,2547.58 h 200.47"/></g><path xmlns="http://www.w3.org/2000/svg" id="path1664" style="fill:#000000;fill-opacity:1;fill-rule:evenodd;stroke:none" d="m 426.792,308.1036 6.4836,-2.3844 -6.4836,-2.3844 c 1.0356,1.4076 1.0296,3.3336 0,4.7688"/><g transform="scale(0.12)" id="g1690"><path id="path1692" style="fill:none;stroke:#000000;stroke-width:8.24265957;stroke-linecap:butt;stroke-linejoin:round;stroke-miterlimit:10;stroke-dasharray:none;stroke-opacity:1" d="m 1442.62,2684.25 c 6.52,0 11.77,-5.02 11.77,-11.27 0,-6.24 -5.25,-11.26 -11.77,-11.26 -6.52,0 -11.77,5.02 -11.77,11.26 0,6.25 5.25,11.27 11.77,11.27 z"/></g><path id="path1694" style="fill:#000000;fill-opacity:1;fill-rule:evenodd;stroke:none" d="m 167.0328,294.1236 c 0.7824,0 1.4124,-0.6036 1.4124,-1.3512 0,-0.75 -0.63,-1.3524 -1.4124,-1.3524 -0.7836,0 -1.4136,0.6024 -1.4136,1.3524 0,0.7476 0.63,1.3512 1.4136,1.3512"/><g transform="scale(0.12)" id="g1696"><path id="path1698" style="fill:none;stroke:#000000;stroke-width:9.89118958;stroke-linecap:butt;stroke-linejoin:round;stroke-miterlimit:10;stroke-dasharray:none;stroke-opacity:1" d="m 1391.94,2451.03 c 6.52,0 11.77,-5.03 11.77,-11.26 0,-6.25 -5.25,-11.27 -11.77,-11.27 -6.53,0 -11.78,5.02 -11.78,11.27 0,6.23 5.25,11.26 11.78,11.26 z"/></g><path id="path1700" style="fill:#000000;fill-opacity:1;fill-rule:evenodd;stroke:none" d="m 183.1776,314.5956 c 0.7824,0 1.4124,-0.6036 1.4124,-1.3524 0,-0.7488 -0.63,-1.3524 -1.4124,-1.3524 -0.7824,0 -1.4136,0.6036 -1.4136,1.3524 0,0.7488 0.6312,1.3524 1.4136,1.3524"/></g></g></g></svg>