<?xml version="1.0" encoding="UTF-8" standalone="no"?>
<svg version="1.2" baseProfile="tiny" id="Ebene_1" xmlns="http://www.w3.org/2000/svg" xmlns:xlink="http://www.w3.org/1999/xlink"
	xml:space="preserve" width="890" height="704"><g class="x axis" transform="translate(12,21)" fill="none" font-size="10" font-family="sans-serif" text-anchor="middle"><path class="domain" stroke="#000" d="M0.5,-6V0.5H866.5V-6"></path><g class="tick" opacity="1" transform="translate(0.5,0)"><line stroke="#000" y2="-6"></line><text fill="#000" y="-9" dy="0em">0.0</text></g><g class="tick" opacity="1" transform="translate(79.22727272727273,0)"><line stroke="#000" y2="-6"></line><text fill="#000" y="-9" dy="0em">0.2</text></g><g class="tick" opacity="1" transform="translate(157.95454545454547,0)"><line stroke="#000" y2="-6"></line><text fill="#000" y="-9" dy="0em">0.4</text></g><g class="tick" opacity="1" transform="translate(236.68181818181816,0)"><line stroke="#000" y2="-6"></line><text fill="#000" y="-9" dy="0em">0.6</text></g><g class="tick" opacity="1" transform="translate(315.40909090909093,0)"><line stroke="#000" y2="-6"></line><text fill="#000" y="-9" dy="0em">0.8</text></g><g class="tick" opacity="1" transform="translate(394.1363636363636,0)"><line stroke="#000" y2="-6"></line><text fill="#000" y="-9" dy="0em">1.0</text></g><g class="tick" opacity="1" transform="translate(472.8636363636363,0)"><line stroke="#000" y2="-6"></line><text fill="#000" y="-9" dy="0em">1.2</text></g><g class="tick" opacity="1" transform="translate(551.590909090909,0)"><line stroke="#000" y2="-6"></line><text fill="#000" y="-9" dy="0em">1.4</text></g><g class="tick" opacity="1" transform="translate(630.3181818181819,0)"><line stroke="#000" y2="-6"></line><text fill="#000" y="-9" dy="0em">1.6</text></g><g class="tick" opacity="1" transform="translate(709.0454545454545,0)"><line stroke="#000" y2="-6"></line><text fill="#000" y="-9" dy="0em">1.8</text></g><g class="tick" opacity="1" transform="translate(787.7727272727273,0)"><line stroke="#000" y2="-6"></line><text fill="#000" y="-9" dy="0em">2.0</text></g><g class="tick" opacity="1" transform="translate(866.5,0)"><line stroke="#000" y2="-6"></line><text fill="#000" y="-9" dy="0em">2.2</text></g></g><g transform="translate(12,24)" fill="#ff7f0e"><g class="bar" transform="translate(0,562)"><rect height="4" width="15.361779819835363" x="502.2787420316176"><title>[1.276, 1.31502)</title></rect></g><g class="bar" transform="translate(0,650)"><rect height="4" width="3.6558884924107815" x="483.6925501173193"><title>[1.22878, 1.23807)</title></rect></g><g class="bar" transform="translate(0,530)"><rect height="4" width="20.123130083084106" x="480.85175080732864"><title>[1.22156, 1.27268)</title></rect></g><g class="bar" transform="translate(0,346)"><rect height="4" width="47.7046781236474" x="470.0580367175016"><title>[1.19414, 1.31533)</title></rect></g><g class="bar" transform="translate(0,506)"><rect height="4" width="21.43173066052526" x="453.08841488578094"><title>[1.15103, 1.20548)</title></rect></g><g class="bar" transform="translate(0,634)"><rect height="4" width="5.528998158194781" x="440.9479031779549"><title>[1.12019, 1.13424)</title></rect></g><g class="bar" transform="translate(0,386)"><rect height="4" width="41.252240701155245" x="423.2589193907651"><title>[1.07525, 1.18005)</title></rect></g><g class="bar" transform="translate(0,234)"><rect height="4" width="66.65327267213297" x="422.37226941368795"><title>[1.073, 1.24233)</title></rect></g><g class="bar" transform="translate(0,274)"><rect height="4" width="57.70826719023967" x="419.89467046477574"><title>[1.06671, 1.21331)</title></rect></g><g class="bar" transform="translate(0,426)"><rect height="4" width="34.38728462566036" x="416.21400551362467"><title>[1.05736, 1.14471)</title></rect></g><g class="bar" transform="translate(0,466)"><rect height="4" width="23.15852782943034" x="414.3811575932936"><title>[1.0527, 1.11153)</title></rect></g><g class="bar" transform="translate(0,442)"><rect height="4" width="27.759628837758896" x="411.5902866016734"><title>[1.04561, 1.11613)</title></rect></g><g class="bar" transform="translate(0,586)"><rect height="4" width="12.699249007485093" x="409.5516251433979"><title>[1.04043, 1.07269)</title></rect></g><g class="bar" transform="translate(0,266)"><rect height="4" width="58.00215916200108" x="398.0171043222601"><title>[1.01113, 1.15848)</title></rect></g><g class="bar" transform="translate(0,658)"><rect height="4" width="2.1354445002295392" x="392.0053640820763"><title>[0.995857, 1.00128)</title></rect></g><g class="bar" transform="translate(0,618)"><rect height="4" width="6.513181979005992" x="389.4131270863793"><title>[0.989271, 1.00582)</title></rect></g><g class="bar" transform="translate(0,554)"><rect height="4" width="15.63957647843796" x="386.781778010455"><title>[0.982587, 1.02232)</title></rect></g><g class="bar" transform="translate(0,306)"><rect height="4" width="52.76801494034851" x="383.7869000976736"><title>[0.974978, 1.10903)</title></rect></g><g class="bar" transform="translate(0,250)"><rect height="4" width="65.27942272749812" x="383.43665106730026"><title>[0.974088, 1.13993)</title></rect></g><g class="bar" transform="translate(0,258)"><rect height="4" width="63.60539284619415" x="382.9122864116322"><title>[0.972756, 1.13434)</title></rect></g><g class="bar" transform="translate(0,90)"><rect height="4" width="121.62958334792745" x="382.6064519990574"><title>[0.971979, 1.28097)</title></rect></g><g class="bar" transform="translate(0,418)"><rect height="4" width="37.58016304536301" x="379.6315172585574"><title>[0.964422, 1.05989)</title></rect></g><g class="bar" transform="translate(0,626)"><rect height="4" width="6.3522523099725845" x="379.50559372251683"><title>[0.964102, 0.980239)</title></rect></g><g class="bar" transform="translate(0,330)"><rect height="4" width="50.07601515813309" x="378.92897795547134"><title>[0.962637, 1.08985)</title></rect></g><g class="bar" transform="translate(0,202)"><rect height="4" width="78.78538478504527" x="375.413794409145"><title>[0.953707, 1.15385)</title></rect></g><g class="bar" transform="translate(0,226)"><rect height="4" width="67.54764183001083" x="371.51922133835876"><title>[0.943813, 1.11541)</title></rect></g><g class="bar" transform="translate(0,474)"><rect height="4" width="22.91883436116308" x="370.6385073878548"><title>[0.941576, 0.999799)</title></rect></g><g class="bar" transform="translate(0,490)"><rect height="4" width="22.241048054261682" x="370.1308715343475"><title>[0.940286, 0.996788)</title></rect></g><g class="bar" transform="translate(0,498)"><rect height="4" width="22.23872526125473" x="367.44454969059336"><title>[0.933462, 0.989958)</title></rect></g><g class="bar" transform="translate(0,434)"><rect height="4" width="33.90064775943756" x="361.53505926782435"><title>[0.918449, 1.00457)</title></rect></g><g class="bar" transform="translate(0,106)"><rect height="4" width="119.16824395006353" x="361.12824201583857"><title>[0.917416, 1.22015)</title></rect></g><g class="bar" transform="translate(0,666)"><rect height="4" width="1.8623403527519713" x="360.3451322967356"><title>[0.915426, 0.920158)</title></rect></g><g class="bar" transform="translate(0,610)"><rect height="4" width="6.94623036818075" x="357.84510314464563"><title>[0.909075, 0.926722)</title></rect></g><g class="bar" transform="translate(0,394)"><rect height="4" width="41.01214836944234" x="355.68617262623525"><title>[0.903591, 1.00778)</title></rect></g><g class="bar" transform="translate(0,410)"><rect height="4" width="37.59177701039749" x="355.51778186451304"><title>[0.903163, 0.998662)</title></rect></g><g class="bar" transform="translate(0,370)"><rect height="4" width="45.22912041707468" x="352.5293326919729"><title>[0.895571, 1.01047)</title></rect></g><g class="bar" transform="translate(0,242)"><rect height="4" width="66.18566393852234" x="351.4398489215157"><title>[0.892803, 1.06094)</title></rect></g><g class="bar" transform="translate(0,154)"><rect height="4" width="107.9818605292927" x="350.257617668672"><title>[0.8898, 1.16412)</title></rect></g><g class="bar" transform="translate(0,458)"><rect height="4" width="25.614799315279242" x="350.1218163967132"><title>[0.889455, 0.954527)</title></rect></g><g class="bar" transform="translate(0,170)"><rect height="4" width="97.6147426258434" x="349.0966434912248"><title>[0.886851, 1.13483)</title></rect></g><g class="bar" transform="translate(0,50)"><rect height="4" width="174.82313865965057" x="348.93754390153015"><title>[0.886446, 1.33057)</title></rect></g><g class="bar" transform="translate(0,74)"><rect height="4" width="135.98458490588445" x="346.5763192285191"><title>[0.880448, 1.22591)</title></rect></g><g class="bar" transform="translate(0,210)"><rect height="4" width="73.74234307896012" x="345.2413702011108"><title>[0.877057, 1.06439)</title></rect></g><g class="bar" transform="translate(0,402)"><rect height="4" width="38.66366386413574" x="343.30986223437566"><title>[0.87215, 0.970372)</title></rect></g><g class="bar" transform="translate(0,522)"><rect height="4" width="20.427838292988895" x="340.3397607803344"><title>[0.864604, 0.9165)</title></rect></g><g class="bar" transform="translate(0,378)"><rect height="4" width="43.40101193297994" x="339.21081299131566"><title>[0.861736, 0.971993)</title></rect></g><g class="bar" transform="translate(0,146)"><rect height="4" width="109.81337108395309" x="338.77440945668656"><title>[0.860628, 1.1396)</title></rect></g><g class="bar" transform="translate(0,162)"><rect height="4" width="98.68264084512543" x="338.59792411327356"><title>[0.860179, 1.11087)</title></rect></g><g class="bar" transform="translate(0,130)"><rect height="4" width="113.83041869510299" x="338.30893581563777"><title>[0.859445, 1.14862)</title></rect></g><g class="bar" transform="translate(0,218)"><rect height="4" width="71.88211435621429" x="335.14081039211965"><title>[0.851397, 1.03401)</title></rect></g><g class="bar" transform="translate(0,602)"><rect height="4" width="7.626175230199635" x="335.074552135034"><title>[0.851229, 0.870602)</title></rect></g><g class="bar" transform="translate(0,674)"><rect height="4" width="1.4422198317267316" x="334.2626773227345"><title>[0.849166, 0.85283)</title></rect></g><g class="bar" transform="translate(0,98)"><rect height="4" width="121.46084064787078" x="332.09274286573583"><title>[0.843654, 1.15221)</title></rect></g><g class="bar" transform="translate(0,642)"><rect height="4" width="5.324310822920381" x="327.7344558455727"><title>[0.832582, 0.846108)</title></rect></g><g class="bar" transform="translate(0,546)"><rect height="4" width="18.009200746362808" x="326.8322736566717"><title>[0.83029, 0.876041)</title></rect></g><g class="bar" transform="translate(0,186)"><rect height="4" width="83.78971327434886" x="326.7518440159884"><title>[0.830086, 1.04295)</title></rect></g><g class="bar" transform="translate(0,338)"><rect height="4" width="49.474317919124246" x="324.95993825522334"><title>[0.825533, 0.951219)</title></rect></g><g class="bar" transform="translate(0,66)"><rect height="4" width="162.24566031586033" x="324.027723995122"><title>[0.823165, 1.23534)</title></rect></g><g class="bar" transform="translate(0,298)"><rect height="4" width="52.880330194126486" x="321.69106461785054"><title>[0.817229, 0.951567)</title></rect></g><g class="bar" transform="translate(0,114)"><rect height="4" width="118.77097595821726" x="320.57893948121506"><title>[0.814404, 1.11613)</title></rect></g><g class="bar" transform="translate(0,322)"><rect height="4" width="50.26606185869741" x="318.571858622811"><title>[0.809305, 0.937002)</title></rect></g><g class="bar" transform="translate(0,58)"><rect height="4" width="170.85761482065368" x="318.1644078818234"><title>[0.80827, 1.24232)</title></rect></g><g class="bar" transform="translate(0,282)"><rect height="4" width="53.25361945412379" x="317.93151855468744"><title>[0.807678, 0.942965)</title></rect></g><g class="bar" transform="translate(0,354)"><rect height="4" width="46.30978226661682" x="317.8407419269735"><title>[0.807448, 0.925094)</title></rect></g><g class="bar" transform="translate(0,178)"><rect height="4" width="86.62793170322072" x="316.62033709612757"><title>[0.804347, 1.02442)</title></rect></g><g class="bar" transform="translate(0,514)"><rect height="4" width="21.217306364666342" x="313.1636691635305"><title>[0.795566, 0.849467)</title></rect></g><g class="bar" transform="translate(0,42)"><rect height="4" width="179.65433695099563" x="312.12284673344004"><title>[0.792922, 1.24932)</title></rect></g><g class="bar" transform="translate(0,122)"><rect height="4" width="117.22488739273763" x="311.13338383761317"><title>[0.790408, 1.08821)</title></rect></g><g class="bar" transform="translate(0,18)"><rect height="4" width="207.3639436201616" x="310.27657823129135"><title>[0.788231, 1.31502)</title></rect></g><g class="bar" transform="translate(0,194)"><rect height="4" width="82.72219045595688" x="309.7506885095076"><title>[0.786896, 0.997044)</title></rect></g><g class="bar" transform="translate(0,578)"><rect height="4" width="12.809006842699944" x="309.2647555199536"><title>[0.785661, 0.818201)</title></rect></g><g class="bar" transform="translate(0,450)"><rect height="4" width="27.562918771396994" x="307.4716531688517"><title>[0.781106, 0.851127)</title></rect></g><g class="bar" transform="translate(0,82)"><rect height="4" width="131.30110686475575" x="301.13702123815364"><title>[0.765013, 1.09857)</title></rect></g><g class="bar" transform="translate(0,594)"><rect height="4" width="9.122922041199445" x="296.11328921534795"><title>[0.752251, 0.775427)</title></rect></g><g class="bar" transform="translate(0,570)"><rect height="4" width="13.823950073935748" x="296.1009479110891"><title>[0.752219, 0.787338)</title></rect></g><g class="bar" transform="translate(0,10)"><rect height="4" width="223.4592098539526" x="294.38013369386846"><title>[0.747848, 1.31553)</title></rect></g><g class="bar" transform="translate(0,138)"><rect height="4" width="113.10859317129308" x="293.2166020978581"><title>[0.744892, 1.03223)</title></rect></g><g class="bar" transform="translate(0,34)"><rect height="4" width="183.23570836674082" x="293.0458181554621"><title>[0.744458, 1.20995)</title></rect></g><g class="bar" transform="translate(0,290)"><rect height="4" width="53.09003851630473" x="292.987349466844"><title>[0.74431, 0.87918)</title></rect></g><g class="bar" transform="translate(0,26)"><rect height="4" width="192.83083780245346" x="287.3549049008976"><title>[0.730001, 1.21987)</title></rect></g><g class="bar" transform="translate(0,2)"><rect height="4" width="544.4925486499612" x="281.1242824792862"><title>[0.714173, 2.09741)</title></rect></g><g class="bar" transform="translate(0,482)"><rect height="4" width="22.7823292125355" x="278.91035573049027"><title>[0.708548, 0.766425)</title></rect></g><g class="bar" transform="translate(0,362)"><rect height="4" width="46.27226564017212" x="266.26760455695063"><title>[0.67643, 0.793981)</title></rect></g><g class="bar" transform="translate(0,538)"><rect height="4" width="18.862041180784075" x="236.36063570326021"><title>[0.600454, 0.648372)</title></rect></g><g class="bar" transform="translate(0,314)"><rect height="4" width="52.53826959566635" x="227.94790175828064"><title>[0.579082, 0.712551)</title></rect></g></g></svg>