<?xml version="1.0" encoding="utf-8"?>
<!-- Generator: Adobe Illustrator 16.0.4, SVG Export Plug-In . SVG Version: 6.00 Build 0)  -->
<svg version="1.2" baseProfile="tiny" id="Ebene_1" xmlns="http://www.w3.org/2000/svg" xmlns:xlink="http://www.w3.org/1999/xlink"
	 x="0px" y="0px" viewBox="0 0 262.85995 155.39127" height="155.39127" width="262.85995" xml:space="preserve">
<defs id="defs6"/><g transform="matrix(1.3333333,0,0,-1.3333333,0,155.39126)" id="g10"><g id="g12"><g transform="matrix(1,0,0,-1,0,116.54344)" id="g14"><path id="path16" style="fill:none;stroke:#000000;stroke-width:0.54514301;stroke-linecap:butt;stroke-linejoin:miter;stroke-miterlimit:4;stroke-dasharray:none;stroke-opacity:1" d="M 31.57,39.652 51.453,28.516 M 16.582,11.031 31.57,39.652 0.227,85.406"/></g><g transform="matrix(1,0,0,-1,0,116.54344)" id="g18"><path id="path20" style="fill:none;stroke:#000000;stroke-width:0.54514301;stroke-linecap:butt;stroke-linejoin:miter;stroke-miterlimit:4;stroke-dasharray:none;stroke-opacity:1" d="M 104.309,39.652 124.188,28.516 M 89.316,11.031 104.309,39.652 72.961,85.406"/></g><path id="path22" style="fill:#a1b9e6;fill-opacity:0.82745301;fill-rule:nonzero;stroke:none" d="m 104.309,65.989 19.879,11.136 V 98.93 L 104.309,87.793 Z"/><g transform="matrix(1,0,0,-1,0,116.54344)" id="g24"><path id="path26" style="fill:none;stroke:#555d5d;stroke-width:0.54514301;stroke-linecap:butt;stroke-linejoin:bevel;stroke-miterlimit:4;stroke-dasharray:none;stroke-opacity:0.98823499" d="M 104.309,50.555 124.188,39.418 V 17.613 L 104.309,28.75 Z"/></g><path id="path28" style="fill:#a1b9e6;fill-opacity:0.82745301;fill-rule:nonzero;stroke:none" d="M 104.309,65.989 89.316,94.61 v 21.805 l 14.993,-28.622 z"/><g transform="matrix(1,0,0,-1,0,116.54344)" id="g30"><path id="path32" style="fill:none;stroke:#555d5d;stroke-width:0.54514301;stroke-linecap:butt;stroke-linejoin:bevel;stroke-miterlimit:4;stroke-dasharray:none;stroke-opacity:0.98823499" d="M 104.309,50.555 89.316,21.934 V 0.129 l 14.993,28.621 z"/></g><g transform="matrix(1,0,0,-1,0,116.54344)" id="g34"><path id="path36" style="fill:none;stroke:#000000;stroke-width:0.54514301;stroke-linecap:butt;stroke-linejoin:miter;stroke-miterlimit:4;stroke-dasharray:none;stroke-opacity:1" d="m 89.316,11.031 11.762,22.453"/></g><g transform="matrix(1,0,0,-1,0,116.54344)" id="g38"><path id="path40" style="fill:none;stroke:#000000;stroke-width:0.54514301;stroke-linecap:butt;stroke-linejoin:miter;stroke-miterlimit:4;stroke-dasharray:none;stroke-opacity:1" d="m 101.078,33.484 3.231,6.168"/></g><path id="path42" style="fill:#a1b9e6;fill-opacity:0.82745301;fill-rule:nonzero;stroke:none" d="M 104.309,65.989 72.961,20.235 V 42.04 l 31.348,45.753 z"/><g transform="matrix(1,0,0,-1,0,116.54344)" id="g44"><path id="path46" style="fill:none;stroke:#555d5d;stroke-width:0.54514301;stroke-linecap:butt;stroke-linejoin:bevel;stroke-miterlimit:4;stroke-dasharray:none;stroke-opacity:0.98823499" d="M 104.309,50.555 72.961,96.309 V 74.504 L 104.309,28.75 Z"/></g><g transform="matrix(1,0,0,-1,0,116.54344)" id="g48"><path id="path50" style="fill:none;stroke:#000000;stroke-width:0.54514301;stroke-linecap:butt;stroke-linejoin:miter;stroke-miterlimit:4;stroke-dasharray:none;stroke-opacity:1" d="M 124.188,28.516 104.309,39.652 72.961,85.406"/></g><g transform="matrix(1,0,0,-1,0,116.54344)" id="g52"><path id="path54" style="fill:none;stroke:#000000;stroke-width:0.54514301;stroke-linecap:butt;stroke-linejoin:miter;stroke-miterlimit:4;stroke-dasharray:none;stroke-opacity:1" d="m 145.695,95.801 c 16.157,-21.481 17.551,-45.824 31.543,-67.363 9.231,-1.313 16.297,-4.45 19.664,-10.708"/></g><g transform="matrix(1,0,0,-1,0,116.54344)" id="g56"><path id="path58" style="fill:none;stroke:#000000;stroke-width:0.54514301;stroke-linecap:butt;stroke-linejoin:miter;stroke-miterlimit:4;stroke-dasharray:none;stroke-opacity:1" d="M 177.434,28.242 C 165.816,22.465 165.914,10.488 162.441,0.402"/></g></g></g></svg>