<?xml version="1.0" encoding="utf-8"?>
<!-- Generator: Adobe Illustrator 16.0.4, SVG Export Plug-In . SVG Version: 6.00 Build 0)  -->
<!DOCTYPE svg PUBLIC "-//W3C//DTD SVG 1.1//EN" "http://www.w3.org/Graphics/SVG/1.1/DTD/svg11.dtd">
<svg version="1.1" id="Ebene_1" xmlns="http://www.w3.org/2000/svg" xmlns:xlink="http://www.w3.org/1999/xlink" x="0px" y="0px"
	 width="343.776px" height="356.058px" viewBox="0 0 343.776 356.058" enable-background="new 0 0 343.776 356.058"
	 xml:space="preserve">
<g>
	<path opacity="0.2" fill-rule="evenodd" clip-rule="evenodd" fill="#3F3D99" d="M336.899,104.006v-9.445V104.006z"/>
	
		<path opacity="0.2" fill="none" stroke="#3F3D99" stroke-width="0.1" stroke-linecap="square" stroke-linejoin="bevel" stroke-miterlimit="3.239" d="
		M336.899,104.006v-9.445V104.006z"/>
	<rect x="324.009" y="94.561" opacity="0.2" fill-rule="evenodd" clip-rule="evenodd" fill="#3F3D99" width="1.289" height="7.85"/>
	
		<rect x="324.009" y="94.561" opacity="0.2" fill="none" stroke="#3F3D99" stroke-linecap="square" stroke-linejoin="bevel" stroke-miterlimit="3.239" width="1.289" height="7.85"/>
	
		<rect x="162.864" y="94.561" opacity="0.2" fill-rule="evenodd" clip-rule="evenodd" fill="#3F3D99" width="1.289" height="4.094"/>
	
		<rect x="162.864" y="94.561" opacity="0.2" fill="none" stroke="#3F3D99" stroke-linecap="square" stroke-linejoin="bevel" stroke-miterlimit="3.239" width="1.289" height="4.094"/>
	<rect x="327.876" y="94.561" opacity="0.2" fill-rule="evenodd" clip-rule="evenodd" fill="#3F3D99" width="1.29" height="17.54"/>
	
		<rect x="327.876" y="94.561" opacity="0.2" fill="none" stroke="#3F3D99" stroke-linecap="square" stroke-linejoin="bevel" stroke-miterlimit="3.239" width="1.29" height="17.54"/>
	
		<rect x="330.455" y="94.561" opacity="0.2" fill-rule="evenodd" clip-rule="evenodd" fill="#3F3D99" width="1.289" height="2.666"/>
	
		<rect x="330.455" y="94.561" opacity="0.2" fill="none" stroke="#3F3D99" stroke-linecap="square" stroke-linejoin="bevel" stroke-miterlimit="3.239" width="1.289" height="2.666"/>
	
		<rect x="160.286" y="94.561" opacity="0.2" fill-rule="evenodd" clip-rule="evenodd" fill="#3F3D99" width="1.289" height="5.512"/>
	
		<rect x="160.286" y="94.561" opacity="0.2" fill="none" stroke="#3F3D99" stroke-linecap="square" stroke-linejoin="bevel" stroke-miterlimit="3.239" width="1.289" height="5.512"/>
	
		<rect x="120.322" y="94.561" opacity="0.2" fill-rule="evenodd" clip-rule="evenodd" fill="#3F3D99" width="1.289" height="9.171"/>
	
		<rect x="120.322" y="94.561" opacity="0.2" fill="none" stroke="#3F3D99" stroke-linecap="square" stroke-linejoin="bevel" stroke-miterlimit="3.239" width="1.289" height="9.171"/>
	<rect x="40.394" y="94.561" opacity="0.2" fill-rule="evenodd" clip-rule="evenodd" fill="#3F3D99" width="1.289" height="0.759"/>
	
		<rect x="40.394" y="94.561" opacity="0.2" fill="none" stroke="#3F3D99" stroke-linecap="square" stroke-linejoin="bevel" stroke-miterlimit="3.239" width="1.289" height="0.759"/>
	<polygon opacity="0.2" fill-rule="evenodd" clip-rule="evenodd" fill="#3F3D99" points="335.61,94.561 333.033,94.561 
		333.033,106.397 334.321,106.397 334.321,102.728 335.61,102.728 	"/>
	
		<polygon opacity="0.2" fill="none" stroke="#3F3D99" stroke-linecap="square" stroke-linejoin="bevel" stroke-miterlimit="3.239" points="
		335.61,94.561 333.033,94.561 333.033,106.397 334.321,106.397 334.321,102.728 335.61,102.728 	"/>
	<polygon opacity="0.2" fill-rule="evenodd" clip-rule="evenodd" fill="#3F3D99" points="158.997,94.561 153.84,94.561 
		153.84,107.157 155.129,107.157 155.129,108.78 156.418,108.78 156.418,102.568 157.708,102.568 157.708,98.065 158.997,98.065 	
		"/>
	
		<polygon opacity="0.2" fill="none" stroke="#3F3D99" stroke-linecap="square" stroke-linejoin="bevel" stroke-miterlimit="3.239" points="
		158.997,94.561 153.84,94.561 153.84,107.157 155.129,107.157 155.129,108.78 156.418,108.78 156.418,102.568 157.708,102.568 
		157.708,98.065 158.997,98.065 	"/>
	<polygon opacity="0.2" fill-rule="evenodd" clip-rule="evenodd" fill="#3F3D99" points="201.539,94.561 196.382,94.561 
		196.382,102.745 197.671,102.745 197.671,101.554 198.961,101.554 198.961,98.729 200.25,98.729 200.25,97.335 201.539,97.335 	"/>
	
		<polygon opacity="0.2" fill="none" stroke="#3F3D99" stroke-linecap="square" stroke-linejoin="bevel" stroke-miterlimit="3.239" points="
		201.539,94.561 196.382,94.561 196.382,102.745 197.671,102.745 197.671,101.554 198.961,101.554 198.961,98.729 200.25,98.729 
		200.25,97.335 201.539,97.335 	"/>
	<polygon opacity="0.2" fill-rule="evenodd" clip-rule="evenodd" fill="#3F3D99" points="296.937,94.561 282.756,94.561 
		282.756,98.777 284.045,98.777 284.045,96.62 285.334,96.62 285.334,103.021 286.623,103.021 286.623,97.278 287.912,97.278 
		287.912,109.688 289.202,109.688 289.202,102.91 290.491,102.91 290.491,113.887 291.78,113.887 291.78,98.77 293.069,98.77 
		293.069,117.999 294.358,117.999 294.358,97.444 295.647,97.444 295.647,97.209 296.937,97.209 	"/>
	
		<polygon opacity="0.2" fill="none" stroke="#3F3D99" stroke-linecap="square" stroke-linejoin="bevel" stroke-miterlimit="3.239" points="
		296.937,94.561 282.756,94.561 282.756,98.777 284.045,98.777 284.045,96.62 285.334,96.62 285.334,103.021 286.623,103.021 
		286.623,97.278 287.912,97.278 287.912,109.688 289.202,109.688 289.202,102.91 290.491,102.91 290.491,113.887 291.78,113.887 
		291.78,98.77 293.069,98.77 293.069,117.999 294.358,117.999 294.358,97.444 295.647,97.444 295.647,97.209 296.937,97.209 	"/>
	<polygon opacity="0.2" fill-rule="evenodd" clip-rule="evenodd" fill="#3F3D99" points="269.864,94.561 250.526,94.561 
		250.526,103.955 251.815,103.955 251.815,108.483 253.104,108.483 253.104,115.213 254.394,115.213 254.394,108.139 
		255.685,108.139 255.685,133.585 256.974,133.585 256.974,120.9 258.262,120.9 258.262,130.645 259.551,130.645 259.551,146.211 
		260.84,146.211 260.84,135.911 262.129,135.911 262.129,131.311 263.418,131.311 263.418,136.347 264.708,136.347 264.708,136.081 
		265.997,136.081 265.997,123.278 267.286,123.278 267.286,103.372 268.575,103.372 268.575,126.565 269.864,126.565 	"/>
	
		<polygon opacity="0.2" fill="none" stroke="#3F3D99" stroke-linecap="square" stroke-linejoin="bevel" stroke-miterlimit="3.239" points="
		269.864,94.561 250.526,94.561 250.526,103.955 251.815,103.955 251.815,108.483 253.104,108.483 253.104,115.213 254.394,115.213 
		254.394,108.139 255.685,108.139 255.685,133.585 256.974,133.585 256.974,120.9 258.262,120.9 258.262,130.645 259.551,130.645 
		259.551,146.211 260.84,146.211 260.84,135.911 262.129,135.911 262.129,131.311 263.418,131.311 263.418,136.347 264.708,136.347 
		264.708,136.081 265.997,136.081 265.997,123.278 267.286,123.278 267.286,103.372 268.575,103.372 268.575,126.565 
		269.864,126.565 	"/>
	<polygon opacity="0.2" fill-rule="evenodd" clip-rule="evenodd" fill="#3F3D99" points="152.551,94.561 122.9,94.561 
		122.9,115.771 124.189,115.771 124.189,123.419 125.479,123.419 125.479,132.316 126.768,132.316 126.768,130.472 128.057,130.472 
		128.057,145.431 129.346,145.431 129.346,152.779 130.635,152.779 130.635,150.188 131.924,150.188 131.924,173.847 
		133.214,173.847 133.214,168.818 134.503,168.818 134.503,159.598 135.792,159.598 135.792,165.798 137.081,165.798 
		137.081,151.199 138.37,151.199 138.37,146.682 139.659,146.682 139.659,151.422 140.948,151.422 140.948,131.684 142.238,131.684 
		142.238,136.474 143.527,136.474 143.527,125.589 144.816,125.589 144.816,124.248 146.105,124.248 146.105,108.804 
		147.394,108.804 147.394,101.944 148.683,101.944 148.683,111.927 149.973,111.927 149.973,101.318 151.262,101.318 
		151.262,99.952 152.551,99.952 	"/>
	
		<polygon opacity="0.2" fill="none" stroke="#3F3D99" stroke-linecap="square" stroke-linejoin="bevel" stroke-miterlimit="3.239" points="
		152.551,94.561 122.9,94.561 122.9,115.771 124.189,115.771 124.189,123.419 125.479,123.419 125.479,132.316 126.768,132.316 
		126.768,130.472 128.057,130.472 128.057,145.431 129.346,145.431 129.346,152.779 130.635,152.779 130.635,150.188 
		131.924,150.188 131.924,173.847 133.214,173.847 133.214,168.818 134.503,168.818 134.503,159.598 135.792,159.598 
		135.792,165.798 137.081,165.798 137.081,151.199 138.37,151.199 138.37,146.682 139.659,146.682 139.659,151.422 140.948,151.422 
		140.948,131.684 142.238,131.684 142.238,136.474 143.527,136.474 143.527,125.589 144.816,125.589 144.816,124.248 
		146.105,124.248 146.105,108.804 147.394,108.804 147.394,101.944 148.683,101.944 148.683,111.927 149.973,111.927 
		149.973,101.318 151.262,101.318 151.262,99.952 152.551,99.952 	"/>
	<polygon opacity="0.2" fill-rule="evenodd" clip-rule="evenodd" fill="#3F3D99" points="39.105,94.561 8.165,94.561 8.165,115.36 
		9.454,115.36 9.454,119.275 10.743,119.275 10.743,119.288 12.033,119.288 12.033,143.986 13.322,143.986 13.322,143.226 
		14.611,143.226 14.611,150.714 15.9,150.714 15.9,161.464 17.189,161.464 17.189,163.043 18.478,163.043 18.478,162.537 
		19.768,162.537 19.768,165.532 21.057,165.532 21.057,131.97 22.346,131.97 22.346,148.104 23.635,148.104 23.635,139.224 
		24.924,139.224 24.924,129.405 26.213,129.405 26.213,124.359 27.503,124.359 27.503,133.256 28.792,133.256 28.792,122.948 
		30.081,122.948 30.081,116.477 31.37,116.477 31.37,110.014 32.659,110.014 32.659,95.308 33.948,95.308 33.948,100.509 
		35.237,100.509 35.237,95.385 36.527,95.385 36.527,99.362 37.816,99.362 37.816,96.688 39.105,96.688 	"/>
	
		<polygon opacity="0.2" fill="none" stroke="#3F3D99" stroke-linecap="square" stroke-linejoin="bevel" stroke-miterlimit="3.239" points="
		39.105,94.561 8.165,94.561 8.165,115.36 9.454,115.36 9.454,119.275 10.743,119.275 10.743,119.288 12.033,119.288 
		12.033,143.986 13.322,143.986 13.322,143.226 14.611,143.226 14.611,150.714 15.9,150.714 15.9,161.464 17.189,161.464 
		17.189,163.043 18.478,163.043 18.478,162.537 19.768,162.537 19.768,165.532 21.057,165.532 21.057,131.97 22.346,131.97 
		22.346,148.104 23.635,148.104 23.635,139.224 24.924,139.224 24.924,129.405 26.213,129.405 26.213,124.359 27.503,124.359 
		27.503,133.256 28.792,133.256 28.792,122.948 30.081,122.948 30.081,116.477 31.37,116.477 31.37,110.014 32.659,110.014 
		32.659,95.308 33.948,95.308 33.948,100.509 35.237,100.509 35.237,95.385 36.527,95.385 36.527,99.362 37.816,99.362 
		37.816,96.688 39.105,96.688 	"/>
	<polygon opacity="0.2" fill-rule="evenodd" clip-rule="evenodd" fill="#3F3D99" points="88.093,94.561 53.286,94.561 
		53.286,97.074 54.575,97.074 54.575,107.232 55.864,107.232 55.864,96.095 57.153,96.095 57.153,124.426 58.442,124.426 
		58.442,131.02 59.731,131.02 59.731,143.36 61.021,143.36 61.021,160.934 62.31,160.934 62.31,159.113 63.599,159.113 
		63.599,169.584 64.888,169.584 64.888,178.245 66.177,178.245 66.177,166.45 67.466,166.45 67.466,200.444 68.756,200.444 
		68.756,184.555 70.045,184.555 70.045,176.255 71.334,176.255 71.334,184.416 72.623,184.416 72.623,171.393 73.912,171.393 
		73.912,157.679 75.201,157.679 75.201,151.492 76.491,151.492 76.491,148.493 77.78,148.493 77.78,150.725 79.069,150.725 
		79.069,143.207 80.358,143.207 80.358,114.219 81.647,114.219 81.647,127.85 82.936,127.85 82.936,116.241 84.225,116.241 
		84.225,127.677 85.515,127.677 85.515,111.562 86.804,111.562 86.804,102.605 88.093,102.605 	"/>
	
		<polygon opacity="0.2" fill="none" stroke="#3F3D99" stroke-linecap="square" stroke-linejoin="bevel" stroke-miterlimit="3.239" points="
		88.093,94.561 53.286,94.561 53.286,97.074 54.575,97.074 54.575,107.232 55.864,107.232 55.864,96.095 57.153,96.095 
		57.153,124.426 58.442,124.426 58.442,131.02 59.731,131.02 59.731,143.36 61.021,143.36 61.021,160.934 62.31,160.934 
		62.31,159.113 63.599,159.113 63.599,169.584 64.888,169.584 64.888,178.245 66.177,178.245 66.177,166.45 67.466,166.45 
		67.466,200.444 68.756,200.444 68.756,184.555 70.045,184.555 70.045,176.255 71.334,176.255 71.334,184.416 72.623,184.416 
		72.623,171.393 73.912,171.393 73.912,157.679 75.201,157.679 75.201,151.492 76.491,151.492 76.491,148.493 77.78,148.493 
		77.78,150.725 79.069,150.725 79.069,143.207 80.358,143.207 80.358,114.219 81.647,114.219 81.647,127.85 82.936,127.85 
		82.936,116.241 84.225,116.241 84.225,127.677 85.515,127.677 85.515,111.562 86.804,111.562 86.804,102.605 88.093,102.605 	"/>
	
		<rect x="161.575" y="90.229" opacity="0.2" fill-rule="evenodd" clip-rule="evenodd" fill="#3F3D99" width="1.289" height="4.331"/>
	
		<rect x="161.575" y="90.229" opacity="0.2" fill="none" stroke="#3F3D99" stroke-linecap="square" stroke-linejoin="bevel" stroke-miterlimit="3.239" width="1.289" height="4.331"/>
	
		<rect x="158.997" y="91.832" opacity="0.2" fill-rule="evenodd" clip-rule="evenodd" fill="#3F3D99" width="1.289" height="2.729"/>
	
		<rect x="158.997" y="91.832" opacity="0.2" fill="none" stroke="#3F3D99" stroke-linecap="square" stroke-linejoin="bevel" stroke-miterlimit="3.239" width="1.289" height="2.729"/>
	
		<rect x="152.551" y="91.569" opacity="0.2" fill-rule="evenodd" clip-rule="evenodd" fill="#3F3D99" width="1.289" height="2.991"/>
	
		<rect x="152.551" y="91.569" opacity="0.2" fill="none" stroke="#3F3D99" stroke-linecap="square" stroke-linejoin="bevel" stroke-miterlimit="3.239" width="1.289" height="2.991"/>
	<rect x="39.105" y="89.576" opacity="0.2" fill-rule="evenodd" clip-rule="evenodd" fill="#3F3D99" width="1.289" height="4.984"/>
	
		<rect x="39.105" y="89.576" opacity="0.2" fill="none" stroke="#3F3D99" stroke-linecap="square" stroke-linejoin="bevel" stroke-miterlimit="3.239" width="1.289" height="4.984"/>
	
		<rect x="331.744" y="92.662" opacity="0.2" fill-rule="evenodd" clip-rule="evenodd" fill="#3F3D99" width="1.289" height="1.898"/>
	
		<rect x="331.744" y="92.662" opacity="0.2" fill="none" stroke="#3F3D99" stroke-linecap="square" stroke-linejoin="bevel" stroke-miterlimit="3.239" width="1.289" height="1.898"/>
	
		<rect x="329.166" y="84.636" opacity="0.2" fill-rule="evenodd" clip-rule="evenodd" fill="#3F3D99" width="1.289" height="9.925"/>
	
		<rect x="329.166" y="84.636" opacity="0.2" fill="none" stroke="#3F3D99" stroke-linecap="square" stroke-linejoin="bevel" stroke-miterlimit="3.239" width="1.289" height="9.925"/>
	<rect x="121.611" y="93.26" opacity="0.2" fill-rule="evenodd" clip-rule="evenodd" fill="#3F3D99" width="1.289" height="1.301"/>
	
		<rect x="121.611" y="93.26" opacity="0.2" fill="none" stroke="#3F3D99" stroke-linecap="square" stroke-linejoin="bevel" stroke-miterlimit="3.239" width="1.289" height="1.301"/>
	<rect x="335.61" y="90.508" opacity="0.2" fill-rule="evenodd" clip-rule="evenodd" fill="#3F3D99" width="1.289" height="4.053"/>
	
		<rect x="335.61" y="90.508" opacity="0.2" fill="none" stroke="#3F3D99" stroke-linecap="square" stroke-linejoin="bevel" stroke-miterlimit="3.239" width="1.289" height="4.053"/>
	<polygon opacity="0.2" fill-rule="evenodd" clip-rule="evenodd" fill="#3F3D99" points="325.298,94.561 327.876,94.561 
		327.876,80.542 326.587,80.542 326.587,90.842 325.298,90.842 	"/>
	
		<polygon opacity="0.2" fill="none" stroke="#3F3D99" stroke-linecap="square" stroke-linejoin="bevel" stroke-miterlimit="3.239" points="
		325.298,94.561 327.876,94.561 327.876,80.542 326.587,80.542 326.587,90.842 325.298,90.842 	"/>
	<polygon opacity="0.2" fill-rule="evenodd" clip-rule="evenodd" fill="#3F3D99" points="41.683,94.561 53.286,94.561 
		53.286,67.493 51.997,67.493 51.997,86.886 50.707,86.886 50.707,74.492 49.418,74.492 49.418,66.445 48.129,66.445 48.129,71.325 
		46.84,71.325 46.84,75.459 45.551,75.459 45.551,75.928 44.262,75.928 44.262,85.282 42.972,85.282 42.972,82.478 41.683,82.478 	
		"/>
	
		<polygon opacity="0.2" fill="none" stroke="#3F3D99" stroke-linecap="square" stroke-linejoin="bevel" stroke-miterlimit="3.239" points="
		41.683,94.561 53.286,94.561 53.286,67.493 51.997,67.493 51.997,86.886 50.707,86.886 50.707,74.492 49.418,74.492 49.418,66.445 
		48.129,66.445 48.129,71.325 46.84,71.325 46.84,75.459 45.551,75.459 45.551,75.928 44.262,75.928 44.262,85.282 42.972,85.282 
		42.972,82.478 41.683,82.478 	"/>
	<polygon opacity="0.2" fill-rule="evenodd" clip-rule="evenodd" fill="#3F3D99" points="269.864,94.561 282.756,94.561 
		282.756,88.874 281.467,88.874 281.467,93.751 280.178,93.751 280.178,73.072 278.888,73.072 278.888,83.772 277.599,83.772 
		277.599,88.016 276.31,88.016 276.31,85.227 275.021,85.227 275.021,77.012 273.731,77.012 273.731,84.925 272.442,84.925 
		272.442,87.318 271.153,87.318 271.153,86.041 269.864,86.041 	"/>
	
		<polygon opacity="0.2" fill="none" stroke="#3F3D99" stroke-linecap="square" stroke-linejoin="bevel" stroke-miterlimit="3.239" points="
		269.864,94.561 282.756,94.561 282.756,88.874 281.467,88.874 281.467,93.751 280.178,93.751 280.178,73.072 278.888,73.072 
		278.888,83.772 277.599,83.772 277.599,88.016 276.31,88.016 276.31,85.227 275.021,85.227 275.021,77.012 273.731,77.012 
		273.731,84.925 272.442,84.925 272.442,87.318 271.153,87.318 271.153,86.041 269.864,86.041 	"/>
	<polygon opacity="0.2" fill-rule="evenodd" clip-rule="evenodd" fill="#3F3D99" points="296.937,94.561 324.009,94.561 
		324.009,88.953 322.72,88.953 322.72,88.996 321.431,88.996 321.431,87.728 320.142,87.728 320.142,83.096 318.853,83.096 
		318.853,86.119 317.563,86.119 317.563,70.963 316.274,70.963 316.274,79.738 314.985,79.738 314.985,72.353 313.696,72.353 
		313.696,68.315 312.405,68.315 312.405,46.653 311.117,46.653 311.117,56.249 309.828,56.249 309.828,48.892 308.539,48.892 
		308.539,50.228 307.25,50.228 307.25,45.376 305.961,45.376 305.961,49.732 304.672,49.732 304.672,44.29 303.382,44.29 
		303.382,39.111 302.093,39.111 302.093,73.556 300.804,73.556 300.804,60.063 299.515,60.063 299.515,76.432 298.226,76.432 
		298.226,69.592 296.937,69.592 	"/>
	
		<polygon opacity="0.2" fill="none" stroke="#3F3D99" stroke-linecap="square" stroke-linejoin="bevel" stroke-miterlimit="3.239" points="
		296.937,94.561 324.009,94.561 324.009,88.953 322.72,88.953 322.72,88.996 321.431,88.996 321.431,87.728 320.142,87.728 
		320.142,83.096 318.853,83.096 318.853,86.119 317.563,86.119 317.563,70.963 316.274,70.963 316.274,79.738 314.985,79.738 
		314.985,72.353 313.696,72.353 313.696,68.315 312.405,68.315 312.405,46.653 311.117,46.653 311.117,56.249 309.828,56.249 
		309.828,48.892 308.539,48.892 308.539,50.228 307.25,50.228 307.25,45.376 305.961,45.376 305.961,49.732 304.672,49.732 
		304.672,44.29 303.382,44.29 303.382,39.111 302.093,39.111 302.093,73.556 300.804,73.556 300.804,60.063 299.515,60.063 
		299.515,76.432 298.226,76.432 298.226,69.592 296.937,69.592 	"/>
	<polygon opacity="0.2" fill-rule="evenodd" clip-rule="evenodd" fill="#3F3D99" points="88.093,94.561 120.322,94.561 
		120.322,87.471 119.033,87.471 119.033,76.358 117.744,76.358 117.744,73.881 116.454,73.881 116.454,59.219 115.165,59.219 
		115.165,43.939 113.876,43.939 113.876,53.635 112.587,53.635 112.587,39.717 111.298,39.717 111.298,45.845 110.009,45.845 
		110.009,47.103 108.719,47.103 108.719,38.924 107.43,38.924 107.43,38.204 106.141,38.204 106.141,59.237 104.852,59.237 
		104.852,32.958 103.563,32.958 103.563,46.344 102.274,46.344 102.274,63.076 100.985,63.076 100.985,51.516 99.695,51.516 
		99.695,58.873 98.406,58.873 98.406,55.312 97.117,55.312 97.117,55.288 95.828,55.288 95.828,55.983 94.539,55.983 94.539,69.244 
		93.25,69.244 93.25,68.194 91.96,68.194 91.96,77.331 90.671,77.331 90.671,78.4 89.382,78.4 89.382,88.575 88.093,88.575 	"/>
	
		<polygon opacity="0.2" fill="none" stroke="#3F3D99" stroke-linecap="square" stroke-linejoin="bevel" stroke-miterlimit="3.239" points="
		88.093,94.561 120.322,94.561 120.322,87.471 119.033,87.471 119.033,76.358 117.744,76.358 117.744,73.881 116.454,73.881 
		116.454,59.219 115.165,59.219 115.165,43.939 113.876,43.939 113.876,53.635 112.587,53.635 112.587,39.717 111.298,39.717 
		111.298,45.845 110.009,45.845 110.009,47.103 108.719,47.103 108.719,38.924 107.43,38.924 107.43,38.204 106.141,38.204 
		106.141,59.237 104.852,59.237 104.852,32.958 103.563,32.958 103.563,46.344 102.274,46.344 102.274,63.076 100.985,63.076 
		100.985,51.516 99.695,51.516 99.695,58.873 98.406,58.873 98.406,55.312 97.117,55.312 97.117,55.288 95.828,55.288 
		95.828,55.983 94.539,55.983 94.539,69.244 93.25,69.244 93.25,68.194 91.96,68.194 91.96,77.331 90.671,77.331 90.671,78.4 
		89.382,78.4 89.382,88.575 88.093,88.575 	"/>
	<polygon opacity="0.2" fill-rule="evenodd" clip-rule="evenodd" fill="#3F3D99" points="164.153,94.561 196.382,94.561 
		196.382,93.895 195.093,93.895 195.093,91.633 193.804,91.633 193.804,77.848 192.515,77.848 192.515,93.405 191.226,93.405 
		191.226,87.823 189.937,87.823 189.937,89.843 188.647,89.843 188.647,89.891 187.358,89.891 187.358,77.142 186.069,77.142 
		186.069,93.478 184.78,93.478 184.78,92.943 183.491,92.943 183.491,89.685 182.202,89.685 182.202,81.782 180.912,81.782 
		180.912,84.72 179.623,84.72 179.623,86.828 178.334,86.828 178.334,71.396 177.045,71.396 177.045,76.536 175.756,76.536 
		175.756,71.067 174.467,71.067 174.467,66.158 173.177,66.158 173.177,80.499 171.888,80.499 171.888,78.426 170.599,78.426 
		170.599,73.058 169.31,73.058 169.31,76.393 168.021,76.393 168.021,89.77 166.731,89.77 166.731,71.243 165.442,71.243 
		165.442,80.594 164.153,80.594 	"/>
	
		<polygon opacity="0.2" fill="none" stroke="#3F3D99" stroke-linecap="square" stroke-linejoin="bevel" stroke-miterlimit="3.239" points="
		164.153,94.561 196.382,94.561 196.382,93.895 195.093,93.895 195.093,91.633 193.804,91.633 193.804,77.848 192.515,77.848 
		192.515,93.405 191.226,93.405 191.226,87.823 189.937,87.823 189.937,89.843 188.647,89.843 188.647,89.891 187.358,89.891 
		187.358,77.142 186.069,77.142 186.069,93.478 184.78,93.478 184.78,92.943 183.491,92.943 183.491,89.685 182.202,89.685 
		182.202,81.782 180.912,81.782 180.912,84.72 179.623,84.72 179.623,86.828 178.334,86.828 178.334,71.396 177.045,71.396 
		177.045,76.536 175.756,76.536 175.756,71.067 174.467,71.067 174.467,66.158 173.177,66.158 173.177,80.499 171.888,80.499 
		171.888,78.426 170.599,78.426 170.599,73.058 169.31,73.058 169.31,76.393 168.021,76.393 168.021,89.77 166.731,89.77 
		166.731,71.243 165.442,71.243 165.442,80.594 164.153,80.594 	"/>
	<polygon opacity="0.2" fill-rule="evenodd" clip-rule="evenodd" fill="#3F3D99" points="201.539,94.561 250.526,94.561 
		250.526,90.665 249.237,90.665 249.237,75.229 247.949,75.229 247.949,72.684 246.659,72.684 246.659,70.584 245.37,70.584 
		245.37,55.263 244.081,55.263 244.081,42.592 242.792,42.592 242.792,49.241 241.503,49.241 241.503,48.585 240.214,48.585 
		240.214,32.256 238.924,32.256 238.924,34.831 237.635,34.831 237.635,53.416 236.347,53.416 236.347,47.465 235.058,47.465 
		235.058,35.034 233.769,35.034 233.769,24.689 232.479,24.689 232.479,36.069 231.19,36.069 231.19,47.114 229.899,47.114 
		229.899,23.722 228.61,23.722 228.61,26.738 227.321,26.738 227.321,27.813 226.033,27.813 226.033,6.944 224.744,6.944 
		224.744,19.752 223.455,19.752 223.455,11.739 222.165,11.739 222.165,9.365 220.876,9.365 220.876,21.339 219.587,21.339 
		219.587,0.5 218.298,0.5 218.298,14.258 217.009,14.258 217.009,29.719 215.72,29.719 215.72,34.265 214.431,34.265 
		214.431,35.153 213.142,35.153 213.142,54.197 211.853,54.197 211.853,67.738 210.563,67.738 210.563,69.59 209.274,69.59 
		209.274,74.733 207.985,74.733 207.985,85.126 206.696,85.126 206.696,83.014 205.405,83.014 205.405,90.438 204.117,90.438 
		204.117,77.848 202.828,77.848 202.828,87.066 201.539,87.066 	"/>
	
		<polygon opacity="0.2" fill="none" stroke="#3F3D99" stroke-linecap="square" stroke-linejoin="bevel" stroke-miterlimit="3.239" points="
		201.539,94.561 250.526,94.561 250.526,90.665 249.237,90.665 249.237,75.229 247.949,75.229 247.949,72.684 246.659,72.684 
		246.659,70.584 245.37,70.584 245.37,55.263 244.081,55.263 244.081,42.592 242.792,42.592 242.792,49.241 241.503,49.241 
		241.503,48.585 240.214,48.585 240.214,32.256 238.924,32.256 238.924,34.831 237.635,34.831 237.635,53.416 236.347,53.416 
		236.347,47.465 235.058,47.465 235.058,35.034 233.769,35.034 233.769,24.689 232.479,24.689 232.479,36.069 231.19,36.069 
		231.19,47.114 229.899,47.114 229.899,23.722 228.61,23.722 228.61,26.738 227.321,26.738 227.321,27.813 226.033,27.813 
		226.033,6.944 224.744,6.944 224.744,19.752 223.455,19.752 223.455,11.739 222.165,11.739 222.165,9.365 220.876,9.365 
		220.876,21.339 219.587,21.339 219.587,0.5 218.298,0.5 218.298,14.258 217.009,14.258 217.009,29.719 215.72,29.719 
		215.72,34.265 214.431,34.265 214.431,35.153 213.142,35.153 213.142,54.197 211.853,54.197 211.853,67.738 210.563,67.738 
		210.563,69.59 209.274,69.59 209.274,74.733 207.985,74.733 207.985,85.126 206.696,85.126 206.696,83.014 205.405,83.014 
		205.405,90.438 204.117,90.438 204.117,77.848 202.828,77.848 202.828,87.066 201.539,87.066 	"/>
	<polyline fill="none" stroke="#3F3D99" stroke-linecap="square" stroke-miterlimit="3.25" points="8.165,115.36 9.454,115.36 
		9.454,119.275 10.743,119.275 10.743,119.288 12.033,119.288 12.033,143.986 13.322,143.986 13.322,143.226 14.611,143.226 
		14.611,150.714 15.9,150.714 15.9,161.464 17.189,161.464 17.189,163.043 18.478,163.043 18.478,162.537 19.768,162.537 
		19.768,165.532 21.057,165.532 21.057,131.97 22.346,131.97 22.346,148.104 23.635,148.104 23.635,139.224 24.924,139.224 
		24.924,129.405 26.213,129.405 26.213,124.359 27.503,124.359 27.503,133.256 28.792,133.256 28.792,122.948 30.081,122.948 
		30.081,116.477 31.37,116.477 31.37,110.014 32.659,110.014 32.659,95.308 33.948,95.308 33.948,100.509 35.237,100.509 
		35.237,95.385 36.527,95.385 36.527,99.362 37.816,99.362 37.816,96.688 39.105,96.688 39.105,94.561 39.105,89.576 40.394,89.576 
		40.394,94.561 40.394,95.319 41.683,95.319 41.683,94.561 41.683,82.478 42.972,82.478 42.972,85.282 44.262,85.282 44.262,75.928 
		45.551,75.928 45.551,75.459 46.84,75.459 46.84,71.325 48.129,71.325 48.129,66.445 49.418,66.445 49.418,74.492 50.707,74.492 
		50.707,86.886 51.997,86.886 51.997,67.493 53.286,67.493 53.286,94.561 53.286,97.074 54.575,97.074 54.575,107.232 
		55.864,107.232 55.864,96.095 57.153,96.095 57.153,124.426 58.442,124.426 58.442,131.02 59.731,131.02 59.731,143.36 
		61.021,143.36 61.021,160.934 62.31,160.934 62.31,159.113 63.599,159.113 63.599,169.584 64.888,169.584 64.888,178.245 
		66.177,178.245 66.177,166.45 67.466,166.45 67.466,200.444 68.756,200.444 68.756,184.555 70.045,184.555 70.045,176.255 
		71.334,176.255 71.334,184.416 72.623,184.416 72.623,171.393 73.912,171.393 73.912,157.679 75.201,157.679 75.201,151.492 
		76.491,151.492 76.491,148.493 77.78,148.493 77.78,150.725 79.069,150.725 79.069,143.207 80.358,143.207 80.358,114.219 
		81.647,114.219 81.647,127.85 82.936,127.85 82.936,116.241 84.225,116.241 84.225,127.677 85.515,127.677 85.515,111.562 
		86.804,111.562 86.804,102.605 88.093,102.605 88.093,94.561 88.093,88.575 89.382,88.575 89.382,78.4 90.671,78.4 90.671,77.331 
		91.96,77.331 91.96,68.194 93.25,68.194 93.25,69.244 94.539,69.244 94.539,55.983 95.828,55.983 95.828,55.288 97.117,55.288 
		97.117,55.312 98.406,55.312 98.406,58.873 99.695,58.873 99.695,51.516 100.985,51.516 100.985,63.076 102.274,63.076 
		102.274,46.344 103.563,46.344 103.563,32.958 104.852,32.958 104.852,59.237 106.141,59.237 106.141,38.204 107.43,38.204 
		107.43,38.924 108.719,38.924 108.719,47.103 110.009,47.103 110.009,45.845 111.298,45.845 111.298,39.717 112.587,39.717 
		112.587,53.635 113.876,53.635 113.876,43.939 115.165,43.939 115.165,59.219 116.454,59.219 116.454,73.881 117.744,73.881 
		117.744,76.358 119.033,76.358 119.033,87.471 120.322,87.471 120.322,94.561 120.322,103.731 121.611,103.731 121.611,94.561 
		121.611,93.26 122.9,93.26 122.9,94.561 122.9,115.771 124.189,115.771 124.189,123.419 125.479,123.419 125.479,132.316 
		126.768,132.316 126.768,130.472 128.057,130.472 128.057,145.431 129.346,145.431 129.346,152.779 130.635,152.779 
		130.635,150.188 131.924,150.188 131.924,173.847 133.214,173.847 133.214,168.818 134.503,168.818 134.503,159.598 
		135.792,159.598 135.792,165.798 137.081,165.798 137.081,151.199 138.37,151.199 138.37,146.682 139.659,146.682 139.659,151.422 
		140.948,151.422 140.948,131.684 142.238,131.684 142.238,136.474 143.527,136.474 143.527,125.589 144.816,125.589 
		144.816,124.248 146.105,124.248 146.105,108.804 147.394,108.804 147.394,101.944 148.683,101.944 148.683,111.927 
		149.973,111.927 149.973,101.318 151.262,101.318 151.262,99.952 152.551,99.952 152.551,94.561 152.551,91.569 153.84,91.569 
		153.84,94.561 153.84,107.157 155.129,107.157 155.129,108.78 156.418,108.78 156.418,102.568 157.708,102.568 157.708,98.065 
		158.997,98.065 158.997,94.561 158.997,91.832 160.286,91.832 160.286,94.561 160.286,100.072 161.575,100.072 161.575,94.561 
		161.575,90.229 162.864,90.229 162.864,94.561 162.864,98.654 164.153,98.654 164.153,94.561 164.153,80.594 165.442,80.594 
		165.442,71.243 166.731,71.243 166.731,89.77 168.021,89.77 168.021,76.393 169.31,76.393 169.31,73.058 170.599,73.058 
		170.599,78.426 171.888,78.426 171.888,80.499 173.177,80.499 173.177,66.158 174.467,66.158 174.467,71.067 175.756,71.067 
		175.756,76.536 177.045,76.536 177.045,71.396 178.334,71.396 178.334,86.828 179.623,86.828 179.623,84.72 180.912,84.72 
		180.912,81.782 182.202,81.782 182.202,89.685 183.491,89.685 183.491,92.943 184.78,92.943 184.78,93.478 186.069,93.478 
		186.069,77.142 187.358,77.142 187.358,89.891 188.647,89.891 188.647,89.843 189.937,89.843 189.937,87.823 191.226,87.823 
		191.226,93.405 192.515,93.405 192.515,77.848 193.804,77.848 193.804,91.633 195.093,91.633 195.093,93.895 196.382,93.895 
		196.382,94.561 196.382,102.745 197.671,102.745 197.671,101.554 198.961,101.554 198.961,98.729 200.25,98.729 200.25,97.335 
		201.539,97.335 201.539,94.561 201.539,87.066 202.828,87.066 202.828,77.848 204.117,77.848 204.117,90.438 205.405,90.438 
		205.405,83.014 206.696,83.014 206.696,85.126 207.985,85.126 207.985,74.733 209.274,74.733 209.274,69.59 210.563,69.59 
		210.563,67.738 211.853,67.738 211.853,54.197 213.142,54.197 213.142,35.153 214.431,35.153 214.431,34.265 215.72,34.265 
		215.72,29.719 217.009,29.719 217.009,14.258 218.298,14.258 218.298,0.5 219.587,0.5 219.587,21.339 220.876,21.339 
		220.876,9.365 222.165,9.365 222.165,11.739 223.455,11.739 223.455,19.752 224.744,19.752 224.744,6.944 226.033,6.944 
		226.033,27.813 227.321,27.813 227.321,26.738 228.61,26.738 228.61,23.722 229.899,23.722 229.899,47.114 231.19,47.114 
		231.19,36.069 232.479,36.069 232.479,24.689 233.769,24.689 233.769,35.034 235.058,35.034 235.058,47.465 236.347,47.465 
		236.347,53.416 237.635,53.416 237.635,34.831 238.924,34.831 238.924,32.256 240.214,32.256 240.214,48.585 241.503,48.585 
		241.503,49.241 242.792,49.241 242.792,42.592 244.081,42.592 244.081,55.263 245.37,55.263 245.37,70.584 246.659,70.584 
		246.659,72.684 247.949,72.684 247.949,75.229 249.237,75.229 249.237,90.665 250.526,90.665 250.526,94.561 250.526,103.955 
		251.815,103.955 251.815,108.483 253.104,108.483 253.104,115.213 254.394,115.213 254.394,108.139 255.685,108.139 
		255.685,133.585 256.974,133.585 256.974,120.9 258.262,120.9 258.262,130.645 259.551,130.645 259.551,146.211 260.84,146.211 
		260.84,135.911 262.129,135.911 262.129,131.311 263.418,131.311 263.418,136.347 264.708,136.347 264.708,136.081 
		265.997,136.081 265.997,123.278 267.286,123.278 267.286,103.372 268.575,103.372 268.575,126.565 269.864,126.565 
		269.864,94.561 269.864,86.041 271.153,86.041 271.153,87.318 272.442,87.318 272.442,84.925 273.731,84.925 273.731,77.012 
		275.021,77.012 275.021,85.227 276.31,85.227 276.31,88.016 277.599,88.016 277.599,83.772 278.888,83.772 278.888,73.072 
		280.178,73.072 280.178,93.751 281.467,93.751 281.467,88.874 282.756,88.874 282.756,94.561 282.756,98.777 284.045,98.777 
		284.045,96.62 285.334,96.62 285.334,103.021 286.623,103.021 286.623,97.278 287.912,97.278 287.912,109.688 289.202,109.688 
		289.202,102.91 290.491,102.91 290.491,113.887 291.78,113.887 291.78,98.77 293.069,98.77 293.069,117.999 294.358,117.999 
		294.358,97.444 295.647,97.444 295.647,97.209 296.937,97.209 296.937,94.561 296.937,69.592 298.226,69.592 298.226,76.432 
		299.515,76.432 299.515,60.063 300.804,60.063 300.804,73.556 302.093,73.556 302.093,39.111 303.382,39.111 303.382,44.29 
		304.672,44.29 304.672,49.732 305.961,49.732 305.961,45.376 307.25,45.376 307.25,50.228 308.539,50.228 308.539,48.892 
		309.828,48.892 309.828,56.249 311.117,56.249 311.117,46.653 312.405,46.653 312.405,68.315 313.696,68.315 313.696,72.353 
		314.985,72.353 314.985,79.738 316.274,79.738 316.274,70.963 317.563,70.963 317.563,86.119 318.853,86.119 318.853,83.096 
		320.142,83.096 320.142,87.728 321.431,87.728 321.431,88.996 322.72,88.996 322.72,88.953 324.009,88.953 324.009,94.561 
		324.009,102.41 325.298,102.41 325.298,94.561 325.298,90.842 326.587,90.842 326.587,80.542 327.876,80.542 327.876,94.561 
		327.876,112.101 329.166,112.101 329.166,94.561 329.166,84.636 330.455,84.636 330.455,94.561 330.455,97.227 331.744,97.227 
		331.744,94.561 331.744,92.662 333.033,92.662 333.033,94.561 333.033,106.397 334.321,106.397 334.321,102.728 335.61,102.728 
		335.61,94.561 335.61,90.508 336.899,90.508 336.899,94.561 336.899,104.006 	"/>
	<line fill="none" stroke="#000000" stroke-width="0.2" stroke-miterlimit="3.25" x1="6.876" y1="94.561" x2="6.876" y2="90.561"/>
	<line fill="none" stroke="#000000" stroke-width="0.2" stroke-miterlimit="3.25" x1="19.768" y1="94.561" x2="19.768" y2="92.16"/>
	<line fill="none" stroke="#000000" stroke-width="0.2" stroke-miterlimit="3.25" x1="32.659" y1="94.561" x2="32.659" y2="92.16"/>
	<line fill="none" stroke="#000000" stroke-width="0.2" stroke-miterlimit="3.25" x1="45.551" y1="94.561" x2="45.551" y2="92.16"/>
	<line fill="none" stroke="#000000" stroke-width="0.2" stroke-miterlimit="3.25" x1="58.442" y1="94.561" x2="58.442" y2="92.16"/>
	
		<line fill="none" stroke="#000000" stroke-width="0.2" stroke-miterlimit="3.25" x1="71.334" y1="94.561" x2="71.334" y2="90.561"/>
	<line fill="none" stroke="#000000" stroke-width="0.2" stroke-miterlimit="3.25" x1="84.225" y1="94.561" x2="84.225" y2="92.16"/>
	<line fill="none" stroke="#000000" stroke-width="0.2" stroke-miterlimit="3.25" x1="97.117" y1="94.561" x2="97.117" y2="92.16"/>
	
		<line fill="none" stroke="#000000" stroke-width="0.2" stroke-miterlimit="3.25" x1="110.009" y1="94.561" x2="110.009" y2="92.16"/>
	<line fill="none" stroke="#000000" stroke-width="0.2" stroke-miterlimit="3.25" x1="122.9" y1="94.561" x2="122.9" y2="92.16"/>
	
		<line fill="none" stroke="#000000" stroke-width="0.2" stroke-miterlimit="3.25" x1="135.792" y1="94.561" x2="135.792" y2="90.561"/>
	
		<line fill="none" stroke="#000000" stroke-width="0.2" stroke-miterlimit="3.25" x1="148.683" y1="94.561" x2="148.683" y2="92.16"/>
	
		<line fill="none" stroke="#000000" stroke-width="0.2" stroke-miterlimit="3.25" x1="161.575" y1="94.561" x2="161.575" y2="92.16"/>
	
		<line fill="none" stroke="#000000" stroke-width="0.2" stroke-miterlimit="3.25" x1="174.467" y1="94.561" x2="174.467" y2="92.16"/>
	
		<line fill="none" stroke="#000000" stroke-width="0.2" stroke-miterlimit="3.25" x1="187.358" y1="94.561" x2="187.358" y2="92.16"/>
	
		<line fill="none" stroke="#000000" stroke-width="0.2" stroke-miterlimit="3.25" x1="200.25" y1="94.561" x2="200.25" y2="90.561"/>
	
		<line fill="none" stroke="#000000" stroke-width="0.2" stroke-miterlimit="3.25" x1="213.142" y1="94.561" x2="213.142" y2="92.16"/>
	
		<line fill="none" stroke="#000000" stroke-width="0.2" stroke-miterlimit="3.25" x1="226.033" y1="94.561" x2="226.033" y2="92.16"/>
	
		<line fill="none" stroke="#000000" stroke-width="0.2" stroke-miterlimit="3.25" x1="238.924" y1="94.561" x2="238.924" y2="92.16"/>
	
		<line fill="none" stroke="#000000" stroke-width="0.2" stroke-miterlimit="3.25" x1="251.815" y1="94.561" x2="251.815" y2="92.16"/>
	
		<line fill="none" stroke="#000000" stroke-width="0.2" stroke-miterlimit="3.25" x1="264.708" y1="94.561" x2="264.708" y2="90.561"/>
	
		<line fill="none" stroke="#000000" stroke-width="0.2" stroke-miterlimit="3.25" x1="277.599" y1="94.561" x2="277.599" y2="92.16"/>
	
		<line fill="none" stroke="#000000" stroke-width="0.2" stroke-miterlimit="3.25" x1="290.491" y1="94.561" x2="290.491" y2="92.16"/>
	
		<line fill="none" stroke="#000000" stroke-width="0.2" stroke-miterlimit="3.25" x1="303.382" y1="94.561" x2="303.382" y2="92.16"/>
	
		<line fill="none" stroke="#000000" stroke-width="0.2" stroke-miterlimit="3.25" x1="316.274" y1="94.561" x2="316.274" y2="92.16"/>
	
		<line fill="none" stroke="#000000" stroke-width="0.2" stroke-miterlimit="3.25" x1="329.166" y1="94.561" x2="329.166" y2="90.561"/>
	
		<line fill="none" stroke="#000000" stroke-width="0.2" stroke-miterlimit="3.25" x1="342.058" y1="94.561" x2="342.058" y2="92.16"/>
	<line fill="none" stroke="#000000" stroke-width="0.2" stroke-miterlimit="3.25" x1="0" y1="94.561" x2="343.776" y2="94.561"/>
	
		<line display="none" fill="none" stroke="#000000" stroke-width="0.2" stroke-miterlimit="3.25" x1="6.876" y1="208.382" x2="9.276" y2="208.382"/>
	
		<line display="none" fill="none" stroke="#000000" stroke-width="0.2" stroke-miterlimit="3.25" x1="6.876" y1="200.793" x2="9.276" y2="200.793"/>
	
		<line display="none" fill="none" stroke="#000000" stroke-width="0.2" stroke-miterlimit="3.25" x1="6.876" y1="193.205" x2="9.276" y2="193.205"/>
	
		<line display="none" fill="none" stroke="#000000" stroke-width="0.2" stroke-miterlimit="3.25" x1="6.876" y1="185.617" x2="10.876" y2="185.617"/>
	
		<line display="none" fill="none" stroke="#000000" stroke-width="0.2" stroke-miterlimit="3.25" x1="6.876" y1="178.029" x2="9.276" y2="178.029"/>
	
		<line display="none" fill="none" stroke="#000000" stroke-width="0.2" stroke-miterlimit="3.25" x1="6.876" y1="170.441" x2="9.276" y2="170.441"/>
	
		<line display="none" fill="none" stroke="#000000" stroke-width="0.2" stroke-miterlimit="3.25" x1="6.876" y1="162.854" x2="9.276" y2="162.854"/>
	
		<line display="none" fill="none" stroke="#000000" stroke-width="0.2" stroke-miterlimit="3.25" x1="6.876" y1="155.266" x2="10.876" y2="155.266"/>
	
		<line display="none" fill="none" stroke="#000000" stroke-width="0.2" stroke-miterlimit="3.25" x1="6.876" y1="147.678" x2="9.276" y2="147.678"/>
	
		<line display="none" fill="none" stroke="#000000" stroke-width="0.2" stroke-miterlimit="3.25" x1="6.876" y1="140.09" x2="9.276" y2="140.09"/>
	
		<line display="none" fill="none" stroke="#000000" stroke-width="0.2" stroke-miterlimit="3.25" x1="6.876" y1="132.501" x2="9.276" y2="132.501"/>
	
		<line display="none" fill="none" stroke="#000000" stroke-width="0.2" stroke-miterlimit="3.25" x1="6.876" y1="124.913" x2="10.876" y2="124.913"/>
	
		<line display="none" fill="none" stroke="#000000" stroke-width="0.2" stroke-miterlimit="3.25" x1="6.876" y1="117.325" x2="9.276" y2="117.325"/>
	
		<line display="none" fill="none" stroke="#000000" stroke-width="0.2" stroke-miterlimit="3.25" x1="6.876" y1="109.737" x2="9.276" y2="109.737"/>
	
		<line display="none" fill="none" stroke="#000000" stroke-width="0.2" stroke-miterlimit="3.25" x1="6.876" y1="102.148" x2="9.276" y2="102.148"/>
	<line fill="none" stroke="#000000" stroke-width="0.2" stroke-miterlimit="3.25" x1="6.876" y1="94.561" x2="10.876" y2="94.561"/>
	
		<line display="none" fill="none" stroke="#000000" stroke-width="0.2" stroke-miterlimit="3.25" x1="6.876" y1="86.973" x2="9.276" y2="86.973"/>
	
		<line display="none" fill="none" stroke="#000000" stroke-width="0.2" stroke-miterlimit="3.25" x1="6.876" y1="79.385" x2="9.276" y2="79.385"/>
	
		<line display="none" fill="none" stroke="#000000" stroke-width="0.2" stroke-miterlimit="3.25" x1="6.876" y1="71.797" x2="9.276" y2="71.797"/>
	
		<line display="none" fill="none" stroke="#000000" stroke-width="0.2" stroke-miterlimit="3.25" x1="6.876" y1="64.208" x2="10.876" y2="64.208"/>
	
		<line display="none" fill="none" stroke="#000000" stroke-width="0.2" stroke-miterlimit="3.25" x1="6.876" y1="56.62" x2="9.276" y2="56.62"/>
	
		<line display="none" fill="none" stroke="#000000" stroke-width="0.2" stroke-miterlimit="3.25" x1="6.876" y1="49.032" x2="9.276" y2="49.032"/>
	
		<line display="none" fill="none" stroke="#000000" stroke-width="0.2" stroke-miterlimit="3.25" x1="6.876" y1="41.444" x2="9.276" y2="41.444"/>
	
		<line display="none" fill="none" stroke="#000000" stroke-width="0.2" stroke-miterlimit="3.25" x1="6.876" y1="33.856" x2="10.876" y2="33.856"/>
	
		<line display="none" fill="none" stroke="#000000" stroke-width="0.2" stroke-miterlimit="3.25" x1="6.876" y1="26.269" x2="9.276" y2="26.269"/>
	
		<line display="none" fill="none" stroke="#000000" stroke-width="0.2" stroke-miterlimit="3.25" x1="6.876" y1="18.681" x2="9.276" y2="18.681"/>
	
		<line display="none" fill="none" stroke="#000000" stroke-width="0.2" stroke-miterlimit="3.25" x1="6.876" y1="11.093" x2="9.276" y2="11.093"/>
	
		<line display="none" fill="none" stroke="#000000" stroke-width="0.2" stroke-miterlimit="3.25" x1="6.876" y1="3.505" x2="10.876" y2="3.505"/>
	
		<line display="none" fill="none" stroke="#000000" stroke-width="0.2" stroke-miterlimit="3.25" x1="6.876" y1="-4.084" x2="9.276" y2="-4.084"/>
	
		<line display="none" fill="none" stroke="#000000" stroke-width="0.2" stroke-miterlimit="3.25" x1="6.876" y1="208.382" x2="6.876" y2="-4.084"/>
</g>
<g>
	<g>
		<polygon opacity="0.2" fill-rule="evenodd" clip-rule="evenodd" fill="#993D71" points="336.899,254.019 336.899,247.542 
			327.876,247.542 327.876,249.681 329.166,249.681 330.455,249.681 331.744,249.681 333.033,249.681 333.033,254.019 
			334.321,254.019 335.61,254.019 		"/>
		
			<polygon opacity="0.2" fill="none" stroke="#993D71" stroke-linecap="square" stroke-linejoin="bevel" stroke-miterlimit="3.239" points="
			336.899,254.019 336.899,247.542 327.876,247.542 327.876,249.681 329.166,249.681 330.455,249.681 331.744,249.681 
			333.033,249.681 333.033,254.019 334.321,254.019 335.61,254.019 		"/>
	</g>
	<g>
		<polygon opacity="0.2" fill-rule="evenodd" clip-rule="evenodd" fill="#993D71" points="269.864,247.542 250.526,247.542 
			250.526,257.126 251.815,257.126 251.815,261.746 253.104,261.746 253.104,265.001 254.394,265.001 255.685,265.001 
			255.685,280.882 256.974,280.882 258.262,280.882 258.262,284.353 259.551,284.353 259.551,300.234 260.84,300.234 
			260.84,289.726 262.129,289.726 262.129,288.367 263.418,288.367 264.708,288.367 265.997,288.367 265.997,276.837 
			267.286,276.837 267.286,268.363 268.575,268.363 269.864,268.363 		"/>
		
			<polygon opacity="0.2" fill="none" stroke="#993D71" stroke-linecap="square" stroke-linejoin="bevel" stroke-miterlimit="3.239" points="
			269.864,247.542 250.526,247.542 250.526,257.126 251.815,257.126 251.815,261.746 253.104,261.746 253.104,265.001 
			254.394,265.001 255.685,265.001 255.685,280.882 256.974,280.882 258.262,280.882 258.262,284.353 259.551,284.353 
			259.551,300.234 260.84,300.234 260.84,289.726 262.129,289.726 262.129,288.367 263.418,288.367 264.708,288.367 
			265.997,288.367 265.997,276.837 267.286,276.837 267.286,268.363 268.575,268.363 269.864,268.363 		"/>
	</g>
	<g>
		<polygon opacity="0.2" fill-rule="evenodd" clip-rule="evenodd" fill="#993D71" points="39.105,247.542 8.165,247.542 
			8.165,298.427 9.454,298.427 10.743,298.427 12.033,298.427 13.322,298.427 14.611,298.427 15.9,298.427 17.189,298.427 
			18.478,298.427 19.768,298.427 21.057,298.427 21.057,293.933 22.346,293.933 23.635,293.933 23.635,293.105 24.924,293.105 
			24.924,283.087 26.213,283.087 26.213,282.478 27.503,282.478 28.792,282.478 28.792,276.501 30.081,276.501 30.081,269.9 
			31.37,269.9 31.37,263.308 32.659,263.308 32.659,250.958 33.948,250.958 35.237,250.958 35.237,250.412 36.527,250.412 
			37.816,250.412 37.816,249.712 39.105,249.712 		"/>
		
			<polygon opacity="0.2" fill="none" stroke="#993D71" stroke-linecap="square" stroke-linejoin="bevel" stroke-miterlimit="3.239" points="
			39.105,247.542 8.165,247.542 8.165,298.427 9.454,298.427 10.743,298.427 12.033,298.427 13.322,298.427 14.611,298.427 
			15.9,298.427 17.189,298.427 18.478,298.427 19.768,298.427 21.057,298.427 21.057,293.933 22.346,293.933 23.635,293.933 
			23.635,293.105 24.924,293.105 24.924,283.087 26.213,283.087 26.213,282.478 27.503,282.478 28.792,282.478 28.792,276.501 
			30.081,276.501 30.081,269.9 31.37,269.9 31.37,263.308 32.659,263.308 32.659,250.958 33.948,250.958 35.237,250.958 
			35.237,250.412 36.527,250.412 37.816,250.412 37.816,249.712 39.105,249.712 		"/>
	</g>
	<g>
		<polygon opacity="0.2" fill-rule="evenodd" clip-rule="evenodd" fill="#993D71" points="88.093,247.542 53.286,247.542 
			53.286,250.107 54.575,250.107 54.575,254.789 55.864,254.789 57.153,254.789 57.153,278.007 58.442,278.007 58.442,284.736 
			59.731,284.736 59.731,297.324 61.021,297.324 61.021,314.322 62.31,314.322 63.599,314.322 63.599,324.076 64.888,324.076 
			64.888,326.896 66.177,326.896 67.466,326.896 67.466,355.558 68.756,355.558 68.756,339.347 70.045,339.347 70.045,335.042 
			71.334,335.042 72.623,335.042 72.623,325.921 73.912,325.921 73.912,311.931 75.201,311.931 75.201,305.621 76.491,305.621 
			76.491,303.699 77.78,303.699 79.069,303.699 79.069,297.167 80.358,297.167 80.358,275.021 81.647,275.021 82.936,275.021 
			84.225,275.021 85.515,275.021 85.515,264.886 86.804,264.886 86.804,255.75 88.093,255.75 		"/>
		
			<polygon opacity="0.2" fill="none" stroke="#993D71" stroke-linecap="square" stroke-linejoin="bevel" stroke-miterlimit="3.239" points="
			88.093,247.542 53.286,247.542 53.286,250.107 54.575,250.107 54.575,254.789 55.864,254.789 57.153,254.789 57.153,278.007 
			58.442,278.007 58.442,284.736 59.731,284.736 59.731,297.324 61.021,297.324 61.021,314.322 62.31,314.322 63.599,314.322 
			63.599,324.076 64.888,324.076 64.888,326.896 66.177,326.896 67.466,326.896 67.466,355.558 68.756,355.558 68.756,339.347 
			70.045,339.347 70.045,335.042 71.334,335.042 72.623,335.042 72.623,325.921 73.912,325.921 73.912,311.931 75.201,311.931 
			75.201,305.621 76.491,305.621 76.491,303.699 77.78,303.699 79.069,303.699 79.069,297.167 80.358,297.167 80.358,275.021 
			81.647,275.021 82.936,275.021 84.225,275.021 85.515,275.021 85.515,264.886 86.804,264.886 86.804,255.75 88.093,255.75 		"/>
	</g>
	<g>
		<polygon opacity="0.2" fill-rule="evenodd" clip-rule="evenodd" fill="#993D71" points="161.575,247.542 120.322,247.542 
			120.322,251.558 121.611,251.558 122.9,251.558 122.9,269.181 124.189,269.181 124.189,276.982 125.479,276.982 125.479,285.117 
			126.768,285.117 128.057,285.117 128.057,299.437 129.346,299.437 129.346,305.611 130.635,305.611 131.924,305.611 
			131.924,328.423 133.214,328.423 133.214,323.294 134.503,323.294 134.503,317.05 135.792,317.05 137.081,317.05 137.081,305.322 
			138.37,305.322 138.37,303.13 139.659,303.13 140.948,303.13 140.948,287.855 142.238,287.855 143.527,287.855 143.527,279.195 
			144.816,279.195 144.816,277.828 146.105,277.828 146.105,262.072 147.394,262.072 147.394,260.166 148.683,260.166 
			149.973,260.166 149.973,255.021 151.262,255.021 152.551,255.021 153.84,255.021 155.129,255.021 156.418,255.021 
			157.708,255.021 157.708,251.119 158.997,251.119 158.997,248.962 160.286,248.962 161.575,248.962 		"/>
		
			<polygon opacity="0.2" fill="none" stroke="#993D71" stroke-linecap="square" stroke-linejoin="bevel" stroke-miterlimit="3.239" points="
			161.575,247.542 120.322,247.542 120.322,251.558 121.611,251.558 122.9,251.558 122.9,269.181 124.189,269.181 124.189,276.982 
			125.479,276.982 125.479,285.117 126.768,285.117 128.057,285.117 128.057,299.437 129.346,299.437 129.346,305.611 
			130.635,305.611 131.924,305.611 131.924,328.423 133.214,328.423 133.214,323.294 134.503,323.294 134.503,317.05 
			135.792,317.05 137.081,317.05 137.081,305.322 138.37,305.322 138.37,303.13 139.659,303.13 140.948,303.13 140.948,287.855 
			142.238,287.855 143.527,287.855 143.527,279.195 144.816,279.195 144.816,277.828 146.105,277.828 146.105,262.072 
			147.394,262.072 147.394,260.166 148.683,260.166 149.973,260.166 149.973,255.021 151.262,255.021 152.551,255.021 
			153.84,255.021 155.129,255.021 156.418,255.021 157.708,255.021 157.708,251.119 158.997,251.119 158.997,248.962 
			160.286,248.962 161.575,248.962 		"/>
	</g>
	<g>
		<polygon opacity="0.2" fill-rule="evenodd" clip-rule="evenodd" fill="#993D71" points="39.105,247.542 53.286,247.542 
			53.286,229.822 51.997,229.822 50.707,229.822 50.707,227.072 49.418,227.072 49.418,218.863 48.129,218.863 48.129,223.839 
			46.84,223.839 46.84,228.058 45.551,228.058 45.551,228.535 44.262,228.535 44.262,236.648 42.972,236.648 41.683,236.648 
			41.683,245.388 40.394,245.388 39.105,245.388 		"/>
		
			<polygon opacity="0.2" fill="none" stroke="#993D71" stroke-linecap="square" stroke-linejoin="bevel" stroke-miterlimit="3.239" points="
			39.105,247.542 53.286,247.542 53.286,229.822 51.997,229.822 50.707,229.822 50.707,227.072 49.418,227.072 49.418,218.863 
			48.129,218.863 48.129,223.839 46.84,223.839 46.84,228.058 45.551,228.058 45.551,228.535 44.262,228.535 44.262,236.648 
			42.972,236.648 41.683,236.648 41.683,245.388 40.394,245.388 39.105,245.388 		"/>
	</g>
	<g>
		<polygon opacity="0.2" fill-rule="evenodd" clip-rule="evenodd" fill="#993D71" points="88.093,247.542 120.322,247.542 
			120.322,240.31 119.033,240.31 119.033,228.974 117.744,228.974 117.744,226.447 116.454,226.447 116.454,211.489 
			115.165,211.489 115.165,200.849 113.876,200.849 112.587,200.849 112.587,196.19 111.298,196.19 110.009,196.19 108.719,196.19 
			108.719,190.786 107.43,190.786 107.43,190.053 106.141,190.053 106.141,198.105 104.852,198.105 103.563,198.105 
			103.563,198.356 102.274,198.356 102.274,208.896 100.985,208.896 99.695,208.896 98.406,208.896 97.117,208.896 95.828,208.896 
			94.539,208.896 94.539,221.183 93.25,221.183 91.96,221.183 91.96,229.966 90.671,229.966 90.671,231.058 89.382,231.058 
			89.382,241.437 88.093,241.437 		"/>
		
			<polygon opacity="0.2" fill="none" stroke="#993D71" stroke-linecap="square" stroke-linejoin="bevel" stroke-miterlimit="3.239" points="
			88.093,247.542 120.322,247.542 120.322,240.31 119.033,240.31 119.033,228.974 117.744,228.974 117.744,226.447 116.454,226.447 
			116.454,211.489 115.165,211.489 115.165,200.849 113.876,200.849 112.587,200.849 112.587,196.19 111.298,196.19 110.009,196.19 
			108.719,196.19 108.719,190.786 107.43,190.786 107.43,190.053 106.141,190.053 106.141,198.105 104.852,198.105 103.563,198.105 
			103.563,198.356 102.274,198.356 102.274,208.896 100.985,208.896 99.695,208.896 98.406,208.896 97.117,208.896 95.828,208.896 
			94.539,208.896 94.539,221.183 93.25,221.183 91.96,221.183 91.96,229.966 90.671,229.966 90.671,231.058 89.382,231.058 
			89.382,241.437 88.093,241.437 		"/>
	</g>
	<g>
		<polygon opacity="0.2" fill-rule="evenodd" clip-rule="evenodd" fill="#993D71" points="269.864,247.542 327.876,247.542 
			327.876,244.181 326.587,244.181 325.298,244.181 324.009,244.181 324.009,241.845 322.72,241.845 321.431,241.845 
			321.431,240.572 320.142,240.572 320.142,237.39 318.853,237.39 317.563,237.39 317.563,227.947 316.274,227.947 314.985,227.947 
			314.985,224.888 313.696,224.888 313.696,220.769 312.405,220.769 312.405,203.566 311.117,203.566 309.828,203.566 
			309.828,201.636 308.539,201.636 307.25,201.636 307.25,199.591 305.961,199.591 304.672,199.591 304.672,196.261 
			303.382,196.261 303.382,190.979 302.093,190.979 302.093,219.234 300.804,219.234 299.515,219.234 299.515,225.56 
			298.226,225.56 296.937,225.56 296.937,247.341 295.647,247.341 294.358,247.341 293.069,247.341 291.78,247.341 290.491,247.341 
			289.202,247.341 287.912,247.341 286.623,247.341 285.334,247.341 284.045,247.341 282.756,247.341 281.467,247.341 
			280.178,247.341 278.888,247.341 277.599,247.341 276.31,247.341 275.021,247.341 273.731,247.341 272.442,247.341 
			271.153,247.341 269.864,247.341 		"/>
		
			<polygon opacity="0.2" fill="none" stroke="#993D71" stroke-linecap="square" stroke-linejoin="bevel" stroke-miterlimit="3.239" points="
			269.864,247.542 327.876,247.542 327.876,244.181 326.587,244.181 325.298,244.181 324.009,244.181 324.009,241.845 
			322.72,241.845 321.431,241.845 321.431,240.572 320.142,240.572 320.142,237.39 318.853,237.39 317.563,237.39 317.563,227.947 
			316.274,227.947 314.985,227.947 314.985,224.888 313.696,224.888 313.696,220.769 312.405,220.769 312.405,203.566 
			311.117,203.566 309.828,203.566 309.828,201.636 308.539,201.636 307.25,201.636 307.25,199.591 305.961,199.591 
			304.672,199.591 304.672,196.261 303.382,196.261 303.382,190.979 302.093,190.979 302.093,219.234 300.804,219.234 
			299.515,219.234 299.515,225.56 298.226,225.56 296.937,225.56 296.937,247.341 295.647,247.341 294.358,247.341 293.069,247.341 
			291.78,247.341 290.491,247.341 289.202,247.341 287.912,247.341 286.623,247.341 285.334,247.341 284.045,247.341 
			282.756,247.341 281.467,247.341 280.178,247.341 278.888,247.341 277.599,247.341 276.31,247.341 275.021,247.341 
			273.731,247.341 272.442,247.341 271.153,247.341 269.864,247.341 		"/>
	</g>
	<g>
		<polygon opacity="0.2" fill-rule="evenodd" clip-rule="evenodd" fill="#993D71" points="161.575,247.542 250.526,247.542 
			250.526,243.57 249.237,243.57 249.237,227.822 247.949,227.822 247.949,225.226 246.659,225.226 246.659,223.085 245.37,223.085 
			245.37,207.453 244.081,207.453 244.081,198.827 242.792,198.827 241.503,198.827 240.214,198.827 240.214,193.916 
			238.924,193.916 237.635,193.916 236.347,193.916 235.058,193.916 235.058,187.525 233.769,187.525 232.479,187.525 
			231.19,187.525 229.899,187.525 229.899,177.695 228.61,177.695 227.321,177.695 226.033,177.695 226.033,165.187 
			224.744,165.187 223.455,165.187 222.165,165.187 220.876,165.187 219.587,165.187 219.587,151.59 218.298,151.59 
			218.298,165.624 217.009,165.624 217.009,181.396 215.72,181.396 215.72,186.033 214.431,186.033 214.431,186.941 
			213.142,186.941 213.142,206.368 211.853,206.368 211.853,220.181 210.563,220.181 210.563,222.07 209.274,222.07 
			209.274,227.316 207.985,227.316 207.985,236.841 206.696,236.841 205.405,236.841 205.405,236.916 204.117,236.916 
			202.828,236.916 202.828,237.908 201.539,237.908 200.25,237.908 198.961,237.908 197.671,237.908 196.382,237.908 
			195.093,237.908 193.804,237.908 192.515,237.908 191.226,237.908 189.937,237.908 188.647,237.908 187.358,237.908 
			186.069,237.908 184.78,237.908 183.491,237.908 182.202,237.908 180.912,237.908 179.623,237.908 178.334,237.908 
			177.045,237.908 175.756,237.908 174.467,237.908 173.177,237.908 171.888,237.908 170.599,237.908 169.31,237.908 
			168.021,237.908 166.731,237.908 165.442,237.908 164.153,237.908 164.153,247.421 162.864,247.421 161.575,247.421 		"/>
		
			<polygon opacity="0.2" fill="none" stroke="#993D71" stroke-linecap="square" stroke-linejoin="bevel" stroke-miterlimit="3.239" points="
			161.575,247.542 250.526,247.542 250.526,243.57 249.237,243.57 249.237,227.822 247.949,227.822 247.949,225.226 
			246.659,225.226 246.659,223.085 245.37,223.085 245.37,207.453 244.081,207.453 244.081,198.827 242.792,198.827 
			241.503,198.827 240.214,198.827 240.214,193.916 238.924,193.916 237.635,193.916 236.347,193.916 235.058,193.916 
			235.058,187.525 233.769,187.525 232.479,187.525 231.19,187.525 229.899,187.525 229.899,177.695 228.61,177.695 
			227.321,177.695 226.033,177.695 226.033,165.187 224.744,165.187 223.455,165.187 222.165,165.187 220.876,165.187 
			219.587,165.187 219.587,151.59 218.298,151.59 218.298,165.624 217.009,165.624 217.009,181.396 215.72,181.396 215.72,186.033 
			214.431,186.033 214.431,186.941 213.142,186.941 213.142,206.368 211.853,206.368 211.853,220.181 210.563,220.181 
			210.563,222.07 209.274,222.07 209.274,227.316 207.985,227.316 207.985,236.841 206.696,236.841 205.405,236.841 
			205.405,236.916 204.117,236.916 202.828,236.916 202.828,237.908 201.539,237.908 200.25,237.908 198.961,237.908 
			197.671,237.908 196.382,237.908 195.093,237.908 193.804,237.908 192.515,237.908 191.226,237.908 189.937,237.908 
			188.647,237.908 187.358,237.908 186.069,237.908 184.78,237.908 183.491,237.908 182.202,237.908 180.912,237.908 
			179.623,237.908 178.334,237.908 177.045,237.908 175.756,237.908 174.467,237.908 173.177,237.908 171.888,237.908 
			170.599,237.908 169.31,237.908 168.021,237.908 166.731,237.908 165.442,237.908 164.153,237.908 164.153,247.421 
			162.864,247.421 161.575,247.421 		"/>
	</g>
	<polyline fill="none" stroke="#993D71" stroke-linecap="square" stroke-miterlimit="3.25" points="8.165,298.427 9.454,298.427 
		10.743,298.427 12.033,298.427 13.322,298.427 14.611,298.427 15.9,298.427 17.189,298.427 18.478,298.427 19.768,298.427 
		21.057,298.427 21.057,293.933 22.346,293.933 23.635,293.933 23.635,293.105 24.924,293.105 24.924,283.087 26.213,283.087 
		26.213,282.478 27.503,282.478 28.792,282.478 28.792,276.501 30.081,276.501 30.081,269.9 31.37,269.9 31.37,263.308 
		32.659,263.308 32.659,250.958 33.948,250.958 35.237,250.958 35.237,250.412 36.527,250.412 37.816,250.412 37.816,249.712 
		39.105,249.712 39.105,247.542 39.105,245.388 40.394,245.388 41.683,245.388 41.683,236.648 42.972,236.648 44.262,236.648 
		44.262,228.535 45.551,228.535 45.551,228.058 46.84,228.058 46.84,223.839 48.129,223.839 48.129,218.863 49.418,218.863 
		49.418,227.072 50.707,227.072 50.707,229.822 51.997,229.822 53.286,229.822 53.286,247.542 53.286,250.107 54.575,250.107 
		54.575,254.789 55.864,254.789 57.153,254.789 57.153,278.007 58.442,278.007 58.442,284.736 59.731,284.736 59.731,297.324 
		61.021,297.324 61.021,314.322 62.31,314.322 63.599,314.322 63.599,324.076 64.888,324.076 64.888,326.896 66.177,326.896 
		67.466,326.896 67.466,355.558 68.756,355.558 68.756,339.347 70.045,339.347 70.045,335.042 71.334,335.042 72.623,335.042 
		72.623,325.921 73.912,325.921 73.912,311.931 75.201,311.931 75.201,305.621 76.491,305.621 76.491,303.699 77.78,303.699 
		79.069,303.699 79.069,297.167 80.358,297.167 80.358,275.021 81.647,275.021 82.936,275.021 84.225,275.021 85.515,275.021 
		85.515,264.886 86.804,264.886 86.804,255.75 88.093,255.75 88.093,247.542 88.093,241.437 89.382,241.437 89.382,231.058 
		90.671,231.058 90.671,229.966 91.96,229.966 91.96,221.183 93.25,221.183 94.539,221.183 94.539,208.896 95.828,208.896 
		97.117,208.896 98.406,208.896 99.695,208.896 100.985,208.896 102.274,208.896 102.274,198.356 103.563,198.356 103.563,198.105 
		104.852,198.105 106.141,198.105 106.141,190.053 107.43,190.053 107.43,190.786 108.719,190.786 108.719,196.19 110.009,196.19 
		111.298,196.19 112.587,196.19 112.587,200.849 113.876,200.849 115.165,200.849 115.165,211.489 116.454,211.489 116.454,226.447 
		117.744,226.447 117.744,228.974 119.033,228.974 119.033,240.31 120.322,240.31 120.322,247.542 120.322,251.558 121.611,251.558 
		122.9,251.558 122.9,269.181 124.189,269.181 124.189,276.982 125.479,276.982 125.479,285.117 126.768,285.117 128.057,285.117 
		128.057,299.437 129.346,299.437 129.346,305.611 130.635,305.611 131.924,305.611 131.924,328.423 133.214,328.423 
		133.214,323.294 134.503,323.294 134.503,317.05 135.792,317.05 137.081,317.05 137.081,305.322 138.37,305.322 138.37,303.13 
		139.659,303.13 140.948,303.13 140.948,287.855 142.238,287.855 143.527,287.855 143.527,279.195 144.816,279.195 144.816,277.828 
		146.105,277.828 146.105,262.072 147.394,262.072 147.394,260.166 148.683,260.166 149.973,260.166 149.973,255.021 
		151.262,255.021 152.551,255.021 153.84,255.021 155.129,255.021 156.418,255.021 157.708,255.021 157.708,251.119 
		158.997,251.119 158.997,248.962 160.286,248.962 161.575,248.962 161.575,247.542 161.575,247.421 162.864,247.421 
		164.153,247.421 164.153,237.908 165.442,237.908 166.731,237.908 168.021,237.908 169.31,237.908 170.599,237.908 
		171.888,237.908 173.177,237.908 174.467,237.908 175.756,237.908 177.045,237.908 178.334,237.908 179.623,237.908 
		180.912,237.908 182.202,237.908 183.491,237.908 184.78,237.908 186.069,237.908 187.358,237.908 188.647,237.908 
		189.937,237.908 191.226,237.908 192.515,237.908 193.804,237.908 195.093,237.908 196.382,237.908 197.671,237.908 
		198.961,237.908 200.25,237.908 201.539,237.908 202.828,237.908 202.828,236.916 204.117,236.916 205.405,236.916 
		205.405,236.841 206.696,236.841 207.985,236.841 207.985,227.316 209.274,227.316 209.274,222.07 210.563,222.07 210.563,220.181 
		211.853,220.181 211.853,206.368 213.142,206.368 213.142,186.941 214.431,186.941 214.431,186.033 215.72,186.033 215.72,181.396 
		217.009,181.396 217.009,165.624 218.298,165.624 218.298,151.59 219.587,151.59 219.587,165.187 220.876,165.187 222.165,165.187 
		223.455,165.187 224.744,165.187 226.033,165.187 226.033,177.695 227.321,177.695 228.61,177.695 229.899,177.695 
		229.899,187.525 231.19,187.525 232.479,187.525 233.769,187.525 235.058,187.525 235.058,193.916 236.347,193.916 
		237.635,193.916 238.924,193.916 240.214,193.916 240.214,198.827 241.503,198.827 242.792,198.827 244.081,198.827 
		244.081,207.453 245.37,207.453 245.37,223.085 246.659,223.085 246.659,225.226 247.949,225.226 247.949,227.822 249.237,227.822 
		249.237,243.57 250.526,243.57 250.526,247.542 250.526,257.126 251.815,257.126 251.815,261.746 253.104,261.746 253.104,265.001 
		254.394,265.001 255.685,265.001 255.685,280.882 256.974,280.882 258.262,280.882 258.262,284.353 259.551,284.353 
		259.551,300.234 260.84,300.234 260.84,289.726 262.129,289.726 262.129,288.367 263.418,288.367 264.708,288.367 265.997,288.367 
		265.997,276.837 267.286,276.837 267.286,268.363 268.575,268.363 269.864,268.363 269.864,247.542 269.864,247.341 
		271.153,247.341 272.442,247.341 273.731,247.341 275.021,247.341 276.31,247.341 277.599,247.341 278.888,247.341 
		280.178,247.341 281.467,247.341 282.756,247.341 284.045,247.341 285.334,247.341 286.623,247.341 287.912,247.341 
		289.202,247.341 290.491,247.341 291.78,247.341 293.069,247.341 294.358,247.341 295.647,247.341 296.937,247.341 296.937,225.56 
		298.226,225.56 299.515,225.56 299.515,219.234 300.804,219.234 302.093,219.234 302.093,190.979 303.382,190.979 303.382,196.261 
		304.672,196.261 304.672,199.591 305.961,199.591 307.25,199.591 307.25,201.636 308.539,201.636 309.828,201.636 309.828,203.566 
		311.117,203.566 312.405,203.566 312.405,220.769 313.696,220.769 313.696,224.888 314.985,224.888 314.985,227.947 
		316.274,227.947 317.563,227.947 317.563,237.39 318.853,237.39 320.142,237.39 320.142,240.572 321.431,240.572 321.431,241.845 
		322.72,241.845 324.009,241.845 324.009,244.181 325.298,244.181 326.587,244.181 327.876,244.181 327.876,247.542 
		327.876,249.681 329.166,249.681 330.455,249.681 331.744,249.681 333.033,249.681 333.033,254.019 334.321,254.019 
		335.61,254.019 336.899,254.019 	"/>
	
		<line fill="none" stroke="#000000" stroke-width="0.2" stroke-miterlimit="3.25" x1="6.876" y1="247.542" x2="6.876" y2="243.542"/>
	
		<line fill="none" stroke="#000000" stroke-width="0.2" stroke-miterlimit="3.25" x1="19.768" y1="247.542" x2="19.768" y2="245.144"/>
	
		<line fill="none" stroke="#000000" stroke-width="0.2" stroke-miterlimit="3.25" x1="32.659" y1="247.542" x2="32.659" y2="245.144"/>
	
		<line fill="none" stroke="#000000" stroke-width="0.2" stroke-miterlimit="3.25" x1="58.442" y1="247.542" x2="58.442" y2="245.144"/>
	
		<line fill="none" stroke="#000000" stroke-width="0.2" stroke-miterlimit="3.25" x1="71.334" y1="247.542" x2="71.334" y2="243.542"/>
	<polyline fill-rule="evenodd" clip-rule="evenodd" fill="none" points="63.876,248.242 63.876,263.242 78.876,263.242 
		78.876,248.242 	"/>
	
		<line fill="none" stroke="#000000" stroke-width="0.2" stroke-miterlimit="3.25" x1="84.225" y1="247.542" x2="84.225" y2="245.144"/>
	
		<line fill="none" stroke="#000000" stroke-width="0.2" stroke-miterlimit="3.25" x1="97.117" y1="247.542" x2="97.117" y2="245.144"/>
	
		<line fill="none" stroke="#000000" stroke-width="0.2" stroke-miterlimit="3.25" x1="110.009" y1="247.542" x2="110.009" y2="245.144"/>
	
		<line fill="none" stroke="#000000" stroke-width="0.2" stroke-miterlimit="3.25" x1="122.9" y1="247.542" x2="122.9" y2="245.144"/>
	
		<line fill="none" stroke="#000000" stroke-width="0.2" stroke-miterlimit="3.25" x1="135.792" y1="247.542" x2="135.792" y2="243.542"/>
	
		<line fill="none" stroke="#000000" stroke-width="0.2" stroke-miterlimit="3.25" x1="148.683" y1="247.542" x2="148.683" y2="245.144"/>
	
		<line fill="none" stroke="#000000" stroke-width="0.2" stroke-miterlimit="3.25" x1="161.575" y1="247.542" x2="161.575" y2="245.144"/>
	
		<line fill="none" stroke="#000000" stroke-width="0.2" stroke-miterlimit="3.25" x1="174.467" y1="247.542" x2="174.467" y2="245.144"/>
	
		<line fill="none" stroke="#000000" stroke-width="0.2" stroke-miterlimit="3.25" x1="187.358" y1="247.542" x2="187.358" y2="245.144"/>
	
		<line fill="none" stroke="#000000" stroke-width="0.2" stroke-miterlimit="3.25" x1="200.25" y1="247.542" x2="200.25" y2="243.542"/>
	<polyline fill-rule="evenodd" clip-rule="evenodd" fill="none" points="189.876,248.242 189.876,263.242 209.876,263.242 
		209.876,248.242 	"/>
	
		<line fill="none" stroke="#000000" stroke-width="0.2" stroke-miterlimit="3.25" x1="213.142" y1="247.542" x2="213.142" y2="245.144"/>
	
		<line fill="none" stroke="#000000" stroke-width="0.2" stroke-miterlimit="3.25" x1="226.033" y1="247.542" x2="226.033" y2="245.144"/>
	
		<line fill="none" stroke="#000000" stroke-width="0.2" stroke-miterlimit="3.25" x1="238.924" y1="247.542" x2="238.924" y2="245.144"/>
	
		<line fill="none" stroke="#000000" stroke-width="0.2" stroke-miterlimit="3.25" x1="251.815" y1="247.542" x2="251.815" y2="245.144"/>
	
		<line fill="none" stroke="#000000" stroke-width="0.2" stroke-miterlimit="3.25" x1="264.708" y1="247.542" x2="264.708" y2="243.542"/>
	<polyline fill-rule="evenodd" clip-rule="evenodd" fill="none" points="254.876,248.242 254.876,263.242 274.876,263.242 
		274.876,248.242 	"/>
	
		<line fill="none" stroke="#000000" stroke-width="0.2" stroke-miterlimit="3.25" x1="277.599" y1="247.542" x2="277.599" y2="245.144"/>
	
		<line fill="none" stroke="#000000" stroke-width="0.2" stroke-miterlimit="3.25" x1="290.491" y1="247.542" x2="290.491" y2="245.144"/>
	
		<line fill="none" stroke="#000000" stroke-width="0.2" stroke-miterlimit="3.25" x1="303.382" y1="247.542" x2="303.382" y2="245.144"/>
	
		<line fill="none" stroke="#000000" stroke-width="0.2" stroke-miterlimit="3.25" x1="316.274" y1="247.542" x2="316.274" y2="245.144"/>
	
		<line fill="none" stroke="#000000" stroke-width="0.2" stroke-miterlimit="3.25" x1="329.166" y1="247.542" x2="329.166" y2="243.542"/>
	<polyline fill-rule="evenodd" clip-rule="evenodd" fill="none" points="318.876,248.242 318.876,263.242 338.876,263.242 
		338.876,248.242 	"/>
	
		<line fill="none" stroke="#000000" stroke-width="0.2" stroke-miterlimit="3.25" x1="342.058" y1="247.542" x2="342.058" y2="245.144"/>
	<line fill="none" stroke="#000000" stroke-width="0.2" stroke-miterlimit="3.25" x1="0" y1="247.542" x2="343.776" y2="247.542"/>
	
		<line display="none" fill="none" stroke="#000000" stroke-width="0.2" stroke-miterlimit="3.25" x1="6.876" y1="355.914" x2="9.276" y2="355.914"/>
	
		<line display="none" fill="none" stroke="#000000" stroke-width="0.2" stroke-miterlimit="3.25" x1="6.876" y1="348.171" x2="9.276" y2="348.171"/>
	
		<line display="none" fill="none" stroke="#000000" stroke-width="0.2" stroke-miterlimit="3.25" x1="6.876" y1="340.431" x2="10.876" y2="340.431"/>
	
		<line display="none" fill="none" stroke="#000000" stroke-width="0.2" stroke-miterlimit="3.25" x1="6.876" y1="332.691" x2="9.276" y2="332.691"/>
	
		<line display="none" fill="none" stroke="#000000" stroke-width="0.2" stroke-miterlimit="3.25" x1="6.876" y1="324.951" x2="9.276" y2="324.951"/>
	
		<line display="none" fill="none" stroke="#000000" stroke-width="0.2" stroke-miterlimit="3.25" x1="6.876" y1="317.208" x2="9.276" y2="317.208"/>
	
		<line display="none" fill="none" stroke="#000000" stroke-width="0.2" stroke-miterlimit="3.25" x1="6.876" y1="309.468" x2="10.876" y2="309.468"/>
	
		<line display="none" fill="none" stroke="#000000" stroke-width="0.2" stroke-miterlimit="3.25" x1="6.876" y1="301.728" x2="9.276" y2="301.728"/>
	
		<line display="none" fill="none" stroke="#000000" stroke-width="0.2" stroke-miterlimit="3.25" x1="6.876" y1="293.988" x2="9.276" y2="293.988"/>
	
		<line display="none" fill="none" stroke="#000000" stroke-width="0.2" stroke-miterlimit="3.25" x1="6.876" y1="286.246" x2="9.276" y2="286.246"/>
	
		<line display="none" fill="none" stroke="#000000" stroke-width="0.2" stroke-miterlimit="3.25" x1="6.876" y1="278.505" x2="10.876" y2="278.505"/>
	
		<line display="none" fill="none" stroke="#000000" stroke-width="0.2" stroke-miterlimit="3.25" x1="6.876" y1="270.765" x2="9.276" y2="270.765"/>
	
		<line display="none" fill="none" stroke="#000000" stroke-width="0.2" stroke-miterlimit="3.25" x1="6.876" y1="263.025" x2="9.276" y2="263.025"/>
	
		<line display="none" fill="none" stroke="#000000" stroke-width="0.2" stroke-miterlimit="3.25" x1="6.876" y1="255.285" x2="9.276" y2="255.285"/>
	
		<line fill="none" stroke="#000000" stroke-width="0.2" stroke-miterlimit="3.25" x1="6.876" y1="247.542" x2="10.876" y2="247.542"/>
	
		<line display="none" fill="none" stroke="#000000" stroke-width="0.2" stroke-miterlimit="3.25" x1="6.876" y1="239.802" x2="9.276" y2="239.802"/>
	
		<line display="none" fill="none" stroke="#000000" stroke-width="0.2" stroke-miterlimit="3.25" x1="6.876" y1="232.062" x2="9.276" y2="232.062"/>
	
		<line display="none" fill="none" stroke="#000000" stroke-width="0.2" stroke-miterlimit="3.25" x1="6.876" y1="224.322" x2="9.276" y2="224.322"/>
	
		<line display="none" fill="none" stroke="#000000" stroke-width="0.2" stroke-miterlimit="3.25" x1="6.876" y1="216.58" x2="10.876" y2="216.58"/>
	
		<line display="none" fill="none" stroke="#000000" stroke-width="0.2" stroke-miterlimit="3.25" x1="6.876" y1="208.839" x2="9.276" y2="208.839"/>
	
		<line display="none" fill="none" stroke="#000000" stroke-width="0.2" stroke-miterlimit="3.25" x1="6.876" y1="201.1" x2="9.276" y2="201.1"/>
	
		<line display="none" fill="none" stroke="#000000" stroke-width="0.2" stroke-miterlimit="3.25" x1="6.876" y1="193.358" x2="9.276" y2="193.358"/>
	
		<line display="none" fill="none" stroke="#000000" stroke-width="0.2" stroke-miterlimit="3.25" x1="6.876" y1="185.617" x2="10.876" y2="185.617"/>
	
		<line display="none" fill="none" stroke="#000000" stroke-width="0.2" stroke-miterlimit="3.25" x1="6.876" y1="177.877" x2="9.276" y2="177.877"/>
	
		<line display="none" fill="none" stroke="#000000" stroke-width="0.2" stroke-miterlimit="3.25" x1="6.876" y1="170.136" x2="9.276" y2="170.136"/>
	
		<line display="none" fill="none" stroke="#000000" stroke-width="0.2" stroke-miterlimit="3.25" x1="6.876" y1="162.396" x2="9.276" y2="162.396"/>
	
		<line display="none" fill="none" stroke="#000000" stroke-width="0.2" stroke-miterlimit="3.25" x1="6.876" y1="154.655" x2="10.876" y2="154.655"/>
	
		<line display="none" fill="none" stroke="#000000" stroke-width="0.2" stroke-miterlimit="3.25" x1="6.876" y1="359.806" x2="6.876" y2="147.341"/>
</g>
<g>
</g>
<g>
</g>
<g>
</g>
<g>
</g>
<g>
</g>
<g>
</g>
<g>
</g>
<g>
</g>
<g>
</g>
<g>
</g>
<g>
</g>
<g>
</g>
<g>
</g>
<g>
</g>
<g>
</g>
</svg>
